<?xml version="1.0" encoding="utf-8"?>
<!-- Generator: Adobe Illustrator 27.8.0, SVG Export Plug-In . SVG Version: 6.00 Build 0)  -->
<svg version="1.1" id="Layer_1" xmlns="http://www.w3.org/2000/svg" xmlns:xlink="http://www.w3.org/1999/xlink" x="0px" y="0px"
	 viewBox="0 0 500 500" style="enable-background:new 0 0 500 500;" xml:space="preserve">
<style type="text/css">
	.st0{fill:#594058;}
	.st1{fill:#0688A6;}
</style>
<path id="XMLID_81_" class="st0" d="M72.2,224c1,1.5,2.7,2.3,4.5,2.3c0.2,0,0.4,0,0.6,0l69.9-7.3c2.8-0.3,4.9-2.7,4.9-5.4v-25.6
	c0-2.8-2.1-5.2-4.9-5.4L77.3,175c-2-0.2-3.9,0.7-5.1,2.3l-14.3,20.2c0,0,0,0,0,0.1c0,0.1-0.1,0.1-0.1,0.3c-0.1,0.2-0.2,0.4-0.3,0.6
	c0,0.1-0.1,0.2-0.1,0.3c-0.1,0.2-0.1,0.4-0.2,0.6c0,0.1,0,0.2-0.1,0.3c-0.1,0.3-0.1,0.7-0.1,1v94.4H41.4c-3,0-5.5,2.4-5.5,5.5v18.9
	c0,3,2.4,5.5,5.5,5.5h44.2c3,0,5.5-2.4,5.5-5.5v-18.9c0-3-2.4-5.5-5.5-5.5H67.8v-77.2L72.2,224z M136.1,192.2l5,0.5v15.7l-5,0.5
	V192.2z M120.8,190.6l8.8,0.9v18.1l-8.8,0.9V190.6z M105.4,189l8.8,0.9v21.4l-8.8,0.9V189z M90,187.4l8.8,0.9V213l-8.8,0.9V187.4z
	 M79.3,186.3l4.2,0.4v27.9l-4.2,0.4l-10.2-14.4L79.3,186.3z M80.1,306v7.9H46.9V306H80.1z"/>
<g id="XMLID_3_">
	<path id="XMLID_195_" class="st0" d="M283.7,250c0-18.6-15.1-33.7-33.7-33.7s-33.7,15.1-33.7,33.7s15.1,33.7,33.7,33.7
		S283.7,268.6,283.7,250z M225.1,250c0-13.7,11.2-24.9,24.9-24.9c13.7,0,24.9,11.2,24.9,24.9c0,13.7-11.2,24.9-24.9,24.9
		C236.3,274.9,225.1,263.7,225.1,250z"/>
	<path id="XMLID_188_" class="st1" d="M254.4,198v-18.6c0-2.4-2-4.4-4.4-4.4c-2.4,0-4.4,2-4.4,4.4v18.7c0,2.4,2,4.4,4.4,4.4
		C252.4,202.4,254.4,200.5,254.4,198z"/>
	<path id="XMLID_191_" class="st1" d="M213.3,217.7c1.1,0,2.3-0.4,3.1-1.3c1.7-1.7,1.7-4.5,0-6.2L203.2,197c-1.7-1.7-4.5-1.7-6.2,0
		s-1.7,4.5,0,6.2l13.2,13.2C211,217.2,212.1,217.7,213.3,217.7z"/>
	<path id="XMLID_192_" class="st1" d="M198,254.4c2.4,0,4.4-2,4.4-4.4c0-2.4-2-4.4-4.4-4.4h-18.6c-2.4,0-4.4,2-4.4,4.4
		c0,2.4,2,4.4,4.4,4.4H198z"/>
	<path id="XMLID_196_" class="st1" d="M203.2,303l13.2-13.2c1.7-1.7,1.7-4.5,0-6.2s-4.5-1.7-6.2,0L197,296.8c-1.7,1.7-1.7,4.5,0,6.2
		c0.9,0.9,2,1.3,3.1,1.3C201.2,304.3,202.3,303.9,203.2,303z"/>
	<path id="XMLID_197_" class="st1" d="M254.4,320.6v-18.7c0-2.4-2-4.4-4.4-4.4c-2.4,0-4.4,2-4.4,4.4v18.7c0,2.4,2,4.4,4.4,4.4
		C252.4,325,254.4,323,254.4,320.6z"/>
	<path id="XMLID_198_" class="st1" d="M299.9,304.3c1.1,0,2.3-0.4,3.1-1.3c1.7-1.7,1.7-4.5,0-6.2l-13.2-13.2c-1.7-1.7-4.5-1.7-6.2,0
		s-1.7,4.5,0,6.2l13.2,13.2C297.7,303.9,298.8,304.3,299.9,304.3z"/>
	<path id="XMLID_199_" class="st1" d="M320.6,254.4c2.4,0,4.4-2,4.4-4.4c0-2.4-2-4.4-4.4-4.4h-18.7c-2.4,0-4.4,2-4.4,4.4
		c0,2.4,2,4.4,4.4,4.4H320.6z"/>
	<path id="XMLID_226_" class="st1" d="M289.9,216.4l13.2-13.2c1.7-1.7,1.7-4.5,0-6.2s-4.5-1.7-6.2,0l-13.2,13.2
		c-1.7,1.7-1.7,4.5,0,6.2c0.9,0.9,2,1.3,3.1,1.3S289,217.2,289.9,216.4z"/>
</g>
<g id="XMLID_6_">
	<path id="XMLID_15_" class="st1" d="M364.5,291.7c2.1,0,4-1.4,4.6-3.5l0.9-3.2c0.7-2.5-0.8-5.1-3.3-5.8c-2.6-0.7-5.1,0.8-5.8,3.3
		l-0.9,3.2c-0.7,2.5,0.8,5.1,3.3,5.8C363.6,291.6,364.1,291.7,364.5,291.7z"/>
	<path id="XMLID_31_" class="st1" d="M381.5,291.7c2.1,0,4-1.4,4.6-3.5l0.9-3.2c0.7-2.5-0.8-5.1-3.3-5.8c-2.6-0.7-5.1,0.8-5.8,3.3
		l-0.9,3.2c-0.7,2.5,0.8,5.1,3.3,5.8C380.7,291.6,381.1,291.7,381.5,291.7z"/>
	<path id="XMLID_35_" class="st1" d="M398.5,291.7c2.1,0,4-1.4,4.6-3.5l0.9-3.2c0.7-2.5-0.8-5.1-3.3-5.8c-2.5-0.7-5.1,0.8-5.8,3.3
		l-0.9,3.2c-0.7,2.5,0.8,5.1,3.3,5.8C397.7,291.6,398.1,291.7,398.5,291.7z"/>
	<path id="XMLID_36_" class="st1" d="M415.6,291.7c2.1,0,4-1.4,4.6-3.5l0.9-3.2c0.7-2.5-0.8-5.1-3.3-5.8c-2.5-0.7-5.1,0.8-5.8,3.3
		l-0.9,3.2c-0.7,2.5,0.8,5.1,3.3,5.8C414.8,291.6,415.2,291.7,415.6,291.7z"/>
	<path id="XMLID_37_" class="st1" d="M432.6,291.7c2.1,0,4-1.4,4.6-3.5l0.9-3.2c0.7-2.5-0.8-5.1-3.3-5.8c-2.5-0.7-5.1,0.8-5.8,3.3
		l-0.9,3.2c-0.7,2.5,0.8,5.1,3.3,5.8C431.8,291.6,432.2,291.7,432.6,291.7z"/>
	<path id="XMLID_38_" class="st1" d="M449.6,291.7c2.1,0,4-1.4,4.6-3.5l0.9-3.2c0.7-2.5-0.8-5.1-3.3-5.8c-2.6-0.7-5.1,0.8-5.8,3.3
		l-0.9,3.2c-0.7,2.5,0.8,5.1,3.3,5.8C448.8,291.6,449.2,291.7,449.6,291.7z"/>
	<path id="XMLID_40_" class="st1" d="M466.7,291.7c2.1,0,4-1.4,4.6-3.5l0.9-3.2c0.7-2.5-0.8-5.1-3.3-5.8c-2.6-0.7-5.1,0.8-5.8,3.3
		l-0.9,3.2c-0.7,2.5,0.8,5.1,3.3,5.8C465.8,291.6,466.2,291.7,466.7,291.7z"/>
	<path id="XMLID_44_" class="st1" d="M364.5,313.4c2.1,0,4-1.4,4.6-3.5l0.9-3.2c0.7-2.5-0.8-5.1-3.3-5.8c-2.6-0.7-5.1,0.8-5.8,3.3
		l-0.9,3.2c-0.7,2.5,0.8,5.1,3.3,5.8C363.6,313.3,364.1,313.4,364.5,313.4z"/>
	<path id="XMLID_105_" class="st1" d="M381.5,313.4c2.1,0,4-1.4,4.6-3.5l0.9-3.2c0.7-2.5-0.8-5.1-3.3-5.8c-2.6-0.7-5.1,0.8-5.8,3.3
		l-0.9,3.2c-0.7,2.5,0.8,5.1,3.3,5.8C380.7,313.3,381.1,313.4,381.5,313.4z"/>
	<path id="XMLID_106_" class="st1" d="M398.5,313.4c2.1,0,4-1.4,4.6-3.5l0.9-3.2c0.7-2.5-0.8-5.1-3.3-5.8c-2.5-0.7-5.1,0.8-5.8,3.3
		l-0.9,3.2c-0.7,2.5,0.8,5.1,3.3,5.8C397.7,313.3,398.1,313.4,398.5,313.4z"/>
	<path id="XMLID_108_" class="st1" d="M415.6,313.4c2.1,0,4-1.4,4.6-3.5l0.9-3.2c0.7-2.5-0.8-5.1-3.3-5.8c-2.5-0.7-5.1,0.8-5.8,3.3
		l-0.9,3.2c-0.7,2.5,0.8,5.1,3.3,5.8C414.8,313.3,415.2,313.4,415.6,313.4z"/>
	<path id="XMLID_110_" class="st1" d="M432.6,313.4c2.1,0,4-1.4,4.6-3.5l0.9-3.2c0.7-2.5-0.8-5.1-3.3-5.8c-2.5-0.7-5.1,0.8-5.8,3.3
		l-0.9,3.2c-0.7,2.5,0.8,5.1,3.3,5.8C431.8,313.3,432.2,313.4,432.6,313.4z"/>
	<path id="XMLID_111_" class="st1" d="M449.6,313.4c2.1,0,4-1.4,4.6-3.5l0.9-3.2c0.7-2.5-0.8-5.1-3.3-5.8c-2.6-0.7-5.1,0.8-5.8,3.3
		l-0.9,3.2c-0.7,2.5,0.8,5.1,3.3,5.8C448.8,313.3,449.2,313.4,449.6,313.4z"/>
	<path id="XMLID_112_" class="st1" d="M466.7,313.4c2.1,0,4-1.4,4.6-3.5l0.9-3.2c0.7-2.5-0.8-5.1-3.3-5.8c-2.6-0.7-5.1,0.8-5.8,3.3
		l-0.9,3.2c-0.7,2.5,0.8,5.1,3.3,5.8C465.8,313.3,466.2,313.4,466.7,313.4z"/>
	<path id="XMLID_113_" class="st1" d="M364.5,335c2.1,0,4-1.4,4.6-3.5l0.9-3.2c0.7-2.5-0.8-5.1-3.3-5.8c-2.6-0.7-5.1,0.8-5.8,3.3
		l-0.9,3.2c-0.7,2.5,0.8,5.1,3.3,5.8C363.6,335,364.1,335,364.5,335z"/>
	<path id="XMLID_114_" class="st1" d="M381.5,335c2.1,0,4-1.4,4.6-3.5l0.9-3.2c0.7-2.5-0.8-5.1-3.3-5.8c-2.6-0.7-5.1,0.8-5.8,3.3
		l-0.9,3.2c-0.7,2.5,0.8,5.1,3.3,5.8C380.7,335,381.1,335,381.5,335z"/>
	<path id="XMLID_115_" class="st1" d="M398.5,335c2.1,0,4-1.4,4.6-3.5l0.9-3.2c0.7-2.5-0.8-5.1-3.3-5.8c-2.5-0.7-5.1,0.8-5.8,3.3
		L394,329c-0.7,2.5,0.8,5.1,3.3,5.8C397.7,335,398.1,335,398.5,335z"/>
	<path id="XMLID_126_" class="st1" d="M415.6,335c2.1,0,4-1.4,4.6-3.5l0.9-3.2c0.7-2.5-0.8-5.1-3.3-5.8c-2.5-0.7-5.1,0.8-5.8,3.3
		L411,329c-0.7,2.5,0.8,5.1,3.3,5.8C414.8,335,415.2,335,415.6,335z"/>
	<path id="XMLID_127_" class="st1" d="M432.6,335c2.1,0,4-1.4,4.6-3.5l0.9-3.2c0.7-2.5-0.8-5.1-3.3-5.8c-2.5-0.7-5.1,0.8-5.8,3.3
		L428,329c-0.7,2.5,0.8,5.1,3.3,5.8C431.8,335,432.2,335,432.6,335z"/>
	<path id="XMLID_154_" class="st1" d="M449.6,335c2.1,0,4-1.4,4.6-3.5l0.9-3.2c0.7-2.5-0.8-5.1-3.3-5.8c-2.6-0.7-5.1,0.8-5.8,3.3
		l-0.9,3.2c-0.7,2.5,0.8,5.1,3.3,5.8C448.8,335,449.2,335,449.6,335z"/>
	<path id="XMLID_157_" class="st1" d="M466.7,335c2.1,0,4-1.4,4.6-3.5l0.9-3.2c0.7-2.5-0.8-5.1-3.3-5.8c-2.6-0.7-5.1,0.8-5.8,3.3
		l-0.9,3.2c-0.7,2.5,0.8,5.1,3.3,5.8C465.8,335,466.2,335,466.7,335z"/>
	<path id="XMLID_201_" class="st0" d="M363.6,272.1h95c17.2,0,31.2-14,31.2-31.2s-14-31.2-31.2-31.2c-3.1,0-6.2,0.4-9.1,1.4
		c-6.7-15.6-22.3-26.1-39.6-26.1c-22.5,0-41,17.3-42.9,39.4c-0.3,0-0.6,0-0.9,0c-13.2,0-23.9,10.7-23.9,23.9
		c0,11.5,8.3,21.4,19.5,23.4C362.3,272,362.9,272.1,363.6,272.1z M351.7,248.2c0-7.9,6.4-14.4,14.4-14.4c1.4,0,2.8,0.2,4.1,0.6
		c1.5,0.4,3.1,0.2,4.3-0.8c1.2-0.9,1.9-2.4,1.8-4c0-0.5,0-1,0-1.6c0-18.5,15.1-33.6,33.6-33.6c14.8,0,28.1,10,32.2,24.2
		c0.4,1.4,1.4,2.5,2.7,3c1.3,0.6,2.8,0.5,4.1-0.1c3.1-1.5,6.3-2.3,9.8-2.3c12,0,21.7,9.7,21.7,21.7c0,12-9.7,21.7-21.7,21.7h-93.7
		c-0.2-0.1-0.4-0.1-0.7-0.1C357.1,261.6,351.7,255.4,351.7,248.2z"/>
</g>
</svg>
