<?xml version="1.0" encoding="utf-8"?>
<!-- Generator: Adobe Illustrator 27.8.0, SVG Export Plug-In . SVG Version: 6.00 Build 0)  -->
<svg version="1.1" id="Layer_1" xmlns="http://www.w3.org/2000/svg" xmlns:xlink="http://www.w3.org/1999/xlink" x="0px" y="0px"
	 viewBox="0 0 500 500" style="enable-background:new 0 0 500 500;" xml:space="preserve">
<style type="text/css">
	.st0{fill:#C5C7C4;}
	.st1{fill:#867C7C;}
	.st2{fill:#E1E2DD;}
	.st3{fill:#857C7C;}
	.st4{fill:#91BCC1;}
	.st5{fill:#466C70;}
	.st6{fill:#ADC7CD;}
	.st7{fill:#E2F0F1;}
	.st8{fill:#F6C8C6;}
	.st9{fill:#F58A89;}
</style>
<g>
	<g>
		<g>
			<path class="st0" d="M41.9,193.2c0,0-7.5-30.2-35.8-33.8c-3.5,10.4,0.2,39.8,23.8,53.7C39.3,199.1,41.9,193.2,41.9,193.2z"/>
			<path class="st1" d="M28.6,202.5l5.8-6.7c0,0-7.6-16.4-17.7-18.4C17.4,191.7,28.6,202.5,28.6,202.5z"/>
		</g>
	</g>
	<g>
		<g>
			<path class="st0" d="M118.1,193.2c0,0,7.5-30.2,35.8-33.8c3.5,10.4-0.2,39.8-23.8,53.7C120.7,199.1,118.1,193.2,118.1,193.2z"/>
			<path class="st1" d="M131.4,202.5l-5.8-6.7c0,0,7.6-16.4,17.7-18.4C142.6,191.7,131.4,202.5,131.4,202.5z"/>
		</g>
	</g>
	<path class="st2" d="M80,339.8c21,0,69.5-1.2,69.5-72.4s-38.9-88.5-69.5-88.5c-29.6,0-69.5,16.3-69.5,88.5
		C10.6,338.6,59.1,339.8,80,339.8z"/>
	<g>
		<path d="M116.7,243.8c0,2-1.6,3.7-3.7,3.7l0,0c-2,0-3.7-1.6-3.7-3.7v-3.2c0-2,1.6-3.7,3.7-3.7l0,0c2,0,3.7,1.6,3.7,3.7V243.8z"/>
		<path d="M50.6,243.8c0,2-1.6,3.7-3.7,3.7l0,0c-2,0-3.7-1.6-3.7-3.7v-3.2c0-2,1.6-3.7,3.7-3.7l0,0c2,0,3.7,1.6,3.7,3.7V243.8z"/>
	</g>
	<path class="st3" d="M80,269.5c-41.5,0-65.3,31.2-62.9,36.9c13.9,33.5,46.7,34.2,63,34.2c16.2,0,48.9-0.7,62.9-33.9
		C145.3,300.9,121.5,269.5,80,269.5z"/>
	<path d="M79.2,318.6c-17.2-0.4-24.5-10.6-25.3-11.8c0,0,0,0,0,0c-0.3-0.4-0.9-0.5-1.3-0.3c-0.4,0.3-0.5,0.9-0.3,1.3
		c0.9,1.3,8.9,12.5,27.5,12.6c0,0,0,0,0.1,0c0,0,0.1,0,0.1,0c0,0,0.1,0,0.1,0c0,0,0,0,0.1,0c18.6-0.1,26.6-11.4,27.5-12.6
		c0,0,0.4-0.9-0.2-1.3c-0.7-0.5-1.3,0.3-1.3,0.3c-0.8,1.2-8.1,11.4-25.1,11.8L79.2,318.6z"/>
	<g>
		<path d="M39.7,291.3c-0.3,2.2,6.1,1.4,8.3,0.3c2.2-1,3.6-2.7,2.1-5.8C47.9,281.6,40.6,284.2,39.7,291.3z"/>
		<path d="M120.4,291.3c-0.9-7-8.3-9.6-10.3-5.5c-1.5,3.1-0.1,4.8,2.1,5.8C114.3,292.6,120.7,293.5,120.4,291.3z"/>
	</g>
	<g>
		<path d="M11.2,281c0.6,7.1,2.1,12.7,2.1,12.7s5.8-7.3,14.4-15C34.8,273.2,22,276.3,11.2,281z"/>
		<path d="M10.8,256.9c0,0-0.5,7.7-0.2,11.8c0,0,6.9-2.2,21.8-7.4C39.6,258.8,30.9,256.9,10.8,256.9z"/>
		<path d="M29.7,242.2c1.7-1.7-7.3-6.9-15.6-8.4c-1.3,5.3-1.9,10-1.9,10S28,243.9,29.7,242.2z"/>
	</g>
	<g>
		<path d="M148.9,281c-0.6,7.1-2.1,12.7-2.1,12.7s-5.8-7.3-14.4-15C125.3,273.2,138.1,276.3,148.9,281z"/>
		<path d="M149.3,256.9c0,0,0.5,7.7,0.2,11.8c0,0-6.9-2.2-21.8-7.4C120.5,258.8,129.2,256.9,149.3,256.9z"/>
		<path d="M130.4,242.2c-1.7-1.7,7.3-6.9,15.6-8.4c1.3,5.3,1.9,10,1.9,10S132.1,243.9,130.4,242.2z"/>
	</g>
	<path d="M41.9,189.8c0,0,11.4,31,15.6,30.1c4.2-1-1-37.3-1-37.3S48.5,184.8,41.9,189.8z"/>
	<g>
		<path d="M80,178.8c-7,0-9.9,0.6-9.9,0.6s0.5,40.4,9.9,40.4H80c9.3,0,9.9-40.4,9.9-40.4S87,178.8,80,178.8z"/>
		<path d="M80,178.8C80,178.8,80,178.8,80,178.8C80,178.8,80,178.8,80,178.8L80,178.8z"/>
	</g>
	<path d="M118.1,189.8c0,0-11.4,31-15.6,30.1c-4.2-1,1-37.3,1-37.3S111.5,184.8,118.1,189.8z"/>
</g>
<g>
	<path class="st4" d="M281.7,203.1c0,0,1.7-32.7,25.6-34.2c23.9-1.5,54.4,36,38,60.8c-8.6,13-28.2,11.6-28.2,11.6L281.7,203.1z"/>
	<path class="st5" d="M292.1,214.3c0,0,6.7-20.2,19.5-19.1c12.8,1.1,21.2,15,15,25.2c-6.2,10.2-19.7,9.8-19.7,9.8L292.1,214.3z"/>
	<path class="st4" d="M218.3,203.1c0,0-1.7-32.7-25.6-34.2c-23.9-1.5-54.4,36-38,60.8c8.6,13,28.2,11.6,28.2,11.6L218.3,203.1z"/>
	<path class="st5" d="M207.9,214.3c0,0-6.7-20.2-19.5-19.1c-12.8,1.1-21.2,15-15,25.2c6.2,10.2,19.7,9.8,19.7,9.8L207.9,214.3z"/>
	<path class="st6" d="M251,197c27.4,0,65.8,14.2,70.8,65.9c5,52-29.6,68.1-70.8,68.1h-2c-41.1,0-75.8-16.1-70.8-68.1
		c5-51.8,43.4-65.9,70.8-65.9H251z"/>
	<path class="st7" d="M279,277.5c-5.7-33.8-29-37.2-29-37.2s-23.4,3.3-29,37.2c-4.4,26,13.2,35.1,29,35.1
		C265.8,312.6,283.4,303.5,279,277.5z"/>
	<path d="M289.9,267.7c0,2.1,1.7,3.8,3.8,3.8l0,0c2.1,0,3.8-1.7,3.8-3.8v-3.3c0-2.1-1.7-3.8-3.8-3.8l0,0c-2.1,0-3.8,1.7-3.8,3.8
		V267.7z"/>
	<path d="M250,242.3c8.1,0,23.5,22.1,18.8,36.6c-2.4,7.5-10.3,7.5-18.8,7.5c-8.6,0-16.5,0-18.8-7.5
		C226.5,264.3,241.9,242.3,250,242.3z"/>
	<path d="M261.5,294.3c-0.5-0.3-1.2,0-1.5,0.5c-0.1,0.2-2,3.8-9.6,3.8c-7.7,0-10.4-3.8-10.5-3.9c-0.3-0.5-1-0.6-1.5-0.3
		c-0.5,0.3-0.7,1-0.3,1.5c0.1,0.2,3.3,4.9,12.3,4.9c9.1,0,11.5-4.9,11.6-5.1C262.2,295.2,262,294.6,261.5,294.3z"/>
	<path d="M210.1,267.7c0,2.1-1.7,3.8-3.8,3.8l0,0c-2.1,0-3.8-1.7-3.8-3.8v-3.3c0-2.1,1.7-3.8,3.8-3.8l0,0c2.1,0,3.8,1.7,3.8,3.8
		V267.7z"/>
</g>
<g>
	<g>
		<g>
			<g>
				<path class="st8" d="M440.8,227.3c-11.9-5-22.8-5.6-34.2-5.6c-11.4,0-24.3,1.9-34.8,5.5l-26.9,19.2c-2.1,2.7-3.9,5.6-5.6,8.7
					c-13.6,25.9-10.9,70.4,12.5,89.5c26.3,21.5,82.6,21.9,109.4,0c23.4-19.1,26.1-63.7,12.5-89.5c-1.7-3.2-3.6-6.1-5.6-8.7
					L440.8,227.3z"/>
			</g>
			<g>
				<path d="M406.4,281.7c-8.4,0-14,2.3-14,8.1c0,5.8,7.4,12.5,14,12.5h0.2c6.6,0,14-6.7,14-12.5c0-5.8-5.6-8.1-14-8.1H406.4z"/>
				<path d="M415.3,330.6c0-0.4-0.4-0.7-0.8-0.7c-0.4,0-0.7,0.4-0.7,0.8c0.2,2.1-0.3,3.6-1.4,4.3c-1.2,0.8-2.7,0.6-3.8,0
					c-0.8-0.4-1.3-1.1-1.3-1.7v-33.7c0-0.4-0.3-0.8-0.8-0.8c-0.4,0-0.8,0.3-0.8,0.8v33.7c0,0.6-0.5,1.2-1.3,1.7
					c-1,0.6-2.6,0.8-3.8,0c-1.1-0.7-1.6-2.2-1.4-4.3c0-0.4-0.3-0.8-0.7-0.8c-0.4,0-0.8,0.3-0.8,0.7c-0.3,3.4,0.9,5,2,5.8
					c0.8,0.5,1.7,0.8,2.6,0.8c1,0,2-0.3,2.8-0.7c0.6-0.3,1-0.7,1.4-1.1c0.3,0.4,0.8,0.8,1.4,1.1c0.8,0.4,1.7,0.7,2.8,0.7
					c0.9,0,1.8-0.2,2.6-0.8C414.4,335.6,415.6,334,415.3,330.6z"/>
				<path d="M366.7,271.6c0,2.1-1.7,3.9-3.9,3.9l0,0c-2.1,0-3.9-1.7-3.9-3.9v-3.4c0-2.1,1.7-3.9,3.9-3.9l0,0c2.1,0,3.9,1.7,3.9,3.9
					V271.6z"/>
				<path d="M454.2,271.6c0,2.1-1.7,3.9-3.9,3.9l0,0c-2.1,0-3.9-1.7-3.9-3.9v-3.4c0-2.1,1.7-3.9,3.9-3.9l0,0c2.1,0,3.9,1.7,3.9,3.9
					V271.6z"/>
			</g>
			<g>
				<g>
					<path d="M361.5,305.1C361.5,305.1,361.5,305.1,361.5,305.1l-35-2.4c-0.4,0-0.7-0.4-0.7-0.8c0-0.4,0.4-0.7,0.8-0.7l34.9,2.4
						c0.4,0,0.7,0.4,0.7,0.8C362.2,304.8,361.9,305.1,361.5,305.1z"/>
					<path d="M326.6,322.9c-0.4,0-0.7-0.3-0.7-0.6c-0.1-0.4,0.2-0.8,0.6-0.8l34.9-5.4c0.4-0.1,0.8,0.2,0.8,0.6
						c0.1,0.4-0.2,0.8-0.6,0.8l-34.9,5.4C326.7,322.9,326.6,322.9,326.6,322.9z"/>
					<path d="M323.4,312.4c-0.4,0-0.7-0.3-0.7-0.7c0-0.4,0.3-0.7,0.7-0.7l34.3-0.8c0.4,0,0.7,0.3,0.7,0.7c0,0.4-0.3,0.7-0.7,0.7
						L323.4,312.4C323.4,312.4,323.4,312.4,323.4,312.4z"/>
				</g>
				<g>
					<path d="M451.6,305.1c-0.4,0-0.7-0.3-0.7-0.7c0-0.4,0.3-0.7,0.7-0.8l34.9-2.4c0.4,0,0.7,0.3,0.8,0.7c0,0.4-0.3,0.7-0.7,0.8
						L451.6,305.1C451.6,305.1,451.6,305.1,451.6,305.1z"/>
					<path d="M486.5,322.9c0,0-0.1,0-0.1,0l-34.9-5.4c-0.4-0.1-0.7-0.4-0.6-0.8c0.1-0.4,0.4-0.7,0.8-0.6l34.9,5.4
						c0.4,0.1,0.7,0.4,0.6,0.8C487.2,322.6,486.8,322.9,486.5,322.9z"/>
					<path d="M489.6,312.4C489.6,312.4,489.6,312.4,489.6,312.4l-34.3-0.8c-0.4,0-0.7-0.3-0.7-0.7c0-0.4,0.3-0.7,0.7-0.7l34.3,0.8
						c0.4,0,0.7,0.3,0.7,0.7C490.4,312.1,490,312.4,489.6,312.4z"/>
				</g>
			</g>
		</g>
	</g>
	<g>
		<path class="st8" d="M371.8,227.7c0,0-7.4-94.1-40.7-88.4c-39.4,6.7,13.8,107.2,13.8,107.2S367.3,247.3,371.8,227.7z"/>
		<path class="st9" d="M354.1,239.4l8.6-6c0,0-7.5-53.8-19.7-49C331.2,189,354.1,239.4,354.1,239.4z"/>
		<g>
			<path class="st8" d="M441.3,227.7c0,0,7.4-94.1,40.7-88.4c39.3,6.7-13.8,107.2-13.8,107.2S445.7,247.3,441.3,227.7z"/>
			<path class="st9" d="M459,239.4l-8.6-6c0,0,7.5-53.8,19.7-49C481.8,189,459,239.4,459,239.4z"/>
		</g>
	</g>
</g>
</svg>
