<?xml version="1.0" encoding="utf-8"?>
<!-- Generator: Adobe Illustrator 27.8.0, SVG Export Plug-In . SVG Version: 6.00 Build 0)  -->
<svg version="1.1" id="Layer_1" xmlns="http://www.w3.org/2000/svg" xmlns:xlink="http://www.w3.org/1999/xlink" x="0px" y="0px"
	 viewBox="0 0 500 500" style="enable-background:new 0 0 500 500;" xml:space="preserve">
<style type="text/css">
	.st0{fill-rule:evenodd;clip-rule:evenodd;fill:#655CA8;}
	.st1{fill-rule:evenodd;clip-rule:evenodd;fill:#783193;}
	.st2{fill-rule:evenodd;clip-rule:evenodd;fill:#A04198;}
	.st3{fill-rule:evenodd;clip-rule:evenodd;fill:#ED2024;}
	.st4{fill-rule:evenodd;clip-rule:evenodd;fill:#F15622;}
	.st5{fill-rule:evenodd;clip-rule:evenodd;fill:#FBCD0B;}
	.st6{fill-rule:evenodd;clip-rule:evenodd;fill:#FBED24;}
	.st7{fill-rule:evenodd;clip-rule:evenodd;fill:#90C740;}
	.st8{fill-rule:evenodd;clip-rule:evenodd;fill:#30B451;}
	.st9{fill-rule:evenodd;clip-rule:evenodd;fill:#1F907E;}
	.st10{fill-rule:evenodd;clip-rule:evenodd;fill:#6081C1;}
	.st11{fill-rule:evenodd;clip-rule:evenodd;fill:#F7921E;}
</style>
<g>
	<path class="st0" d="M353.4,449.8c-28.9,15-60.5,23.4-93,24.9l-6.6,0.3v-91.4c21.6-0.6,41.9-6.3,59.7-16l45.7,79.1L353.4,449.8"/>
	<path class="st1" d="M439.4,371.4c-17.5,27.3-40.8,50.5-68.1,68.1l-5.5,3.6l-45.7-79.1c17.8-11,32.7-26,43.7-43.7l79.2,45.7
		L439.4,371.4"/>
	<path class="st2" d="M474.7,260.4c-1.5,32.5-9.9,64.1-24.9,93l-3,5.8l-79.1-45.7c9.7-17.8,15.4-38.1,16-59.7H475L474.7,260.4"/>
	<path class="st3" d="M449.8,146.6c15,28.9,23.4,60.5,24.9,93l0.3,6.6h-91.4c-0.6-21.6-6.3-41.9-16-59.7l79.1-45.7L449.8,146.6"/>
	<path class="st4" d="M371.4,60.6c27.3,17.5,50.5,40.8,68.1,68.1l3.6,5.5l-79.1,45.7c-11-17.8-26-32.7-43.7-43.7L365.8,57
		L371.4,60.6"/>
	<path class="st5" d="M146.6,50.2c28.9-15,60.5-23.4,93-24.9l6.6-0.3v91.4c-21.6,0.6-41.9,6.3-59.7,16l-45.7-79.1L146.6,50.2"/>
	<path class="st6" d="M60.6,128.7c17.5-27.3,40.8-50.5,68.1-68.1l5.5-3.6l45.7,79.1c-17.8,11-32.7,26-43.7,43.7L57,134.2L60.6,128.7
		"/>
	<path class="st7" d="M25.3,239.6c1.5-32.5,9.9-64.1,24.9-93l3-5.8l79.1,45.7c-9.7,17.8-15.4,38.1-16,59.7H25L25.3,239.6"/>
	<path class="st8" d="M50.2,353.4c-15-28.9-23.4-60.5-24.9-93l-0.3-6.6h91.4c0.6,21.6,6.3,41.9,16,59.7l-79.1,45.7L50.2,353.4"/>
	<path class="st9" d="M128.7,439.4c-27.3-17.5-50.5-40.8-68.1-68.1l-3.6-5.5l79.1-45.7c11,17.8,26,32.7,43.7,43.7L134.2,443
		L128.7,439.4"/>
	<path class="st10" d="M246.2,383.6V475l-6.6-0.3c-32.5-1.5-64.1-9.9-93-24.9l-5.8-3l45.7-79.1C204.3,377.3,224.6,383,246.2,383.6"
		/>
	<path class="st11" d="M260.4,25.3c32.5,1.5,64.1,9.9,93,24.9l5.8,3l-45.7,79.1c-17.8-9.7-38.1-15.4-59.7-16V25L260.4,25.3"/>
</g>
</svg>
