<?xml version="1.0" encoding="utf-8"?>
<!-- Generator: Adobe Illustrator 27.8.0, SVG Export Plug-In . SVG Version: 6.00 Build 0)  -->
<svg version="1.1" id="Layer_1" xmlns="http://www.w3.org/2000/svg" xmlns:xlink="http://www.w3.org/1999/xlink" x="0px" y="0px"
	 viewBox="0 0 500 500" style="enable-background:new 0 0 500 500;" xml:space="preserve">
<style type="text/css">
	.st0{fill-rule:evenodd;clip-rule:evenodd;fill:#90562D;}
	.st1{fill-rule:evenodd;clip-rule:evenodd;fill:#A56D35;}
	.st2{fill-rule:evenodd;clip-rule:evenodd;fill:#C5934B;}
	.st3{fill-rule:evenodd;clip-rule:evenodd;fill:#67351E;}
	.st4{fill-rule:evenodd;clip-rule:evenodd;fill:#337B3C;}
	.st5{fill-rule:evenodd;clip-rule:evenodd;fill:#2B773B;}
	.st6{fill-rule:evenodd;clip-rule:evenodd;fill:#4DA446;}
	.st7{fill-rule:evenodd;clip-rule:evenodd;fill:#DD4E26;}
	.st8{fill-rule:evenodd;clip-rule:evenodd;fill:#F4792A;}
	.st9{fill-rule:evenodd;clip-rule:evenodd;fill:#F99D47;}
	.st10{fill-rule:evenodd;clip-rule:evenodd;fill:#1D5429;}
	.st11{fill-rule:evenodd;clip-rule:evenodd;fill:#5FAD46;}
	.st12{fill-rule:evenodd;clip-rule:evenodd;fill:#DCEAB8;}
	.st13{fill-rule:evenodd;clip-rule:evenodd;fill:#A09366;}
</style>
<g>
	<path class="st0" d="M192.6,197.4c-25.3,37,12.3,64.1,31.1,92.2c9.8,14.7,17,33.1,37.2,35.3c11.3,1.2,22.9-3.5,32.3-9.2
		c40.1-24.2,30.2-72.8,2-102.4C282.1,199.5,228.4,144.8,192.6,197.4"/>
	<path class="st1" d="M210.1,185.8c-0.8,2-4.5,4.2-5.9,5.9c-7.4,8.6-14.3,21.8-11.7,33.6c2.2,10.2,10.5,20.3,19,25.6
		c3.3,2.1,7.7,3.6,10.4,6.6c3.2,3.6,5.1,8.5,7.7,12.5c16.5,25.7,34.1,46.7,64.5,24.7c4.9-3.5,9.8-7.5,13.2-12.7
		c5.1-7.8,8.3-17.4,6.8-26.9c-2.3-15.1-24.1-42.7-35-52.2c-7.2-6.3-16-11.5-24.5-15.6c-11.8-5.7-27.5-12.1-39.8-5.1"/>
	<path class="st2" d="M232.9,184.8c-9.1,0.5-28.5,7.9-24.4,23.3c4.4,16.4,27.7,24,39.7,33.6c11.7,9.3,17.4,22.7,26.8,33.9
		c3.9,4.7,10.1,4.8,15.5,2.5c15.2-6.5,16-25.6,9-38.3C288.5,219.9,258.8,183.5,232.9,184.8"/>
	<path class="st3" d="M200.7,199.4c0-0.2-2.3,2.5,0,3.3c1.6,0.6,1.9-2.1,2-3.1"/>
	<path class="st3" d="M222.3,211.4c-0.9-0.9-2.6,0.8-2.4,1.8c0.5,1.8,3.6,1.3,3.4-0.6"/>
	<path class="st3" d="M230.9,184.8c0.2,0.2-0.5,0.2-0.7,0.4c-0.4,0.5-0.5,1.1-0.2,1.7c0.7,1.1,2.4,1.1,2.9-0.1"/>
	<path class="st3" d="M252.3,197.4c-2.9,0.6,2.4,4.5,2,1.6"/>
	<path class="st3" d="M250.2,233.9c-0.5-0.3-0.9,0.5-0.9,0.9c0.2,1.2,2.8,3.7,2.8,1.4"/>
	<path class="st3" d="M228.7,244.4c-2-1-1.3,4.3,1.2,3.1"/>
	<path class="st3" d="M250.4,282c-1.3,1.1-1.1,4.8,0.9,5.3c2.7,0.6,2.4-3.7,1.6-5"/>
	<path class="st3" d="M301,248.1c2.1,0.1,4.2,4.8,1.4,4.4c-1.5-0.2-4.4-5.4-2.3-5.1"/>
	<path class="st3" d="M297.3,277.7c-1.2,0.3,0.5,2.9,1.9,2.7c2.1-0.2,1.1-3.4-1.4-3.4"/>
</g>
<g>
	<path class="st4" d="M433,224.2c-0.4,1.6,0.6-1.9,0.6-2.3c0.3-2.2,0-4.4-0.4-6.6c-0.6-2.9-1.4-5.6-3.2-8c-0.4-0.5-3.5-3.6-2.9-4.3
		c0.8-0.9,7.7,2.4,7.8,2.3c0.3-0.3-2.7-3.3-3-3.6c-1.6-1.8-10.5-9.5-9.8-11.6c0.4-1.2,6.3,0.9,8-0.5c0.9-0.6-1-3.5-1.2-4.3
		c-1.2-4.2-1.2-10.4,4.9-10.2c5.2,0.2,6.4,6.8,8.9,10.1c2.1,2.7,5.5-1.1,7.5,1.4c3.4,4.1-2.3,9.2-3.3,12.9c-0.4,1.6,4.4,1.1,2.9,4.4
		c-2.8,6.1-9.1,10.2-12.3,16.3c-1.1,2.1-2.1,7.4-4.3,8.7c-0.9,0.5-0.8-1.8-0.8-2.1"/>
	<path class="st5" d="M433,230.8c-0.1-0.2,2.9-2.2,3-2.4c3.5-2.6,6.8-5.2,10.2-7.9c4.3-3.5,7.2-8.9,11.7-12c1.8-1.3,4.4-0.2,6.5-1
		c3.3-1.2,5.8-4.2,9.3-5c1.6-0.4,3.1,0.5,4.7,0.4c3.3-0.3,7.1-3.2,10.2-1.1c3.3,2.2,0.6,6.2-0.1,9c-0.5,2.2,1.6,3.6,1.4,5.4
		c-0.3,1.8-4.3,2.7-5.6,3.9c-1.6,1.7-0.9,4.7-2.6,6.2c-2.2,2-7.5-0.3-10-0.5c-2.7-0.3-4.7,2.3-7.4,2.3c-4.4,0-8.6-2.5-13-2.5
		c-4.8,0-9.2,2.6-13.2,4.8c-0.9,0.5-4.1,2.7-5.2,2.1"/>
	<path class="st6" d="M433.5,228.7c-0.3,0.2,1.1-1.7,1.2-1.9c1.1-1.4,2.3-2.7,3.5-4.1c3.4-4,6.5-8.2,5.6-13.6
		c-0.4-2.3-1.7-5.3-1-7.6c0.5-1.7,3-1.9,3-3.5c0-2.9-2-8.1,0.5-10.4c1.9-1.8,4.5,2,6.2,0.3c2.1-2.1,3.2-8.2,6.6-8.6
		c2.4-0.3,2.9,4.7,4.4,4.4c3.3-0.6,4.8-5.2,8.7-4.7c2.9,0.3,2.1,4.2,4,4.7c4.2,1.1,8.3-5.8,12.4-0.9c2.9,3.4,1.7,9.7-2.3,11.7
		c-1.8,0.9-4.5,0.3-6,1.2c-1.6,1,0.7,3.7-0.2,5c-1.4,2.1-4.3,0.3-5.9,1.5c-1.8,1.3-1.2,4.1-3.4,5c-5.8,2.4-12.5-1.4-17.9,2.2
		c-4.3,2.9-6,7.8-9.2,11.7c-2,2.4-4.5,3.9-6.9,5.7"/>
	<path class="st7" d="M425.9,217.4c-1.9-1.2-6.1-2.1-11.5,0.1c-6.5,2.6-10.2,8.3-14.3,13.9c-10.8,15.3-20.3,30.7-27,44
		c-4.9,9.8-7.1,12.9-12.9,22.1c-3.2,5.1-15.8,21.9-7.4,26.7c2.7,1.6,6.8,0.6,9.7-0.2c8.7-2.4,16.5-8.4,23.4-14
		c14.6-11.9,28.8-23.7,42.4-36.7c6.6-6.3,14.6-12.6,19.1-20.7C456.2,236.9,441.5,220.3,425.9,217.4"/>
	<path class="st8" d="M420.8,218.9c-6.5-0.1-15.3,14.3-18.3,18.5c-8.3,11.1-15.4,22.4-20.5,32c-3.8,7.1-5.4,9.4-9.8,16.1
		c-2.4,3.7-19,23.9-12.7,27.4c2.1,1.2,6,5.3,10.3,2.4c5.7-3.8,17.4-9.3,22.7-13.4c11.1-8.6,22.6-21.3,33-30.8
		c5-4.6,8.7-13,13.1-18.3C449.3,239.7,445,219.3,420.8,218.9"/>
	<path class="st9" d="M423.4,223.6c-4.7,2.5-8.9,8.9-12.3,12.8c-10.4,11.8-19.1,25-27.7,38.2c-4.5,6.9-9.1,13.8-13.1,21
		c-0.2,0.4-3.5,6.8-1.4,6.3c5.4-1.3,14.1-12.4,17.6-16.4c12.9-15,25.5-30.3,38.1-45.5c0.9-1.1,1.8-2.1,2.6-3.2
		C429.3,234.1,435.5,222.1,423.4,223.6"/>
	<path class="st7" d="M376.3,315.4c-1.1-1.2,0.6-3.9-0.7-4.9c-0.6-0.5-9.4-7.7-3.7-4.7c6.3,3.3,6.6,7.3,12.1,2.8
		c0.9-0.8,2.5-1.9,2.6-3.2c0.2-2.1-8.5-7.7-10.1-8.4c-0.9-0.4-1.9-0.8-2.9-1.2c-0.1,0-1.7-1.1-1.5-1.1c1-0.3,3.7,1.1,4.6,1.5
		c7.7,2.8,9.9,11.3,16.5,4.1c0.9-0.9,2.2-2,2.8-3.2c1.3-2.9-10.1-8.9-11.8-10c-0.2-0.2-3.7-2.4-3.1-2.9c0.3-0.2,5.9,2.9,6.5,3.2
		c8.1,4.7,8.9,11.2,15.5,4.2c0.8-0.8,1.6-1.7,2.2-2.7c3-4.7-6-10.4-9-12.1c-0.3-0.2-5.3-3.2-4.6-3.7c0.9-0.6,4.8,2.4,5.5,2.8
		c2.7,1.4,4.4,3.1,6.9,4.8c4.9,3.4,6.1,4,9.6-0.7c3.8-5.1-5.1-12.4-8.2-15.4c-0.4-0.4-4.1-3.3-3.9-3.8c0.2-0.7,3.2,0.8,3.8,1.3
		c1.2,1,4.8,4.5,6,5.6c3.2,3,5.5,8.1,9.8,5.3c2.3-1.5,10.4-7.8,9.4-10.8c-1.2-3.6-10.2-6.9-12.9-9.2c-0.2-0.2-4.3-5.3-3.6-5.7
		c1-0.6,4.5,2.7,5.1,3.2c4,3.2,12.2,11.9,17.1,7.7c1.1-1,2.5-2.1,3.1-3.5c1.7-3.7-7.6-13-9.8-14.9c-0.3-0.2-4.8-4.2-3.6-4.2
		c2.6,0.1,7.8,7.1,9.9,8.4c2.6,1.7,7.3,3.7,8,7c0.9,3.8-3.9,7.9-6.2,10.2c-8,8-16.4,15.3-24.8,22.8c-3.6,3.2-7,6.5-10.5,9.7
		c-4.4,4-8.9,7.9-13.4,11.8"/>
</g>
<g>
	<path class="st10" d="M30.3,274.8c-0.2,0-0.4-4.9-0.4-5.2c-0.2-6.6-0.1-13.2,0.1-19.9c0.2-7.2,0.4-14.9,2.7-21.8
		c1.9-5.9,7.3-9.8,10.4-15.1c2.7-4.7,3.7-10.1,6.9-14.6c2.1-3,5.1-5.6,8.2-7.6c36.1-22.8,52.2-11.8,81.9,13.2
		c7.2,6,18.5,11.4,22.6,20.2c6.1,13.1-7.5,26.2-12.2,37.5c-3.6,8.7-5.8,18.3-12.2,25.6c-6.7,7.7-15.6,11.7-24.5,16.2
		c-31.6,16.2-58.6,11.4-77.8-20.5"/>
	<path class="st11" d="M27.6,287.6c-0.9-0.2-2.4-14.4-2.5-15.9c-0.5-6.6-0.6-13.3,0.5-19.8c0.9-5.1,0.7-32.9,8.1-33.7
		c7-0.8,1.2,24.5,0,27c-3.1,6.5,2.1,4.8,0,11.5c-0.6,1.9-4.7,11.3-1,6.6c9.3-12,9.6-35.3,12.9-50c1.6-7,4.5-13.9,6.4-20.9
		c2.4-8.6,10.2-19.3,20.5-16.8c20.6,5,22.6,41.7,12.6,56.4c-5.4,7.9-12.7,14.2-19.4,21c-2.1,2.1-4.2,4.3-6.1,6.6
		c-0.2,0.3-3.9,5.3-3.4,5.5c2.5,0.9,24.3-23.4,26.9-27.3c11.8-17.1,5.5-38.6,14.9-53.7c5-8.1,19.9-9.5,28.5-9c2.4,0.1,4,2.2,6.3,2.2
		c9.4,0.1,16.3-4.2,23.8,5.2c9.1,11.4,4.7,22.1,0.5,34.3c-2.2,6.5-0.4,13.2-4,19.5c-7.6,13.4-21,14.3-32.6,22.1
		c-5.3,3.6-7.9,9.9-13.5,13.2c-5.7,3.3-27.1,8.4-29,14c-0.2,0.6,5.4-0.3,5.7-0.3c5.9-1.3,11.6-3.8,17.1-6.2
		c21.5-9.3,30.9-18.6,48.9-31.8c4-3,13-9.7,17.9-4.7c6.5,6.6-1.5,18.3-6.3,23.1c-7.6,7.7-17.8,11.6-26.6,17.6
		c-11.3,7.7-19.9,17.6-33.1,22.5c-7.8,2.9-16.4,4.1-24.7,3.7c-0.4,0-0.7,0-1.1-0.1c-0.3,0-0.7,0-1-0.1c-0.6-0.1-11.1-1.2-10.9-0.2
		c0.4,2.3,15.3,1.7,17.4,1.6c18-0.3,36.8-7.1,50.5-19.1c2.2-2,22.5-22.6,23.7-13.7c1.6,11.6-21.1,24.4-29.5,27.8
		c-11.5,4.6-48.6,13.3-61.1,10.2c-5.7-1.4-10.3-5.7-15.5-8.2C41.5,304.1,31,296.2,27.6,287.6"/>
	<path class="st12" d="M19.7,308.5c-0.1,0.2-5-2.5-4.7-2.9c1.2-1.6,2.4-3.3,3.5-5c3.5-5.1,7.2-10.2,10.3-15.5
		c6.3-10.7,10.5-20.5,12.4-32.8c0.4-2.7,1.6-15.2,3.6-16.7c0.6-0.5,0.9,3.6,0.9,3.9c0.2,4.3,0.1,8.5-0.1,12.8c0,0.3,0,4.3,0,4.3
		c1.6-0.9,2.7-5.4,3.3-6.9c2.9-7.6,3.2-14.4,3-22.5c0-1.9-1.1-7.2,0.1-8.9c0.1-0.2,1.3,3.5,1.4,3.8c1,3.5,3.2,13.1,4.7,12.5
		c1.5-0.6,2.1-4.9,2.6-6.3c1.9-6,3.7-12.1,5.5-18.1c0.3-1.2,0.9-5.2,2.1-5.9c0.2-0.1,0,5-0.1,5.3c-0.2,1.4-0.4,2.8-0.6,4.2
		c-1,6.2-2.4,12.3-5.1,18c-0.3,0.6-2.7,4.6-2,5.2c0.8,0.7,3.9-1.6,4.5-1.9c4.5-2.8,8.7-6.1,12.8-9.6c1.2-1.1,2.5-2.1,3.7-3.3
		c0.1-0.1,1.7-1.8,1.7-1.8c0.4,0.8-6.8,9.9-7.5,10.6c-8.5,7.8-16.8,9.6-23.1,20.4c-0.9,1.5-4.2,5.7-3.9,7.6c0.1,0.9,4-1.7,4.3-1.9
		c4.1-2.7,8-5.8,12-8.7c0.2-0.1,4.6-3.3,4.7-2.6c0.3,1.7-5,5.8-6,6.8c-6,5.9-16,10-19.8,17.7c-2.4,4.8-4.2,10.1-5.2,15.4
		c-0.1,0.7-1.3,5.2-0.2,5.4c2.7,0.6,12.1-9.5,13.8-11.2c8.1-8.1,18.1-15.8,25-25c1.7-2.2,6.7-14,8.1-14.7c0.3-0.1,0.5,0.9,0.5,1
		c0.4,1.6,0.2,7.4,2.6,7.1c6.4-0.8,15.6-13,18.2-18.4c3.3-6.8,2.5-15.3,3.4-22.7c0.1-0.9,0.4-7.6,1.4-8c0.2-0.1,0.3,5.7,0.3,6
		c-0.1,2.9-1.6,15.1,2.2,15.6c3.7,0.4,13.4-11.4,15.9-14c0.2-0.2,4.4-4.6,4.6-4.3c0.4,0.5-4.7,6.8-5.5,7.8
		c-2.6,3.1-16.1,18.2-16.4,21.2c-0.1,1.7,3.9,0.3,4.5,0.1c4.4-1.3,8.6-3.4,13.1-4.5c0.3-0.1,4.6-1.4,4.8-1c0.2,0.7-7.6,4.9-11.5,6.6
		c-10,4.5-18.2,7.4-25.9,15.5c-1.3,1.3-5.1,3.9-5.5,5.8c-0.2,0.9,6.1-0.5,6.5-0.6c3.8-0.8,7.6-1.4,11.5-1.8c0.3,0,5.7,0,5.5,0.4
		c-0.8,1.1-15.2,4.3-17,4.8c-16,4.4-24.9,10.3-35.6,23.5c-2.7,3.4-8.8,9.6-7.7,14.5c1.1,4.8,12.1,1.5,14.8,0.7
		c9.5-3,18.1-7.7,27.1-11.9c2.8-1.3,7.8-5.1,11.1-4.5c2.1,0.3-4,4.6-4.4,4.9c-1.5,1-8.3,7.5-9.9,7.5c-0.7,0,1.2-0.8,1.8-1
		c1.1-0.4,2.2-0.8,3.3-1.1c3.3-1.1,6.6-3,9.7-4.7c6.6-3.7,12.7-7.5,18.7-12.2c0.9-0.7,5-4.8,6.3-4.5c0.2,0-3.5,3.9-3.7,4.2
		c-2.9,2.5-12.9,10.2-12.6,11.1c0,0.1,0.3,0.1,0.3,0.1c3.9,0.3,8.8-1.7,12.6-2.6c0.3-0.1,4.2-1,4.2-0.7c-0.3,1.5-5.1,2.7-6.1,3.1
		c-6.5,2.5-13.3,3.8-19.8,6.1c-6,2.1,3.6,9.3,1.7,10.4c-1.4,0.8-10.2-3.7-12-4.2c-5.5-1.7-15.1-0.6-20.1,2.5
		c-3,1.8,9.5,6.3,10.6,6.9c0.2,0.1,3.6,1.9,3.3,2.2c-1,0.7-5.3-1.4-6.3-1.7c-5.4-1.8-12.1-5.6-18-4.1c-2.3,0.6-8.2,2.8-8.4,5.8
		c-0.1,1.1,2.7,5,2.2,5.4c-3.3,2.8-9.1,2.9-13.1,4.1c-4.6,1.5-14.5,11.9-15.2,7.6C32.7,320.9,23.9,312,19.7,308.5"/>
	<path class="st13" d="M31.1,312.6c-0.2-1.6-16.9-14.3-16.2-7.7c0.7,7.1,8.1,15,13.6,18.8C35.1,328.3,34.9,319.5,31.1,312.6"/>
</g>
</svg>
