<?xml version="1.0" encoding="utf-8"?>
<!-- Generator: Adobe Illustrator 27.8.0, SVG Export Plug-In . SVG Version: 6.00 Build 0)  -->
<svg version="1.1" id="Layer_1" xmlns="http://www.w3.org/2000/svg" xmlns:xlink="http://www.w3.org/1999/xlink" x="0px" y="0px"
	 viewBox="0 0 500 500" style="enable-background:new 0 0 500 500;" xml:space="preserve">
<style type="text/css">
	.st0{fill-rule:evenodd;clip-rule:evenodd;fill:#6CAB43;}
	.st1{fill-rule:evenodd;clip-rule:evenodd;fill:#E1EAA4;}
	.st2{fill-rule:evenodd;clip-rule:evenodd;fill:#328640;}
	.st3{fill-rule:evenodd;clip-rule:evenodd;fill:#54A746;}
	.st4{fill-rule:evenodd;clip-rule:evenodd;fill:#442012;}
	.st5{fill-rule:evenodd;clip-rule:evenodd;fill:#D32929;}
	.st6{fill-rule:evenodd;clip-rule:evenodd;fill:#B12225;}
	.st7{fill-rule:evenodd;clip-rule:evenodd;fill:#EAC96C;}
	.st8{fill-rule:evenodd;clip-rule:evenodd;fill:#69A242;}
	.st9{fill-rule:evenodd;clip-rule:evenodd;fill:#7B9C3D;}
	.st10{fill-rule:evenodd;clip-rule:evenodd;fill:#008D4C;}
	.st11{fill-rule:evenodd;clip-rule:evenodd;fill:#F3DFC4;}
	.st12{fill-rule:evenodd;clip-rule:evenodd;fill:#F8EAD7;}
	.st13{fill-rule:evenodd;clip-rule:evenodd;fill:#FDDD4F;}
	.st14{fill-rule:evenodd;clip-rule:evenodd;fill:#EFC918;}
	.st15{fill-rule:evenodd;clip-rule:evenodd;fill:#93732C;}
	.st16{fill-rule:evenodd;clip-rule:evenodd;fill:#F6E6CA;}
</style>
<g>
	<path class="st0" d="M251.9,214.8c-15-0.7-33.3-11.3-50.2-2.8c-32.4,16.3-19.8,81.4,1.6,103.3c20.3,20.7,27.5,1.2,46.5,3.6
		c8.8,1.1,26,5.5,32.9,5.5c18.2,0,31.5-36.3,33.9-49.9c4.6-26.9-0.9-59.1-31.5-65.7C276.5,206.9,260.6,214.4,251.9,214.8"/>
	<path class="st1" d="M202.7,228.5c-1.4,0.8-3.2,3.6-3.9,4.9c-4.7,8.4-7,17.1-5.9,26.7c0.9,7.4,7.7,10.6,14,6.5
		c4.4-2.9,6.4-4.9,10.1-8.5c6.5-6.2,13.6-12.9,16.1-21.9c1.9-6.9,0.3-15.8-8-17.4c-1.3-0.3-2.7-0.3-4-0.1
		C214.2,219.6,207.6,223.7,202.7,228.5"/>
	<path class="st2" d="M249.9,214.8c-0.8-0.3-0.6-2.6-0.6-3.2c0.3-3.8,1.9-7.7,3.7-11c5.1-9.5,12.8-16.5,22.1-21.7
		c1.4-0.8,2.9-1.5,4.3-2.2c0.8-0.4,1.6-0.7,2.4-1.1c1.7-0.8,2.6-1.3,2.7,0.6c0,0.5,0,1.1,0,1.6c0,1-0.2,1.9-0.4,2.9
		c-0.3,1.6-0.7,3.2-1.1,4.7c-0.8,2.5-1.7,4.9-2.8,7.3c-2,4.1-4.5,7.8-7.8,11C267.3,208.6,256.9,213.3,249.9,214.8"/>
	<path class="st3" d="M256,209.8c-0.2-0.4,1-2.3,1.2-2.5c1.5-1.5,3-3,4.5-4.7c1.2-1.3,2.3-2.6,3.5-3.9c0.8-0.9,1.6-1.8,2.4-2.8
		c2.5-3.1,4.5-6.5,7.1-9.6c0.3-0.4,0.7-0.8,1.1-1.2c2.7-2.8,1.6,1.6,1,3.1c-0.3,0.9-0.7,1.8-1.1,2.7c-0.6,1.3-1.3,2.6-2.1,3.8
		c-1.4,2.2-3,4.2-4.7,6.2C266.3,204,259.1,207.3,256,209.8"/>
	<path class="st3" d="M273.1,182.6c0.3-0.1-0.5,0.2-0.6,0.2c-0.5,0.3-1,0.7-1.5,1c-1.4,1-2.7,2.1-3.9,3.2c-1,0.9-2,1.9-3,2.9
		c-0.8,0.8-1.5,1.6-2.3,2.4c-0.6,0.7-1.2,1.5-1.8,2.2c-1.6,2.1-3,4.5-3.8,7.1c-0.1,0.5-0.7,1.8-0.2,2.3c0.5,0.4,1.3-0.6,1.5-0.9
		c1.2-1.3,2.1-2.7,3.2-4.1c2.3-3,4.5-6.2,7-9.1C270,187.5,271.8,185.7,273.1,182.6"/>
	<path class="st3" d="M232.5,185.5L232.5,185.5"/>
	<path class="st4" d="M231.5,185.9c-0.1,0.3-1.2,0.9-1.4,1.1c-0.9,0.9-3.5,3.4-2.7,4.8c0.8,1.4,4.4,1.5,5.7,2.3
		c3.6,2,6.6,5.1,8.8,8.6c0.6,0.9,1.2,2,1.7,3c0.4,0.8,0.8,1.6,1.1,2.4c0.2,0.6,0.5,1.2,0.6,1.7c0.2,0.5,0.3,1,0.5,1.5
		c0.4,1.4,2.4,7.1,4.8,3.8c1.6-2.3-0.5-6.1-1.4-8.1c-2.7-6-5.3-12.8-9.7-17.9C237.8,187,234.2,184.6,231.5,185.9"/>
</g>
<g>
	<path class="st5" d="M68.9,206.4c-11.5,7.7-23.7,9.7-36.5,19.7c-13.4,10.4-12.5,21.6-8.2,39.1c6.3,25.7,72.2,76.9,98.7,54.2
		C161,286.5,143.8,156.3,68.9,206.4"/>
	<path class="st6" d="M114,317.4c-21.6,2.6-17.2-26-17.4-29c-0.5-10.6,6.3-75.2,14.6-79.1c10.2-4.7,19.7,16.5,21.6,23.8
		C143.2,274.1,124.9,316.1,114,317.4"/>
	<path class="st7" d="M85.6,251.2c-1.6,1.3-10-8.9-3.9-10.6C87,239.1,87.5,249.6,85.6,251.2"/>
	<path class="st7" d="M69.7,238.1c-1.6,1.3-10-8.9-3.9-10.6C71,226,71.5,236.6,69.7,238.1"/>
	<path class="st7" d="M83.2,226.5c-1.6,1.3-10-8.9-3.9-10.6C84.6,214.3,85.1,224.9,83.2,226.5"/>
	<path class="st7" d="M105.9,219.4c-1.6,1.3-10-8.9-3.9-10.6C107.2,207.3,107.8,217.9,105.9,219.4"/>
	<path class="st7" d="M95.9,235.9c-1.6,1.3-10-8.9-3.9-10.6C97.3,223.8,97.8,234.4,95.9,235.9"/>
	<path class="st7" d="M118,242.4c-1.6,1.3-10-8.9-3.9-10.6C119.3,230.3,119.8,240.9,118,242.4"/>
	<path class="st7" d="M63.7,254.1c-1.6,1.3-10-8.9-3.9-10.6C65.1,241.9,65.6,252.5,63.7,254.1"/>
	<path class="st7" d="M42.1,254.9c-1.6,1.3-10-8.9-3.9-10.6C43.4,242.8,44,253.4,42.1,254.9"/>
	<path class="st7" d="M59.9,278.5c-1.6,1.3-10-8.9-3.9-10.6C61.3,266.4,61.8,276.9,59.9,278.5"/>
	<path class="st7" d="M84,272c-1.6,1.3-10-8.9-3.9-10.6C85.3,259.9,85.9,270.4,84,272"/>
	<path class="st7" d="M107.3,260.9c-1.6,1.3-10-8.9-3.9-10.6C108.7,248.7,109.2,259.3,107.3,260.9"/>
	<path class="st7" d="M103.3,285.6c-1.6,1.3-10-8.9-3.9-10.6C104.7,273.4,105.2,284,103.3,285.6"/>
	<path class="st7" d="M85.5,299.7c-1.6,1.3-10-8.9-3.9-10.6C86.8,287.5,87.4,298.1,85.5,299.7"/>
	<path class="st7" d="M112.8,308.3c-1.6,1.3-10-8.9-3.9-10.6C114.1,296.2,114.6,306.8,112.8,308.3"/>
	<path class="st7" d="M127.5,278.8c-1.6,1.3-10-8.9-3.9-10.6C128.8,266.7,129.4,277.2,127.5,278.8"/>
	<path class="st7" d="M133,252.3c-1.6,1.3-10-8.9-3.9-10.6C134.4,240.1,134.9,250.7,133,252.3"/>
	<path class="st8" d="M65.9,205.1c-0.1-1.8,3.9-13,5.2-14.4c2.2-2.4,6.3,0,6.6,2.8c0.4,4.3-3.3,8.1-6,10.9c-0.6,0.6-3.3,3.6-4.2,2.3
		"/>
	<path class="st8" d="M45.7,220.9c-0.1,1.2-3.8-0.8-4.1-0.9c-2.4-1.4-11.4-8.7-8.8-12c1.2-1.6,4.2-0.7,5.8-0.3
		c3.9,1,15.9,4.9,9.8,10.8"/>
	<path class="st9" d="M55.8,215.2c0-2.4,2.5-4.6,2.9-7.1c0.9-5.9-4.1-12.9-6.5-16.8c-1.4-2.3-3.4-6.3-5.6-6.9
		c-1.4-0.4-6,1.8-5.6,4.8c0.1,0.7,5.9,5.9,6.6,6.7c4,5,7,12,8.8,19.2"/>
	<path class="st10" d="M25.2,235.6c-2.1,0-9.1-6.5-10.8-8c-0.4-0.3-3.4-2.8-2.7-3.5c1.2-1.4,6-1.2,7.6-1.4
		c6.3-0.8,12.3-2.4,18.6-3.5c1.4-0.3,7.3-1.2,7.2,1.8c-0.1,2.1-3.3,3.2-4.7,4C35.8,227.5,32.4,235.8,25.2,235.6"/>
	<path class="st10" d="M50,220.1c-0.1-1.8,1.5-4.6,2.1-6.3c1-2.8,2.1-6.7,4.7-8.5c3-2.1,11.6-1.2,11.1,3.8c-0.4,3.5-4.5,6.2-7.2,7.9
		c-2,1.3-4.2,2.2-6.5,2.8"/>
	<path class="st10" d="M69.6,205.9c-0.1,0,0.8-1.1,0.9-1.2c0.6-0.7,1.2-1.5,1.8-2.3c1.8-2.3,3.5-4.6,5.1-6.9
		c3.9-5.4,7.2-11.1,10.9-16.5c1-1.5,3.2-5,5.5-3.7c3.8,2.1,3.1,8.7,1.6,12c-3.8,7.9-13.2,13.2-21,16.4"/>
</g>
<g>
	<path class="st11" d="M380.8,245.9c-0.7-0.4-1.4-3.8-1.5-4.5c-0.5-4.6-0.7-9.3-1.2-13.9c-0.3-3.4-0.6-6.9-0.8-10.3
		c-0.7-11.2-1.3-41.7,15.9-42.1c10.1-0.2,11.8,9.6,11.1,17.4c-0.7,7.9,0.9,15.6,3,23c0.6,2.1,2.5,7.5,3,9.2c1,4,2.5,7,2,11.2
		c-0.4,3-3.9,6.1-5.1,8.9c-0.9,1.9-0.7,4.9-1.7,6.7c-0.2,0.3-0.8-0.1-1-0.2c-3.1-1.9-5.2-5.2-8.2-7.3
		C391.3,240.7,385.6,244.1,380.8,245.9"/>
	<path class="st12" d="M394.4,242.1c0.1,0-2.7-6.4-2.9-7c-2.2-5-3.4-9.1-4.7-13.8c-3.3-11.5-1.9-22.8,1.7-33.9
		c1.1-3.5,3.4-9.5,7.8-9.6c5.5-0.1,4.5,10.7,4.4,14.1c-0.1,4.8-0.2,7.4,0.1,12.3c0.1,3,1.9,12.3,3,15.1c2,5.2,5.5,11.3,4.3,12.5
		c-1,1-3,4.5-3.7,6.1c-0.5,1.1-1.2,5.8-2.7,6.1C400,244.3,395.9,242.7,394.4,242.1"/>
	<path class="st13" d="M403,247.2c0.3-10.3,9.5-18.6,19.8-17.2c1,0.1,2,1.4,3,1.8c8.7,3.4,17.4,6.7,24.2,13.5
		c3.7,3.7,6.7,8.1,9.9,12.2c2.9,3.7,10.3,2,14,4.9c0.7,0.6-2.3,3.9-2.8,5.2c-0.6,1.4-3.8,1.3-6,0c-3.6-2.2-7.8-6.8-11.5-10.8
		c-7.5-7.9-12.1-16.1-23-19.5c-5.1-1.6-11.7-1-11.5,5.5c0.5,14.5,18.5,31.9,30.9,37.5c6.7,3,13.8,2.5,20.5,4.7
		c1.6,0.5,4.1,3.6,3.1,5.4c-0.8,1.4-4.5,1.5-5.8,1.6c-6,0.4-13.4,1.4-19.2,0.1c-19.5-4.6-32.5-14.6-43.3-31.8
		c-2.7-4.3-7.6-7.5-11.2-11.1c-1-1-3.2-3.9-3.1-5.1C391.8,239.1,402.1,247.3,403,247.2"/>
	<path class="st14" d="M390,244c-0.1,0,0,0.1,0.1,0.1c1,0.4,1.8,1.3,2.6,2c1.8,1.6,3.5,3.3,5.2,5c5,4.9,9.1,10.3,13.3,15.9
		c10,13.4,24.4,22.3,41.1,24.5c2.4,0.3,4.8,0.5,7.2,0.7c1.5,0.1,2.9,0.1,4.3-0.1c5.7-0.6,10.3-4.4,13.4,1.1c0.9,1.6,1,2.7,0,4.3
		c-6.7,11.3-24.3,13.6-36,12.4c-19-1.9-33.4-9.4-45.9-23.9c-2.5-3-6.7-6-8.1-9.7c-1.8-5-1-8.2-0.7-13.3
		C386.9,258,387.4,248.3,390,244"/>
	<path class="st15" d="M475.8,291.9c-1.7-0.3-6.3-4.6-4.1-6.1c5.7-3.9,8.8,10.2,3.7,5.5"/>
	<path class="st16" d="M394.2,242.7c-4.7,1.6-6.3,11.6-7.1,15.6c-3.1,15.7,3.3,31.8,1.8,47.7c-0.4,4.8-2.2,20.1-9.6,18.9
		c-7.5-1.3-13.5-12.5-16.8-18.3c-6.1-10.5-18-35-10.1-46.8c6.3-9.4,21.3-12.3,31.3-15.7C384.8,243.7,393.7,240.7,394.2,242.7"/>
	<path class="st16" d="M412.3,232.1c-0.3-0.1,1.9-2.1,2.1-2.2c1.3-1.1,2.7-2.1,4.1-3c5-3.4,10.7-5.3,16.7-3.6
		c13.8,4,26.3,15.2,33.8,27.1c2.1,3.3,6.6,11.7,4.3,15.7c-1.6,2.8-4.7,1-6.7-0.3c-5.7-3.7-10-9.1-14.6-14
		C437.5,236.5,432.2,232.1,412.3,232.1"/>
</g>
</svg>
