<?xml version="1.0" encoding="utf-8"?>
<!-- Generator: Adobe Illustrator 27.8.0, SVG Export Plug-In . SVG Version: 6.00 Build 0)  -->
<svg version="1.1" id="Layer_1" xmlns="http://www.w3.org/2000/svg" xmlns:xlink="http://www.w3.org/1999/xlink" x="0px" y="0px"
	 viewBox="0 0 500 500" style="enable-background:new 0 0 500 500;" xml:space="preserve">
<style type="text/css">
	.st0{opacity:0.5;fill:#BDBEC0;enable-background:new    ;}
	.st1{fill:#F7B4D1;}
	.st2{fill:#F79022;}
	.st3{fill:#EE2C3D;}
	.st4{fill-rule:evenodd;clip-rule:evenodd;fill:#231F20;}
	.st5{fill-rule:evenodd;clip-rule:evenodd;fill:#FFFFFF;}
	.st6{fill:#EA8623;}
	.st7{fill:#FBB365;}
	.st8{fill:#E770A7;}
	.st9{fill:#F17DB1;}
	.st10{fill:#231F20;}
	.st11{fill:#00A199;}
	.st12{fill:#31BDB5;}
	.st13{fill:#4CC2BE;}
</style>
<path class="st0" d="M485,328.6c0,2.6-20.5,4.6-45.7,4.6s-45.7-2.1-45.7-4.6s20.4-4.6,45.7-4.6C464.5,324,485,326.1,485,328.6z"/>
<path class="st0" d="M313.8,328.8c0,2.5-29.8,4.5-66.7,4.5s-66.7-2-66.7-4.5s29.8-4.5,66.7-4.5S313.8,326.3,313.8,328.8z"/>
<path class="st1" d="M206.2,324c2.1,0,2.1-3.3,0-3.3S204.1,324,206.2,324z"/>
<path class="st0" d="M129.4,331.8c0,2.9-23.3,5.3-52.1,5.3s-52.1-2.4-52.1-5.3c0-2.9,23.3-5.3,52.1-5.3S129.4,328.9,129.4,331.8z"/>
<g>
	<path class="st2" d="M477.4,191.4c9.6,9.4,14.3,20,14.3,31.8c0,11.8-5.3,20.3-15.8,25.6v1.4c1.3,0.7,3.3,2.1,6,4.3
		c2.4,1.9,4.5,4.1,6.4,6.6c4.4,5.5,6.8,12.4,6.7,19.4c0,14.4-5.4,26.3-16.2,35.7c-10.8,9.4-24.3,14-40.6,14
		c-16.2,0-29.6-4.7-40.4-14.1c-4-3.6-7.6-8.4-10.7-14.3c-0.9-1.7-1.6-3.4-2.2-5.3l-0.4-2c-1.5-4.4-2.2-8.1-2.2-10.9
		c0-7.8,6.6-11.7,19.8-11.7c5.4,0,9,0.7,10.7,2c2.3,1.8,4.3,5.3,6.1,10.5c1.3,4.3,5,7.5,11.1,9.7c2.8,0.8,5.6,1.2,8.5,1.2
		c7.1,0,12.4-1.4,15.8-4.3c3.4-2.9,5.1-6.2,5.1-9.8c0-3.6-1.7-6.8-5-9.6c-3.3-2.8-7.4-4.2-11.7-4.1c-4.5,0-7.6-0.1-9.2-0.4
		c-1.9-0.4-3.6-1-5.3-2c-3.6-1.8-5.5-7-5.5-15.6c0-9.4,2.5-15,7.5-16.8c2.3-0.7,5.8-1,10.5-1c10.2,0,15.4-2.6,15.4-7.9
		c0-2.8-1.3-5.5-4-8.1c-2.7-2.6-6.4-3.8-11.2-3.8c-4.8,0-8.6,0.8-11.4,2.4c-2.8,1.6-4.6,3.2-5.3,4.8l-1.2,2.4
		c-3.1,6.7-7.5,10.1-13.3,10.1c-3.4,0-7.1-1.2-11.1-3.6c-6.7-3.9-10.1-8.4-10.1-13.5c0-2.2,1.5-6.7,4.6-13.7c0.5-1.2,2-3.3,4.4-6.4
		c2.4-3,5.2-5.7,8.4-8c3.2-2.3,7.6-4.4,13.3-6.3c6.2-2,12.6-2.9,19.1-2.8C454.8,177.3,467.9,182,477.4,191.4z"/>
	<path class="st3" d="M412.3,214.2l-0.4,0.1h-0.1c-0.3,0.1-0.7,0.2-1.1,0.2c-0.8,0.1-1.7,0.2-2.5,0.2l0,0c-0.3,0-0.5,0-0.8,0h-0.2
		c-0.3,0-0.6,0-0.9-0.1c-0.8-0.1-1.6-0.3-2.4-0.5l0,0c-0.3-0.1-0.5-0.1-0.8-0.2c-0.3-0.1-0.4-0.1-0.6-0.2l0,0
		c-0.3,0.5-0.7,0.9-1.1,1.2c0.4-0.3,0.8-0.8,1.1-1.2l0,0c-0.8-0.3-1.5-0.7-2.3-1.1c-0.3-0.2-0.5-0.3-0.8-0.5l0,0
		c-0.3-0.2-0.5-0.3-0.8-0.5l0,0c-0.4,0.3-0.8,0.5-1.3,0.6c0.5-0.1,0.9-0.3,1.3-0.6l0,0c-0.6-0.4-1.2-0.9-1.8-1.5
		c-0.2-0.2-0.4-0.4-0.6-0.7l0,0c-0.2-0.2-0.4-0.5-0.6-0.7c-0.1,0.3-0.1,0.5-0.2,0.8c0,0,0,0,0,0c0,0.2-0.1,0.5-0.1,0.7
		c0,0,0,0,0,0.1c0,0.2,0,0.5,0,0.7v0.1c0,0.2,0,0.5,0,0.7c0,0.4,0,0.1,0,0.1c0,0.2,0.1,0.5,0.1,0.7v0.1c0,0.2,0.1,0.5,0.2,0.7v0.1
		c0.1,0.2,0.1,0.5,0.2,0.7c0,0,0,0,0,0c0.1,0.2,0.2,0.5,0.3,0.7l0,0c0.4,0.8,0.9,1.5,1.5,2.2l0,0c0.7,0.7,1.5,1.4,2.4,1.8l0,0
		c0.8,0.4,1.7,0.7,2.7,0.9l0,0h0.1c0.2,0,0.5,0.1,0.7,0.1c0.8,0.1,1.6,0,2.4-0.1l0,0c0.8-0.2,1.7-0.5,2.4-0.9l0,0l0.3-0.2l0,0
		l0.3-0.2h0c0.1-0.1,0.2-0.1,0.3-0.2l0,0c0.1-0.1,0.2-0.1,0.3-0.2l0.1,0l0.3-0.2l0.1-0.1l0.2-0.2l0.1-0.1l0.2-0.2l0.1-0.1l0.2-0.2
		l0.1-0.1l0.2-0.2l0.1-0.1l0.2-0.2c0,0,0.1-0.1,0.1-0.1l0.1-0.2l0.1-0.2l0.1-0.2l0.1-0.2c0-0.1,0.1-0.1,0.1-0.2
		c0-0.1,0.1-0.1,0.1-0.2c0-0.1,0.1-0.1,0.1-0.2l0.1-0.3l0.1-0.1c0.1-0.1,0.1-0.3,0.2-0.4C412.7,214.1,412.5,214.1,412.3,214.2z"/>
	<path class="st4" d="M391,169.9c0,0,4.7-4,9.7-3.2s8.8,5.7,8.8,5.7c0.1,0.6,0.2,1.3-0.8,1.1c-1.3-0.2-4-5.2-8.3-5.6
		C395.9,167.6,391,169.9,391,169.9z"/>
	<path class="st5" d="M402.3,176c5.1,3.7,6.4,11.9,2.5,17.9c-3.7,6.2-11,8.1-16,4.2c-5.2-3.8-6.4-11.9-2.7-18
		C389.8,173.9,397,172.2,402.3,176z"/>
	<path class="st6" d="M394.7,200.6c-2.3,0-4.4-0.7-6.2-2.1c-5.4-3.9-6.6-12.3-2.8-18.7c1.8-3.1,4.8-5.4,8.3-6.2c3-0.6,6.1,0,8.6,1.9
		l0,0c5.4,4,6.6,12.4,2.7,18.7c-1.8,3.2-4.9,5.5-8.6,6.3C396,200.6,395.4,200.6,394.7,200.6z M396.2,174.5c-0.7,0-1.4,0.1-2,0.2
		c-3.2,0.7-6,2.8-7.6,5.7c-3.5,5.9-2.4,13.7,2.6,17.3c2.1,1.6,4.8,2.3,7.4,1.7c3.3-0.7,6.2-2.8,7.9-5.8c3.6-5.8,2.5-13.6-2.4-17.3
		C400.3,175.2,398.3,174.5,396.2,174.5z"/>
	<path class="st4" d="M399.4,187.5c2.7,1.9,3.4,5.5,1.6,8.2c-1.8,2.7-5.5,3.3-8.1,1.5s-3.3-5.5-1.5-8.1l0,0
		C393.2,186.5,396.7,185.8,399.4,187.5z"/>
	<path class="st5" d="M395.9,185.1c1.1,0.8,1.4,2.3,0.6,3.4c-0.7,1.1-2.2,1.4-3.3,0.6c-1.1-0.7-1.4-2.2-0.6-3.3
		C393.3,184.7,394.8,184.4,395.9,185.1z"/>
	<path class="st5" d="M424.7,183.8c-6.4-1.3-13.2,3.2-15.4,10c-2.1,7,1.2,13.4,7.6,14.8c6.2,1.4,13.1-3.1,15.2-9.9
		C434.3,191.8,430.9,185.3,424.7,183.8z"/>
	<path class="st6" d="M419.3,209.4c-0.8,0-1.6-0.1-2.5-0.3c-2.9-0.6-5.5-2.4-7-4.9c-1.8-2.9-2.1-6.8-1-10.5
		c2.3-7.1,9.4-11.7,16-10.3l0,0c2.9,0.7,5.5,2.5,7,5.2c1.7,3,2,6.7,0.8,10.4C430.8,205,425.1,209.4,419.3,209.4z M422.5,184.2
		c-5.4,0-10.8,4-12.6,9.8c-1,3.4-0.7,7,0.9,9.7c1.4,2.3,3.7,3.9,6.3,4.4c6,1.4,12.6-3,14.5-9.5c1.1-3.4,0.8-6.8-0.7-9.5
		c-1.3-2.4-3.6-4.1-6.3-4.7C423.9,184.2,423.2,184.2,422.5,184.2L422.5,184.2z"/>
	<path class="st4" d="M417.8,193.4c-3.1-0.9-6.3,1.1-7.2,4.2c-0.7,3.1,1.1,6.3,4.2,7.2c3.2,0.8,6.4-1.1,7.2-4.2
		C422.9,197.4,421,194.2,417.8,193.4L417.8,193.4z"/>
	<path class="st4" d="M436.5,188.9c0,0,0-6.2-3.9-9.3c-4-3.3-10.1-2.8-10.1-2.8c-0.6,0.3-1.2,0.7-0.4,1.4c1.1,0.6,6.6-0.6,9.8,2.3
		C435.2,183.5,436.5,188.9,436.5,188.9z"/>
	<path class="st5" d="M416.1,191.3c1.1,0.8,1.4,2.3,0.6,3.4c-0.7,1.1-2.2,1.4-3.3,0.6c-1.1-0.7-1.4-2.2-0.6-3.3
		C413.5,190.9,415,190.6,416.1,191.3z"/>
	<path class="st7" d="M482,222.1c-0.7,6.8-2.1,16-10.3,17.3c-2.1,0.3-1.2,3.5,0.9,3.2c9.8-1.5,11.9-12.3,12.7-20.5
		C485.5,220,482.2,220,482,222.1L482,222.1z"/>
	<path class="st7" d="M473.3,258.4c4.4,2.5,7.5,6.8,8.5,11.7c0.4,2.1,3.6,1.2,3.2-0.9c-1.2-5.8-4.9-10.8-10-13.7
		C473.1,254.5,471.4,257.4,473.3,258.4L473.3,258.4z"/>
	<path class="st7" d="M486.4,279c2.1,0,2.1-3.3,0-3.3S484.3,279,486.4,279z"/>
	<path class="st7" d="M466,242.9c2.1,0,2.1-3.3,0-3.3S463.9,242.9,466,242.9z"/>
	<path class="st7" d="M390,281.4c-0.2,8,2.5,15.8,7.7,21.9c1.4,1.6,3.7-0.7,2.3-2.3c-4.6-5.5-7-12.5-6.8-19.6
		C393.4,279.3,390.1,279.3,390,281.4L390,281.4z"/>
	<path class="st7" d="M402.8,308.9c2.1,0,2.1-3.3,0-3.3S400.6,308.9,402.8,308.9z"/>
	<path class="st2" d="M446.9,256.1c-0.5,10.2-13.1,11.5-20.9,9.9c-10.1-2.1-17.7-14.7-16.5-24.6c0.3-2.6,4.4-2.6,4.1,0.1
		c-1,8,4.2,16.1,11.1,19.8c4.9,2.7,17.7,2.2,18.1-5.2C442.9,253.4,447,253.4,446.9,256.1L446.9,256.1z"/>
	<path class="st2" d="M410.7,242.5c-2.8-0.5-5.4-1.7-7.1-4.2c-0.6-1-0.2-2.2,0.8-2.8c1-0.5,2.2-0.2,2.8,0.8c1,1.5,2.9,1.9,4.6,2.2
		c1.1,0.2,1.7,1.5,1.4,2.5C412.9,242.1,411.8,242.7,410.7,242.5L410.7,242.5z"/>
	<path class="st2" d="M412,238.6c1.9-1,4.3-3.7,4.1-6c-0.2-2.7,3.9-2.6,4.1,0.1c0.3,3.6-3.1,8-6.2,9.5
		C411.6,243.3,409.6,239.7,412,238.6L412,238.6z"/>
	<path class="st2" d="M410.9,240.6c-1.1-2-1.6-4.2-1.6-6.5c0-2.7,4.1-2.6,4.1,0.1c-0.1,1.5,0.3,3.1,1,4.4
		C415.8,240.9,412.2,242.9,410.9,240.6L410.9,240.6z"/>
	<path class="st8" d="M273.5,238.4c-4,9.8,7.3,16.6,15.4,18.5c10.5,2.4,23.2-6.2,26.4-16c0.8-2.6-3-4.4-3.9-1.7
		c-2.6,8-11,13.3-19.2,13.8c-5.8,0.4-17.7-5.7-14.8-12.8C278.5,237.6,274.6,235.8,273.5,238.4L273.5,238.4z"/>
	<path class="st8" d="M313.7,241.4c2.9,0.7,5.8,0.8,8.5-0.8c1-0.7,1.2-2,0.5-3c0,0,0,0,0,0c-0.7-0.9-2-1.2-3-0.5
		c-1.6,1-3.6,0.5-5.3,0.1c-1.1-0.3-2.3,0.7-2.5,1.8C311.7,240.1,312.5,241.1,313.7,241.4L313.7,241.4z"/>
	<path class="st8" d="M314.2,237.1c-1.4-1.7-2.4-5.4-1.3-7.5c1.4-2.4-2.5-4.1-3.9-1.7c-1.9,3.3-0.5,8.9,1.7,11.7
		C312.4,241.8,315.9,239.3,314.2,237.1L314.2,237.1z"/>
	<path class="st8" d="M314.4,239.5c1.9-1.4,3.4-3.3,4.3-5.5c1.2-2.5-2.8-4.2-3.9-1.7c-0.6,1.5-1.6,2.8-2.9,3.7
		C309.6,237.7,312.1,241.1,314.4,239.5L314.4,239.5z"/>
	<path class="st9" d="M285,293c5.6,0,9.7,0.7,12.1,2c2.4,1.3,4.1,3.4,4.8,6c0.8,2.7,1.2,6.2,1.2,10.5c0,4.3-0.4,7.8-1.3,10.4
		c-0.9,2.6-2.4,4.4-4.4,5.4c-3,1.7-7.3,2.5-12.8,2.5h-80.7c-5,0-9.2-1.9-12.8-5.6c-3.5-3.4-5.4-8.1-5.3-13c0-7.4,2.6-14.3,7.7-20.5
		c5.3-6.4,11.6-11.8,18.7-16.1c7.3-4.5,14.6-8.9,21.9-13.2c6.9-4,13.2-9,18.7-14.8c5.2-5.5,7.7-11.3,7.7-17.5c0-1.2-0.5-3-1.4-5.3
		c-0.8-2-1.9-3.9-3.2-5.6c-1.2-1.4-3-2.8-5.5-4c-2.5-1.2-5.9-1.9-10.3-1.9c-4.3,0-8.5,1.7-11.5,4.9c-3.2,3.2-5.1,6.4-5.5,9.6
		l-0.8,4.7v1.2c0,2.3-0.1,4.5-0.3,6.8c-0.3,1.8-1,3.6-2,5.2c-2.1,3.3-7.4,5-16.1,5c-9.6,0-15.3-2.6-17.1-7.8c-0.7-2.2-1-5.7-1-10.5
		c0-14.3,5.1-27.1,15.4-38.5s23.7-17,40.3-17c16.6,0,30,5.7,40.4,17.2c10.3,11.5,15.5,24.6,15.5,39.3c0,7.7-1.7,15.4-5.2,22.3
		c-3.5,7-7.6,12.6-12.4,16.9c-10.2,9.1-19.3,15.2-27.3,18.4l-5.2,2.1v1.1L285,293z"/>
	<path class="st5" d="M285.7,201.2c-5.3,3.1-6.9,10.7-4.1,16.8c3,6.2,9.7,8.5,14.9,5.3c5.1-3,6.9-10.7,4.1-16.8
		C297.6,200.4,290.9,198,285.7,201.2z"/>
	<path class="st8" d="M291.5,225.2c-1,0-1.9-0.1-2.9-0.4c-3.3-1.1-6-3.5-7.5-6.6c-3.1-6.5-1.1-14.3,4.3-17.4
		c2.4-1.5,5.4-1.9,8.1-1.1c3.3,1,6.1,3.4,7.6,6.5c3,6.3,1,14.3-4.3,17.4C295.2,224.7,293.4,225.2,291.5,225.2z M290.7,200.3
		c-1.7,0-3.3,0.5-4.7,1.3l0,0c-5,2.9-6.7,10.1-3.9,16.1c1.3,2.9,3.8,5.1,6.8,6c2.5,0.7,5.1,0.4,7.3-1c4.9-2.9,6.6-10.3,3.9-16.1
		c-1.4-2.9-3.9-5.1-6.9-6C292.4,200.4,291.6,200.3,290.7,200.3z"/>
	<path class="st4" d="M292.7,203c-2.5,1.3-3.4,4.4-2.1,6.8c1.3,2.4,4.3,3.3,6.7,2c0,0,0,0,0.1,0c2.5-1.2,3.3-4.2,2-6.6
		C298.1,202.7,295.1,201.7,292.7,203C292.7,203,292.7,203,292.7,203z"/>
	<path class="st4" d="M295.7,196.7c0,0-3.3-3.7-7.4-3.4c-4.1,0.2-7.4,3.9-7.4,3.9c-0.2,0.4-0.2,1.1,0.5,1.1c1-0.1,3.5-4,7-3.9
		C291.9,194.3,295.7,196.7,295.7,196.7z"/>
	<path class="st10" d="M295.8,229.8c-0.1,0.1-0.3,0.2-0.4,0.3l-0.1,0.1c-0.4,0.2-0.7,0.4-1.1,0.7c-0.9,0.5-1.9,0.9-2.9,1.3l0,0
		c-0.3,0.1-0.7,0.2-1,0.4l-0.2,0.1c-0.4,0.1-0.7,0.2-1.1,0.3c-1,0.3-2.1,0.5-3.1,0.7l0,0l-1.1,0.2l-0.9,0.1l0,0
		c-0.1,0.5-0.4,1-0.7,1.5c0.3-0.5,0.5-1,0.7-1.5l0,0c-1.1,0.1-2.2,0.2-3.3,0.2c-0.4,0-0.8,0-1.2,0h0c-0.4,0-0.8,0-1.2-0.1l0,0
		c-0.3,0.4-0.8,0.8-1.2,1.1c0.5-0.3,0.9-0.6,1.2-1.1l0,0c-1-0.1-1.9-0.2-2.9-0.4c-0.4-0.1-0.8-0.2-1.1-0.2h0
		c-0.4-0.1-0.7-0.2-1.1-0.3c0.1,0.2,0.1,0.5,0.2,0.7v0c0.1,0.2,0.2,0.4,0.3,0.6l0,0.1c0.1,0.2,0.2,0.4,0.4,0.6l0,0.1
		c0.1,0.2,0.3,0.4,0.4,0.6l0.1,0.1c0.2,0.2,0.3,0.4,0.5,0.5l0.1,0c0.2,0.2,0.4,0.3,0.6,0.5l0,0c0.2,0.2,0.4,0.3,0.7,0.5h0
		c0.2,0.1,0.5,0.3,0.7,0.4l0,0c0.9,0.5,1.9,0.8,2.9,1.1l0,0c1.3,0.3,2.6,0.4,3.9,0.4l0,0c1.2,0,2.5-0.2,3.7-0.5l0,0l0.1,0
		c0.3-0.1,0.6-0.2,0.9-0.2c1-0.3,1.9-0.7,2.8-1.2l0,0c0.9-0.5,1.7-1.1,2.5-1.8l0,0l0.3-0.3l0,0c0.1-0.1,0.2-0.2,0.3-0.3l0,0l0.2-0.3
		l0,0c0.1-0.1,0.1-0.2,0.2-0.3l0-0.1c0.1-0.1,0.1-0.2,0.2-0.3l0.1-0.1l0.2-0.3c0,0,0-0.1,0.1-0.1c0.1-0.1,0.1-0.2,0.1-0.3l0.1-0.1
		c0-0.1,0.1-0.2,0.1-0.3c0-0.1,0-0.1,0.1-0.1c0,0,0.1-0.2,0.1-0.2c0-0.1,0-0.1,0.1-0.1l0.1-0.2l0-0.2c0-0.1,0-0.2,0.1-0.2
		c0-0.1,0-0.1,0-0.2c0-0.1,0-0.1,0-0.2c0-0.1,0-0.1,0-0.2c0-0.1,0-0.1,0-0.2s0-0.1,0-0.2v-0.2v-0.4c0-0.1,0-0.3,0-0.4
		C296.2,229.6,296,229.7,295.8,229.8z"/>
	<path class="st4" d="M260,201.1c0,0,2.9-6,8.2-7.1c5.3-1.1,10.9,2.2,10.9,2.2c0.4,0.6,0.7,1.3-0.3,1.6c-1.3,0.2-6-3.7-10.4-2.4
		C264,196.6,260,201.1,260,201.1z"/>
	<path class="st5" d="M273.4,202.6c6.4,1.6,10.7,9.2,9.5,16.5c-1.3,7.5-7.7,12-14.2,10.2c-6.5-1.6-10.7-9.2-9.5-16.5
		C260.5,205.5,266.8,200.8,273.4,202.6z"/>
	<path class="st8" d="M271.6,230.2c-1,0-2-0.1-3-0.4c-6.7-1.7-11.2-9.3-9.9-17.1c0.6-3.8,2.8-7.2,6-9.3c2.6-1.7,5.9-2.2,8.9-1.3
		c6.6,1.7,11.1,9.6,9.9,17.1c-0.7,4-2.8,7.4-5.9,9.3C275.7,229.6,273.7,230.2,271.6,230.2z M270.6,202.8c-1.9,0-3.8,0.5-5.4,1.6
		c-2.9,2-4.9,5.1-5.5,8.6c-1.2,7.2,2.9,14.4,9.1,15.9c2.8,0.8,5.7,0.3,8.1-1.2c2.8-1.8,4.8-4.9,5.4-8.6c1.1-7.1-3-14.3-9.1-15.9l0,0
		C272.4,202.9,271.5,202.8,270.6,202.8z"/>
	<path class="st4" d="M277.2,206.3c3,0.7,4.8,3.6,4.2,6.6c0,0,0,0,0,0c-0.6,2.9-3.4,4.9-6.3,4.3c0,0-0.1,0-0.1,0
		c-3-0.7-4.8-3.7-4.1-6.7C271.4,207.6,274.2,205.7,277.2,206.3L277.2,206.3z"/>
	<path class="st5" d="M272.2,206.3c1.1,0.3,1.9,1.4,1.6,2.5c0,0,0,0,0,0c-0.2,1.1-1.3,1.9-2.4,1.7c0,0,0,0-0.1,0
		c-1.2-0.2-1.9-1.4-1.7-2.5C269.9,206.8,271,206.1,272.2,206.3L272.2,206.3L272.2,206.3z"/>
	<path class="st5" d="M291.6,204c1.1,0.3,1.9,1.4,1.6,2.5c0,0,0,0,0,0c-0.2,1.1-1.3,1.9-2.4,1.7c0,0,0,0,0,0
		c-1.2-0.2-1.9-1.4-1.7-2.5C289.2,204.5,290.4,203.8,291.6,204L291.6,204z"/>
	<path class="st8" d="M317.4,269.2c-0.3-1.1-1.4-1.9-2.5-1.6c-1.1,0.1-2.2-0.2-3.1-0.8c1.2-0.6,2.4-1.4,3.4-2.3
		c2.1-1.8-0.8-5-2.9-3.2c-0.8,0.7-1.7,1.3-2.7,1.8c0.1-1.9,0.7-4,2-4.9c2.2-1.6-0.7-4.8-2.9-3.2c-3,2.3-4,7.9-3.1,11.4
		c0,0.2,0.1,0.3,0.2,0.5c-5.7,5.7-15.1,7-22.5,4.3c-3.7-1.3-8.4-7.8-9.9-11.4c-0.1,1.4-0.9,2.2-2.8,4.1c2,3.7,4.8,7,8.1,9.5
		c8.4,6.2,22.9,3.8,30-3.5c2.1,1.4,4.4,2.2,7,1.8C316.8,271.5,317.6,270.3,317.4,269.2C317.4,269.2,317.4,269.2,317.4,269.2z"/>
	<path class="st1" d="M257.1,186.3c-10-5.3-20.9-4.5-31.5-1.2c-2,0.6-1.2,3.8,0.9,3.2c9.7-3,19.7-4,28.9,0.9
		C257.3,190.1,259,187.3,257.1,186.3L257.1,186.3z"/>
	<path class="st1" d="M218.4,192.3c2.1,0,2.1-3.3,0-3.3S216.3,192.3,218.4,192.3z"/>
	<path class="st1" d="M202.7,290.7c-6.8,6.7-15.1,23.3-4.7,30.6c1.7,1.2,3.4-1.6,1.7-2.9c-4-2.8-3.3-8.7-2.1-12.8
		c1.4-4.8,4-9.1,7.5-12.6C206.6,291.5,204.2,289.2,202.7,290.7L202.7,290.7z"/>
	<path class="st4" d="M20,180.5c0,0,3.3-4.8,7.9-5.1s8.9,3.3,8.9,3.3c0.3,0.5,0.7,1.2-0.3,1.2c-1.2,0.2-4.6-3.8-8.6-3.3
		C23.9,177.2,20,180.5,20,180.5z"/>
	<path class="st5" d="M31.2,183.3c5.3,2.3,8.1,9.3,6.1,15.5c-2,6.1-7.9,9.3-13.4,6.9c-5.3-2.2-8.1-9.1-6.1-15.4
		C19.8,184.3,25.8,181.2,31.2,183.3z"/>
	<path class="st11" d="M27.6,207.1c-1.3,0-2.7-0.3-3.9-0.8c-5.6-2.3-8.5-9.5-6.4-16c1-3.1,3.2-5.7,6.1-7.2c2.5-1.2,5.4-1.3,8-0.3
		l0,0c5.6,2.4,8.5,9.7,6.4,16.2c-1,3.1-3.2,5.7-6.1,7.2C30.4,206.8,29,207.1,27.6,207.1z M27.7,183.2c-1.3,0-2.6,0.3-3.8,0.9
		c-2.7,1.3-4.7,3.7-5.5,6.5c-1.9,5.9,0.8,12.7,5.8,14.7c2.3,1,4.9,1,7.1-0.1c2.7-1.3,4.7-3.7,5.6-6.5c1.9-6-0.7-12.7-5.8-14.9
		C29.9,183.4,28.8,183.2,27.7,183.2L27.7,183.2z"/>
	<path class="st4" d="M33,193.9c2.7,1,4.1,4,3.1,6.8c0,0,0,0,0,0c-1,2.8-4.1,4.3-6.8,3.1c-2.7-0.9-4.1-3.7-3.3-6.4
		c0-0.1,0.1-0.3,0.1-0.4c0.9-2.7,3.9-4.1,6.6-3.2C32.9,193.9,33,193.9,33,193.9z"/>
	<path class="st11" d="M58.2,283.5c0,13.5-5,45-5,45c-2-1-5.2-1.8-7.6-1.4c-0.5,0.1-0.7,0.5-0.7,1c0.1,0.3,0.2,0.5,0.5,0.6l9.3,4.1
		c0.7,0.3,1.6,0.1,2.1-0.5L69.9,288C69.9,288,58.2,281.9,58.2,283.5z"/>
	<path class="st11" d="M97.3,283.5l-0.1,46.1c2.1-0.5,5.5-0.4,7.7,0.5c0.4,0.2,0.6,0.7,0.4,1.1c-0.1,0.2-0.4,0.4-0.6,0.5l-10.1,1.6
		c-0.8,0.1-1.6-0.3-1.8-1.1l-1.3-46.1L97.3,283.5z"/>
	<path class="st11" d="M70.3,259.7c-8.1,19-34.7,5.2-45.1-6.1c-1.3-1.4,0.9-3.3,2.2-1.9c8.8,9.6,33,20,40.1,3.3
		c0.7-1.7,3.5-0.8,2.8,0.9L70.3,259.7z"/>
	<path class="st11" d="M31.9,239.5c2,2.4,2.8,5.2,2,8.2c-1,3.5-4.7,4.9-7.9,5.3c-1.8,0.3-2.4-2.5-0.6-2.8c2.3-0.4,4.8-0.9,5.8-3.4
		c0.7-1.9-0.2-3.9-1.3-5.4S30.7,238.1,31.9,239.5L31.9,239.5z"/>
	<path class="st11" d="M25.8,237.9c-2.3-1.6-6.4,1.3-6.8,3.8c-0.3,1.9,1,3.7,2.1,5.1c1.4,1.6,3.1,2.2,4.9,3.2c1.6,1,0,3.4-1.6,2.4
		c-1.3-0.8-2.6-1.2-3.8-2.2c-1.1-0.9-2.1-1.9-2.9-3.1c-1.4-2.1-2.3-4.8-1.3-7.2c1.4-3.8,7.1-7.1,10.8-4.5
		C28.9,236.6,27.3,239,25.8,237.9L25.8,237.9z"/>
	<path class="st11" d="M24.6,252.5c-3-1.5-5.8-3.1-8.9-4.5c-3.1-1.4-6.5-1.8-9.8-2.8c-1.8-0.5-0.9-3.3,0.9-2.8
		c3.3,1,6.6,1.5,9.8,2.8c3.3,1.3,6.4,3.2,9.6,4.8C27.9,250.9,26.3,253.4,24.6,252.5L24.6,252.5z"/>
	<path class="st11" d="M25.5,253.2c-4.5,0.8-9.3,0.5-13.3,2.9c-1.6,1-2.9-1.6-1.3-2.6c4.2-2.6,9.3-2.3,14-3.2
		C26.8,250,27.4,252.9,25.5,253.2L25.5,253.2z"/>
	<path class="st11" d="M26.5,253.1c-1.4,1.3-2.9,2.5-4.3,3.8c-1.2,1-2.8,2.1-3.1,3.7c-0.3,1.8-3.1,0.9-2.8-0.9
		c0.3-1.7,1.5-2.8,2.7-3.9c1.8-1.7,3.7-3.3,5.6-4.9C25.9,249.7,27.9,251.8,26.5,253.1L26.5,253.1z"/>
	<path class="st12" d="M84.8,168.1c7.4,2.2,12.4,8.9,12.5,16.6v112.8c0,2.5-0.1,5.1-0.3,7.6c-0.4,2.1-1.1,4-2.1,5.8
		c-2.1,4-7.8,6-17.2,6c-9.1,0-14.8-1.9-17-5.8c-1.1-1.9-1.8-3.9-2.1-6.1c-0.3-2.7-0.4-5.4-0.3-8.1v-68.4l-2.9,2.7
		c-14.7,9.4-22.6,5.5-27.2,0.3s-8.6-18.8-0.7-25.8c0,0,27-26.3,36.3-34.8C69.7,165.4,78.1,166.1,84.8,168.1z"/>
	<path class="st5" d="M55.3,183.5c-5.5,2.3-8.1,9.3-6.1,15.5c2,6.1,7.9,9.3,13.4,6.9c5.3-2.3,8.1-9.1,6.1-15.4
		C66.8,184.5,60.8,181.2,55.3,183.5z"/>
	<path class="st11" d="M58.9,207.3c-1.4,0-2.8-0.3-4.1-0.9c-3-1.4-5.2-4-6.1-7.2c-2.1-6.7,0.7-13.8,6.4-16.2l0,0
		c2.5-1.1,5.4-1,7.8,0.1c3,1.5,5.3,4.1,6.3,7.3c2.1,6.5-0.8,13.6-6.4,16C61.6,207,60.3,207.3,58.9,207.3z M55.5,184
		c-5.1,2.2-7.7,8.9-5.8,14.9c0.9,2.9,2.9,5.2,5.6,6.5c2.3,1,4.8,1.1,7.1,0.1c5.1-2.2,7.7-8.8,5.8-14.7c-0.9-2.9-3-5.3-5.7-6.7
		C60.3,183.1,57.8,183,55.5,184L55.5,184z"/>
	<path class="st4" d="M53.1,193.1c-2.7,0.9-4.1,3.9-3.2,6.6c0,0.1,0,0.1,0.1,0.2c1,2.8,4.2,4.2,6.9,3.2c0,0,0,0,0,0c2.7-1,4-4,3-6.7
		c0,0,0-0.1,0-0.1c-0.8-2.7-3.7-4.2-6.4-3.3C53.3,193,53.2,193,53.1,193.1z"/>
	<path class="st5" d="M50.9,192.9c-0.9,0.3-1.4,1.4-1.1,2.3c0,0,0,0,0,0c0.4,1,1.5,1.5,2.4,1.1c0.9-0.4,1.4-1.4,1-2.3c0,0,0,0,0,0
		c-0.3-0.9-1.3-1.4-2.2-1.2C51,192.9,50.9,192.9,50.9,192.9z"/>
	<path class="st4" d="M66.8,181c0,0-3.1-4.8-7.8-5.1c-4.8-0.3-9.1,3.3-9.1,3.3c-0.2,0.5-0.5,1.2,0.5,1.3c1.2,0,4.6-4,8.6-3.5
		C63,177.7,66.8,181,66.8,181z"/>
	<path class="st5" d="M27.3,192.9c-0.9,0.3-1.4,1.4-1.1,2.3c0,0,0,0,0,0.1c0.4,1,1.4,1.5,2.4,1.1c0,0,0,0,0,0
		c0.9-0.3,1.4-1.4,1.1-2.3c0,0,0,0,0,0c-0.3-0.9-1.3-1.5-2.2-1.2C27.5,192.8,27.4,192.9,27.3,192.9z"/>
	<path class="st10" d="M28.7,223.1c0,0,7.6,6.7,14.2,0.5C42.9,223.6,36,233.9,28.7,223.1z"/>
	<path class="st11" d="M89.3,235.8c11.7,3.3,23.3-1.8,28.7-12.7c4.1-8.4-0.4-23-8.8-27.2c-2.7-1.3-4.5,3-1.8,4.4
		c6.5,3.2,8.8,15,6.2,21.1c-3.6,8.7-13.8,12.6-22.6,10.2C88.2,230.6,86.4,234.9,89.3,235.8L89.3,235.8z"/>
	<path class="st11" d="M105.2,195.1c-1.3,0.9-3.2,1.8-4.7,1.1c-1.1-0.6-2.6,0.2-3.1,1.3c-0.5,1.2,0.1,2.6,1.3,3.1
		c3,1.5,6.7,0.1,9.3-1.7S107.7,193.4,105.2,195.1L105.2,195.1z"/>
	<path class="st11" d="M107.5,189.1c0.2,1,0.5,2.1,0.2,3.1s-1.2,1.8-1.9,2.5c-0.9,0.9-1.3,2.2-0.4,3.3c0.7,0.9,2.4,1.3,3.3,0.4
		c1.4-1.4,2.7-2.7,3.4-4.5s0.5-3.8,0.1-5.6C111.6,185.5,106.9,186.2,107.5,189.1L107.5,189.1z"/>
	<path class="st11" d="M101.5,193c1.3,1.2,2.4,2.6,3.3,4.1c0.7,1.1,2.3,1.2,3.3,0.4c1-0.8,1.2-2.3,0.4-3.3c-1.2-1.8-2.6-3.5-4.2-5
		c-1-0.8-2.5-0.6-3.3,0.4C100.3,190.7,100.5,192.2,101.5,193z"/>
	<path class="st13" d="M90.2,300.3c2.1,0,2.1-3.3,0-3.3C88.1,297,88.1,300.3,90.2,300.3z"/>
	<path class="st13" d="M87.7,304c-2.4,7.3-11.8,5.6-17.4,4.4c-2.1-0.5-3,2.7-0.9,3.2c7.7,1.7,18.5,2.7,21.5-6.7
		C91.5,302.8,88.3,301.9,87.7,304L87.7,304z"/>
	<path class="st13" d="M79.2,175.3c7.2,0.2,9.2,5.7,8.9,12c-0.1,2.1,3.2,2.1,3.3,0c0.2-3.7-0.2-7.8-2.5-10.9c-2.3-3.2-6-4.4-9.8-4.4
		C77.1,172,77.1,175.3,79.2,175.3z"/>
	<path class="st13" d="M90.2,194.7c2.1,0,2.1-3.3,0-3.3C88.1,191.3,88.1,194.7,90.2,194.7z"/>
</g>
</svg>
