<?xml version="1.0" encoding="utf-8"?>
<!-- Generator: Adobe Illustrator 27.8.0, SVG Export Plug-In . SVG Version: 6.00 Build 0)  -->
<svg version="1.1" id="Layer_1" xmlns="http://www.w3.org/2000/svg" xmlns:xlink="http://www.w3.org/1999/xlink" x="0px" y="0px"
	 viewBox="0 0 500 500" style="enable-background:new 0 0 500 500;" xml:space="preserve">
<style type="text/css">
	.st0{display:none;}
	.st1{display:inline;fill:#594058;}
	.st2{display:inline;fill:#0688A6;}
	.st3{fill:#0688A6;}
	.st4{fill:#594058;}
	.st5{display:none;fill:#594058;}
	.st6{display:inline;fill:#D0D9D5;}
	.st7{display:none;fill:#D0D9D5;}
</style>
<g id="XMLID_3_" class="st0">
	<path id="XMLID_195_" class="st1" d="M339.5,250c0-49.4-40.2-89.5-89.5-89.5s-89.5,40.2-89.5,89.5s40.2,89.5,89.5,89.5
		S339.5,299.4,339.5,250z M183.8,250c0-36.5,29.7-66.2,66.2-66.2s66.2,29.7,66.2,66.2s-29.7,66.2-66.2,66.2S183.8,286.5,183.8,250z"
		/>
	<path id="XMLID_188_" class="st2" d="M261.7,111.8V62.3c0-6.4-5.2-11.7-11.7-11.7c-6.4,0-11.7,5.2-11.7,11.7v49.6
		c0,6.4,5.2,11.7,11.7,11.7C256.4,123.5,261.7,118.3,261.7,111.8z"/>
	<path id="XMLID_191_" class="st2" d="M152.3,164c3,0,6-1.1,8.3-3.4c4.6-4.6,4.6-11.9,0-16.5l-35-35c-4.6-4.6-11.9-4.6-16.5,0
		c-4.6,4.6-4.6,11.9,0,16.5l35,35C146.3,162.8,149.3,164,152.3,164z"/>
	<path id="XMLID_192_" class="st2" d="M111.8,261.7c6.4,0,11.7-5.2,11.7-11.7c0-6.4-5.2-11.7-11.7-11.7H62.3
		c-6.4,0-11.7,5.2-11.7,11.7c0,6.4,5.2,11.7,11.7,11.7H111.8z"/>
	<path id="XMLID_196_" class="st2" d="M125.5,391l35-35c4.6-4.6,4.6-11.9,0-16.5c-4.6-4.6-11.9-4.6-16.5,0l-35,35
		c-4.6,4.6-4.6,11.9,0,16.5c2.3,2.3,5.3,3.4,8.3,3.4C120.2,394.4,123.2,393.3,125.5,391z"/>
	<path id="XMLID_197_" class="st2" d="M261.7,437.7v-49.6c0-6.4-5.2-11.7-11.7-11.7c-6.4,0-11.7,5.2-11.7,11.7v49.6
		c0,6.4,5.2,11.7,11.7,11.7C256.4,449.4,261.7,444.2,261.7,437.7z"/>
	<path id="XMLID_198_" class="st2" d="M382.7,394.4c3,0,6-1.1,8.3-3.4c4.6-4.6,4.6-11.9,0-16.5l-35-35c-4.6-4.6-11.9-4.6-16.5,0
		c-4.6,4.6-4.6,11.9,0,16.5l35,35C376.8,393.3,379.8,394.4,382.7,394.4z"/>
	<path id="XMLID_199_" class="st2" d="M437.7,261.7c6.4,0,11.7-5.2,11.7-11.7c0-6.4-5.2-11.7-11.7-11.7h-49.6
		c-6.4,0-11.7,5.2-11.7,11.7c0,6.4,5.2,11.7,11.7,11.7H437.7z"/>
	<path id="XMLID_226_" class="st2" d="M356,160.6l35-35c4.6-4.6,4.6-11.9,0-16.5c-4.6-4.6-11.9-4.6-16.5,0l-35,35
		c-4.6,4.6-4.6,11.9,0,16.5c2.3,2.3,5.3,3.4,8.3,3.4S353.7,162.8,356,160.6z"/>
</g>
<g id="XMLID_62_">
	<path id="XMLID_19_" class="st3" d="M92.3,349.3c5.7,0,10.9-3.8,12.4-9.6l2.6-9.5c1.8-6.9-2.2-13.9-9.1-15.8
		c-6.9-1.8-13.9,2.2-15.8,9.1l-2.6,9.5C78,340,82.1,347,89,348.9C90.1,349.2,91.2,349.3,92.3,349.3z"/>
	<path id="XMLID_21_" class="st3" d="M139,349.3c5.7,0,10.9-3.8,12.4-9.6l2.6-9.5c1.8-6.9-2.2-13.9-9.1-15.8
		c-6.9-1.8-13.9,2.2-15.8,9.1l-2.6,9.5c-1.8,6.9,2.2,13.9,9.1,15.8C136.8,349.2,137.9,349.3,139,349.3z"/>
	<path id="XMLID_22_" class="st3" d="M327.4,349.3c5.7,0,10.9-3.8,12.4-9.6l2.6-9.5c1.8-6.9-2.2-13.9-9.1-15.8
		c-6.9-1.8-13.9,2.2-15.8,9.1l-2.6,9.5c-1.8,6.9,2.2,13.9,9.1,15.8C325.2,349.2,326.3,349.3,327.4,349.3z"/>
	<path id="XMLID_39_" class="st3" d="M374.1,349.3c5.7,0,10.9-3.8,12.4-9.6l2.6-9.5c1.8-6.9-2.2-13.9-9.1-15.8
		c-6.9-1.8-13.9,2.2-15.8,9.1l-2.6,9.5c-1.8,6.9,2.2,13.9,9.1,15.8C371.9,349.2,373,349.3,374.1,349.3z"/>
	<path id="XMLID_41_" class="st3" d="M92.3,407.6c5.7,0,10.9-3.8,12.4-9.6l2.6-9.5c1.8-6.9-2.2-13.9-9.1-15.8
		c-6.9-1.8-13.9,2.2-15.8,9.1l-2.6,9.5c-1.8,6.9,2.2,13.9,9.1,15.8C90.1,407.4,91.2,407.6,92.3,407.6z"/>
	<path id="XMLID_48_" class="st3" d="M139,407.6c5.7,0,10.9-3.8,12.4-9.6l2.6-9.5c1.8-6.9-2.2-13.9-9.1-15.8
		c-6.9-1.8-13.9,2.2-15.8,9.1l-2.6,9.5c-1.8,6.9,2.2,13.9,9.1,15.8C136.8,407.4,137.9,407.6,139,407.6z"/>
	<path id="XMLID_61_" class="st3" d="M327.4,407.6c5.7,0,10.9-3.8,12.4-9.6l2.6-9.5c1.8-6.9-2.2-13.9-9.1-15.8
		c-6.9-1.8-13.9,2.2-15.8,9.1l-2.6,9.5c-1.8,6.9,2.2,13.9,9.1,15.8C325.2,407.4,326.3,407.6,327.4,407.6z"/>
	<path id="XMLID_63_" class="st3" d="M374.1,407.6c5.7,0,10.9-3.8,12.4-9.6l2.6-9.5c1.8-6.9-2.2-13.9-9.1-15.8
		c-6.9-1.8-13.9,2.2-15.8,9.1l-2.6,9.5c-1.8,6.9,2.2,13.9,9.1,15.8C371.9,407.4,373,407.6,374.1,407.6z"/>
	<path id="XMLID_148_" class="st4" d="M365.8,286.7c46.7,0,84.7-38,84.7-84.7c0-46.7-38-84.7-84.7-84.7c-8.5,0-16.8,1.2-24.8,3.7
		C322.8,78.6,280.4,50,233.4,50c-61.1,0-111.5,47.1-116.6,107c-0.8,0-1.6,0-2.3,0c-35.8,0-64.9,29.1-64.9,64.9
		c0,31.3,22.5,58,52.9,63.7c1.6,0.7,3.4,1.2,5.4,1.2h78.5l-16.1,26.1c-3.1,5.1-2.4,11.7,1.9,15.9l37.1,37.1l-25.7,66.7
		c-2.2,5.7-0.1,12.2,5.1,15.5c2.1,1.4,4.6,2,7,2c3.4,0,6.7-1.3,9.2-3.9l81.1-83c4.6-4.7,4.9-12.2,0.7-17.2l-19.5-23.5l46.6-35.6
		H365.8z M111.2,260.9c-0.6-0.2-1.2-0.3-1.8-0.4c-19.4-2.5-34.1-19.1-34.1-38.7c0-21.6,17.5-39.1,39.1-39.1c3.8,0,7.6,0.6,11.2,1.7
		c4,1.2,8.3,0.4,11.6-2.2c3.3-2.6,5.1-6.6,4.9-10.8c-0.1-1.4-0.1-2.9-0.1-4.4c0-50.3,40.9-91.2,91.2-91.2
		c40.4,0,76.4,27.1,87.6,65.8c1.1,3.7,3.7,6.7,7.3,8.2c3.5,1.5,7.5,1.4,11-0.3c8.3-4.2,17.3-6.4,26.6-6.4
		c32.5,0,58.9,26.4,58.9,58.9s-26.4,58.9-58.9,58.9H111.2z M240.6,310c-2.8,2.1-4.6,5.3-5,8.8c-0.4,3.5,0.6,7,2.9,9.7l20.6,24.9
		L230,383.2l6.1-15.9c1.8-4.8,0.7-10.2-2.9-13.8l-35.8-35.8l19.1-31H271L240.6,310z"/>
</g>
<g id="XMLID_6_" class="st0">
	<path id="XMLID_15_" class="st2" d="M112.6,334.5c5.6,0,10.7-3.7,12.2-9.4l2.3-8.6c1.8-6.8-2.2-13.7-8.9-15.5
		c-6.8-1.8-13.7,2.2-15.5,8.9l-2.3,8.6c-1.8,6.8,2.2,13.7,8.9,15.5C110.4,334.4,111.5,334.5,112.6,334.5z"/>
	<path id="XMLID_31_" class="st2" d="M158,334.5c5.6,0,10.7-3.7,12.2-9.4l2.3-8.6c1.8-6.8-2.2-13.7-8.9-15.5
		c-6.8-1.8-13.7,2.2-15.5,8.9l-2.3,8.6c-1.8,6.8,2.2,13.7,8.9,15.5C155.8,334.4,156.9,334.5,158,334.5z"/>
	<path id="XMLID_35_" class="st2" d="M203.4,334.5c5.6,0,10.7-3.7,12.2-9.4l2.3-8.6c1.8-6.8-2.2-13.7-8.9-15.5
		c-6.8-1.8-13.7,2.2-15.5,8.9l-2.3,8.6c-1.8,6.8,2.2,13.7,8.9,15.5C201.3,334.4,202.4,334.5,203.4,334.5z"/>
	<path id="XMLID_36_" class="st2" d="M248.9,334.5c5.6,0,10.7-3.7,12.2-9.4l2.3-8.6c1.8-6.8-2.2-13.7-8.9-15.5
		c-6.8-1.8-13.7,2.2-15.5,8.9l-2.3,8.6c-1.8,6.8,2.2,13.7,8.9,15.5C246.7,334.4,247.8,334.5,248.9,334.5z"/>
	<path id="XMLID_37_" class="st2" d="M294.3,334.5c5.6,0,10.7-3.7,12.2-9.4l2.3-8.6c1.8-6.8-2.2-13.7-8.9-15.5
		c-6.8-1.8-13.7,2.2-15.5,8.9l-2.3,8.6c-1.8,6.8,2.2,13.7,8.9,15.5C292.1,334.4,293.2,334.5,294.3,334.5z"/>
	<path id="XMLID_38_" class="st2" d="M339.7,334.5c5.6,0,10.7-3.7,12.2-9.4l2.3-8.6c1.8-6.8-2.2-13.7-8.9-15.5
		c-6.8-1.8-13.7,2.2-15.5,8.9l-2.3,8.6c-1.8,6.8,2.2,13.7,8.9,15.5C337.5,334.4,338.6,334.5,339.7,334.5z"/>
	<path id="XMLID_40_" class="st2" d="M385.1,334.5c5.6,0,10.7-3.7,12.2-9.4l2.3-8.6c1.8-6.8-2.2-13.7-8.9-15.5
		c-6.8-1.8-13.7,2.2-15.5,8.9l-2.3,8.6c-1.8,6.8,2.2,13.7,8.9,15.5C382.9,334.4,384,334.5,385.1,334.5z"/>
	<path id="XMLID_44_" class="st2" d="M112.6,392.3c5.6,0,10.7-3.7,12.2-9.4l2.3-8.6c1.8-6.8-2.2-13.7-8.9-15.5
		c-6.8-1.8-13.7,2.2-15.5,8.9l-2.3,8.6c-1.8,6.7,2.2,13.7,8.9,15.5C110.4,392.1,111.5,392.3,112.6,392.3z"/>
	<path id="XMLID_105_" class="st2" d="M158,392.3c5.6,0,10.7-3.7,12.2-9.4l2.3-8.6c1.8-6.8-2.2-13.7-8.9-15.5
		c-6.8-1.8-13.7,2.2-15.5,8.9l-2.3,8.6c-1.8,6.7,2.2,13.7,8.9,15.5C155.8,392.1,156.9,392.3,158,392.3z"/>
	<path id="XMLID_106_" class="st2" d="M203.4,392.3c5.6,0,10.7-3.7,12.2-9.4l2.3-8.6c1.8-6.8-2.2-13.7-8.9-15.5
		c-6.8-1.8-13.7,2.2-15.5,8.9l-2.3,8.6c-1.8,6.7,2.2,13.7,8.9,15.5C201.3,392.1,202.4,392.3,203.4,392.3z"/>
	<path id="XMLID_108_" class="st2" d="M248.9,392.3c5.6,0,10.7-3.7,12.2-9.4l2.3-8.6c1.8-6.8-2.2-13.7-8.9-15.5
		c-6.8-1.8-13.7,2.2-15.5,8.9l-2.3,8.6c-1.8,6.7,2.2,13.7,8.9,15.5C246.7,392.1,247.8,392.3,248.9,392.3z"/>
	<path id="XMLID_110_" class="st2" d="M294.3,392.3c5.6,0,10.7-3.7,12.2-9.4l2.3-8.6c1.8-6.8-2.2-13.7-8.9-15.5
		c-6.8-1.8-13.7,2.2-15.5,8.9l-2.3,8.6c-1.8,6.7,2.2,13.7,8.9,15.5C292.1,392.1,293.2,392.3,294.3,392.3z"/>
	<path id="XMLID_111_" class="st2" d="M339.7,392.3c5.6,0,10.7-3.7,12.2-9.4l2.3-8.6c1.8-6.8-2.2-13.7-8.9-15.5
		c-6.8-1.8-13.7,2.2-15.5,8.9l-2.3,8.6c-1.8,6.7,2.2,13.7,8.9,15.5C337.5,392.1,338.6,392.3,339.7,392.3z"/>
	<path id="XMLID_112_" class="st2" d="M385.1,392.3c5.6,0,10.7-3.7,12.2-9.4l2.3-8.6c1.8-6.8-2.2-13.7-8.9-15.5
		c-6.8-1.8-13.7,2.2-15.5,8.9l-2.3,8.6c-1.8,6.7,2.2,13.7,8.9,15.5C382.9,392.1,384,392.3,385.1,392.3z"/>
	<path id="XMLID_113_" class="st2" d="M112.6,450c5.6,0,10.7-3.7,12.2-9.4l2.3-8.6c1.8-6.8-2.2-13.7-8.9-15.5
		c-6.8-1.8-13.7,2.2-15.5,8.9l-2.3,8.6c-1.8,6.8,2.2,13.7,8.9,15.5C110.4,449.9,111.5,450,112.6,450z"/>
	<path id="XMLID_114_" class="st2" d="M158,450c5.6,0,10.7-3.7,12.2-9.4l2.3-8.6c1.8-6.8-2.2-13.7-8.9-15.5
		c-6.8-1.8-13.7,2.2-15.5,8.9l-2.3,8.6c-1.8,6.8,2.2,13.7,8.9,15.5C155.8,449.9,156.9,450,158,450z"/>
	<path id="XMLID_115_" class="st2" d="M203.4,450c5.6,0,10.7-3.7,12.2-9.4l2.3-8.6c1.8-6.8-2.2-13.7-8.9-15.5
		c-6.8-1.8-13.7,2.2-15.5,8.9l-2.3,8.6c-1.8,6.8,2.2,13.7,8.9,15.5C201.3,449.9,202.4,450,203.4,450z"/>
	<path id="XMLID_126_" class="st2" d="M248.9,450c5.6,0,10.7-3.7,12.2-9.4l2.3-8.6c1.8-6.8-2.2-13.7-8.9-15.5
		c-6.8-1.8-13.7,2.2-15.5,8.9l-2.3,8.6c-1.8,6.8,2.2,13.7,8.9,15.5C246.7,449.9,247.8,450,248.9,450z"/>
	<path id="XMLID_127_" class="st2" d="M294.3,450c5.6,0,10.7-3.7,12.2-9.4l2.3-8.6c1.8-6.8-2.2-13.7-8.9-15.5
		c-6.8-1.8-13.7,2.2-15.5,8.9l-2.3,8.6c-1.8,6.8,2.2,13.7,8.9,15.5C292.1,449.9,293.2,450,294.3,450z"/>
	<path id="XMLID_154_" class="st2" d="M339.7,450c5.6,0,10.7-3.7,12.2-9.4l2.3-8.6c1.8-6.8-2.2-13.7-8.9-15.5
		c-6.8-1.8-13.7,2.2-15.5,8.9l-2.3,8.6c-1.8,6.8,2.2,13.7,8.9,15.5C337.5,449.9,338.6,450,339.7,450z"/>
	<path id="XMLID_157_" class="st2" d="M385.1,450c5.6,0,10.7-3.7,12.2-9.4l2.3-8.6c1.8-6.8-2.2-13.7-8.9-15.5
		c-6.8-1.8-13.7,2.2-15.5,8.9l-2.3,8.6c-1.8,6.8,2.2,13.7,8.9,15.5C382.9,449.9,384,450,385.1,450z"/>
	<path id="XMLID_201_" class="st1" d="M110.4,282.3h253.2c45.8,0,83.1-37.3,83.1-83.1c0-45.8-37.3-83.1-83.1-83.1
		c-8.4,0-16.5,1.2-24.4,3.6C321.4,78.1,279.8,50,233.7,50c-60,0-109.4,46.2-114.4,105c-0.8,0-1.5,0-2.3,0
		c-35.1,0-63.7,28.6-63.7,63.7c0,30.7,22.1,57,51.9,62.5C106.8,281.9,108.5,282.3,110.4,282.3z M78.6,218.6
		c0-21.2,17.2-38.4,38.4-38.4c3.7,0,7.4,0.5,11,1.6c3.9,1.2,8.2,0.4,11.4-2.2c3.2-2.5,5-6.5,4.8-10.6c-0.1-1.4-0.1-2.8-0.1-4.3
		c0-49.4,40.2-89.5,89.5-89.5c39.6,0,75,26.6,86,64.6c1,3.6,3.7,6.6,7.1,8.1c3.5,1.5,7.4,1.4,10.8-0.3c8.2-4.1,16.9-6.2,26.1-6.2
		c31.9,0,57.8,25.9,57.8,57.8S395.5,257,363.6,257H113.8c-0.6-0.2-1.2-0.3-1.8-0.4C93,254.2,78.6,237.8,78.6,218.6z"/>
</g>
<g id="XMLID_53_" class="st0">
	<path id="XMLID_225_" class="st1" d="M94.6,308.6h281.9c51,0,92.5-41.5,92.5-92.5c0-51-41.5-92.5-92.5-92.5c-9.3,0-18.4,1.4-27.1,4
		C329.5,81.3,283.2,50,231.8,50C165,50,110,101.5,104.4,166.8c-0.9,0-1.7,0-2.6,0c-39.1,0-70.9,31.8-70.9,70.9
		c0,34.2,24.6,63.4,57.8,69.6C90.5,308.2,92.5,308.6,94.6,308.6z M59.1,237.7c0-23.6,19.2-42.7,42.7-42.7c4.1,0,8.3,0.6,12.3,1.8
		c4.4,1.3,9.1,0.4,12.7-2.4c3.6-2.8,5.6-7.2,5.4-11.8c-0.1-1.6-0.1-3.2-0.1-4.8c0-55,44.7-99.7,99.7-99.7
		c44.1,0,83.5,29.6,95.7,71.9c1.2,4,4.1,7.3,7.9,9c3.9,1.7,8.3,1.5,12-0.4c9.1-4.6,18.9-7,29.1-7c35.5,0,64.3,28.9,64.3,64.3
		s-28.9,64.3-64.3,64.3H98.4c-0.6-0.2-1.3-0.3-2-0.4C75.2,277.3,59.1,259.1,59.1,237.7z"/>
	<path id="XMLID_54_" class="st2" d="M108.8,376.3c6.2,0,11.9-4.2,13.6-10.4l2.6-9.5c2-7.5-2.4-15.2-10-17.3
		c-7.5-2-15.2,2.4-17.3,10l-2.6,9.5c-2,7.5,2.4,15.2,10,17.3C106.4,376.1,107.6,376.3,108.8,376.3z"/>
	<path id="XMLID_84_" class="st2" d="M172.7,450c6.2,0,11.9-4.2,13.6-10.4l2.6-9.5c2-7.5-2.4-15.2-10-17.3c-7.5-2-15.2,2.4-17.3,10
		l-2.6,9.5c-2,7.5,2.4,15.2,10,17.3C170.2,449.8,171.5,450,172.7,450z"/>
	<path id="XMLID_85_" class="st2" d="M321,450c6.2,0,11.9-4.2,13.6-10.4l2.6-9.5c2-7.5-2.4-15.2-10-17.3c-7.5-2-15.2,2.4-17.3,10
		l-2.6,9.5c-2,7.5,2.4,15.2,10,17.3C318.5,449.8,319.8,450,321,450z"/>
	<path id="XMLID_92_" class="st2" d="M248.7,376.3c6.2,0,11.9-4.2,13.6-10.4l2.6-9.5c2-7.5-2.4-15.2-10-17.3
		c-7.5-2-15.2,2.4-17.3,10l-2.6,9.5c-2,7.5,2.4,15.2,10,17.3C246.3,376.1,247.5,376.3,248.7,376.3z"/>
	<path id="XMLID_93_" class="st2" d="M388.7,376.3c6.2,0,11.9-4.2,13.6-10.4l2.6-9.5c2-7.5-2.4-15.2-10-17.3
		c-7.5-2-15.2,2.4-17.3,10l-2.6,9.5c-2,7.5,2.4,15.2,10,17.3C386.2,376.1,387.5,376.3,388.7,376.3z"/>
</g>
<path id="XMLID_82_" class="st5" d="M432.2,278.4c23.9-4.3,41.6-24.4,41.6-48c0-27-22.9-48.9-51-48.9c-0.2,0-0.4,0-0.6,0
	c-4.8-43.5-43.5-77.5-90.4-77.5c-36,0-68.5,20.6-83,51.3c-5.9-1.6-12.1-2.5-18.4-2.5c-26.5,0-50.4,15.4-60.7,38.3
	c-45.5,7.6-80.8,45.2-84.8,91.8c-0.7,0-1.4,0-2,0c-31.2,0-56.5,25.4-56.5,56.5c0,27.3,19.6,50.6,46.1,55.5c1.4,0.7,3,1,4.7,1h224.8
	c40.7,0,73.8-33.1,73.8-73.8c0-16-5.1-30.8-13.8-42.9h66C429.4,279.3,430.8,279,432.2,278.4z M301.8,373.5H80
	c-0.5-0.1-1-0.3-1.6-0.3c-16.9-2.2-29.7-16.7-29.7-33.8c0-18.8,15.3-34.1,34.1-34.1c3.3,0,6.6,0.5,9.8,1.4c3.5,1,7.3,0.3,10.1-1.9
	c2.9-2.2,4.5-5.7,4.3-9.4c-0.1-1.3-0.1-2.5-0.1-3.8c0-43.8,35.7-79.5,79.5-79.5c35.2,0,66.6,23.6,76.3,57.4c0.9,3.2,3.2,5.8,6.3,7.2
	c3.1,1.3,6.6,1.2,9.6-0.3c7.2-3.7,15-5.5,23.2-5.5c28.3,0,51.3,23,51.3,51.3C353.1,350.5,330.1,373.5,301.8,373.5z M425.1,256.8H336
	c-10.2-5.4-21.8-8.4-34.2-8.4c-7.4,0-14.7,1.1-21.6,3.2c-14.5-33.9-46.8-57.6-83.6-61.4c8.1-9.2,20.5-14.9,33.8-14.9
	c7,0,13.7,1.5,20,4.5c3,1.4,6.4,1.5,9.4,0.2c3-1.3,5.3-3.9,6.2-7c8.4-27.4,35.4-46.5,65.8-46.5c37.7,0,68.4,28.8,68.4,64.2
	c0,1,0,2-0.1,3.1c-0.2,3.6,1.4,7.1,4.2,9.3c2.8,2.3,6.6,3,10.1,2c2.7-0.8,5.5-1.2,8.4-1.2c15.7,0,28.6,11.9,28.6,26.4
	c0,13.2-10.7,24.5-24.8,26.2C426,256.6,425.5,256.7,425.1,256.8z"/>
<g id="XMLID_32_" class="st0">
	<path id="XMLID_160_" class="st2" d="M94.9,308.2h281.5c50.9,0,92.4-41.4,92.4-92.4c0-50.9-41.4-92.4-92.4-92.4
		c-9.3,0-18.4,1.4-27.1,4C329.4,81.2,283.1,50,231.8,50c-66.7,0-121.6,51.4-127.2,116.7c-0.9,0-1.7,0-2.6,0
		c-39,0-70.8,31.8-70.8,70.8c0,34.1,24.5,63.3,57.7,69.5C90.8,307.7,92.8,308.2,94.9,308.2z M59.5,237.4c0-23.5,19.1-42.7,42.7-42.7
		c4.1,0,8.2,0.6,12.3,1.8c4.4,1.3,9.1,0.4,12.7-2.4c3.6-2.8,5.6-7.2,5.4-11.7c-0.1-1.6-0.1-3.2-0.1-4.8c0-54.9,44.6-99.5,99.5-99.5
		c44,0,83.3,29.5,95.6,71.8c1.2,4,4.1,7.3,7.9,9c3.8,1.7,8.2,1.5,12-0.4c9.1-4.6,18.8-6.9,29-6.9c35.4,0,64.2,28.8,64.2,64.2
		c0,35.4-28.8,64.2-64.2,64.2H98.6c-0.6-0.2-1.3-0.3-2-0.4C75.4,276.9,59.5,258.8,59.5,237.4z"/>
	<path id="XMLID_33_" class="st6" d="M162.3,374.4c0-13.4-10.9-24.3-24.3-24.3c-13.4,0-24.3,10.9-24.3,24.3
		c0,13.4,10.9,24.3,24.3,24.3C151.4,398.7,162.3,387.8,162.3,374.4z"/>
	<path id="XMLID_42_" class="st6" d="M331,374.4c0-13.4-10.9-24.3-24.3-24.3s-24.3,10.9-24.3,24.3c0,13.4,10.9,24.3,24.3,24.3
		S331,387.8,331,374.4z"/>
	<path id="XMLID_43_" class="st6" d="M258.6,433.1c0-9.3-7.6-16.9-16.9-16.9s-16.9,7.6-16.9,16.9s7.6,16.9,16.9,16.9
		S258.6,442.4,258.6,433.1z"/>
	<path id="XMLID_94_" class="st6" d="M208.8,400.3c0-4.2-3.4-7.6-7.6-7.6c-4.2,0-7.6,3.4-7.6,7.6s3.4,7.6,7.6,7.6
		C205.4,407.8,208.8,404.4,208.8,400.3z"/>
	<circle id="XMLID_95_" class="st6" cx="250" cy="374.4" r="13.6"/>
	<path id="XMLID_131_" class="st6" d="M366.9,342.6c0-4.2-3.4-7.6-7.6-7.6c-4.2,0-7.6,3.4-7.6,7.6c0,4.2,3.4,7.6,7.6,7.6
		C363.5,350.1,366.9,346.8,366.9,342.6z"/>
	<path id="XMLID_132_" class="st6" d="M107.3,342.6c0-4.2-3.4-7.6-7.6-7.6c-4.2,0-7.6,3.4-7.6,7.6c0,4.2,3.4,7.6,7.6,7.6
		C103.9,350.1,107.3,346.8,107.3,342.6z"/>
	<path id="XMLID_133_" class="st6" d="M201.2,353.9c0-6.2-5.1-11.3-11.3-11.3c-6.3,0-11.3,5.1-11.3,11.3c0,6.2,5.1,11.3,11.3,11.3
		C196.1,365.2,201.2,360.2,201.2,353.9z"/>
</g>
<path id="XMLID_81_" class="st5" d="M191.9,180.6c2.8,3.9,7.2,6.2,11.9,6.2c0.5,0,1,0,1.5-0.1l186.5-19.6
	c7.4-0.8,13.1-7.1,13.1-14.5V84.3c0-7.5-5.6-13.8-13.1-14.5L205.3,50.1c-5.3-0.6-10.4,1.8-13.5,6.1l-38.2,53.8
	c0,0.1-0.1,0.1-0.1,0.2c-0.1,0.2-0.3,0.4-0.4,0.7c-0.3,0.5-0.6,1.1-0.9,1.6c-0.1,0.3-0.2,0.6-0.3,0.9c-0.2,0.6-0.4,1.1-0.5,1.7
	c-0.1,0.3-0.1,0.6-0.2,0.8c-0.2,0.9-0.3,1.8-0.3,2.6v251.9h-41.3c-8.1,0-14.6,6.5-14.6,14.6v50.5c0,8.1,6.5,14.6,14.6,14.6h118
	c8.1,0,14.6-6.5,14.6-14.6v-50.5c0-8.1-6.5-14.6-14.6-14.6h-47.4v-206L191.9,180.6z M362.3,96l13.4,1.4v41.9l-13.4,1.4V96z
	 M321.3,91.7l23.4,2.5v48.4l-23.4,2.5V91.7z M280.4,87.4l23.4,2.5v57.1l-23.4,2.5V87.4z M239.4,83.1l23.4,2.5v65.7l-23.4,2.5V83.1z
	 M210.8,80.1l11.1,1.2v74.3l-11.1,1.2l-27.2-38.3L210.8,80.1z M213,399.5v21.2h-88.7v-21.2H213z"/>
<path id="XMLID_102_" class="st7" d="M85.4,292.7c-6.8-1.8-13.7,2.2-15.5,9c-1.8,6.8,2.2,13.7,9,15.5l19.5,5.2l-16.9,9.7
	c-6.1,3.5-8.1,11.2-4.6,17.3c2.3,4.1,6.6,6.3,11,6.3c2.1,0,4.3-0.5,6.3-1.7l16.9-9.7l-5.2,19.5c-1.8,6.8,2.2,13.7,9,15.5
	c1.1,0.3,2.2,0.4,3.3,0.4c5.6,0,10.7-3.7,12.2-9.4l11.8-44l9.8-5.7l-5.2,19.5c-1.8,6.8,2.2,13.7,9,15.5c1.1,0.3,2.2,0.4,3.3,0.4
	c5.6,0,10.7-3.7,12.2-9.4l11.8-44l54.2-31.3v63.4l-32.2,32.2c-4.9,4.9-4.9,13,0,17.9c4.9,4.9,13,4.9,17.9,0l14.3-14.3v11.3
	l-32.2,32.2c-4.9,4.9-4.9,13,0,17.9c2.5,2.5,5.7,3.7,9,3.7c3.2,0,6.5-1.2,9-3.7l14.3-14.3v19.5c0,7,5.7,12.7,12.7,12.7
	c7,0,12.7-5.7,12.7-12.7v-19.5l14.3,14.3c4.9,4.9,13,4.9,17.9,0c4.9-4.9,4.9-13,0-17.9l-32.2-32.2v-11.3l14.3,14.3
	c2.5,2.5,5.7,3.7,9,3.7c3.2,0,6.5-1.2,9-3.7c4.9-4.9,4.9-13,0-17.9l-32.2-32.2v-63.4l54.9,31.7l11.8,44c1.5,5.7,6.6,9.4,12.2,9.4
	c1.1,0,2.2-0.1,3.3-0.4c6.8-1.8,10.8-8.8,9-15.5l-5.2-19.5l9.8,5.7l11.8,44c1.5,5.7,6.6,9.4,12.2,9.4c1.1,0,2.2-0.1,3.3-0.4
	c6.8-1.8,10.8-8.8,9-15.5l-5.2-19.5l16.9,9.7c2,1.2,4.2,1.7,6.3,1.7c4.4,0,8.6-2.3,11-6.3c3.5-6.1,1.4-13.8-4.6-17.3l-16.9-9.7
	l19.5-5.2c6.8-1.8,10.8-8.8,9-15.5c-1.8-6.8-8.8-10.8-15.5-9l-44,11.8l-9.8-5.7l19.5-5.2c6.8-1.8,10.8-8.8,9-15.5
	c-1.8-6.8-8.8-10.8-15.5-9l-44,11.8L275,249.6l54.9-31.7l44,11.8c1.1,0.3,2.2,0.4,3.3,0.4c5.6,0,10.7-3.7,12.2-9.4
	c1.8-6.8-2.2-13.7-9-15.5l-19.5-5.2l9.8-5.7l44,11.8c1.1,0.3,2.2,0.4,3.3,0.4c5.6,0,10.7-3.7,12.2-9.4c1.8-6.8-2.2-13.7-9-15.5
	l-19.5-5.2l16.9-9.7c6.1-3.5,8.1-11.2,4.6-17.3c-3.5-6.1-11.2-8.1-17.3-4.6l-16.9,9.7l5.2-19.5c1.8-6.8-2.2-13.7-9-15.5
	c-6.8-1.8-13.7,2.2-15.5,9l-11.8,44l-9.8,5.7l5.2-19.5c1.8-6.8-2.2-13.7-9-15.5c-6.8-1.8-13.7,2.2-15.5,9l-11.8,44l-54.9,31.7v-62.6
	l32.2-32.2c4.9-4.9,4.9-13,0-17.9c-4.9-4.9-13-4.9-17.9,0l-14.3,14.3v-11.3l32.2-32.2c4.9-4.9,4.9-13,0-17.9c-4.9-4.9-13-4.9-17.9,0
	l-14.3,14.3V62.7c0-7-5.7-12.7-12.7-12.7c-7,0-12.7,5.7-12.7,12.7v19.5l-14.3-14.3c-4.9-4.9-13-4.9-17.9,0c-4.9,4.9-4.9,13,0,17.9
	l32.2,32.2v11.3L222.7,115c-4.9-4.9-13-4.9-17.9,0c-4.9,4.9-4.9,13,0,17.9l32.2,32.2v62.6l-54.2-31.3l-11.8-44
	c-1.8-6.8-8.8-10.7-15.5-9c-6.8,1.8-10.8,8.8-9,15.5l5.2,19.5l-9.8-5.7l-11.8-44c-1.8-6.8-8.7-10.7-15.5-9c-6.8,1.8-10.8,8.8-9,15.5
	l5.2,19.5l-16.9-9.7c-6.1-3.5-13.8-1.4-17.3,4.6c-3.5,6.1-1.4,13.8,4.6,17.3l16.9,9.7L78.8,182c-6.8,1.8-10.8,8.8-9,15.5
	c1.5,5.7,6.6,9.4,12.2,9.4c1.1,0,2.2-0.1,3.3-0.4l44-11.8l9.8,5.7l-19.5,5.2c-6.8,1.8-10.8,8.8-9,15.5c1.5,5.7,6.6,9.4,12.2,9.4
	c1.1,0,2.2-0.1,3.3-0.4l44-11.8l54.2,31.3l-54.2,31.3l-44-11.8c-6.8-1.8-13.7,2.2-15.5,9c-1.8,6.8,2.2,13.7,9,15.5l19.5,5.2
	l-9.8,5.7L85.4,292.7z"/>
<g id="XMLID_4_" class="st0">
	<path id="XMLID_14_" class="st1" d="M44.1,360.3c0-113.5,92.4-205.9,205.9-205.9c113.5,0,205.9,92.4,205.9,205.9
		c0,8.1,6.6,14.7,14.7,14.7c8.1,0,14.7-6.6,14.7-14.7C485.3,230.6,379.7,125,250,125C120.3,125,14.7,230.6,14.7,360.3
		c0,8.1,6.6,14.7,14.7,14.7S44.1,368.4,44.1,360.3z"/>
	<path id="XMLID_13_" class="st2" d="M105.3,360.3c0-79.8,64.9-144.7,144.7-144.7c79.8,0,144.7,64.9,144.7,144.7
		c0,8.1,6.6,14.7,14.7,14.7c8.1,0,14.7-6.6,14.7-14.7c0-96-78.1-174.1-174.1-174.1c-96,0-174.1,78.1-174.1,174.1
		c0,8.1,6.6,14.7,14.7,14.7C98.7,375,105.3,368.4,105.3,360.3z"/>
	<path id="XMLID_18_" class="st6" d="M166.5,360.3c0-46,37.5-83.5,83.5-83.5c46,0,83.5,37.5,83.5,83.5c0,8.1,6.6,14.7,14.7,14.7
		c8.1,0,14.7-6.6,14.7-14.7c0-62.2-50.6-112.9-112.9-112.9c-62.2,0-112.9,50.6-112.9,112.9c0,8.1,6.6,14.7,14.7,14.7
		C159.9,375,166.5,368.4,166.5,360.3z"/>
</g>
</svg>
