<?xml version="1.0" encoding="UTF-8"?>
<svg xmlns="http://www.w3.org/2000/svg" version="1.1" viewBox="0 0 500 500">
  <defs>
    <style>
      .cls-1 {
        fill: #77c043;
      }
    </style>
  </defs>
  <!-- Generator: Adobe Illustrator 28.6.0, SVG Export Plug-In . SVG Version: 1.2.0 Build 709)  -->
  <g>
    <g id="Layer_1">
      <path class="cls-1" d="M-1.36,500c12.62-63.4-45-133.99-67.04-158.79,50.89,28.67,77.22,75.05,100.56,121.73-14.54-67.56-60.12-125.4-102.33-167.61,47.07,19.62,91.35,80.56,112.92,112.92-8.22-57.88-38.05-144.01-81.16-181.72,65.09,36.75,90.75,113.71,112.92,174.67-8.68-74.75-.83-148.32,31.76-213.49-6.94,55.9-8.82,119.91-8.82,171.14,5.52-71.07,22.28-149.84,54.69-208.19-10.87,59.64-22.93,120.1-22.93,183.49-4.7-57.95,16.49-98.84,45.87-142.91-16.77,62.5-37.37,140.67-17.64,206.43,9.97-51.01,24.05-81.83,61.75-111.15-24.27,40.76-28.86,83.92-33.52,130.56-.54-43.93,35.38-71.61,56.46-105.86-11.51,43.72-28.23,91.48-28.23,134.09,34.29-53.32,60.71-132.39,70.57-181.72,8.89,45.21-2.13,85.32-14.12,125.27,38.02-55.11,38.82-119.69,38.82-185.25,14.93,46.22,14.12,95.03,14.12,144.68,11.96-59.98,7.48-120.32-8.82-174.67,40.11,64.69,38.81,132.73,38.81,208.19-3.37-51.15,26.65-104.77,45.87-139.38-9.31,35.3-17.64,69.6-17.64,107.63,10.22-32.54,34.78-68.05,52.93-88.21-23.88,51.19-21.17,111.31-21.17,167.61,19.52-37.52,26.39-86.92,72.33-95.27-32.48,27.57-33.52,57.52-33.52,98.8,4.15-36.24,25.07-63.94,58.22-70.57-22.03,33.04-24.7,64.86-24.7,109.39,1.78-37.04,14.27-54.25,40.58-77.63-16.7,29.31-24.7,72.59-24.7,105.86-175.69-3.29-325.4-1.64-502.83,0"/>
    </g>
  </g>
</svg>