<?xml version="1.0" encoding="utf-8"?>
<!-- Generator: Adobe Illustrator 27.8.0, SVG Export Plug-In . SVG Version: 6.00 Build 0)  -->
<svg version="1.1" id="Layer_1" xmlns="http://www.w3.org/2000/svg" xmlns:xlink="http://www.w3.org/1999/xlink" x="0px" y="0px"
	 viewBox="0 0 500 500" style="enable-background:new 0 0 500 500;" xml:space="preserve">
<style type="text/css">
	.st0{display:none;}
	.st1{display:inline;fill-rule:evenodd;clip-rule:evenodd;fill:#6CAB43;}
	.st2{display:inline;fill-rule:evenodd;clip-rule:evenodd;fill:#E1EAA4;}
	.st3{display:inline;fill-rule:evenodd;clip-rule:evenodd;fill:#328640;}
	.st4{display:inline;fill-rule:evenodd;clip-rule:evenodd;fill:#54A746;}
	.st5{display:inline;fill-rule:evenodd;clip-rule:evenodd;fill:#442012;}
	.st6{display:inline;fill-rule:evenodd;clip-rule:evenodd;fill:#F3DFC4;}
	.st7{display:inline;fill-rule:evenodd;clip-rule:evenodd;fill:#F8EAD7;}
	.st8{display:inline;fill-rule:evenodd;clip-rule:evenodd;fill:#FDDD4F;}
	.st9{display:inline;fill-rule:evenodd;clip-rule:evenodd;fill:#EFC918;}
	.st10{display:inline;fill-rule:evenodd;clip-rule:evenodd;fill:#93732C;}
	.st11{display:inline;fill-rule:evenodd;clip-rule:evenodd;fill:#F6E6CA;}
	.st12{display:inline;fill-rule:evenodd;clip-rule:evenodd;fill:#F6882F;}
	.st13{display:inline;fill-rule:evenodd;clip-rule:evenodd;fill:#668F3D;}
	.st14{display:inline;fill-rule:evenodd;clip-rule:evenodd;fill:#BECB84;}
	.st15{display:inline;fill-rule:evenodd;clip-rule:evenodd;fill:#FFD98A;}
	.st16{display:inline;fill-rule:evenodd;clip-rule:evenodd;fill:#CA5E28;}
	.st17{display:inline;fill-rule:evenodd;clip-rule:evenodd;fill:#8B613E;}
	.st18{display:inline;fill-rule:evenodd;clip-rule:evenodd;fill:#67472C;}
	.st19{display:inline;fill-rule:evenodd;clip-rule:evenodd;fill:#E4E2D5;}
	.st20{display:inline;fill-rule:evenodd;clip-rule:evenodd;fill:#BEB39D;}
	.st21{fill-rule:evenodd;clip-rule:evenodd;fill:#37538A;}
	.st22{fill-rule:evenodd;clip-rule:evenodd;fill:#6B90C4;}
	.st23{fill-rule:evenodd;clip-rule:evenodd;fill:#5D7CBC;}
	.st24{fill-rule:evenodd;clip-rule:evenodd;fill:#213651;}
	.st25{display:inline;fill-rule:evenodd;clip-rule:evenodd;fill:#56843B;}
	.st26{display:inline;fill-rule:evenodd;clip-rule:evenodd;fill:#D9D9B7;}
	.st27{display:inline;fill-rule:evenodd;clip-rule:evenodd;fill:#DC393C;}
	.st28{display:inline;fill-rule:evenodd;clip-rule:evenodd;fill:#010101;}
	.st29{display:inline;fill-rule:evenodd;clip-rule:evenodd;fill:#A91E32;}
	.st30{display:inline;fill-rule:evenodd;clip-rule:evenodd;fill:#FFFFFF;}
	.st31{display:inline;fill-rule:evenodd;clip-rule:evenodd;fill:#CE202D;}
	.st32{display:inline;fill-rule:evenodd;clip-rule:evenodd;fill:#627030;}
	.st33{display:inline;fill-rule:evenodd;clip-rule:evenodd;fill:#ABCA87;}
	.st34{display:inline;fill-rule:evenodd;clip-rule:evenodd;fill:#5B7F38;}
	.st35{display:inline;fill-rule:evenodd;clip-rule:evenodd;fill:#D32929;}
	.st36{display:inline;fill-rule:evenodd;clip-rule:evenodd;fill:#B12225;}
	.st37{display:inline;fill-rule:evenodd;clip-rule:evenodd;fill:#EAC96C;}
	.st38{display:inline;fill-rule:evenodd;clip-rule:evenodd;fill:#69A242;}
	.st39{display:inline;fill-rule:evenodd;clip-rule:evenodd;fill:#7B9C3D;}
	.st40{display:inline;fill-rule:evenodd;clip-rule:evenodd;fill:#008D4C;}
	.st41{display:inline;fill-rule:evenodd;clip-rule:evenodd;fill:#917149;}
	.st42{display:inline;fill-rule:evenodd;clip-rule:evenodd;fill:#A6BA3F;}
	.st43{display:inline;fill-rule:evenodd;clip-rule:evenodd;fill:#FDFCE7;}
	.st44{display:inline;fill-rule:evenodd;clip-rule:evenodd;fill:#403239;}
	.st45{display:inline;fill-rule:evenodd;clip-rule:evenodd;fill:#F8E600;}
	.st46{display:inline;fill-rule:evenodd;clip-rule:evenodd;fill:#EAD81B;}
	.st47{display:inline;fill-rule:evenodd;clip-rule:evenodd;fill:#3D5A2A;}
	.st48{display:inline;fill-rule:evenodd;clip-rule:evenodd;fill:#6FA542;}
	.st49{display:inline;fill-rule:evenodd;clip-rule:evenodd;fill:#6A6150;}
	.st50{display:inline;fill-rule:evenodd;clip-rule:evenodd;fill:#969736;}
	.st51{display:inline;fill-rule:evenodd;clip-rule:evenodd;fill:#EBED92;}
	.st52{display:inline;fill-rule:evenodd;clip-rule:evenodd;fill:#9C5A25;}
	.st53{display:inline;fill-rule:evenodd;clip-rule:evenodd;fill:#6E8E3C;}
	.st54{display:inline;fill-rule:evenodd;clip-rule:evenodd;fill:#9C1C4A;}
	.st55{display:inline;fill-rule:evenodd;clip-rule:evenodd;fill:#EC92BA;}
	.st56{display:inline;fill-rule:evenodd;clip-rule:evenodd;fill:#711C43;}
	.st57{display:inline;fill-rule:evenodd;clip-rule:evenodd;fill:#F58445;}
	.st58{display:inline;fill-rule:evenodd;clip-rule:evenodd;fill:#E4502A;}
	.st59{display:inline;fill-rule:evenodd;clip-rule:evenodd;fill:#D04927;}
	.st60{display:inline;fill-rule:evenodd;clip-rule:evenodd;fill:#516D32;}
	.st61{display:inline;fill-rule:evenodd;clip-rule:evenodd;fill:#865C46;}
	.st62{display:inline;fill-rule:evenodd;clip-rule:evenodd;fill:#FDDF38;}
	.st63{display:inline;fill-rule:evenodd;clip-rule:evenodd;fill:#FFC811;}
	.st64{display:inline;fill-rule:evenodd;clip-rule:evenodd;fill:#C97D2C;}
	.st65{display:inline;fill-rule:evenodd;clip-rule:evenodd;fill:#82A73F;}
	.st66{display:inline;fill-rule:evenodd;clip-rule:evenodd;fill:#639A43;}
	.st67{display:inline;fill-rule:evenodd;clip-rule:evenodd;fill:#76C044;}
	.st68{display:inline;fill-rule:evenodd;clip-rule:evenodd;fill:#423E35;}
	.st69{display:inline;fill-rule:evenodd;clip-rule:evenodd;fill:#A8BF65;}
	.st70{display:inline;fill-rule:evenodd;clip-rule:evenodd;fill:#F7F3A9;}
	.st71{display:inline;fill-rule:evenodd;clip-rule:evenodd;fill:#914220;}
	.st72{display:inline;fill-rule:evenodd;clip-rule:evenodd;fill:#FCCE81;}
	.st73{display:inline;fill-rule:evenodd;clip-rule:evenodd;fill:#FED900;}
	.st74{display:inline;fill-rule:evenodd;clip-rule:evenodd;fill:#FCBD16;}
	.st75{display:inline;fill-rule:evenodd;clip-rule:evenodd;fill:#C1D830;}
	.st76{display:inline;fill-rule:evenodd;clip-rule:evenodd;fill:#F37124;}
	.st77{display:inline;fill-rule:evenodd;clip-rule:evenodd;fill:#619C42;}
	.st78{display:inline;fill-rule:evenodd;clip-rule:evenodd;fill:#537B38;}
	.st79{display:inline;fill-rule:evenodd;clip-rule:evenodd;fill:#5C4A3C;}
</style>
<g id="Úll" class="st0">
	<path class="st1" d="M255.1,156.2c-40.1-1.8-88.8-30.1-133.9-7.4c-86.3,43.4-52.9,217.1,4.3,275.5c54.2,55.3,73.4,3.3,124.1,9.6
		c23.4,2.9,69.3,14.6,87.7,14.6c48.4,0,84-96.9,90.3-133.1c12.3-71.7-2.3-157.5-84-175.1C320.7,135.2,278.2,155.1,255.1,156.2"/>
	<path class="st2" d="M124,192.8c-3.8,2.2-8.5,9.7-10.4,13C101.1,228.1,94.9,251.3,98,277c2.3,19.6,20.6,28.3,37.2,17.2
		c11.6-7.7,17-13.1,27-22.7c17.3-16.6,36.2-34.4,42.8-58.3c5.1-18.5,0.7-42-21.4-46.4c-3.5-0.7-7.2-0.7-10.7-0.3
		C154.6,168.9,136.9,179.9,124,192.8"/>
	<path class="st3" d="M249.8,156.1c-2-0.8-1.6-6.9-1.5-8.4c0.7-10.2,5.1-20.4,9.9-29.2c13.6-25.3,34-44,58.9-57.9
		c3.8-2.1,7.6-4,11.5-5.9c2.1-1,4.2-1.9,6.3-2.8c4.6-2,6.9-3.4,7.1,1.7c0.1,1.4,0.1,2.8,0,4.3c-0.1,2.6-0.6,5.1-1.1,7.7
		c-0.8,4.2-1.8,8.4-3,12.5c-2,6.6-4.6,13.1-7.5,19.4c-5.2,11-12,20.8-20.8,29.3C296.1,139.6,268.3,152.3,249.8,156.1"/>
	<path class="st4" d="M265.9,142.9c-0.4-1.1,2.7-6.1,3.3-6.7c4.1-4.1,8.1-8.1,12-12.4c3.1-3.4,6.2-6.8,9.2-10.3
		c2.2-2.5,4.3-4.9,6.4-7.4c6.7-8.2,12.1-17.4,18.9-25.5c0.9-1.1,1.9-2.2,2.9-3.3c7.2-7.5,4.2,4.3,2.7,8.3c-0.9,2.4-1.8,4.7-2.9,7.1
		c-1.6,3.5-3.4,6.8-5.5,10.1c-3.7,5.8-8.1,11.1-12.5,16.4C293.6,127.4,274.4,136.3,265.9,142.9"/>
	<path class="st4" d="M311.7,70.4c0.8-0.3-1.4,0.5-1.6,0.6c-1.4,0.8-2.7,1.8-4.1,2.7c-3.6,2.6-7.1,5.5-10.4,8.6
		c-2.7,2.5-5.3,5-7.9,7.6c-2.1,2.1-4.1,4.3-6.1,6.5c-1.7,1.9-3.3,3.9-4.9,5.9c-4.3,5.7-8.1,12.1-10,19c-0.4,1.4-1.8,4.8-0.5,6.1
		c1.2,1.1,3.4-1.6,4-2.3c3.1-3.5,5.7-7.2,8.4-10.9c6.1-8.1,12-16.6,18.7-24.3C303.3,83.3,308.1,78.5,311.7,70.4"/>
	<path class="st4" d="M203.3,78.2C203.3,78.2,203.3,78.2,203.3,78.2"/>
	<path class="st5" d="M200.6,79.1c-0.2,0.8-3.1,2.3-3.7,2.9c-2.5,2.3-9.3,9.1-7.3,12.9c2,3.7,11.6,4,15.2,6
		c9.7,5.4,17.6,13.5,23.5,22.8c1.6,2.5,3.1,5.2,4.5,7.9c1.1,2.1,2,4.3,2.9,6.5c0.6,1.5,1.2,3.1,1.7,4.6c0.5,1.3,0.9,2.7,1.3,4.1
		c1.1,3.6,6.5,18.9,12.8,10c4.2-6-1.3-16.2-3.8-21.7c-7.3-15.9-14.2-34.1-25.8-47.6C217.4,82.1,208,75.7,200.6,79.1"/>
</g>
<g class="st0">
	<path class="st6" d="M161.7,239.1c-2-1.2-3.7-10.2-3.9-12.1c-1.4-12.3-1.9-24.8-3.1-37.1c-0.9-9.2-1.5-18.4-2.1-27.6
		c-2-30-3.6-111.2,42.4-112.3c27-0.6,31.4,25.6,29.5,46.4c-1.9,21.1,2.3,41.5,7.9,61.4c1.5,5.5,6.7,19.9,7.9,24.5
		c2.7,10.8,6.8,18.8,5.3,29.9c-1.1,8.1-10.3,16.3-13.7,23.8c-2.4,5.2-1.8,13.2-4.6,17.8c-0.6,0.9-2.2-0.2-2.8-0.6
		c-8.2-5.1-13.8-13.9-22-19.4C189.9,225.3,174.5,234.3,161.7,239.1"/>
	<path class="st7" d="M198,229.1c0.3-0.1-7.1-17.1-7.8-18.6c-6-13.3-9.1-24.3-12.6-36.8c-8.7-30.8-5.1-60.7,4.5-90.5
		c3-9.4,9.1-25.3,20.9-25.5c14.8-0.3,11.9,28.6,11.7,37.6c-0.3,12.9-0.5,19.8,0.2,32.7c0.4,7.9,5.1,32.9,7.9,40.3
		c5.3,14,14.6,30.1,11.4,33.3c-2.6,2.6-8.1,12-9.9,16.2c-1.3,3-3.3,15.6-7.1,16.2C212.9,234.9,202.1,230.6,198,229.1"/>
	<path class="st8" d="M221,242.6c0.8-27.5,25.3-49.5,52.8-45.9c2.7,0.4,5.4,3.7,8.1,4.7c23.3,9.2,46.5,17.9,64.6,36
		c9.9,9.9,17.9,21.6,26.5,32.5c7.8,10,27.5,5.4,37.3,13.1c1.9,1.5-6.1,10.5-7.6,13.8c-1.7,3.7-10.1,3.5-15.9,0
		c-9.6-5.9-20.8-18.2-30.7-28.7C336,247,323.7,225.1,294.7,216c-13.5-4.2-31.3-2.7-30.6,14.8c1.4,38.6,49.3,85.2,82.4,100.1
		c17.8,8,36.7,6.7,54.8,12.6c4.2,1.4,11,9.6,8.3,14.4c-2.2,3.8-11.9,4.1-15.6,4.3c-16.1,1.1-35.7,3.8-51.2,0.2
		c-52-12.3-86.8-39-115.4-84.8c-7.1-11.4-20.3-20.1-29.9-29.6c-2.6-2.6-8.6-10.3-8.2-13.5C191,220.9,218.5,242.9,221,242.6"/>
	<path class="st9" d="M186.3,234c-0.3,0.1,0,0.2,0.2,0.3c2.6,1.1,4.9,3.5,7,5.3c4.8,4.2,9.3,8.8,13.9,13.3
		c13.3,13,24.4,27.4,35.5,42.3c26.6,35.8,65,59.5,109.6,65.4c6.4,0.8,12.8,1.4,19.3,1.8c3.9,0.2,7.7,0.2,11.6-0.2
		c15.2-1.7,27.5-11.7,35.7,3c2.3,4.2,2.6,7.3,0.1,11.6c-17.8,30.2-64.8,36.2-96,33.1c-50.8-5.1-89-25-122.4-63.8
		c-6.8-7.9-18-16-21.7-26c-4.9-13.3-2.7-21.8-1.9-35.6C178,271.3,179.5,245.6,186.3,234"/>
	<path class="st10" d="M415.2,361.7c-4.5-0.9-16.9-12.3-11-16.4c15.2-10.5,23.4,27.2,9.8,14.6"/>
	<path class="st11" d="M197.6,230.7c-12.5,4.2-16.9,31-18.9,41.6c-8.2,42,8.7,84.9,4.9,127.3c-1.2,12.9-6,53.6-25.7,50.3
		c-19.9-3.4-36-33.4-44.9-48.8c-16.3-27.9-48.1-93.3-26.9-124.9c16.9-25.1,56.7-32.9,83.6-42C172.5,233.3,196.3,225.3,197.6,230.7"
		/>
	<path class="st11" d="M245.8,202.4c-0.7-0.2,5.2-5.7,5.5-5.9c3.5-2.9,7.2-5.5,11-8.1c13.4-9.1,28.5-14.1,44.6-9.5
		c36.8,10.6,70.2,40.5,90.1,72.2c5.6,8.9,17.7,31.1,11.4,42c-4.2,7.4-12.6,2.7-17.9-0.7c-15.2-9.8-26.8-24.4-39-37.4
		C313,214,298.8,202.4,245.8,202.4"/>
</g>
<g class="st0">
	<path class="st12" d="M153.6,153.4C6,248.8,74,460.2,257.5,449.6c34.6-2,69.4-17.7,96.5-40.4C535.2,257.1,343.8,19.1,153.6,153.4"
		/>
	<path class="st13" d="M176.9,180.4c-0.2,0.2-5.7-5.5-6.2-6c-4.4-4-9.1-7.8-13.7-11.7c-6.3-5.4-12.2-10.5-19.7-14.6
		c-3.1-1.7-9.8-3-11.2-6.3c-2.1-4.9,1.8-13.1,3.9-17.6c1.5-3.2,3.5-7.9,7-9.8c6.3-3.3,14.5,7.8,17.4,11.1c3,3.4,5.9,6.8,9,10.1
		C171.3,144.1,204,163.5,176.9,180.4"/>
	<path class="st14" d="M132.3,138.2c-4.2-1.7,2.6-19.5,9.6-19.6C147.2,118.4,140.1,141.4,132.3,138.2"/>
	<path class="st14" d="M179.1,171.3c-0.2,0,0-10.7,2-18.6c4.7-18.7,12.8-36.8,23-52.7c30.8-47.8,88.2-60.3,137.6-41.6
		c12.3,4.7,23.6,10.9,33.7,20c1.8,1.6,8.3,5.8,8.8,8.4c0.1,0.4-1.7-0.1-1.7-0.1c-2.5-0.6-4.9-1.1-7.4-1.6c-5.6-1.1-11.2-2-16.8-2.5
		c-17.5-1.6-35.8,0.6-53.1,4c-49.1,9.8-94.1,40.9-122.1,85.5"/>
	<path class="st13" d="M177.3,180.4c3.9-12.4,15.9-24.8,23.9-33.9c27.1-30.6,60.9-52.8,99.7-60.9c21.2-4.5,43.3-6.8,64.9-3.7
		c2.3,0.3,16.8,1.4,17.6,4.9c0.1,0.6-11.5,4.8-12.3,5.1c-15,6.4-29.3,15.4-44.2,22.3c-13.5,6.3-27.2,11.5-41.3,15.8
		C255.3,139.3,203.5,160.2,177.3,180.4"/>
	<path class="st15" d="M104.1,308.4c-9-13.2-4-50-1.8-56.1c8.1-21.7,21.5-50.6,48.6-52.1c10.1-0.6,20.8,0.1,30.2-4.2
		c23.7-10.9,44.1-41.3,67.4-10.7C308.1,263.3,147,371.5,104.1,308.4"/>
	<path class="st16" d="M199.8,411.1c5.8,3,60.6-10.7,66.7-12.9c64-23,90-69.2,94.4-136c1-15.5-2.8-31.6-0.6-47
		c2-14.4,13.1-14.8,23.1-6.6c26.8,21.7,26.9,67,18.1,96.9c-19,64.5-64.4,117.3-129,127.5C260.4,434.9,214,430.2,199.8,411.1"/>
</g>
<g class="st0">
	<path class="st17" d="M45.9,301.3c-1.3,0.9,0.1,7.9,0.3,9.1c1.4,10.7,3.5,21.4,8,31.3c17.9,39.1,61.3,65.6,99.1,82
		c24.9,10.8,50.5,22.4,78,23.7c77,3.8,166.8-38.9,201.5-109.8c17.5-35.8,22-43.4,22-82.7c0-20.9-2.9-42.5-12.3-80.5
		c-9.7-39-36.6-67.8-40.8-66.5c-3.3,1,16,45.1,10.1,54.1c-14.2,21.5-40,53-47,77.8c-5.5,19.3-8.3,41.9-21.8,57.7
		c-15.7,18.4-59.6,27.8-82.3,36.2c-28.7,10.6-63.9,34.1-93.5,42.6c-14.6,4.2-41.2,1.9-56,0C78.8,372.3,72,327.8,45.9,301.3"/>
	<path class="st18" d="M60.6,334.8c-3.6,3.9,6,19.8,7.8,23.2c12.9,25.2,36.4,44.2,61.5,60.8c20.5,13.6,54.5,26.9,79.8,28.7
		c72.2,5.2,98.1,5.6,159.5-37c39.4-27.3,57.2-54.7,69.4-82.4c6.3-14.4,16.1-49,16.1-58.4c0.1-12.1-31.3,60.4-63.6,89.6
		c-8.6,7.8-44,32.8-60.8,40.9c-37.4,18-71,20.3-89.3,19.5C179.2,416.8,106.6,404,60.6,334.8"/>
	<path class="st19" d="M105.8,169.8c-0.9-3.8-15.2,14.2-16.1,15.4c-13.1,18.5-22.9,39.5-29.5,61.3c-17.2,56.7,7.1,128.3,69.4,141.2
		c41.3,8.6,81.2-24.3,115.7-42.5c35-18.5,80.2-17.3,107.7-49.5c22.8-26.6,11.3-54.9,23.8-86.4c8.5-21.4,37.7-53,34.6-77.3
		c-3-22.9-32.6-42.5-49.5-54.3c-64.3-45-111-22.6-170,18.1c-31.1,21.5-59.7,44.5-86.5,71.3"/>
	<path class="st18" d="M146.9,127.3c-9.7,4.5-19.1,19.9-27.4,26.9c-9,7.5-19.9,3.6-28,10c-23,18-43,97.5-45.7,125.8
		c-5.8,59.8,45,109.6,105.6,100.8c50.5-7.3,98.2-42.9,145.8-60.9c17.2-6.5,43.1-3.5,56.5-17.3c21.5-22,18.7-65.9,26.7-94
		c7.7-27.3,35.6-47.5,40.7-70.6c8.5-38.3-68.9-83.8-98.2-92.4C243.4,32.4,205.1,85.6,146.9,127.3z M153.8,142
		c0.9-0.4,1.7-0.9,2.5-1.5c23.3-16.7,43.3-35.2,64.1-49.9c27.3-19.4,56-31.6,97.8-19.4c16.1,4.7,47.9,21.7,69.1,42
		c6.4,6.1,11.8,12.4,15.1,18.9c2.2,4.2,3.6,8.4,2.7,12.5c-2.1,9.5-9.4,18.1-16.5,27.5c-9.8,12.9-19.6,26.7-24,42.2
		c-4.1,14.5-5.5,33.1-8.6,50.9c-2.4,13.8-5.4,27.3-14.1,36.2c-4.4,4.5-11.2,5.6-18,6.7c-11.3,2-23.2,3.2-32.6,6.7
		c-46.5,17.6-93,52.9-142.3,60c-50,7.2-91.9-33.9-87.1-83.2c1.6-16.2,9.1-49.8,19.5-77.8c6.1-16.3,12.4-30.9,20.1-36.8
		c1.2-0.9,2.6-0.7,4-1c1.9-0.3,3.8-0.6,5.7-0.9c6.5-1.2,12.8-3.4,18.8-8.4c4.7-4,9.8-10.2,15-16.1
		C147.9,147.1,150.7,143.5,153.8,142"/>
	<path class="st20" d="M135.6,189.4c-33.4,22-47.7,119.3,1.3,138c41.4,15.8,59.3-22.1,93.8-33c19.8-6.2,47.6-4.1,64.3-17.7
		c16.4-13.3,15.7-40.2,21.5-59c8.7-28.3,43.7-64.6,15-91.9c-7.9-7.5-17.7-13.2-28.3-15.8C250.1,96.8,195.7,150,135.6,189.4"/>
	<path class="st18" d="M255.2,426.6c-9.8,0.3-27.1-17.1-33.5-23c-1.2-1.1-15-15.5-13.7-15.8c4.1-0.9,54.3,37.1,63.1,41.5
		c1,0.5,8.3,4,9.3,2.4c0.7-1.3-2-3.5-2.6-4.2c-7.5-8.5-13.4-18.3-19.6-27.8c-0.8-1.2-11-15.6-10-16c14.5-4.6,63.9,50.9,79.3,35.1
		c1.6-1.7-0.5-4.2-1.6-5.5c-9.2-10.1-19.3-19-27.2-30.3c-1.4-2-15.1-22.6-10.5-24.8c6-2.9,43.3,56.8,69.4,39.3
		c19.6-13.2-16-44-22.9-56.2c-0.6-1.1-4.4-8.3-2.4-9.4c6.2-3.2,43.8,71.2,60.5,37.5c9.9-20-15-34.3-21.6-49.3
		c-0.1-0.3-0.7-1.5-0.4-1.9c0.8-1.1,4.2,3.3,4.4,3.5c13.8,16.4,30.3,35.1,32.3,29.6c4.9-13.7-37.5-69.7-35-73c1.3-1.6,7.2,3.2,8,3.9
		c15.7,14,33.3,62.7,39.7,54.1c16.3-22-24.2-80.6-19.2-89.9c0.2-0.3,10.8,16,11.4,17.2c7.3,13,12.1,27.3,15.7,41.7
		c0.4,1.5,5.4,22.5,7,21c11.6-10.7-10-81.7-14.2-94.7c-1.2-3.6-10.9-25.8-7.8-28.9c1.3-1.3,6.7,10.8,7,11.3c3,6.3,5.2,12.9,7.5,19.5
		c9.2,27.6,16.8,59.1,11.4,88.3c-7.3,39.4-113.6,98.4-149.5,106"/>
</g>
<g>
	<path class="st21" d="M146.6,346.1c14.3,10.4,43,17.9,58.3,16.3c19.9-2.1,33.3-9.2,49.2-21.8c38.4-30.4,67.1-106,29.4-148.7
		c-29.1-33-61.7-51.6-111.1-34.7c-16.7,5.7-45.2,33.8-55.2,48.1c-6.8,9.7-15,29.3-15.1,41.4c-0.3,21.1,1,35.4,6.3,49.5
		C114.1,311.6,128.3,332.8,146.6,346.1"/>
	<path class="st22" d="M115.3,264.7c-8.3,28,27.7,72.3,57.6,70.2c37-2.6,58.2-19.1,75.7-49.4c23.4-40.4,7.4-110.5-31.8-111.1
		c-44.6-0.7-56.4,26-75.3,48.2C128.7,237.9,122.2,241.6,115.3,264.7"/>
	<path class="st23" d="M122,271.8c5.5,2.5,21.4-3.9,25.4-6.6c4.5-3.1,4.9-17.2,13.9-29.4c8.5-11.7,19.7-19.2,20.6-24.3
		c4.2-23.5-9.6-26.6-20.3-17.7c-6.3,5.3-22.3,19-27.3,25.5C127.5,228.3,107.3,251.4,122,271.8"/>
	<path class="st24" d="M148.9,241.5c0.1-0.6,2.1,4.6,1.9,6.4c-0.7,5.1-3.7,8.3-8.1,10.8c-10.4,5.9-26.6,9.3-27.2-3.7
		c-1.4-29.5,17.8-47.9,28.6-54.9c4.6-3,18.8-14.2,19.4-15.6c1.1-2.3-8.7-5.1-10-5.5c-7.6-2.2-24.1-1-31.3,2.5
		c-6.6,3.2-8.3,19.9-11.2,26c-3.1,6.7-7.2,13.4-12.4,18.6c-1.5,1.5-7.4,4.2-8,6.2c-1.2,3.9,6.8,13.3,8.7,16
		c9,13.3,17,27.1,35.2,22.2c22.5-6,23.4-25.7,36.5-41.5c6.3-7.6,16.9-13.1,17.4-24c0.3-7.8-18.6-33.2-25.6-27.5
		c-0.9,0.7,4.5,7.4,4.9,8.1c3.3,4.9,6.9,10.1,7,16.2c0.2,13.5-15.3,26.6-24.4,35.1"/>
	<path class="st21" d="M229.3,165.3c-5.8,13.4-6.6,37.7-2.6,49.7c5.2,15.6,13.4,25,26.4,35.5c31.3,25.3,97.1,34.7,124.6-3.2
		c21.2-29.3,30.3-58.8,7.9-95.4c-7.6-12.3-35.3-30.2-48.5-35.6c-9-3.7-26.2-6.7-36-4.7c-17,3.6-28.2,7.2-38.6,14
		C251.1,133,236.6,148.2,229.3,165.3"/>
	<path class="st22" d="M288.9,125.5c-24-1.6-53,35.2-46,58.8c8.7,29.2,25.8,43.3,53.2,51.9c36.6,11.5,89.9-14,83.4-45.5
		c-7.5-35.9-31-40.6-52.2-51.7C312.8,131.4,308.7,126.9,288.9,125.5"/>
	<path class="st23" d="M284.4,132.2c-1,4.9,6.9,16.5,9.9,19.2c3.3,3,14.7,0.9,26.1,5.9c10.9,4.7,19,12.4,23.2,12.2
		c19.6-0.9,19.7-12.5,10.6-19.5c-5.4-4.1-19.2-14.5-25.4-17.3C320.3,128.8,298.1,116.7,284.4,132.2"/>
	<path class="st24" d="M313.5,148.3c0.5,0-3.3,2.5-4.8,2.7c-4.2,0.3-7.3-1.5-10.1-4.6c-6.6-7.3-12.2-19.6-1.9-22.5
		c23.4-6.4,41.6,5.6,49.2,13.1c3.2,3.2,14.8,12.5,16,12.8c2.1,0.5,2.5-7.9,2.6-9c0.4-6.5-3.5-19.5-7.6-24.7
		c-3.8-4.7-17.4-3.1-22.8-4.3c-5.9-1.3-12-3.3-17.2-6.6c-1.5-1-4.7-5.2-6.4-5.3c-3.3-0.3-9.4,7.8-11.3,9.8
		c-9.1,9.7-18.7,18.5-11.5,32.3c8.9,17,24.9,14.2,39.8,21.9c7.2,3.7,13.6,11.2,22.4,9.6c6.3-1.2,23.3-20.9,17.5-25.5
		c-0.8-0.6-5.1,4.9-5.6,5.4c-3.3,3.6-6.9,7.4-11.8,8.5c-10.8,2.6-24.1-7.5-32.6-13.3"/>
	<path class="st21" d="M254.5,208.7c-15.6,7.8-35,29.6-40.5,43.6c-7.2,18.3-6.9,33.3-3.1,52.9c9.3,47.3,62.5,106.5,116.9,92.8
		c42-10.6,73-30.7,80.5-81.5c2.5-17.1-9.2-54.8-17.2-70c-5.4-10.3-18.9-26.3-29.4-31.9c-18.3-9.8-31.4-15.1-46.1-16.8
		C299.3,195.8,274.4,198.7,254.5,208.7"/>
	<path class="st22" d="M339.8,218c-20.8-19.9-75.8-8.4-87.4,18.7c-14.4,33.6-9.5,59.6,9,88.5c24.8,38.7,93.3,56.3,111.5,22.3
		c20.7-38.7,2.7-61.1-8.2-87.6C357.3,241.7,357,234.4,339.8,218"/>
	<path class="st23" d="M330.6,220.7c-4.7,3.7-6.3,20.5-5.7,25.2c0.7,5.3,12.8,12.1,19.4,25.4c6.3,12.7,7.9,25.9,12,29
		c18.7,14.3,27.6,3.6,24.7-9.7c-1.8-7.9-6.5-28.1-10-35.4C366.1,245.1,355.1,217,330.6,220.7"/>
	<path class="st24" d="M344.9,257.8c0.5,0.3-5-0.2-6.4-1.2c-4.2-2.9-5.6-7-5.8-12c-0.5-11.8,3.9-27.4,15.5-22.1
		c26.4,12.1,33.9,37.2,35.1,49.8c0.5,5.4,3.9,22.8,4.9,24c1.5,2,8.4-5.3,9.3-6.3c5.3-5.7,11.8-20.6,11.9-28.5
		c0.1-7.2-13.6-16.2-17.7-21.5c-4.4-5.7-8.5-12.3-10.7-19.2c-0.7-2-0.3-8.3-1.8-9.8c-2.8-2.8-14.7,0-17.9,0.4
		c-15.7,1.9-31.4,2.6-35.3,20.8c-4.9,22.4,11.9,32.1,19.8,50.7c3.8,8.9,3.8,20.7,13.2,26c6.7,3.8,37.4-1.3,35.6-10
		c-0.2-1.1-8.5,0.6-9.3,0.7c-5.8,0.7-12,1.5-17.4-1.2c-11.9-6-16.3-25.4-19.7-37.2"/>
</g>
<g class="st0">
	<path class="st25" d="M490.7,261.6C492,257.6,67.9,49.4,67.5,50c-14,19.3-22.2,34.8-31.4,56.9c-20.5,49-36.2,106.5-20.3,159.4
		c38,126.4,184.8,201.5,316.1,180.1c30.2-4.9,63.8-18.8,96.3-55.3C459.5,355.9,472,321.9,490.7,261.6"/>
	<path class="st26" d="M475.8,253.6C477.6,250.2,71.9,49.4,71.5,50c-12.7,17.9-32.7,63.3-39.8,85.3c-7.8,24.2-12.2,43.5-12.3,69.7
		c-0.2,46.3,1.1,39.4,8.8,62.4C66.2,381.7,212.6,450.7,327.9,409c26.9-9.7,51.8-31.4,71.8-49.9C426.4,334.3,458.4,285.3,475.8,253.6
		"/>
	<path class="st27" d="M439.2,232.5C440.9,229.6,96,61.4,95.6,61.9C88.9,71,83.8,79,79.1,87.7c-3.1,5.9-6,12.1-9.1,19.1
		c-16.9,38.8-29.9,84.3-17.9,126.5C81,334.2,203.3,399,302.7,366.3c23.1-7.6,45-25.7,62.6-41.2C388.7,304.4,423.5,259.6,439.2,232.5
		"/>
	<path class="st28" d="M382.8,277.8c1.2-6.7-1.4-13-5.7-12.1c-6.6,1.3-9.9,6.4-12,9c-5.1,6.1-13.3,21.6-1.2,25.7
		C375.2,304.1,381.3,286.2,382.8,277.8"/>
	<path class="st28" d="M298.9,313c1.2-6.7-1.4-13-5.7-12.1c-6.6,1.3-9.9,6.5-12,9c-5.1,6.1-13.3,21.6-1.2,25.7
		C291.3,339.4,297.4,321.4,298.9,313"/>
	<path class="st28" d="M161.5,313c1.2-6.7-1.4-13-5.7-12.1c-6.6,1.3-9.9,6.5-12,9c-5.1,6.1-13.3,21.6-1.2,25.7
		C154,339.4,160.1,321.4,161.5,313"/>
	<path class="st28" d="M103.5,220.6c1.2-6.7-1.4-13-5.7-12.1c-6.6,1.3-9.9,6.4-12,9c-5.1,6.1-13.3,21.6-1.2,25.7
		C95.9,246.9,102,229,103.5,220.6"/>
	<path class="st28" d="M187,211.2c1.2-6.7-1.4-13-5.7-12.1c-6.6,1.3-9.9,6.5-12,9c-5.1,6.1-13.3,21.6-1.2,25.7
		C179.4,237.6,185.5,219.6,187,211.2"/>
	<path class="st28" d="M305.7,217.6c1.2-6.7-1.4-13-5.7-12.1c-6.6,1.3-9.9,6.5-12,9c-5.1,6.1-13.3,21.6-1.2,25.7
		C298.2,243.9,304.2,225.9,305.7,217.6"/>
	<path class="st28" d="M117.6,115c1.2-6.7-1.4-13-5.7-12.1c-6.6,1.3-9.9,6.5-12,9c-5.1,6.1-13.3,21.6-1.2,25.7
		C110,141.3,116.1,123.4,117.6,115"/>
</g>
<g class="st0">
	<path class="st29" d="M260.1,262c3.4-4.9,11.6-11.5,16.4-14.9c14-9.9,30.6-17.9,48.3-16.5c40.3,3.2,66.9,45.4,65.3,83.3
		c-1.4,31.3-24.3,63.1-55.2,70.9c-15.3,3.9-31.5,1.3-46.3-3.1C283.9,380.3,206.2,339.5,260.1,262"/>
	<path class="st30" d="M269.8,300c0,0.4,3.9-2.6,4.2-2.9c3-2.6,6-5.2,8.9-7.9c6.2-5.6,12.2-11.5,17.8-17.6
		c3.9-4.2,10.6-19.5,17.6-10.6c4.3,5.4-0.8,12.9-3.8,17.6c-8.4,13-20.2,28.8-35.5,34C268.7,316.1,261.7,307.5,269.8,300"/>
	<path class="st31" d="M145.8,260.9c-11.5,7.2-20.8,11.3-28.9,29.6c-25.1,56.6,21.2,118.8,82.4,108.4c16.9-2.9,37.1-7.8,49.7-20.4
		c37.9-37.9,31.4-111.4-22.2-131.3c-13.3-4.9-28-6-41.1,0C175.1,252.1,155.8,254.6,145.8,260.9"/>
	<path class="st30" d="M138.9,296c1.7-6.2,6.6-10.4,10-14c10.5-11.1,53.6-24.9,59.2-2c1.4,5.9-2.4,9.9-7.9,11.1
		c-10.7,2.4-21.8-1.7-32.5,0.2c-7.5,1.4-21.2,24.2-27.4,15C138.5,303.7,138.1,299,138.9,296"/>
	<path class="st32" d="M193.1,177.1c0,0.4,1,1.3,1.3,1.6c6.9,6.9,13.5,14.2,20,21.5c13.6,15.3,27.5,30.4,39.6,47
		c8.6,11.8,15.2,30.4,28.7,14.1c7.6-9.1-15.9-21.7-21.1-26.5c-20.5-18.8-35.6-42.1-54.9-61.8C199.6,165.7,179.9,161.4,193.1,177.1"
		/>
	<path class="st32" d="M109.9,125.9c0,1.3,2.2,3.5,2.8,4.5c2.4,3.8,5,7.4,7.4,11.2c7.8,11.9,15.1,24.2,21,37.2
		c5.4,11.9,9.8,24.3,14.1,36.6c2.2,6.3,4.4,12.5,6.6,18.8c1.9,5.5,3.8,11,5.4,16.6c0.8,2.7,1.2,6.7,2.9,9c0.6,0.9,2.1-0.3,2.8-0.6
		c1.8-0.8,6.4-1.6,6.2-4.2c-0.2-2.8-2.6-6-3.9-8.5c-2.9-6-5.9-11.9-8.5-18c-10.3-24.6-21.4-48.8-32-73.2c-1-2.4-2.1-4.8-3.2-7.1
		c-1-2-1.9-4-2.9-6.1c-0.7-1.4-1.4-2.9-2.1-4.3C124.1,132.9,117.7,119.4,109.9,125.9"/>
	<path class="st33" d="M109.9,124.8c0,0,14.9,25.5,31.1,38c34.9,26.9,86.5,27.4,128.1,18.9c5.9-1.2,31.8-18.9,31.8-18.9
		s-33.4-9.4-35.2-9.7c-25.3-3.1-44-13.5-69-17.9c-26.1-4.7-38.1,1.3-63.2-7.3C128.5,126.3,109.9,124.8,109.9,124.8"/>
	<path class="st34" d="M109.9,125c1.1-0.8,4.6-3.2,6.7-4.3c6.5-3.5,20.8-10.6,27.8-13c18.2-6.4,36.9-8,55.9-7.7
		c12,0.2,25.9,0.9,37.7,4.2c12,3.3,22.8,9.2,33.1,16.7c5.3,3.9,8.3,7.1,12.6,12.2c3.6,4.3,8,10.4,10.5,15.6
		c2.1,4.3,4.8,9.7,6.7,14.1c-17.4-4.8-30.1-5.7-47.7-9.7C207.7,143,154.7,139.2,109.9,125"/>
</g>
<g class="st0">
	<path class="st35" d="M231,148.2c-26.8,17.9-55.3,22.6-85.3,46c-31.3,24.3-29.2,50.4-19.2,91.2c14.7,60,168.5,179.5,230.3,126.4
		C445.9,335.2,405.8,31.3,231,148.2"/>
	<path class="st36" d="M336.3,407.3c-50.5,6.1-40.2-60.7-40.5-67.7c-1.1-24.7,14.6-175.6,34.1-184.5c23.9-10.9,46,38.4,50.3,55.5
		C404.4,306.3,361.8,404.3,336.3,407.3"/>
	<path class="st37" d="M270.1,252.8c-3.7,3.1-23.3-20.7-9-24.8C273.3,224.5,274.5,249.1,270.1,252.8"/>
	<path class="st37" d="M232.8,222.3c-3.7,3.1-23.3-20.7-9-24.8C235.9,194,237.1,218.7,232.8,222.3"/>
	<path class="st37" d="M264.5,195.1c-3.7,3.1-23.3-20.7-9-24.8C267.6,166.8,268.8,191.5,264.5,195.1"/>
	<path class="st37" d="M317.3,178.7c-3.7,3.1-23.3-20.7-9-24.8C320.5,150.4,321.7,175.1,317.3,178.7"/>
	<path class="st37" d="M294.1,217.2c-3.7,3.1-23.3-20.7-9-24.8C297.2,188.8,298.4,213.5,294.1,217.2"/>
	<path class="st37" d="M345.5,232.3c-3.7,3.1-23.3-20.7-9-24.8C348.6,204,349.8,228.7,345.5,232.3"/>
	<path class="st37" d="M218.9,259.5c-3.7,3.1-23.3-20.7-9-24.8C222.1,231.2,223.3,255.9,218.9,259.5"/>
	<path class="st37" d="M168.5,261.5c-3.7,3.1-23.4-20.7-9-24.8C171.6,233.2,172.8,257.9,168.5,261.5"/>
	<path class="st37" d="M210.1,316.5c-3.7,3.1-23.4-20.7-9-24.8C213.2,288.2,214.4,312.8,210.1,316.5"/>
	<path class="st37" d="M266.3,301.4c-3.7,3.1-23.3-20.7-9-24.8C269.4,273.1,270.7,297.7,266.3,301.4"/>
	<path class="st37" d="M320.7,275.4c-3.7,3.1-23.3-20.7-9-24.8C323.8,247,325,271.7,320.7,275.4"/>
	<path class="st37" d="M311.4,333c-3.7,3.1-23.3-20.7-9-24.8C314.5,304.7,315.7,329.4,311.4,333"/>
	<path class="st37" d="M269.8,365.9c-3.7,3.1-23.4-20.7-9-24.8C272.9,337.5,274.1,362.2,269.8,365.9"/>
	<path class="st37" d="M333.4,386.1c-3.7,3.1-23.3-20.7-9-24.8C336.5,357.8,337.7,382.5,333.4,386.1"/>
	<path class="st37" d="M367.7,317.2c-3.7,3.1-23.3-20.7-9-24.8C370.9,288.9,372.1,313.5,367.7,317.2"/>
	<path class="st37" d="M380.7,255.3c-3.7,3.1-23.3-20.7-9-24.8C383.9,227,385.1,251.6,380.7,255.3"/>
	<path class="st38" d="M224.1,145.3c-0.2-4.3,9.2-30.4,12.1-33.5c5.1-5.5,14.6,0,15.3,6.5c1,10-7.8,18.9-14.1,25.4
		c-1.3,1.4-7.6,8.4-9.9,5.3"/>
	<path class="st38" d="M176.8,182.1c-0.3,2.8-8.9-1.8-9.6-2.2c-5.7-3.3-26.5-20.2-20.6-27.9c2.9-3.8,9.9-1.6,13.5-0.6
		c9,2.4,37.2,11.5,22.9,25.1"/>
	<path class="st39" d="M200.5,168.8c0.1-5.5,5.9-10.7,6.8-16.5c2.2-13.7-9.5-30.1-15.2-39.3c-3.3-5.3-8-14.6-13.1-16.2
		c-3.2-0.9-14,4.2-13,11.2c0.2,1.7,13.8,13.7,15.5,15.7c9.3,11.6,16.3,28,20.5,44.7"/>
	<path class="st40" d="M129.1,216.4c-5-0.1-21.2-15.2-25.2-18.7c-0.9-0.8-7.9-6.6-6.4-8.2c2.9-3.2,14-2.8,17.8-3.3
		c14.6-1.9,28.7-5.7,43.3-8.2c3.3-0.6,17.1-2.7,16.7,4.1c-0.2,4.8-7.6,7.4-11,9.3C153.7,197.5,145.9,216.8,129.1,216.4"/>
	<path class="st40" d="M187,180.3c-0.3-4.1,3.4-10.8,4.8-14.6c2.4-6.6,4.8-15.7,11-19.9c7.1-4.9,27-2.8,25.8,8.8
		c-0.9,8.1-10.5,14.5-16.8,18.5c-4.7,3-9.8,5.2-15.2,6.6"/>
	<path class="st40" d="M232.6,147c-0.2,0.1,1.9-2.5,2.1-2.8c1.4-1.7,2.8-3.5,4.2-5.3c4.1-5.3,8.1-10.7,12-16.1
		c9-12.6,16.7-25.8,25.4-38.5c2.4-3.6,7.4-11.6,12.9-8.7c8.9,4.8,7.3,20.4,3.7,27.9c-8.9,18.4-30.8,30.7-49.1,38.2"/>
</g>
<g class="st0">
	<path class="st41" d="M79.8,176.6c-42.7,71.5-26.1,119.5-22.7,132.5c9.5,35.9,29.2,64.2,57.8,88.8c19.9,17.1,43.4,29.5,68.4,37.6
		c75.3,24.3,172.8,23.2,226.4-43.2c15.5-19.2,26.8-35.6,37.2-81.8c5.1-22.7-0.9-65.4-8.7-97.6c-4.1-16.8-19.8-48.6-28.1-63.3
		c-20.4-36-70.5-94.8-115.9-98.4c-11.2-0.9-81.1-12.2-166.5,63.9C114.8,126.5,88.7,161.7,79.8,176.6"/>
	<path class="st42" d="M142.6,110.5c-8.7,6.4-26.5,23.1-34.9,34.9C80.5,183.6,61.4,210.5,58,259.4c-2,28.3,4.7,56,17.7,79.7
		c26.4,48.1,78.7,80,137.4,67.6c37.1-7.9,71.9-27.4,101.9-50.2c45.2-34.3,98.2-93,96.5-154.6c-0.6-21.1-8.8-41-19.1-59.1
		C348.5,66.4,266.2,35.6,187.9,80.7C159.1,97.3,150.6,103.8,142.6,110.5"/>
	<path class="st43" d="M216.6,185.3c-20.5,9.8-52.1,58.3-52.1,79.6c0.1,32.4,42.3,29.6,62.3,19.2c28-14.6,50.7-45.2,57.2-76
		C292,169.9,252.6,155,216.6,185.3"/>
	<path class="st43" d="M227.9,200.8c0.2,0.8,0.3-1.6,0.5-2.3c0.3-1.3,0.8-2.6,1.2-4c1.3-4.5,2.6-9,3.9-13.5
		c3.9-13.7,7.4-27.9,13.1-41.1c0.6-1.5,4.2-10.9,6.7-10.7c1.4,0.1,0.2,5.4,0.1,6.1c-1.1,6.6-3,13.1-4.6,19.7
		c-1.5,5.6-2.7,11.3-4.1,17c-1.1,4.6-2,9.2-2.9,13.9c-2.4,12.9-4.4,22.7-10.4,30.9c-2,2.8-3.9,5.4-5.6,8.4c-0.1,0.2-0.5,0.9-0.8,0.9
		c-0.6-0.1,0.1-3.7,0.1-4.1C225.7,217,227.1,205.8,227.9,200.8"/>
	<path class="st43" d="M234.3,197.6c-0.1,0.8,0.8-1.4,1.3-2.1c0.7-1.2,1.6-2.3,2.4-3.4c2.7-3.8,5.3-7.7,8-11.6
		c8-11.8,15.9-24.1,25.5-34.8c1.1-1.2,7.4-9,9.7-8c1.3,0.6-1.5,5.2-1.8,5.8c-3.2,5.9-7,11.5-10.7,17.2c-3.2,4.9-6.2,9.9-9.3,14.8
		c-2.5,4-4.8,8.1-7.1,12.2c-6.4,11.4-11.4,20.1-19.7,26c-2.8,2-5.4,3.9-8,6.2c-0.2,0.1-0.7,0.7-1,0.6c-0.5-0.3,1.3-3.5,1.4-3.8
		C227.1,212.2,232,202,234.3,197.6"/>
	<path class="st43" d="M230.8,204.8c0.6,0.6-0.5-1.5-0.7-2.3c-0.4-1.3-0.7-2.7-1-4c-1.1-4.5-2.3-9.1-3.5-13.6
		c-3.6-13.8-7.7-27.8-9.5-42.1c-0.2-1.6-1.9-11.5,0.3-12.6c1.3-0.6,3,4.6,3.2,5.2c2.4,6.3,4.1,12.8,6,19.3
		c1.6,5.6,3.4,11.2,5.1,16.8c1.4,4.5,3,9,4.6,13.4c4.4,12.3,7.7,21.8,6.7,31.9c-0.3,3.4-0.6,6.7-0.6,10.1c0,0.2,0.1,1-0.2,1.1
		c-0.6,0.2-1.8-3.3-1.9-3.6C237.1,219.8,232.6,209.5,230.8,204.8"/>
	<path class="st43" d="M226.1,212.7c0.7,0.4-0.8-1.4-1.3-2c-0.7-1.2-1.3-2.4-2-3.6c-2.2-4.1-4.5-8.2-6.8-12.3
		c-6.9-12.5-14.3-25.1-19.5-38.5c-0.6-1.5-4.7-10.7-2.8-12.3c1.1-0.9,4,3.7,4.4,4.3c3.8,5.5,7.1,11.4,10.5,17.3c2.9,5,6,10,9,15
		c2.4,4.1,5.1,8,7.7,11.9c7.3,10.9,12.8,19.3,14.3,29.3c0.5,3.4,1.1,6.6,1.9,9.9c0.1,0.2,0.3,1,0.1,1.2c-0.5,0.3-2.5-2.7-2.7-3
		C235.9,225.7,229,216.8,226.1,212.7"/>
	<path class="st43" d="M227,218.9c0.8,0.2-1.2-1-1.9-1.5c-1.1-0.9-2-1.9-3-2.8c-3.4-3.2-6.9-6.3-10.4-9.5
		c-10.5-9.6-21.6-19.1-30.9-30.2c-1.1-1.3-7.9-8.6-6.6-10.7c0.8-1.2,5,2.2,5.5,2.6c5.4,4,10.4,8.5,15.5,12.9
		c4.4,3.8,8.9,7.5,13.4,11.3c3.6,3.1,7.4,5.9,11.1,8.8c10.4,7.9,18.3,14.1,23,23.1c1.6,3.1,3.1,5.9,5,8.8c0.1,0.2,0.6,0.8,0.4,1.1
		c-0.4,0.5-3.3-1.8-3.6-1.9C240.5,228,231,221.8,227,218.9"/>
	<path class="st43" d="M222.2,220c0.8-0.1-1.5-0.6-2.2-0.9c-1.3-0.5-2.5-1.1-3.8-1.7c-4.3-2-8.5-3.9-12.8-5.8
		c-13-5.8-26.5-11.4-38.8-19c-1.4-0.9-10.2-5.7-9.6-8.1c0.3-1.4,5.4,0.5,6,0.8c6.4,2.1,12.6,4.8,18.8,7.4c5.4,2.3,10.8,4.4,16.2,6.5
		c4.4,1.8,8.8,3.3,13.3,4.8c12.4,4.3,21.8,7.7,29.1,14.8c2.4,2.4,4.8,4.6,7.5,6.7c0.2,0.1,0.9,0.6,0.8,0.9c-0.2,0.6-3.7-0.6-4-0.7
		C237.9,224.4,227,221.4,222.2,220"/>
	<path class="st43" d="M243.7,235.6c-0.8-0.1,1.3,0.9,2,1.3c1.1,0.8,2.2,1.7,3.3,2.5c3.7,2.8,7.5,5.6,11.3,8.4
		c11.5,8.5,23.5,16.8,33.8,26.8c1.2,1.1,8.8,7.8,7.7,10c-0.6,1.3-5.2-1.7-5.7-2c-5.8-3.4-11.2-7.4-16.8-11.3
		c-4.8-3.4-9.6-6.6-14.4-9.9c-3.9-2.7-7.9-5.1-12-7.6c-11.2-6.8-19.7-12.2-25.2-20.6c-1.9-2.9-3.7-5.5-5.9-8.2
		c-0.1-0.2-0.7-0.8-0.5-1c0.3-0.5,3.4,1.4,3.7,1.6C229.4,227.9,239.4,233.2,243.7,235.6"/>
	<path class="st43" d="M251.2,230.9c-0.8,0.1,1.5,0.4,2.3,0.7c1.3,0.4,2.6,0.9,3.9,1.4c4.4,1.5,8.9,3,13.3,4.5
		c13.5,4.5,27.5,8.8,40.4,15.2c1.5,0.7,10.7,4.7,10.4,7.2c-0.2,1.4-5.4,0-6.1-0.2c-6.5-1.5-13-3.6-19.4-5.6
		c-5.6-1.7-11.2-3.3-16.8-5c-4.5-1.4-9.1-2.4-13.7-3.5c-12.7-3.1-22.5-5.6-30.3-11.9c-2.7-2.2-5.2-4.1-8.1-6
		c-0.2-0.1-0.9-0.5-0.8-0.8c0.1-0.6,3.7,0.3,4,0.4C235.2,227.9,246.3,229.9,251.2,230.9"/>
	<path class="st43" d="M246.1,215.5c-0.7,0.3,1.6,0,2.4,0c1.4,0,2.8,0.2,4.1,0.3c4.7,0.3,9.4,0.6,14,0.9c14.2,0.8,28.8,1.3,43,4
		c1.6,0.3,11.6,1.7,11.9,4.2c0.2,1.4-5.2,1.4-5.9,1.4c-6.7,0.3-13.5-0.1-20.2-0.3c-5.8-0.2-11.7-0.3-17.5-0.4
		c-4.7-0.1-9.4,0-14.2,0.2c-13.1,0.4-23.1,0.6-32.4-3.5c-3.1-1.4-6.1-2.6-9.4-3.7c-0.2-0.1-1-0.3-1-0.6c0-0.6,3.6-0.7,4-0.7
		C229.9,216.9,241.1,215.8,246.1,215.5"/>
	<path class="st43" d="M244.6,201.9c-0.6,0.5,1.5-0.5,2.3-0.7c1.3-0.4,2.7-0.6,4-1c4.6-1.1,9.1-2.2,13.7-3.3
		c13.8-3.4,27.9-7.2,42.3-8.8c1.6-0.2,11.6-1.7,12.6,0.5c0.6,1.3-4.6,2.9-5.2,3.1c-6.3,2.3-12.9,3.9-19.4,5.6
		c-5.6,1.5-11.2,3.2-16.8,4.8c-4.6,1.3-9,2.8-13.5,4.3c-12.4,4.2-22,7.3-32,6.2c-3.4-0.4-6.6-0.7-10.1-0.7c-0.2,0-1,0.1-1.1-0.3
		c-0.2-0.6,3.3-1.7,3.6-1.9C229.5,208,239.9,203.7,244.6,201.9"/>
	<path class="st43" d="M238.5,213.2c-0.2,0.9,1.2-1.4,1.9-2.1c1.1-1.2,2.3-2.2,3.4-3.4c3.9-3.8,7.7-7.6,11.6-11.5
		c11.7-11.7,23.3-23.9,36.6-34c1.5-1.1,10.4-8.7,12.8-7c1.4,0.9-2.8,5.6-3.3,6.2c-4.9,6-10.4,11.6-15.8,17.2
		c-4.7,4.9-9.2,9.9-13.8,14.8c-3.7,4-7.2,8.2-10.7,12.4c-9.7,11.6-17.3,20.4-28.1,25.3c-3.6,1.7-7,3.3-10.5,5.3
		c-0.2,0.1-1,0.7-1.3,0.4c-0.5-0.4,2.2-3.7,2.4-4C227.2,228.3,234.9,217.7,238.5,213.2"/>
	<path class="st43" d="M231.6,258.3c-0.4-0.7,0.2,1.6,0.2,2.4c0.1,1.4,0.1,2.8,0.1,4.1c0.1,4.7,0.3,9.4,0.5,14.1
		c0.6,14.2,1.6,28.8,0.3,43.2c-0.1,1.6-0.6,11.7-3,12.2c-1.4,0.3-1.9-5.1-2-5.8c-1-6.7-1.3-13.4-1.7-20.1
		c-0.4-5.8-0.9-11.6-1.4-17.4c-0.4-4.7-1-9.4-1.6-14.1c-1.7-13-2.9-23,0.3-32.6c1.1-3.3,2-6.4,2.7-9.7c0-0.2,0.1-1,0.5-1.1
		c0.6-0.1,1.1,3.6,1.1,3.9C228.6,242.3,230.8,253.4,231.6,258.3"/>
	<path class="st43" d="M218.8,263.2c-0.2-0.8-0.4,1.6-0.6,2.3c-0.4,1.3-0.8,2.6-1.2,4c-1.4,4.5-2.8,9-4.1,13.4
		c-4.1,13.6-8,27.7-13.9,40.8c-0.7,1.5-4.4,10.8-6.9,10.6c-1.4-0.2-0.1-5.4,0-6.1c1.3-6.6,3.2-13.1,5-19.6c1.6-5.6,3-11.3,4.4-16.9
		c1.2-4.6,2.2-9.2,3.1-13.8c2.7-12.8,4.8-22.6,11-30.7c2.1-2.7,4-5.4,5.8-8.3c0.1-0.2,0.5-0.9,0.8-0.9c0.6,0.1-0.2,3.7-0.2,4
		C221.3,247.1,219.7,258.2,218.8,263.2"/>
	<path class="st43" d="M235.1,250.2c-0.6-0.5,0.6,1.5,0.9,2.2c0.5,1.3,0.9,2.6,1.4,3.9c1.6,4.4,3.2,8.8,4.8,13.2
		c5,13.4,10.4,26.9,13.6,41c0.4,1.6,3.1,11.3,0.9,12.6c-1.2,0.7-3.4-4.2-3.7-4.8c-3-6-5.3-12.4-7.8-18.6c-2.1-5.4-4.5-10.8-6.7-16.2
		c-1.8-4.4-3.8-8.6-5.9-12.9c-5.6-11.8-9.8-21-9.8-31.1c0-3.4-0.1-6.7-0.4-10.1c0-0.2-0.2-1,0.1-1.2c0.5-0.3,2.1,3.1,2.3,3.4
		C227.3,235.9,232.8,245.7,235.1,250.2"/>
	<path class="st43" d="M239,241.8c-0.7-0.3,1,1.3,1.5,1.9c0.8,1.1,1.5,2.3,2.3,3.4c2.6,3.9,5.3,7.8,7.9,11.6
		c8.1,11.7,16.7,23.5,23.2,36.4c0.7,1.5,5.7,10.2,4,12c-1,1-4.3-3.3-4.8-3.8c-4.4-5.1-8.2-10.7-12.1-16.1c-3.4-4.7-7-9.4-10.4-14
		c-2.8-3.8-5.8-7.4-8.8-11.1c-8.3-10.1-14.6-17.9-17.1-27.8c-0.8-3.3-1.7-6.5-2.9-9.7c-0.1-0.2-0.4-0.9-0.2-1.2
		c0.5-0.4,2.8,2.5,3,2.7C228,229.8,235.7,238.1,239,241.8"/>
	<path class="st43" d="M203.9,236c0.8-0.1-1.5-0.5-2.3-0.8c-1.3-0.5-2.6-1.1-3.8-1.6c-4.3-1.8-8.7-3.6-13-5.3
		c-13.2-5.4-26.9-10.5-39.4-17.6c-1.4-0.8-10.4-5.4-9.9-7.8c0.3-1.4,5.4,0.4,6.1,0.6c6.5,1.9,12.7,4.4,19,6.8c5.5,2.1,11,4,16.4,6
		c4.5,1.6,9,3,13.5,4.4c12.5,3.8,22.1,6.9,29.6,13.8c2.5,2.3,5,4.4,7.7,6.5c0.2,0.1,0.9,0.6,0.8,0.9c-0.2,0.6-3.7-0.5-4-0.6
		C219.7,239.9,208.8,237.3,203.9,236"/>
	<path class="st43" d="M204.5,239.9c0.6-0.5-1.6,0.3-2.4,0.5c-1.4,0.2-2.7,0.4-4.1,0.6c-4.6,0.6-9.3,1.3-13.9,2
		c-14.1,2.1-28.5,4.6-42.9,4.8c-1.6,0-11.7,0.6-12.5-1.7c-0.5-1.4,4.9-2.4,5.5-2.6c6.5-1.6,13.2-2.7,19.8-3.8
		c5.8-1,11.5-2.1,17.2-3.2c4.7-0.9,9.2-2,13.8-3.1c12.7-3,22.5-5.2,32.5-3.1c3.4,0.7,6.5,1.3,9.9,1.7c0.2,0,1,0,1.1,0.4
		c0.1,0.6-3.4,1.4-3.8,1.5C220.1,235.3,209.3,238.6,204.5,239.9"/>
	<path class="st43" d="M207,255.3c0.5-0.6-1.4,0.7-2.2,1c-1.3,0.6-2.6,1-3.8,1.6c-4.4,1.7-8.7,3.5-13,5.3
		c-13.2,5.5-26.5,11.4-40.4,15.1c-1.6,0.4-11.2,3.5-12.5,1.4c-0.8-1.2,4.1-3.5,4.7-3.9c5.9-3.2,12.1-5.8,18.3-8.5
		c5.3-2.3,10.6-4.9,15.9-7.3c4.3-2,8.5-4.2,12.7-6.3c11.6-6.1,20.6-10.6,30.7-11c3.4-0.1,6.7-0.3,10-0.8c0.2,0,1-0.2,1.2,0.1
		c0.3,0.5-3,2.2-3.3,2.4C221,247,211.4,252.8,207,255.3"/>
	<path class="st43" d="M200.2,261.5c0.3-0.8-1.1,1.1-1.7,1.7c-1,0.9-2.1,1.8-3.1,2.7c-3.6,3.1-7.1,6.2-10.6,9.3
		c-10.7,9.4-21.4,19.3-33.4,27.3c-1.4,0.9-9.4,6.9-11.4,5.4c-1.1-0.9,2.8-4.7,3.2-5.2c4.6-4.9,9.6-9.4,14.6-14
		c4.3-3.9,8.5-8,12.7-12c3.5-3.3,6.7-6.7,10-10.1c9-9.5,16.1-16.7,25.5-20.3c3.2-1.2,6.2-2.5,9.3-4c0.2-0.1,0.9-0.5,1.1-0.3
		c0.4,0.4-2.1,3.1-2.3,3.3C210.8,249.1,203.5,257.7,200.2,261.5"/>
	<path class="st43" d="M207.1,265.5c0-0.8-0.7,1.4-1.1,2.1c-0.7,1.2-1.4,2.4-2.1,3.6c-2.4,4-4.8,8.1-7.2,12.1
		c-7.2,12.3-14.3,25.1-23.1,36.4c-1,1.3-6.8,9.5-9.2,8.7c-1.4-0.5,1.1-5.3,1.4-5.9c2.8-6.1,6.2-11.9,9.5-17.8
		c2.8-5.1,5.5-10.3,8.3-15.4c2.3-4.2,4.3-8.4,6.3-12.7c5.6-11.8,10-20.9,17.9-27.3c2.7-2.2,5.1-4.3,7.5-6.7c0.1-0.1,0.7-0.8,1-0.6
		c0.5,0.3-1,3.6-1.2,3.9C213.2,250.4,209.1,260.9,207.1,265.5"/>
	<path class="st44" d="M171.6,139.5c3-1.5,7,0.5,8.9,4.4c1.9,3.9,0.9,8.3-2.1,9.7c-3,1.5-7-0.5-8.9-4.4
		C167.7,145.3,168.6,141,171.6,139.5"/>
	<path class="st44" d="M233.3,123.6c3.4-0.2,6.3,3.1,6.6,7.4c0.3,4.3-2.2,8-5.5,8.3c-3.4,0.2-6.3-3.1-6.6-7.4
		C227.4,127.6,229.9,123.9,233.3,123.6"/>
	<path class="st44" d="M280.3,116.1c2.6,2.1,2.5,6.6-0.3,9.9c-2.8,3.3-7.1,4.3-9.7,2.2c-2.6-2.1-2.5-6.6,0.3-9.9
		C273.3,114.9,277.7,113.9,280.3,116.1"/>
	<path class="st44" d="M152.9,320.3c2.6,2.1,2.5,6.6-0.3,9.9c-2.7,3.3-7.1,4.3-9.7,2.2c-2.6-2.1-2.5-6.6,0.3-9.9
		C146,319.2,150.3,318.2,152.9,320.3"/>
	<path class="st44" d="M193.4,308.3c2.6,2.1,2.5,6.6-0.3,9.9c-2.8,3.3-7.1,4.3-9.7,2.2c-2.6-2.1-2.5-6.6,0.3-9.9
		C186.4,307.2,190.8,306.2,193.4,308.3"/>
	<path class="st44" d="M152,261c0.7,3.3-2.1,6.7-6.3,7.7c-4.2,1-8.3-0.9-9-4.2c-0.7-3.3,2.1-6.7,6.3-7.7
		C147.3,255.8,151.3,257.7,152,261"/>
	<path class="st44" d="M143.3,220.1c-0.4,3.3-4.2,5.6-8.5,5.1c-4.3-0.5-7.4-3.7-7-7c0.4-3.3,4.3-5.6,8.5-5.1
		C140.6,213.6,143.7,216.8,143.3,220.1"/>
	<path class="st44" d="M155.5,177.7c-0.9,3.2-5.1,4.9-9.2,3.7c-4.2-1.2-6.8-4.8-5.9-8c0.9-3.2,5.1-4.9,9.2-3.7
		C153.8,170.8,156.4,174.4,155.5,177.7"/>
	<path class="st44" d="M319.7,164.2c2.6,2.1,2.5,6.6-0.3,9.9c-2.8,3.3-7.1,4.3-9.7,2.2c-2.6-2.1-2.5-6.6,0.3-9.9
		C312.7,163.1,317.1,162.1,319.7,164.2"/>
	<path class="st44" d="M335.9,241.4c-1,3.2-5.1,4.9-9.3,3.6c-4.1-1.2-6.7-4.8-5.8-8.1c1-3.2,5.1-4.8,9.3-3.6
		C334.3,234.5,336.9,238.2,335.9,241.4"/>
	<path class="st44" d="M295.2,305.8c-2.5,2.3-6.9,1.6-9.8-1.5c-3-3.2-3.4-7.6-0.9-9.9c2.5-2.3,6.9-1.6,9.8,1.5
		C297.3,299.1,297.7,303.5,295.2,305.8"/>
	<path class="st44" d="M213.8,349.1c-3.3-0.6-5.4-4.5-4.7-8.8c0.7-4.3,4-7.3,7.3-6.7c3.3,0.6,5.4,4.5,4.7,8.8
		C220.4,346.7,217.1,349.7,213.8,349.1"/>
	<path class="st44" d="M306.2,273.5c-2.5,2.3-6.8,1.6-9.8-1.6c-3-3.2-3.4-7.6-0.9-9.9c2.5-2.3,6.9-1.6,9.8,1.6
		C308.3,266.8,308.7,271.2,306.2,273.5"/>
</g>
<g class="st0">
	<path class="st45" d="M166.8,122.9c-75.5,58-53.9,132.4-51.9,155c10.1,114.1,127.4,174.8,231,169.3c17.3-0.9,53.7,8.3,68.3-2.4
		c11.6-8.4,26.4-66,30.8-80.4c35-114.7-33.2-244.9-153-271.2C256.9,85.5,221.5,80.9,166.8,122.9"/>
	<path class="st46" d="M155.8,299.1c2.9,30.8,31.4,69.8,51.4,91.2c21.2,22.7,52.4,32.2,82,37.5c23.2,4.2,46.6,6.1,70.1,7.7
		C404.4,438.6,416,425,427,381c15.1-60.1,6.7-128.9-23.6-183c-4-7.1-36.2-50.3-46.2-44.8c-8,4.4,20.2,58.2,23.7,65.8
		c21.6,45.9,58.6,195.3-26.2,200.4c-39.8,2.4-118.2-24.3-145.4-54.2c-18.7-20.6-16.3-17.8-30.8-41.1
		C169.3,309.3,158,296.8,155.8,299.1"/>
	<path class="st47" d="M164.2,102.1C-5.8,166.7,52.4,289.8,68.6,340.7c1,3.2,15.1,44.1,19.5,44.8c0.1,0-0.5-3.7-0.7-4.1
		c-2.4-7.1,2.7-19.1,4.2-25.9c5.1-22.1,9.8-44.3,14.7-66.4C115.9,246.5,149.4,143.4,164.2,102.1"/>
	<path class="st48" d="M170.6,108.1c-0.4,0.8,0.6,2.5,0.8,3.4c8.9,28.9,12.3,60.8,8.8,90.8c-6.2,54.2-37.7,95.4-64.7,140.8
		c-7.6,12.9-15.1,26.3-20.6,40.2c-2.3,5.8-4.1,12.1-5.7,18.2c0,0.1-0.3,1.7-0.5,1.6c-5.2-2.1-4.2-75.1-3.8-82.9
		c2.5-46.2,30.7-205.9,91.5-218"/>
	<path class="st47" d="M183.2,107.2c-2.2,2.7,5-4.8,7.4-7.2c4.4-4.3,8.6-8.6,13.1-12.7c13.3-12.1,28.1-26.5,44.8-33.5
		c36.5-15.3,69.9,20.2,97.8,37.8c0.7,0.5,1.5,0.9,2.2,1.4c8.8,5.3,17.9,9.8,27,14.6c0.3,0.2,3.1,1.4,3,1.9c-0.1,0.4-2.1,0.5-2.4,0.5
		c-11.5,2.3-22.5,6-34.1,7.6c-39,5.4-76.3,2.7-114.9-4.3"/>
	<path class="st49" d="M173.1,120.4c-0.9,0.5-10.9-6.8-12.1-7.4c-6.4-3.4-23.4-6.8-25.5-14.8c-3.1-11.9,8.7-33.4,21.3-22.5
		c6,5.1,10.2,12.5,14.5,19c3.8,5.7,12.6,15.2,11.3,22.7"/>
</g>
<g class="st0">
	<path class="st50" d="M115.3,100.4c2.6-0.4-3.8,3.7-5.7,5.7c-3.9,4.1-7.5,8.4-10.7,13.1c-9.6,13.7-19.5,30.5-19.4,47.7
		c0.2,27.1,18.6,49.7,24.3,75.6c6,27.6,0.9,56.3,2.8,84.2c6.2,89.2,101.2,143.5,183.2,116.5c84.1-27.7,163.8-132.7,116.5-221.4
		c-24.9-46.7-66.1-84.3-115.6-94.9C230.6,113.8,182.6,38.5,115.3,100.4"/>
	<path class="st51" d="M128.6,133.9c3.2-17.2,23.8-37.1,39.7-41.2c37-9.4,94.1,50.1,138.2,63.5c25.7,7.8,77,34.5,52.1,69
		c-16.5,22.9-55.5,26.7-81,27.6C206.6,255.3,112,223,128.6,133.9"/>
	<path class="st52" d="M126,104.1c0,0.4-5.2-5-5.9-5.8c-3.6-3.9-7.2-7.8-10.9-11.6c-4.1-4.2-8.4-8.1-13.1-11.5
		c-6.5-4.8-21.2-8.8-15.1-19.3c0.8-1.4,1.8-2.7,3.1-3.8c4.9-4,12.7-1.5,17.4,1.4c11.4,7.1,18.3,19.8,26.8,29.9
		c2.6,3.1,8.2,7.5,7.5,12C135.1,99,128.8,102.8,126,104.1"/>
</g>
<g class="st0">
	<path class="st53" d="M60,71.9c0.1-0.7-1-16.6-0.3-16.9c4.5-1.6,23.3-8,23.5-3.3c0.7,12.8,3.2,15.7,6.3,22.7
		c6.9,16,23.4,30.5,36,41.2c25.8,22,54.7,32.8,86.2,42.8c6.8,2.2,29.6,1.6,31.1,9.5c1.3,7.4-6,14.3-13.3,13.8
		c-17.5-1.3-36.8-9.3-53.2-15c-31.3-10.9-57-26.5-82.1-48.1C76,102.9,66.5,95.1,60,71.9"/>
	<path class="st53" d="M109.5,121.3c1.3,12.9,6.6,25.1,7.1,38.4c0.6,19.1-6.2,38.5-10,57c-1.2,5.8-4.2,14.2,3.8,15.5
		c1,0.2,3.1,1,4,0.2c2-1.6,1.9-9.2,2.2-11.5c1.7-10.8,2.8-21.8,5-32.5c0.5-2.4,1.1-12.1,3.9-13.3c2.4-1,8.6,4.5,10.3,5.7
		c7,5,13.1,11.1,19.6,16.6c2.7,2.3,6.1,5.1,9.9,4c6.5-1.9,7.4-10,2.4-14c-10.7-8.6-26.6-11-36.7-20.7c-4.1-3.9-5-11.3-6.2-16.5
		C122.2,137.9,119.6,120.5,109.5,121.3"/>
	<path class="st53" d="M127,132.7c-0.8,0,1.3-6.5,1.6-6.5c2.3,0,4.7-0.1,7-0.2c6.9-0.3,13.7-1,20.6-1.8c11.7-1.4,23.9-2.1,35.4-5.1
		c5-1.3,9.9-3.1,14.3-5.8c0.4-0.2,3.8-3.5,4-3.5c1.5,0.4,2.9,9.9,3.1,11.4c0.6,4.4-16.3,4.5-19.1,4.9c-15.8,2.6-31.6,5.5-47.5,6.9
		C142.2,133.4,130.7,136,127,132.7"/>
	<path class="st54" d="M340.4,350.2c-31.8,14.9-29.7,43.3-26.9,59.1c5.4,30.2,42.9,46.8,70.5,38.6
		C451.9,427.7,422.4,311.9,340.4,350.2"/>
	<path class="st55" d="M342.7,364.7c9.6-6.2,20.4-6.5,24.2-0.6c3.8,5.8-0.9,15.6-10.5,21.8c-9.6,6.2-20.4,6.5-24.2,0.6
		C328.4,380.6,333.1,370.9,342.7,364.7"/>
	<path class="st56" d="M328.3,424.5c0.5,6.3,7.1,11.4,12,14.2c23,13.1,41.5,8.7,62.4-5.3c4.6-3.1,18.5-24.2,8.8-28.4
		c-2.8-1.2-6.6,7.8-7.7,9.6c-9.1,14.8-17.3,15.7-27.3,18.6C356.5,439,345.3,429.6,328.3,424.5"/>
	<path class="st54" d="M359.3,269.2c-31.8,14.9-29.7,43.3-26.9,59.1c5.4,30.2,42.9,46.8,70.5,38.6
		C470.8,346.8,441.3,231,359.3,269.2"/>
	<path class="st55" d="M361.6,283.7c9.6-6.2,20.4-6.5,24.2-0.6c3.8,5.8-0.9,15.6-10.5,21.8c-9.6,6.2-20.4,6.5-24.2,0.6
		C347.3,299.7,352,289.9,361.6,283.7"/>
	<path class="st56" d="M347.2,343.6c0.5,6.3,7.1,11.4,12,14.2c23,13.1,41.5,8.7,62.4-5.3c4.6-3.1,18.5-24.2,8.8-28.4
		c-2.8-1.2-6.6,7.8-7.7,9.6c-9.1,14.8-17.3,15.7-27.3,18.6C375.4,358.1,364.2,348.7,347.2,343.6"/>
	<path class="st54" d="M260.9,327.2c-31.8,14.9-29.7,43.3-26.9,59.1c5.4,30.2,42.9,46.8,70.5,38.6
		C372.4,404.7,342.9,288.9,260.9,327.2"/>
	<path class="st55" d="M263.2,341.7c9.6-6.2,20.4-6.5,24.2-0.6c3.8,5.8-0.9,15.6-10.5,21.8s-20.4,6.5-24.2,0.6
		C248.9,357.7,253.6,347.9,263.2,341.7"/>
	<path class="st56" d="M248.8,401.5c0.5,6.3,7.1,11.4,12,14.2c23,13.1,41.5,8.7,62.4-5.3c4.6-3.1,18.5-24.2,8.8-28.4
		c-2.8-1.2-6.6,7.8-7.7,9.6c-9.1,14.8-17.3,15.7-27.3,18.6C277,416.1,265.8,406.7,248.8,401.5"/>
	<path class="st54" d="M325.4,200.4c-31.8,14.9-29.7,43.3-26.9,59.1c5.4,30.2,42.9,46.8,70.5,38.6
		C436.9,277.9,407.4,162.1,325.4,200.4"/>
	<path class="st55" d="M327.7,214.9c9.6-6.2,20.4-6.5,24.2-0.6c3.8,5.8-0.9,15.6-10.5,21.8c-9.6,6.2-20.4,6.5-24.2,0.6
		C313.4,230.8,318.1,221,327.7,214.9"/>
	<path class="st56" d="M313.3,274.7c0.5,6.3,7.1,11.4,12,14.2c23,13.1,41.5,8.7,62.4-5.3c4.6-3.1,18.5-24.2,8.8-28.4
		c-2.8-1.2-6.6,7.8-7.7,9.6c-9.1,14.8-17.3,15.7-27.3,18.6C341.5,289.2,330.3,279.8,313.3,274.7"/>
	<path class="st54" d="M260.9,261.2c-31.8,14.9-29.7,43.3-26.9,59.1c5.4,30.2,42.9,46.8,70.5,38.6
		C372.4,338.7,342.9,222.9,260.9,261.2"/>
	<path class="st55" d="M263.2,275.7c9.6-6.2,20.4-6.5,24.2-0.6c3.8,5.8-0.9,15.6-10.5,21.8c-9.6,6.2-20.4,6.5-24.2,0.6
		C248.9,291.7,253.6,281.9,263.2,275.7"/>
	<path class="st56" d="M248.8,335.6c0.5,6.3,7.1,11.4,12,14.2c23,13.1,41.5,8.7,62.4-5.3c4.6-3.1,18.5-24.2,8.8-28.4
		c-2.8-1.2-6.6,7.8-7.7,9.6c-9.1,14.8-17.3,15.7-27.3,18.6C277,350.1,265.8,340.7,248.8,335.6"/>
	<path class="st54" d="M151.2,295.5c-31.8,14.9-29.7,43.3-26.9,59.1c5.4,30.2,42.9,46.8,70.5,38.6
		C262.7,373,233.2,257.2,151.2,295.5"/>
	<path class="st55" d="M153.5,310c9.6-6.2,20.4-6.5,24.2-0.6c3.8,5.8-0.9,15.6-10.5,21.8c-9.6,6.2-20.4,6.5-24.2,0.6
		C139.2,326,143.9,316.2,153.5,310"/>
	<path class="st56" d="M139.2,369.8c0.5,6.3,7.1,11.4,12,14.2c23,13.1,41.5,8.7,62.4-5.3c4.7-3.1,18.5-24.2,8.8-28.4
		c-2.8-1.2-6.6,7.8-7.7,9.6c-9.1,14.8-17.3,15.7-27.3,18.6C167.3,384.4,156.2,375,139.2,369.8"/>
	<path class="st54" d="M180.7,219.7c-31.8,14.9-29.7,43.4-26.9,59.1c5.4,30.2,42.9,46.8,70.5,38.6
		C292.2,297.2,262.7,181.4,180.7,219.7"/>
	<path class="st55" d="M183,234.2c9.6-6.2,20.4-6.5,24.2-0.6c3.8,5.8-0.9,15.6-10.5,21.8c-9.6,6.2-20.4,6.5-24.2,0.6
		C168.8,250.1,173.5,240.4,183,234.2"/>
	<path class="st56" d="M168.7,294c0.5,6.3,7.1,11.4,12,14.2c23,13.1,41.5,8.7,62.4-5.3c4.7-3.1,18.5-24.2,8.8-28.4
		c-2.8-1.2-6.6,7.8-7.7,9.6c-9,14.8-17.3,15.7-27.3,18.6C196.9,308.5,185.7,299.1,168.7,294"/>
	<path class="st54" d="M249.6,174.1c-31.8,14.9-29.7,43.3-26.9,59.1c5.4,30.2,42.9,46.8,70.5,38.6
		C361.1,251.6,331.6,135.8,249.6,174.1"/>
	<path class="st55" d="M251.9,188.6c9.6-6.2,20.4-6.5,24.2-0.6c3.8,5.8-0.9,15.6-10.5,21.8c-9.6,6.2-20.4,6.5-24.2,0.6
		C237.6,204.6,242.4,194.8,251.9,188.6"/>
	<path class="st56" d="M237.6,248.5c0.5,6.3,7.1,11.4,12,14.2c23,13.1,41.5,8.7,62.4-5.3c4.6-3.1,18.5-24.2,8.8-28.4
		c-2.8-1.2-6.6,7.8-7.7,9.6c-9.1,14.8-17.3,15.7-27.3,18.6C265.7,263,254.6,253.6,237.6,248.5"/>
	<path class="st54" d="M290.4,112.1c-31.8,14.9-29.7,43.3-26.9,59.1c5.4,30.2,42.9,46.8,70.5,38.6
		C401.9,189.6,372.4,73.8,290.4,112.1"/>
	<path class="st55" d="M292.7,126.6c9.6-6.2,20.4-6.5,24.2-0.6c3.8,5.8-0.9,15.6-10.5,21.8c-9.6,6.2-20.4,6.5-24.2,0.6
		C278.4,142.6,283.1,132.8,292.7,126.6"/>
	<path class="st56" d="M278.3,186.5c0.5,6.3,7.1,11.4,12,14.2c23,13.1,41.5,8.7,62.4-5.3c4.7-3.1,18.5-24.2,8.8-28.4
		c-2.8-1.2-6.6,7.8-7.7,9.6c-9.1,14.8-17.3,15.7-27.3,18.6C306.5,201,295.3,191.6,278.3,186.5"/>
	<path class="st54" d="M230.7,92.8c-31.8,14.9-29.7,43.3-26.9,59.1c5.4,30.2,42.9,46.8,70.5,38.6C342.2,170.3,312.7,54.5,230.7,92.8
		"/>
	<path class="st55" d="M233,107.3c9.6-6.2,20.4-6.5,24.2-0.6c3.8,5.8-0.9,15.6-10.5,21.8c-9.6,6.2-20.4,6.5-24.2,0.6
		C218.7,123.3,223.4,113.5,233,107.3"/>
	<path class="st56" d="M218.7,167.2c0.5,6.3,7.1,11.4,12,14.2c23,13.1,41.5,8.7,62.4-5.3c4.6-3.1,18.5-24.2,8.8-28.4
		c-2.8-1.2-6.6,7.8-7.7,9.6c-9.1,14.8-17.3,15.7-27.3,18.6C246.8,181.7,235.7,172.3,218.7,167.2"/>
	<path class="st54" d="M161.3,153.7c-31.8,14.9-29.7,43.3-26.9,59.1c5.4,30.2,42.9,46.8,70.5,38.6
		C272.9,231.2,243.4,115.4,161.3,153.7"/>
	<path class="st55" d="M163.7,168.2c9.6-6.2,20.4-6.5,24.2-0.6c3.8,5.8-0.9,15.6-10.5,21.8c-9.6,6.2-20.4,6.5-24.2,0.6
		C149.4,184.1,154.1,174.4,163.7,168.2"/>
	<path class="st56" d="M149.3,228c0.5,6.3,7.1,11.4,12,14.2c23,13.1,41.5,8.7,62.4-5.3c4.7-3.1,18.5-24.2,8.8-28.4
		c-2.8-1.2-6.6,7.8-7.7,9.6c-9.1,14.8-17.3,15.7-27.3,18.6C177.5,242.6,166.3,233.2,149.3,228"/>
	<path class="st54" d="M102.3,219.7c-31.8,14.9-29.7,43.4-26.9,59.1c5.4,30.2,42.9,46.8,70.5,38.6
		C213.8,297.2,184.3,181.4,102.3,219.7"/>
	<path class="st55" d="M104.6,234.2c9.6-6.2,20.4-6.5,24.2-0.6c3.8,5.8-0.9,15.6-10.5,21.8c-9.6,6.2-20.4,6.5-24.2,0.6
		C90.3,250.1,95.1,240.4,104.6,234.2"/>
	<path class="st56" d="M90.3,294c0.5,6.3,7.1,11.4,12,14.2c23,13.1,41.5,8.7,62.4-5.3c4.7-3.1,18.5-24.2,8.8-28.4
		c-2.8-1.2-6.6,7.8-7.7,9.6c-9.1,14.8-17.3,15.7-27.3,18.6C118.5,308.5,107.3,299.1,90.3,294"/>
</g>
<g class="st0">
	<path class="st57" d="M276.4,121.5c2.6,2.8-6.8-3.5-10.3-5c-5.9-2.6-12-4.8-18.2-6.7c-18.2-5.8-37.4-8.1-56.4-7.9
		c-53,0.4-111.9,32.1-132.2,83.2c-35.7,89.8,34.2,169.5,99.9,221.6c25.4,20.1,50.5,40,83.8,43.1c59.6,5.5,145.4-70.5,174-118.9
		c17-28.7,34.3-59.5,33.3-92.9C447.6,150.4,376.8,74.9,276.4,121.5"/>
	<path class="st58" d="M179.2,401.6c-15.1-12.3-68.7-37.5-93.7-123.2c-8.5-29.2-5.9-124,49.8-111.1c23.3,5.4,33.5,35.3,40.1,55.2
		c14.5,44.3,22.8,89.1,44.4,130.9c10.3,19.9,38.8,39.1,40.4,61.9C263.1,458.7,189.5,410.1,179.2,401.6"/>
	<path class="st58" d="M395.1,143.5c-8.2-8.5-8.1-1.3,6.3,41.8c10.5,31.4,20,55.9,14.7,89.2c-3,18.9-16.8,46.6-49.3,79.3
		c-28.3,28.6-57.3,44.6-88.9,66.6c-3.1,2.2-22.5,19.5-16.5,23.4c19.4,12.7,89.5-50.7,104-62.3C507.6,267.2,405.6,154.3,395.1,143.5"
		/>
	<path class="st59" d="M285.1,124.5c-1.6,3,9.7,25.8,19.9,50.8c16.6,40.5,19.4,58.8,17.5,93.9c-2.8,50.6-10,78.1-29,117.4
		c-8.9,18.4-20.3,34.8-30.3,52.5c-0.4,0.8-3.9,6-2.7,6.9c2.4,1.9,17-14.5,18.3-16c16.5-18.9,27.6-41.8,35.9-65.3
		C343.7,283.1,340.9,199.3,285.1,124.5"/>
	<path class="st60" d="M245.9,103.5c-0.1,0-3.6-4-3.9-4.2c-5.7-4.7-12.2-8.3-18.8-11.5c-20.9-10.1-44.2-18.2-67.3-20.9
		c-25.9-3.1-53.4-0.1-76.4,13c-4.6,2.6-9.1,5.4-13.8,8c-2.1,1.2-7.6,0.9-6.5,3c0.8,1.6,19.9,15.4,22.2,17.3
		c5.7,4.6,11.9,8.4,18.6,11.4c10.2,4.5,20.9,6.7,31.9,7.7C171.2,130.9,210.3,119.6,245.9,103.5"/>
	<path class="st60" d="M245.9,111.4c0.1,0,3.6,4,3.9,4.2c5.7,4.7,12.2,8.3,18.8,11.5c20.9,10.1,44.2,18.2,67.3,20.9
		c25.9,3.1,53.4,0,76.4-13c4.6-2.6,9.1-5.4,13.8-8c2.1-1.2,7.6-0.9,6.5-3c-0.8-1.6-19.9-15.4-22.2-17.3c-5.7-4.6-11.9-8.4-18.6-11.4
		c-10.2-4.5-20.9-6.7-31.9-7.7C320.6,84,281.5,95.3,245.9,111.4"/>
	<path class="st61" d="M249,117.1c1.7-10.4,0.3-21.6,0.2-32.1c-0.1-9.6-2.4-24.4,3.9-32.7c6-7.8,22.9,5.9,23.9,13
		c0.1,0.8-6.6,5.1-7.4,6.1c-4,5.3-5.3,12.7-6.5,19.1c-0.8,4.7-0.7,25.8-7.1,26.8"/>
</g>
<g class="st0">
	<path class="st62" d="M217.2,228.2c-17.9-4.4-26.4,70.2-25.4,79.5c7.7,74.2,86.4,175,170.3,132C526.9,355,313.9,119.2,217.2,228.2"
		/>
	<path class="st63" d="M216.7,245.7c-4,0.4-6.5,15.4-6.9,17.7c-3.9,20.3-2.1,41.8,2.2,61.9c8.5,38.9,46,107.8,96.9,112.9
		c20.9,2.1,43.2-8,60.5-17.4c12.1-6.6,25-14.5,34.2-24.3c1.1-1.2,4.3-4.6,2.1-6.1c-4.6-3.3-18.4,0.1-23.6,0.2
		c-15.8,0.5-59.2,34.2-73.2,29.8c-22.3-6.9-60.1-7.8-85.3-92C216.9,306.1,223.4,281.7,216.7,245.7"/>
	<path class="st64" d="M257.1,259.4c-2.7-0.8,2.1-5.4,9.4-15.1c2.9-3.9-1.1-6.4,2.8-9.7c4.8-3.9,8.1,2.6,14,2.5
		c3.8-0.1,18.5-4.5,13.9-0.3c-4.7,4.2-9.3,8.5-14.6,12C278.2,251.9,259.8,260.2,257.1,259.4"/>
	<path class="st64" d="M236.5,309.4c-2.7-0.8,2.1-5.4,9.5-15.1c3-3.9-1.1-6.4,2.8-9.7c4.8-3.9,8.1,2.6,14,2.5
		c3.8-0.1,18.5-4.5,13.9-0.3c-4.7,4.2-9.3,8.5-14.6,12C257.6,301.9,239.2,310.1,236.5,309.4"/>
	<path class="st64" d="M298.9,276.4c-2.7-0.8,2.1-5.4,9.5-15.1c3-3.9-1.1-6.4,2.8-9.7c4.8-3.9,8.1,2.6,14,2.5
		c3.8-0.1,18.5-4.5,13.9-0.3c-4.7,4.2-9.3,8.5-14.6,12C320,268.9,301.6,277.1,298.9,276.4"/>
	<path class="st64" d="M340.7,285.5c-2.7-0.8,2.1-5.4,9.4-15.1c3-3.9-1.1-6.4,2.9-9.7c4.8-3.9,8.1,2.6,14,2.5
		c3.8-0.1,18.5-4.5,13.9-0.3c-4.7,4.2-9.3,8.5-14.6,12C361.8,278,343.4,286.2,340.7,285.5"/>
	<path class="st64" d="M288.6,334.3c-2.7-0.8,2.1-5.4,9.4-15.1c2.9-3.9-1.1-6.4,2.8-9.7c4.8-3.9,8.1,2.6,14,2.5
		c3.8-0.1,18.5-4.5,13.9-0.3c-4.7,4.2-9.3,8.5-14.6,12C309.7,326.8,291.3,335.1,288.6,334.3"/>
	<path class="st64" d="M223.3,347.9c-2.7-0.8,2.1-5.4,9.4-15.1c2.9-3.9-1.1-6.4,2.9-9.7c4.8-3.9,8.1,2.6,14,2.5
		c3.8-0.1,18.5-4.5,13.9-0.3c-4.7,4.2-9.3,8.5-14.6,12C244.3,340.4,226,348.7,223.3,347.9"/>
	<path class="st64" d="M265.1,374c-2.7-0.8,2.1-5.4,9.5-15.1c2.9-3.9-1.1-6.4,2.8-9.7c4.8-3.9,8.1,2.6,14,2.5
		c3.8-0.1,18.5-4.5,13.9-0.3c-4.7,4.2-9.3,8.5-14.6,12C286.2,366.5,267.8,374.8,265.1,374"/>
	<path class="st64" d="M340.7,335.5c-2.7-0.8,2.1-5.4,9.4-15.1c3-3.9-1.1-6.4,2.9-9.7c4.8-3.9,8.1,2.6,14,2.5
		c3.8-0.1,18.5-4.5,13.9-0.3c-4.7,4.2-9.3,8.5-14.6,12C361.8,328,343.4,336.2,340.7,335.5"/>
	<path class="st64" d="M317.9,392.3c-2.7-0.8,2.1-5.4,9.4-15.1c3-3.9-1.1-6.4,2.9-9.7c4.8-3.9,8.1,2.6,14,2.5
		c3.8-0.1,18.5-4.5,13.9-0.3c-4.7,4.2-9.3,8.5-14.6,12C339,384.8,320.6,393,317.9,392.3"/>
	<path class="st65" d="M198.9,191.9c-2.8-0.8-7.7-7.4-10-9.4c-8.9-7.8-18.2-15-28-21.6c-7.8-5.2-15.5-10.3-24.3-13.9
		c-0.9-0.4-7.1-2.4-7.1-3.7c0-1.1,9.1,1.5,9.7,1.7c11.2,3.3,22.4,6.9,33.2,11.4c2,0.8,13.5,6.9,13.3,3.9c-0.4-5-7-10.9-9.8-14.6
		c-9-11.3-18.1-22.6-26.8-34.2c-1.4-1.9-13-16.6-11.2-18.8c2.1-2.7,12.3,5.8,13.8,7c12.7,10,25,20.6,36.2,32.1
		c2.7,2.8,5.4,5.5,8.1,8.3c0.3,0.3,4.9,5,5,4.5c1.1-3.7-4.3-12.5-5.4-16c-4.2-13.4-7.4-27.2-10.2-40.9c-0.4-1.8-3.5-15.7-0.9-15.9
		c2.1-0.2,4.2,5.1,4.9,6.5c3.4,7,5.9,14.5,8.7,21.8c8.9,23.7,18.7,47,25.4,71.5c1.2,4.6,2.9,16.9,2.1,23.3
		C224.3,206.7,203.2,194.3,198.9,191.9"/>
	<path class="st66" d="M226.7,213.8c-0.1,0.3-2.5-4-2.7-4.3c-1.7-3.2-3.1-6.6-4.4-10c-3.6-9.9-6.2-20.2-8.1-30.6
		c-6.4-34.2-4-67.8,15.6-97.3c2.6-4,14.8-21.8,20.5-21.6c2,0.1-0.3,5.7-0.6,6.4c-2.6,7.7-5.2,15.4-7.2,23.3
		c-5,19.8-8.1,40.3-9.2,60.7c-0.9,17.1-1.1,34.9,3.7,51.4c1.3,4.5,11.6,21.7,10.9,25c-0.6,3-6.1,0.3-7.2-0.4"/>
	<path class="st66" d="M235.5,213.5c0.3,0-2.6-3.9-2.8-4.2c-2.3-2.9-4.8-5.5-7.4-8.1c-7.6-7.3-16-13.9-24.6-19.9
		c-28.6-19.9-60.2-31.3-95.2-25.5c-4.7,0.8-26,4.6-28.1,9.9c-0.8,1.9,5.4,2,6.1,2.1c8.1,0.8,16.2,1.6,24.2,3
		c20.1,3.5,40.1,9.1,59.1,16.4c16,6.1,32.3,13.3,45.4,24.4c3.5,3,15.1,19.4,18.4,20.2c3,0.7,2.8-5.5,2.5-6.7"/>
	<path class="st67" d="M226,231.8c-9.7-3.4-29.1-4.4-37.8-10.2c-5.3-3.5-13.2-6.2-27.3-8.8c-3.9-0.7-13.2-1.6-11.4-4.4
		c2-3.1,41.8-10.6,44.6-10c10.9,2.3,21.6,5,31.7,9.9c0.9,0.4,11.6,6.7,12.2,5.8c1.8-2.8,0.3-11.4-1-14c-3.8-7.6-1.9-21.8-0.7-32.6
		c0.3-2.4,23.9-44.2,26.7-45.3c2.4-1-1.2,24.7-3.5,37c-1.7,8.7-2.6,19.4-2.6,30.8c0,1.3-1.6,11.6-0.2,12.1c1.3,0.4,6.8-7.3,7.6-8.1
		c7.2-7,15.1-14,24.3-18.3c2.4-1.1,7.6-3.8,10.1-1.6c3.1,2.7-1.2,8.8-2.7,11c-6.4,9.5-12.2,17.6-21.7,24c-8,5.5-15.9,10.8-23,17.4
		c-11.4,10.6-19.8,22.1-35.1,27.3c-12.8,4.3-26.2,5.4-39.5,7c-4.7,0.6-21.6,4.1-9.3-2.9c1.7-1,3.4-1.9,5.2-2.7
		c2.9-1.4,6-2.4,9.1-3.5c5.3-1.8,10.6-3.5,15.9-5.1C207.5,243.8,216.4,235.7,226,231.8"/>
</g>
<g class="st0">
	<path class="st68" d="M357.9,70.8c-28.9,4.4-56.3,42.7-79.4,58.4c-22.9,15.6-44.9,32.6-68.1,47.7c-48.3,31.5-96.1,55.7-121.3,111.5
		c-42,92.7,51.1,173.6,141.1,160c109.3-16.6,125.7-109,164.8-192.1c14.3-30.4,40-65,46.1-97.9C449.7,112.8,430.1,44,357.9,70.8"/>
	<path class="st69" d="M338.9,57.1c-28.9,4.4-58.9,31.3-82.1,47c-22.9,15.6-44.9,32.6-68.1,47.7c-48.3,31.5-96,55.7-121.3,111.5
		c-42,92.7,51.1,173.6,141.1,160c109.3-16.6,125.7-109,164.8-192.1c14.3-30.4,40.6-58.3,49.7-90.5C439,84.4,411.1,30.2,338.9,57.1"
		/>
	<path class="st70" d="M327.6,67.3c-24.7,2.8-51.5,26.6-71.9,40.3c-20.2,13.6-39.7,28.5-60.1,41.6c-42.5,27.3-84.2,47.8-108.5,99
		c-40.3,85,34.3,165.3,111.3,156.6c93.4-10.5,112.1-96.5,149.5-172.6c13.7-27.8,37.3-52.8,46.8-82.6C411,97.6,390.2,45.5,327.6,67.3
		"/>
	<path class="st71" d="M165.6,187C91,240.7,122,367,228.7,322.6c34.2-14.2,64.5-59.7,60.2-98.3C283.6,176.1,232.7,138.7,165.6,187"
		/>
	<path class="st72" d="M165.4,216.5c-20,21.7-10.9,82.5,24.1,50.8C216.4,243.1,223.3,173.8,165.4,216.5"/>
</g>
<g class="st0">
	<path class="st73" d="M179.3,79.5c-18.7,8.7-37.5,24.7-52.8,38.1C47.2,187.4,58.4,273.5,138,338.3c28.1,22.9,61.5,39.4,93.8,55.7
		c23.2,11.7,85.9,60.8,107.7,54.9c56.7-15.3,81.5-90.9,83.7-141.7C428.2,197.4,344.6,2.8,179.3,79.5"/>
	<path class="st74" d="M229.9,63.7c2.4,1-5.3,0.2-7.9,0.5c-5.5,0.8-10.9,1.7-16.3,2.9c-15.3,3.6-30.4,9.2-44,16.3
		c-41.9,22-79.5,74.5-87.8,119.1c-12.8,68,54.7,155.9,137.9,183.2c52.5,17.2,50.6,33.3,71.4,35.3c31.5,3.1-23.7-48.3-29.6-54.1
		c-35.1-33.9-76.3-44.9-81.4-117.2c-3.5-48.6,39.1-118.8,59.4-104.2c62,44.8,115.3,45.6,144.6,29.1
		C414.9,152.8,260.2,63.4,229.9,63.7"/>
	<path class="st75" d="M352.6,342c-36.9,76.7-69.8,73.4-48.7,92.8c24.9,22.9,89.7,32.9,119.6-67.1c7.5-25,3.5-66.6-1.3-113.6
		c-1.6-15.2-22.7-72.1-46.3-62.6C353.9,200.2,385.1,274.4,352.6,342"/>
	<path class="st76" d="M88.2,280C42.9,196.6,100.5,103.9,187,70.8c8.2-3.1,108.4-12.5,97.1-7.2c-44.9,20.9-93,29.9-125.7,71.6
		c-15.3,19.5-32.2,55.8-35.3,70.6c-10.3,48.7,6.1,79.3,12.6,93c10.6,22.4,64,73.2,47.6,71.4C159.5,367.7,115.2,329.8,88.2,280"/>
	<path class="st77" d="M177.5,88.9c-0.8,0.3-5.5,1.7,4.5,3.4c5.1,0.9,7,2.7,11.8,4.6c14.2,5.9,31.5,26.2,44.5,34.5
		c41,26.2,59.2,46.9,117.7,42.6c4-0.3,27.8-6.7,45-12.1c0.8-0.2-28.3-17-28.6-17.1c-15.7-8.2-19.1-3.6-35.2-11.1
		C287.3,110.7,234.4,79.2,177.5,88.9"/>
	<path class="st78" d="M211.9,94c-0.2,0.1-36.1-4.2-36.1-4.3c1.5-3.1,5.9-5.4,8.7-7c6.6-3.9,13.2-7.4,20.2-10.5
		c20.5-9.3,42.1-15.3,64.8-15.2c46.9,0.2,75.3,30.7,97.9,67.9c5.9,9.6,12.1,18.7,20.3,26.5c3.5,3.3,7.2,6.4,11.2,9.1
		c0.7,0.5,2.9,1.1,2.1,1.4c-2.7,0.9-47.8-19.4-52.1-21.3C302,120.6,262.2,103.4,211.9,94"/>
	<path class="st79" d="M161.6,98.2c-0.1,0.6-15-17.3-15.4-17.6c-1.1-0.8-2.2-1.6-3.3-2.3c-3.5-2.4-6.7-5.1-7.1-9.7
		c-0.5-5.4,12.5-18.5,18-18.5c5.3,0,20.8,35.5,19,41.3C171.1,96.8,166.1,95.2,161.6,98.2"/>
</g>
</svg>
