<?xml version="1.0" encoding="utf-8"?>
<!-- Generator: Adobe Illustrator 27.8.0, SVG Export Plug-In . SVG Version: 6.00 Build 0)  -->
<svg version="1.1" id="Layer_1" xmlns="http://www.w3.org/2000/svg" xmlns:xlink="http://www.w3.org/1999/xlink" x="0px" y="0px"
	 viewBox="0 0 500 500" style="enable-background:new 0 0 500 500;" xml:space="preserve">
<style type="text/css">
	.st0{fill-rule:evenodd;clip-rule:evenodd;fill:#6CAB43;}
	.st1{fill-rule:evenodd;clip-rule:evenodd;fill:#E1EAA4;}
	.st2{fill-rule:evenodd;clip-rule:evenodd;fill:#328640;}
	.st3{fill-rule:evenodd;clip-rule:evenodd;fill:#54A746;}
	.st4{fill-rule:evenodd;clip-rule:evenodd;fill:#442012;}
</style>
<g>
	<path class="st0" d="M255.1,156.2c-40.1-1.8-88.8-30.1-133.9-7.4c-86.3,43.4-52.9,217.1,4.3,275.5c54.2,55.3,73.4,3.3,124.1,9.6
		c23.4,2.9,69.3,14.6,87.7,14.6c48.4,0,84-96.9,90.3-133.1c12.3-71.7-2.3-157.5-84-175.1C320.7,135.2,278.2,155.1,255.1,156.2"/>
	<path class="st1" d="M124,192.8c-3.8,2.2-8.5,9.7-10.4,13C101.1,228.1,94.9,251.3,98,277c2.3,19.6,20.6,28.3,37.2,17.2
		c11.6-7.7,17-13.1,27-22.7c17.3-16.6,36.2-34.4,42.8-58.3c5.1-18.5,0.7-42-21.4-46.4c-3.5-0.7-7.2-0.7-10.7-0.3
		C154.6,168.9,136.9,179.9,124,192.8"/>
	<path class="st2" d="M249.8,156.1c-2-0.8-1.6-6.9-1.5-8.4c0.7-10.2,5.1-20.4,9.9-29.2c13.6-25.3,34-44,58.9-57.9
		c3.8-2.1,7.6-4,11.5-5.9c2.1-1,4.2-1.9,6.3-2.8c4.6-2,6.9-3.4,7.1,1.7c0.1,1.4,0.1,2.8,0,4.3c-0.1,2.6-0.6,5.1-1.1,7.7
		c-0.8,4.2-1.8,8.4-3,12.5c-2,6.6-4.6,13.1-7.5,19.4c-5.2,11-12,20.8-20.8,29.3C296.1,139.6,268.3,152.3,249.8,156.1"/>
	<path class="st3" d="M265.9,142.9c-0.4-1.1,2.7-6.1,3.3-6.7c4.1-4.1,8.1-8.1,12-12.4c3.1-3.4,6.2-6.8,9.2-10.3
		c2.2-2.5,4.3-4.9,6.4-7.4c6.7-8.2,12.1-17.4,18.9-25.5c0.9-1.1,1.9-2.2,2.9-3.3c7.2-7.5,4.2,4.3,2.7,8.3c-0.9,2.4-1.8,4.7-2.9,7.1
		c-1.6,3.5-3.4,6.8-5.5,10.1c-3.7,5.8-8.1,11.1-12.5,16.4C293.6,127.4,274.4,136.3,265.9,142.9"/>
	<path class="st3" d="M311.7,70.4c0.8-0.3-1.4,0.5-1.6,0.6c-1.4,0.8-2.7,1.8-4.1,2.7c-3.6,2.6-7.1,5.5-10.4,8.6
		c-2.7,2.5-5.3,5-7.9,7.6c-2.1,2.1-4.1,4.3-6.1,6.5c-1.7,1.9-3.3,3.9-4.9,5.9c-4.3,5.7-8.1,12.1-10,19c-0.4,1.4-1.8,4.8-0.5,6.1
		c1.2,1.1,3.4-1.6,4-2.3c3.1-3.5,5.7-7.2,8.4-10.9c6.1-8.1,12-16.6,18.7-24.3C303.3,83.3,308.1,78.5,311.7,70.4"/>
	<path class="st3" d="M203.3,78.2C203.3,78.2,203.3,78.2,203.3,78.2"/>
	<path class="st4" d="M200.6,79.1c-0.2,0.8-3.1,2.3-3.7,2.9c-2.5,2.3-9.3,9.1-7.3,12.9c2,3.7,11.6,4,15.2,6
		c9.7,5.4,17.6,13.5,23.5,22.8c1.6,2.5,3.1,5.2,4.5,7.9c1.1,2.1,2,4.3,2.9,6.5c0.6,1.5,1.2,3.1,1.7,4.6c0.5,1.3,0.9,2.7,1.3,4.1
		c1.1,3.6,6.5,18.9,12.8,10c4.2-6-1.3-16.2-3.8-21.7c-7.3-15.9-14.2-34.1-25.8-47.6C217.4,82.1,208,75.7,200.6,79.1"/>
</g>
</svg>
