<?xml version="1.0" encoding="utf-8"?>
<!-- Generator: Adobe Illustrator 27.8.0, SVG Export Plug-In . SVG Version: 6.00 Build 0)  -->
<svg version="1.1" id="Layer_1" xmlns="http://www.w3.org/2000/svg" xmlns:xlink="http://www.w3.org/1999/xlink" x="0px" y="0px"
	 viewBox="0 0 500 110" style="enable-background:new 0 0 500 110;" xml:space="preserve">
<style type="text/css">
	.st0{fill:#0688A6;}
	.st1{fill:#594058;}
</style>
<g>
	<g>
		<path class="st0" d="M45.3,109.2c-3.6,0-7-0.6-10.1-1.9c-3.2-1.3-5.8-3.1-8-5.5l1.1-2c1.4,1.5,3,2.7,4.6,3.8
			c1.7,1.1,3.6,1.9,5.7,2.5c2.1,0.6,4.3,0.9,6.6,0.9c3.8,0,7.4-1,10.7-3c3.3-2,6-4.8,8-8.5c2-3.7,3-8.1,3-13.2V68l0.9-0.3
			c-0.9,3.6-2.4,6.8-4.6,9.5c-2.2,2.8-4.8,5-7.9,6.5c-3.1,1.6-6.4,2.4-10,2.4c-4.9,0-9.2-1.2-13-3.5c-3.8-2.3-6.9-5.5-9.1-9.5
			c-2.2-4-3.3-8.7-3.3-13.8c0-5.3,1.1-10,3.4-14.1c2.3-4.1,5.3-7.3,9.1-9.6c3.8-2.3,7.9-3.5,12.5-3.5c2.1,0,4.2,0.3,6.2,0.9
			c2,0.6,4,1.4,5.8,2.5c1.8,1.1,3.4,2.4,4.9,3.9c1.5,1.5,2.7,3.1,3.6,5c1,1.8,1.7,3.7,2.1,5.8L66.9,50l0.2-17.2h2v50.4
			c0,4.1-0.6,7.7-1.9,11c-1.2,3.2-3,6-5.1,8.2c-2.2,2.2-4.7,4-7.6,5.2C51.6,108.6,48.6,109.2,45.3,109.2z M45.2,84
			c4.1,0,7.8-1,11.1-3.2c3.3-2.1,5.9-5,7.8-8.8c1.9-3.7,2.9-8,2.9-12.9c0-4.8-1-9.1-2.9-12.8c-1.9-3.7-4.5-6.7-7.8-8.8
			c-3.3-2.1-7.1-3.2-11.2-3.2c-4.5,0-8.4,1.1-11.9,3.2c-3.5,2.1-6.2,5.1-8.1,8.9c-1.9,3.8-2.9,8.1-2.9,13c0,4.7,1,8.9,2.9,12.6
			c2,3.7,4.7,6.6,8.1,8.8C36.7,83,40.7,84,45.2,84z"/>
		<path class="st0" d="M107,86.2c-5.3,0-9.9-1.2-13.9-3.5c-4-2.3-7.2-5.6-9.5-9.7c-2.3-4.1-3.4-8.8-3.4-14.1c0-5.2,1.1-9.8,3.4-13.9
			c2.3-4,5.4-7.2,9.5-9.5c4-2.3,8.7-3.4,13.9-3.4c5.3,0,9.9,1.1,14,3.4c4,2.3,7.2,5.4,9.4,9.5c2.2,4,3.4,8.6,3.4,13.9
			c0,5.3-1.1,10-3.4,14.1c-2.2,4.1-5.4,7.4-9.4,9.7C116.9,85.1,112.3,86.2,107,86.2z M107,84c4.7,0,8.9-1.1,12.6-3.2
			c3.7-2.1,6.6-5.1,8.7-8.9c2.1-3.8,3.2-8.1,3.2-13c0-4.7-1.1-8.9-3.2-12.6c-2.1-3.7-5-6.6-8.7-8.7c-3.7-2.1-7.9-3.2-12.6-3.2
			c-4.7,0-8.9,1.1-12.6,3.2c-3.7,2.1-6.6,5-8.8,8.7c-2.1,3.7-3.2,7.9-3.2,12.6c0,4.9,1.1,9.2,3.2,13c2.1,3.8,5.1,6.8,8.8,8.9
			C98.1,83,102.3,84,107,84z"/>
		<path class="st1" d="M177.7,86.2c-5,0-9.6-0.9-13.9-2.6c-4.2-1.7-7.9-4.2-10.9-7.3c-3.1-3.2-5.5-6.9-7.2-11.3
			c-1.7-4.4-2.5-9.1-2.5-14.4c0-5.3,0.8-10.2,2.5-14.6c1.7-4.4,4-8.3,7.1-11.5c3.1-3.2,6.8-5.8,11-7.5c4.2-1.8,8.8-2.7,13.8-2.7
			c3.8,0,7.3,0.5,10.6,1.6c3.3,1.1,6.3,2.6,9,4.5c2.7,2,5.2,4.2,7.3,6.9l-1.7,1.6c-1.9-2.5-4.2-4.7-6.8-6.6
			c-2.6-1.9-5.4-3.3-8.5-4.3s-6.4-1.5-10-1.5c-4.6,0-8.9,0.8-12.8,2.5c-3.9,1.7-7.3,4.1-10.2,7.1c-2.9,3.1-5.1,6.7-6.7,10.9
			c-1.6,4.2-2.4,8.7-2.4,13.6c0,4.9,0.8,9.3,2.4,13.4c1.6,4.1,3.8,7.6,6.8,10.6c2.9,3,6.3,5.3,10.2,7c3.9,1.6,8.2,2.5,12.8,2.5
			c4.8,0,9-0.8,12.8-2.2s6.8-3.6,9.4-6.3c2.6-2.7,4.5-6,5.8-9.8c1.3-3.8,1.9-8,1.9-12.6v-1.9l0.6,0.5h-29.6v-2.2h31.3
			c0,0.4,0,0.7,0,0.9c0,0.2,0,0.4,0,0.6c0,0.1,0,0.3,0,0.4c0,5.7-0.7,10.7-2.2,15c-1.5,4.4-3.6,8-6.4,11c-2.8,2.9-6.2,5.2-10.1,6.7
			C187.2,85.5,182.7,86.2,177.7,86.2z"/>
		<path class="st1" d="M243.8,86.2c-4.9,0-9.2-1.2-13-3.5c-3.8-2.3-6.9-5.5-9.1-9.5c-2.2-4-3.3-8.7-3.3-13.8c0-5.3,1.1-10,3.4-14.1
			c2.3-4.1,5.3-7.3,9.1-9.6c3.8-2.3,7.9-3.5,12.5-3.5c2.8,0,5.5,0.4,8,1.3c2.5,0.9,4.8,2.1,6.8,3.7s3.7,3.5,5,5.7
			c1.4,2.2,2.3,4.6,2.8,7.3l-0.6-0.3l0.2-17.2h2v52.5h-2.2V68l0.9-0.3c-0.6,2.7-1.6,5.1-2.9,7.4c-1.4,2.3-3.1,4.2-5.1,5.9
			c-2,1.7-4.2,3-6.6,3.8C249.2,85.8,246.6,86.2,243.8,86.2z M243.8,84c4.1,0,7.7-1,11.1-3.2c3.3-2.1,5.9-5,7.8-8.8
			c1.9-3.7,2.8-8,2.8-12.9c0-4.8-1-9.1-2.8-12.8c-1.9-3.7-4.5-6.7-7.8-8.8c-3.3-2.1-7.1-3.2-11.2-3.2c-4.5,0-8.4,1.1-11.9,3.2
			c-3.5,2.1-6.2,5.1-8.1,8.9c-1.9,3.8-2.9,8.1-2.9,13c0,4.7,1,8.9,2.9,12.6c1.9,3.7,4.6,6.6,8.1,8.8C235.2,83,239.2,84,243.8,84z"/>
		<path class="st1" d="M304.3,86.2c-5.1,0-9.5-1.2-13.4-3.5c-3.9-2.3-6.9-5.6-9-9.7c-2.2-4.1-3.2-8.8-3.2-14.1
			c0-3.9,0.6-7.5,1.8-10.8c1.2-3.3,2.9-6.1,5.1-8.4c2.2-2.4,4.8-4.2,7.8-5.5c3-1.3,6.3-2,9.9-2c3.3,0,6.4,0.5,9.2,1.6
			s5.2,2.7,7.2,4.8c2,2.1,3.6,4.6,4.7,7.5c1.1,2.9,1.5,6.2,1.4,9.9l-0.1,2.6h-45.7v-2.2h44.6l-1.2,1.7l0.2-2.5c0-4.3-0.9-8-2.7-11.2
			c-1.8-3.2-4.2-5.7-7.2-7.4c-3-1.8-6.4-2.6-10.1-2.6c-4.5,0-8.5,1-11.8,3.1c-3.4,2.1-6,5-7.8,8.7c-1.9,3.7-2.8,7.9-2.9,12.7
			c0.1,4.9,1.1,9.2,3.1,13c2,3.8,4.8,6.8,8.2,8.9c3.5,2.1,7.6,3.2,12.2,3.2c3.5,0,6.7-0.6,9.6-1.9c2.9-1.3,5.6-3,7.9-5.2l1.2,1.8
			c-1.7,1.5-3.5,2.8-5.4,4c-1.9,1.1-4,2-6.2,2.6C309.2,85.9,306.8,86.2,304.3,86.2z"/>
		<path class="st1" d="M338.9,19c-0.9,0-1.6-0.3-2.1-0.8c-0.5-0.5-0.7-1.2-0.7-2.1c0-0.8,0.2-1.5,0.7-2c0.5-0.6,1.2-0.9,2.1-0.9
			c0.9,0,1.6,0.3,2.1,0.8c0.5,0.5,0.8,1.2,0.8,2.1c0,0.9-0.2,1.6-0.7,2.1C340.5,18.7,339.8,19,338.9,19z M337.8,85.2V32.8h2.2v52.5
			H337.8z"/>
		<path class="st1" d="M357.9,85.2v-74h2.2v74H357.9z"/>
		<path class="st1" d="M398.7,109.2c-3.6,0-7-0.6-10.2-1.9c-3.2-1.3-5.8-3.1-8-5.5l1.1-2c1.4,1.5,3,2.7,4.6,3.8
			c1.7,1.1,3.6,1.9,5.7,2.5c2.1,0.6,4.3,0.9,6.6,0.9c3.8,0,7.4-1,10.7-3s6-4.8,8-8.5c2-3.7,3-8.1,3-13.2V68l0.9-0.3
			c-0.9,3.6-2.4,6.8-4.6,9.5c-2.2,2.8-4.8,5-7.9,6.5c-3.1,1.6-6.4,2.4-10,2.4c-4.9,0-9.2-1.2-13-3.5c-3.8-2.3-6.9-5.5-9.1-9.5
			c-2.2-4-3.3-8.7-3.3-13.8c0-5.3,1.1-10,3.4-14.1c2.3-4.1,5.3-7.3,9-9.6c3.8-2.3,8-3.5,12.5-3.5c2.1,0,4.2,0.3,6.2,0.9
			c2,0.6,4,1.4,5.8,2.5c1.8,1.1,3.4,2.4,4.9,3.9c1.5,1.5,2.7,3.1,3.6,5c1,1.8,1.7,3.7,2.1,5.8l-0.6-0.3l0.2-17.2h2v50.4
			c0,4.1-0.6,7.7-1.8,11c-1.2,3.2-3,6-5.2,8.2c-2.2,2.2-4.7,4-7.6,5.2C405,108.6,402,109.2,398.7,109.2z M398.6,84
			c4.1,0,7.8-1,11.1-3.2c3.3-2.1,5.9-5,7.8-8.8c1.9-3.7,2.8-8,2.8-12.9c0-4.8-1-9.1-2.8-12.8c-1.9-3.7-4.5-6.7-7.8-8.8
			c-3.3-2.1-7.1-3.2-11.2-3.2c-4.5,0-8.4,1.1-11.9,3.2c-3.5,2.1-6.2,5.1-8.1,8.9c-1.9,3.8-2.9,8.1-2.9,13c0,4.7,1,8.9,3,12.6
			c2,3.7,4.7,6.6,8.1,8.8C390.1,83,394.1,84,398.6,84z"/>
		<path class="st1" d="M459.3,86.2c-5.1,0-9.5-1.2-13.4-3.5c-3.9-2.3-6.9-5.6-9-9.7c-2.2-4.1-3.2-8.8-3.2-14.1
			c0-3.9,0.6-7.5,1.8-10.8c1.2-3.3,2.9-6.1,5.1-8.4c2.2-2.4,4.8-4.2,7.8-5.5c3-1.3,6.3-2,9.9-2c3.3,0,6.4,0.5,9.2,1.6
			s5.2,2.7,7.2,4.8c2,2.1,3.6,4.6,4.7,7.5c1.1,2.9,1.5,6.2,1.4,9.9l-0.1,2.6h-45.7v-2.2h44.6l-1.2,1.7l0.2-2.5c0-4.3-0.9-8-2.7-11.2
			c-1.8-3.2-4.2-5.7-7.2-7.4c-3-1.8-6.4-2.6-10.1-2.6c-4.5,0-8.5,1-11.8,3.1c-3.4,2.1-6,5-7.8,8.7c-1.9,3.7-2.8,7.9-2.9,12.7
			c0.1,4.9,1.1,9.2,3.1,13c2,3.8,4.8,6.8,8.2,8.9c3.5,2.1,7.6,3.2,12.2,3.2c3.5,0,6.7-0.6,9.6-1.9c2.9-1.3,5.6-3,7.9-5.2l1.2,1.8
			c-1.7,1.5-3.5,2.8-5.4,4c-1.9,1.1-4,2-6.2,2.6C464.2,85.9,461.8,86.2,459.3,86.2z"/>
	</g>
</g>
</svg>
