<?xml version="1.0" encoding="utf-8"?>
<!-- Generator: Adobe Illustrator 27.8.0, SVG Export Plug-In . SVG Version: 6.00 Build 0)  -->
<svg version="1.1" id="Layer_1" xmlns="http://www.w3.org/2000/svg" xmlns:xlink="http://www.w3.org/1999/xlink" x="0px" y="0px"
	 viewBox="0 0 500 500" style="enable-background:new 0 0 500 500;" xml:space="preserve">
<style type="text/css">
	.st0{fill:#FFFFFF;stroke:#0688A6;stroke-width:10;stroke-miterlimit:10;}
	.st1{fill:#594058;}
</style>
<circle class="st0" cx="250" cy="250" r="240"/>
<g>
	<g>
		<path class="st1" d="M65.8,276.1c-2.7,0-5.2-0.5-7.5-1.6c-2.3-1.1-4.2-2.6-5.8-4.5c-1.6-1.9-2.8-4.2-3.7-6.7
			c-0.9-2.6-1.3-5.3-1.3-8.3c0-3.2,0.5-6.1,1.4-8.7s2.3-5,4-6.9c1.7-2,3.8-3.5,6.2-4.6s5-1.6,7.9-1.6c3,0,5.6,0.6,8,1.7
			c2.3,1.1,4.1,2.9,5.5,5.2v-6.2h13.2v37.9c0,4.3-1.1,8.1-3.2,11.3c-2.1,3.2-5.1,5.7-9,7.5c-3.8,1.8-8.3,2.7-13.4,2.7
			c-4.4,0-8.3-0.7-11.6-2.1c-3.3-1.4-6.3-3.4-8.8-6l8-8.3c1.5,1.4,3.4,2.7,5.6,3.6c2.2,1,4.5,1.5,6.9,1.5c1.9,0,3.6-0.3,5.2-0.9
			c1.6-0.6,2.8-1.6,3.8-2.9c1-1.3,1.4-3.3,1.4-5.8v-2.7c-1.2,2.2-2.9,3.8-5.2,4.9C71,275.5,68.5,276.1,65.8,276.1z M71.2,264.1
			c0.7,0,1.5-0.1,2.1-0.3c0.7-0.2,1.3-0.5,1.9-0.8c0.6-0.3,1.2-0.8,1.7-1.4s1.1-1.2,1.6-1.9v-7.6c-0.5-1.3-1.1-2.4-2-3.3
			c-0.9-0.9-1.8-1.7-2.8-2.2c-1-0.5-2.1-0.8-3.1-0.8c-1.1,0-2.1,0.2-3,0.7c-0.9,0.5-1.7,1.2-2.4,2c-0.7,0.9-1.2,1.9-1.6,3
			c-0.4,1.1-0.6,2.3-0.6,3.6c0,1.3,0.2,2.5,0.6,3.5c0.4,1.1,1,2,1.7,2.8c0.7,0.8,1.6,1.4,2.6,1.8C69,263.9,70.1,264.1,71.2,264.1z"
			/>
		<path class="st1" d="M122.1,276.1c-3.7,0-7-0.6-9.9-1.7c-2.9-1.2-5.3-2.7-7.2-4.8c-1.9-2-3.4-4.3-4.4-6.9c-1-2.6-1.5-5.3-1.5-8.1
			c0-2.8,0.5-5.5,1.5-8.1c1-2.6,2.5-4.9,4.4-6.9c1.9-2,4.4-3.6,7.2-4.7c2.9-1.2,6.2-1.7,9.9-1.7c3.8,0,7.1,0.6,10,1.7
			c2.9,1.2,5.3,2.7,7.2,4.7c1.9,2,3.4,4.3,4.4,6.9c1,2.6,1.5,5.3,1.5,8.1c0,2.8-0.5,5.5-1.5,8.1c-1,2.6-2.5,4.9-4.4,6.9
			c-1.9,2-4.3,3.6-7.2,4.8C129.2,275.5,125.9,276.1,122.1,276.1z M114.7,254.6c0,1.8,0.3,3.3,1,4.6c0.6,1.3,1.5,2.3,2.6,3
			c1.1,0.7,2.4,1,3.8,1s2.7-0.3,3.8-1c1.1-0.7,2-1.7,2.6-3c0.6-1.3,1-2.9,1-4.6c0-1.8-0.3-3.3-1-4.6c-0.6-1.3-1.5-2.3-2.6-3
			c-1.1-0.7-2.4-1-3.8-1s-2.7,0.3-3.8,1c-1.1,0.7-2,1.7-2.6,3C115,251.3,114.7,252.8,114.7,254.6z"/>
		<path class="st1" d="M176.1,275.7c-3.7,0-7.2-0.7-10.5-2c-3.3-1.3-6.3-3.2-8.8-5.8c-2.6-2.5-4.6-5.6-6-9.2
			c-1.5-3.6-2.2-7.7-2.2-12.4c0-4,0.7-7.7,2.2-11.1c1.5-3.4,3.6-6.4,6.2-9c2.6-2.6,5.7-4.6,9.2-6s7.3-2.2,11.4-2.2
			c5.1,0,9.8,1.1,13.9,3.3c4.2,2.2,7.3,5.2,9.3,9.1l-11.6,8.9c-1.1-2.2-2.8-4-5-5.4c-2.2-1.4-4.6-2-7.1-2c-1.9,0-3.6,0.4-5.1,1.1
			c-1.5,0.7-2.9,1.8-4,3.1c-1.1,1.3-2,2.9-2.6,4.8c-0.6,1.8-0.9,3.9-0.9,6c0,2.2,0.3,4.3,1,6.1c0.6,1.8,1.5,3.4,2.7,4.7
			c1.1,1.3,2.5,2.3,4.1,3c1.6,0.7,3.4,1.1,5.4,1.1c2.5,0,4.9-0.6,7.2-1.9c2.3-1.3,4.4-3,6.2-5.3v15.2
			C186.7,273.7,181.7,275.7,176.1,275.7z M190.1,256.2h-10.5V245H203v30.2h-12.9V256.2z"/>
		<path class="st1" d="M207.3,262.8c0-2.8,0.8-5.2,2.3-7.4c1.5-2.1,3.7-3.8,6.4-5c2.7-1.2,5.9-1.8,9.4-1.8c1.7,0,3.2,0.1,4.7,0.4
			c1.5,0.3,2.7,0.7,3.8,1.2V249c0-1.9-0.6-3.3-1.7-4.2c-1.1-0.9-3-1.4-5.6-1.4c-2.3,0-4.5,0.4-6.6,1.2c-2.1,0.8-4.2,1.9-6.4,3.4
			l-4.4-9.4c2.8-1.8,5.8-3.2,8.9-4c3.1-0.9,6.5-1.3,10-1.3c6.7,0,11.8,1.5,15.5,4.4c3.7,2.9,5.5,7.3,5.5,13.1v8
			c0,1.4,0.2,2.4,0.6,2.9c0.4,0.5,1.2,0.9,2.2,1v12.8c-1.2,0.3-2.4,0.5-3.5,0.6c-1.1,0.1-2.1,0.2-2.9,0.2c-2.7,0-4.8-0.5-6.2-1.5
			c-1.4-1-2.3-2.4-2.8-4.4l-0.3-1.5c-1.9,2.4-4,4.2-6.5,5.5c-2.5,1.3-5.1,1.9-7.8,1.9c-2.8,0-5.3-0.6-7.5-1.7
			c-2.2-1.2-4-2.7-5.3-4.8C208,267.6,207.3,265.3,207.3,262.8z M232,263.7c0.6-0.4,1.1-0.8,1.4-1.3c0.4-0.5,0.6-1,0.6-1.5v-3
			c-0.9-0.3-1.8-0.6-2.9-0.8c-1.1-0.2-2.1-0.3-2.9-0.3c-1.8,0-3.3,0.4-4.6,1.3c-1.3,0.9-1.9,1.9-1.9,3.3c0,0.7,0.2,1.3,0.6,1.9
			c0.4,0.6,1,1,1.8,1.4c0.7,0.3,1.6,0.5,2.6,0.5c0.9,0,1.9-0.1,2.8-0.4C230.4,264.5,231.3,264.1,232,263.7z"/>
		<path class="st1" d="M278.3,276.1c-3.7,0-7-0.6-9.8-1.7c-2.9-1.1-5.3-2.7-7.2-4.6c-1.9-1.9-3.4-4.2-4.4-6.7c-1-2.5-1.5-5.2-1.5-8
			c0-4,0.9-7.6,2.6-11c1.8-3.3,4.3-6,7.8-8c3.4-2,7.6-3,12.6-3c5,0,9.2,1,12.6,3c3.4,2,6,4.6,7.8,7.9c1.8,3.3,2.6,6.8,2.6,10.6
			c0,0.8,0,1.6-0.1,2.4s-0.2,1.5-0.3,2.2h-29.5c0.1,1.4,0.5,2.6,1.2,3.5c0.7,0.9,1.6,1.5,2.7,1.9c1.1,0.4,2.2,0.6,3.4,0.6
			c1.7,0,3.2-0.4,4.7-1.1c1.5-0.7,2.4-1.8,2.9-3.1l12.9,3.7c-1.1,2.2-2.7,4.2-4.7,5.9c-2,1.7-4.4,3.1-7.1,4S281.7,276.1,278.3,276.1
			z M271.1,250.1H285c-0.2-1.3-0.5-2.4-1.2-3.3c-0.6-0.9-1.4-1.6-2.4-2.1c-1-0.5-2.1-0.8-3.4-0.8c-1.3,0-2.4,0.3-3.4,0.8
			c-1,0.5-1.8,1.2-2.4,2.1C271.6,247.7,271.2,248.8,271.1,250.1z"/>
		<path class="st1" d="M306.3,229.7v-12.8h15.2v12.8H306.3z M306.3,275.3v-42.1h15.2v42.1H306.3z"/>
		<path class="st1" d="M328.8,216.9H344v41.7c0,1.5,0.3,2.7,1,3.6c0.7,0.8,1.6,1.2,2.9,1.2c0.6,0,1.3-0.1,2.1-0.3
			c0.7-0.2,1.4-0.5,2.1-0.9l1.9,11.2c-1.8,0.9-3.9,1.5-6.1,2c-2.3,0.5-4.4,0.7-6.4,0.7c-4.1,0-7.2-1.1-9.4-3.2
			c-2.2-2.1-3.3-5.1-3.3-9V216.9z"/>
		<path class="st1" d="M373.7,276.1c-2.7,0-5.2-0.5-7.5-1.6s-4.2-2.6-5.8-4.5c-1.6-1.9-2.8-4.2-3.7-6.7c-0.9-2.6-1.3-5.3-1.3-8.3
			c0-3.2,0.5-6.1,1.4-8.7s2.3-5,4-6.9c1.7-2,3.8-3.5,6.2-4.6c2.4-1.1,5-1.6,7.9-1.6c3,0,5.6,0.6,8,1.7c2.3,1.1,4.1,2.9,5.5,5.2v-6.2
			h13.2v37.9c0,4.3-1.1,8.1-3.2,11.3c-2.1,3.2-5.1,5.7-9,7.5c-3.8,1.8-8.3,2.7-13.4,2.7c-4.4,0-8.3-0.7-11.6-2.1s-6.3-3.4-8.8-6
			l8-8.3c1.5,1.4,3.4,2.7,5.6,3.6c2.2,1,4.5,1.5,6.9,1.5c1.9,0,3.6-0.3,5.2-0.9c1.6-0.6,2.8-1.6,3.8-2.9c1-1.3,1.4-3.3,1.4-5.8v-2.7
			c-1.2,2.2-2.9,3.8-5.2,4.9C378.9,275.5,376.4,276.1,373.7,276.1z M379.2,264.1c0.7,0,1.5-0.1,2.1-0.3s1.3-0.5,1.9-0.8
			c0.6-0.3,1.2-0.8,1.7-1.4c0.6-0.6,1.1-1.2,1.6-1.9v-7.6c-0.5-1.3-1.1-2.4-2-3.3c-0.9-0.9-1.8-1.7-2.8-2.2c-1-0.5-2.1-0.8-3.1-0.8
			c-1.1,0-2.1,0.2-3,0.7c-0.9,0.5-1.7,1.2-2.4,2c-0.7,0.9-1.2,1.9-1.6,3s-0.6,2.3-0.6,3.6c0,1.3,0.2,2.5,0.6,3.5
			c0.4,1.1,1,2,1.7,2.8c0.7,0.8,1.6,1.4,2.6,1.8C376.9,263.9,378,264.1,379.2,264.1z"/>
		<path class="st1" d="M430,276.1c-3.7,0-7-0.6-9.8-1.7c-2.9-1.1-5.3-2.7-7.2-4.6c-1.9-1.9-3.4-4.2-4.4-6.7c-1-2.5-1.5-5.2-1.5-8
			c0-4,0.9-7.6,2.6-11s4.3-6,7.8-8c3.4-2,7.6-3,12.6-3c5,0,9.2,1,12.6,3c3.4,2,6,4.6,7.8,7.9c1.8,3.3,2.6,6.8,2.6,10.6
			c0,0.8,0,1.6-0.1,2.4c-0.1,0.8-0.2,1.5-0.3,2.2h-29.5c0.1,1.4,0.5,2.6,1.2,3.5c0.7,0.9,1.6,1.5,2.7,1.9c1.1,0.4,2.2,0.6,3.4,0.6
			c1.7,0,3.2-0.4,4.7-1.1c1.5-0.7,2.4-1.8,2.9-3.1l12.9,3.7c-1.1,2.2-2.7,4.2-4.7,5.9c-2,1.7-4.4,3.1-7.1,4
			C436.5,275.6,433.5,276.1,430,276.1z M422.8,250.1h13.9c-0.2-1.3-0.5-2.4-1.2-3.3c-0.6-0.9-1.4-1.6-2.4-2.1
			c-1-0.5-2.1-0.8-3.4-0.8c-1.3,0-2.4,0.3-3.4,0.8c-1,0.5-1.8,1.2-2.4,2.1S423,248.8,422.8,250.1z"/>
	</g>
</g>
</svg>
