<?xml version="1.0" encoding="utf-8"?>
<!-- Generator: Adobe Illustrator 27.8.0, SVG Export Plug-In . SVG Version: 6.00 Build 0)  -->
<svg version="1.1" id="Layer_1" xmlns="http://www.w3.org/2000/svg" xmlns:xlink="http://www.w3.org/1999/xlink" x="0px" y="0px"
	 viewBox="0 0 500 110" style="enable-background:new 0 0 500 110;" xml:space="preserve">
<style type="text/css">
	.st0{fill:#0888A6;}
	.st1{fill:#594058;}
</style>
<g>
	<g>
		<path class="st0" d="M30.1,108.2c-3.7,0-7.5-0.6-11.2-1.8c-3.7-1.2-6.7-2.7-9-4.5l3.8-8c1.3,1,2.9,1.9,4.7,2.6
			c1.8,0.8,3.7,1.4,5.7,1.8s4,0.7,5.9,0.7c3.7,0,6.7-0.6,9.2-1.8c2.5-1.2,4.3-3,5.6-5.3c1.3-2.3,1.9-5.2,1.9-8.7V73.1l1.1,0.7
			c-0.3,2.1-1.4,4-3.2,6c-1.8,1.9-4.1,3.5-6.9,4.7c-2.7,1.2-5.5,1.8-8.4,1.8c-5,0-9.5-1.2-13.4-3.5c-3.9-2.4-7-5.6-9.2-9.7
			c-2.3-4.1-3.4-8.8-3.4-14c0-5.3,1.1-10,3.3-14.1c2.2-4.1,5.3-7.3,9.2-9.7c3.9-2.4,8.3-3.6,13.2-3.6c2,0,3.9,0.2,5.8,0.8
			c1.9,0.5,3.6,1.2,5.2,2.1c1.6,0.9,3,1.9,4.3,3c1.3,1.1,2.3,2.2,3.1,3.4c0.8,1.2,1.3,2.3,1.5,3.4L46.8,45V32.7h10.3V82
			c0,4.2-0.6,7.9-1.9,11.2c-1.2,3.2-3,6-5.3,8.2c-2.3,2.2-5.2,3.9-8.5,5.1C38,107.7,34.3,108.2,30.1,108.2z M30.5,76.8
			c3.3,0,6.2-0.8,8.7-2.3c2.5-1.5,4.5-3.6,5.9-6.3c1.4-2.7,2.1-5.7,2.1-9.2c0-3.5-0.7-6.6-2.2-9.3c-1.4-2.7-3.4-4.8-5.9-6.4
			c-2.5-1.5-5.4-2.3-8.7-2.3c-3.2,0-6,0.8-8.5,2.4c-2.5,1.6-4.5,3.7-5.9,6.4c-1.4,2.7-2.1,5.8-2.1,9.2c0,3.4,0.7,6.4,2.1,9.1
			s3.4,4.8,5.9,6.4C24.4,76,27.3,76.8,30.5,76.8z"/>
		<path class="st0" d="M95.1,86.2c-5.1,0-9.7-1.2-13.8-3.5c-4-2.4-7.2-5.6-9.5-9.7c-2.3-4.1-3.5-8.8-3.5-14c0-5.3,1.2-10,3.5-14.1
			c2.3-4.1,5.5-7.3,9.5-9.7c4-2.4,8.6-3.6,13.8-3.6c5.1,0,9.6,1.2,13.7,3.6c4,2.4,7.2,5.6,9.5,9.7c2.3,4.1,3.5,8.8,3.5,14.1
			c0,5.3-1.2,9.9-3.5,14c-2.3,4.1-5.5,7.3-9.5,9.7C104.7,85.1,100.1,86.2,95.1,86.2z M95.1,76.8c3.1,0,5.9-0.8,8.4-2.3
			c2.5-1.6,4.4-3.7,5.8-6.4c1.4-2.7,2.1-5.8,2-9.1c0.1-3.5-0.6-6.6-2-9.3c-1.4-2.7-3.3-4.8-5.8-6.4c-2.5-1.5-5.3-2.3-8.4-2.3
			c-3.1,0-6,0.8-8.5,2.4c-2.5,1.6-4.5,3.7-5.8,6.4c-1.4,2.7-2.1,5.8-2,9.2c-0.1,3.4,0.6,6.4,2,9.1c1.4,2.7,3.3,4.8,5.8,6.4
			C89.1,76.1,91.9,76.8,95.1,76.8z"/>
		<path class="st1" d="M166.9,86.2c-5.1,0-9.8-0.9-14.2-2.8c-4.4-1.8-8.3-4.4-11.6-7.7c-3.3-3.3-5.9-7.1-7.8-11.5
			c-1.8-4.4-2.8-9.1-2.8-14.1c0-5,0.9-9.7,2.8-14c1.8-4.3,4.4-8.1,7.7-11.4c3.3-3.2,7.1-5.8,11.5-7.5c4.4-1.8,9.1-2.7,14.2-2.7
			c3.5,0,7,0.5,10.3,1.5c3.4,1,6.4,2.4,9.2,4.2c2.7,1.8,5,3.9,6.7,6.2l-7,7.3c-2-1.9-4.1-3.5-6.2-4.8c-2.1-1.3-4.2-2.2-6.5-2.9
			c-2.2-0.7-4.4-1-6.6-1c-3.6,0-6.9,0.6-10,1.9c-3,1.3-5.7,3-8,5.3c-2.3,2.3-4.1,4.9-5.3,7.9c-1.3,3-1.9,6.4-1.9,10
			c0,3.5,0.7,6.8,2,9.9c1.3,3.1,3.2,5.8,5.5,8.2c2.4,2.3,5.1,4.2,8.2,5.5c3.1,1.3,6.4,2,9.8,2c2.6,0,5.1-0.4,7.4-1.2
			c2.3-0.8,4.4-1.8,6.2-3.2c1.8-1.4,3.2-3,4.2-4.8c1-1.8,1.5-3.8,1.5-5.9v-2L188,60h-21.4V49.3h31c0.1,0.7,0.2,1.4,0.3,2.1
			c0.1,0.7,0.1,1.4,0.2,2c0,0.6,0,1.2,0,1.9c0,4.6-0.8,8.8-2.4,12.5c-1.6,3.8-3.8,7-6.6,9.8c-2.8,2.7-6.1,4.9-9.9,6.4
			C175.3,85.5,171.3,86.2,166.9,86.2z"/>
		<path class="st1" d="M229.8,86.2c-4.3,0-8.3-1.2-11.8-3.6c-3.6-2.4-6.4-5.7-8.5-9.8c-2.1-4.1-3.2-8.8-3.2-14
			c0-5.3,1.1-10,3.2-14.1c2.2-4.1,5.1-7.3,8.8-9.6c3.7-2.3,7.9-3.5,12.5-3.5c2.7,0,5.2,0.4,7.5,1.2c2.3,0.8,4.2,1.9,6,3.4
			c1.7,1.4,3.1,3.1,4.2,4.9c1.1,1.9,1.8,3.9,2,6l-2.3-0.8V32.7h10.4v52.5h-10.4V72.8l2.4-0.7c-0.4,1.8-1.2,3.5-2.5,5.2
			c-1.2,1.7-2.8,3.2-4.7,4.5c-1.9,1.3-4,2.4-6.3,3.2C234.7,85.8,232.3,86.2,229.8,86.2z M232.5,76.8c3.1,0,5.9-0.8,8.3-2.3
			c2.4-1.5,4.3-3.7,5.7-6.4c1.4-2.7,2-5.8,2-9.2c0-3.4-0.7-6.4-2-9.1c-1.4-2.7-3.2-4.8-5.7-6.3c-2.4-1.5-5.2-2.3-8.3-2.3
			c-3.1,0-5.8,0.8-8.1,2.3c-2.4,1.5-4.2,3.6-5.6,6.3c-1.4,2.7-2,5.7-2,9.1c0,3.5,0.7,6.5,2,9.2c1.4,2.7,3.2,4.8,5.6,6.4
			C226.7,76,229.4,76.8,232.5,76.8z"/>
		<path class="st1" d="M297.3,86.2c-5.4,0-10.2-1.2-14.3-3.5c-4.2-2.3-7.4-5.5-9.8-9.5c-2.4-4-3.5-8.6-3.5-13.8
			c0-4.1,0.7-7.9,2-11.3c1.3-3.4,3.2-6.4,5.5-8.9c2.4-2.5,5.2-4.4,8.5-5.8c3.3-1.4,6.9-2.1,10.8-2.1c3.4,0,6.6,0.7,9.5,2
			s5.5,3.1,7.7,5.4c2.2,2.3,3.8,4.9,5,8c1.2,3.1,1.7,6.5,1.7,10.2l-0.1,4.4h-42.9l-2.3-8.2h36.3l-1.5,1.7v-2.4
			c-0.2-2.2-0.9-4.2-2.2-5.9c-1.3-1.7-2.9-3.1-4.8-4.1c-1.9-1-4-1.5-6.3-1.5c-3.6,0-6.6,0.7-9.1,2.1c-2.5,1.4-4.3,3.4-5.6,6
			c-1.3,2.6-1.9,5.9-1.9,9.8c0,3.7,0.8,6.9,2.3,9.5c1.5,2.7,3.7,4.8,6.5,6.2c2.8,1.5,6,2.2,9.7,2.2c2.6,0,5-0.4,7.2-1.3
			c2.2-0.9,4.7-2.4,7.2-4.7l5.2,7.3c-1.6,1.6-3.5,3-5.9,4.2c-2.3,1.2-4.7,2.2-7.3,2.9C302.3,85.9,299.8,86.2,297.3,86.2z"/>
		<path class="st1" d="M338.2,21.1c-2.2,0-3.9-0.6-5.1-1.7c-1.2-1.1-1.8-2.7-1.8-4.8c0-1.9,0.6-3.5,1.8-4.7c1.2-1.2,2.9-1.8,5.1-1.8
			c2.2,0,3.9,0.6,5.1,1.7c1.2,1.1,1.8,2.7,1.8,4.8c0,1.9-0.6,3.5-1.8,4.7C342,20.5,340.3,21.1,338.2,21.1z M333.1,85.2V32.7h10.3
			v52.5H333.1z"/>
		<path class="st1" d="M359.5,85.2v-74h10.3v74H359.5z"/>
		<path class="st1" d="M407.8,108.2c-3.7,0-7.5-0.6-11.2-1.8c-3.7-1.2-6.7-2.7-9-4.5l3.8-8c1.3,1,2.9,1.9,4.7,2.6
			c1.8,0.8,3.7,1.4,5.7,1.8s4,0.7,5.9,0.7c3.7,0,6.7-0.6,9.2-1.8c2.5-1.2,4.3-3,5.6-5.3c1.3-2.3,1.9-5.2,1.9-8.7V73.1l1.1,0.7
			c-0.3,2.1-1.4,4-3.2,6c-1.8,1.9-4.1,3.5-6.8,4.7c-2.7,1.2-5.5,1.8-8.4,1.8c-5,0-9.5-1.2-13.3-3.5c-3.9-2.4-7-5.6-9.2-9.7
			c-2.3-4.1-3.4-8.8-3.4-14c0-5.3,1.1-10,3.3-14.1c2.2-4.1,5.3-7.3,9.2-9.7c3.9-2.4,8.3-3.6,13.2-3.6c2,0,3.9,0.2,5.8,0.8
			c1.9,0.5,3.6,1.2,5.2,2.1c1.6,0.9,3,1.9,4.3,3c1.3,1.1,2.3,2.2,3.1,3.4c0.8,1.2,1.3,2.3,1.5,3.4l-2.2,0.8V32.7h10.3V82
			c0,4.2-0.6,7.9-1.9,11.2c-1.2,3.2-3,6-5.3,8.2c-2.3,2.2-5.2,3.9-8.5,5.1C415.8,107.7,412,108.2,407.8,108.2z M408.2,76.8
			c3.3,0,6.2-0.8,8.7-2.3c2.5-1.5,4.5-3.6,5.9-6.3c1.4-2.7,2.1-5.7,2.1-9.2c0-3.5-0.7-6.6-2.1-9.3c-1.4-2.7-3.4-4.8-5.9-6.4
			c-2.5-1.5-5.4-2.3-8.7-2.3c-3.2,0-6,0.8-8.5,2.4c-2.5,1.6-4.5,3.7-5.9,6.4c-1.4,2.7-2.2,5.8-2.2,9.2c0,3.4,0.7,6.4,2.2,9.1
			c1.4,2.7,3.4,4.8,5.9,6.4C402.2,76,405,76.8,408.2,76.8z"/>
		<path class="st1" d="M473.7,86.2c-5.4,0-10.2-1.2-14.4-3.5c-4.2-2.3-7.4-5.5-9.8-9.5c-2.4-4-3.5-8.6-3.5-13.8
			c0-4.1,0.7-7.9,2-11.3c1.3-3.4,3.2-6.4,5.5-8.9c2.4-2.5,5.2-4.4,8.5-5.8c3.3-1.4,6.9-2.1,10.8-2.1c3.4,0,6.6,0.7,9.5,2
			c2.9,1.3,5.5,3.1,7.7,5.4c2.2,2.3,3.8,4.9,5,8c1.2,3.1,1.7,6.5,1.6,10.2l-0.1,4.4h-42.9l-2.3-8.2h36.3l-1.5,1.7v-2.4
			c-0.2-2.2-0.9-4.2-2.2-5.9c-1.3-1.7-2.9-3.1-4.8-4.1s-4-1.5-6.3-1.5c-3.6,0-6.6,0.7-9.1,2.1c-2.5,1.4-4.3,3.4-5.6,6
			c-1.3,2.6-1.9,5.9-1.9,9.8c0,3.7,0.8,6.9,2.3,9.5c1.5,2.7,3.7,4.8,6.5,6.2c2.8,1.5,6,2.2,9.7,2.2c2.6,0,5-0.4,7.2-1.3
			c2.2-0.9,4.6-2.4,7.2-4.7l5.2,7.3c-1.6,1.6-3.6,3-5.9,4.2s-4.7,2.2-7.3,2.9C478.7,85.9,476.2,86.2,473.7,86.2z"/>
	</g>
</g>
</svg>
