<?xml version="1.0" encoding="utf-8"?>
<!-- Generator: Adobe Illustrator 27.8.0, SVG Export Plug-In . SVG Version: 6.00 Build 0)  -->
<svg version="1.1" id="ainmhite" xmlns="http://www.w3.org/2000/svg" xmlns:xlink="http://www.w3.org/1999/xlink" x="0px" y="0px"
	 viewBox="0 0 500 500" style="enable-background:new 0 0 500 500;" xml:space="preserve">
<style type="text/css">
	.st0{opacity:0.5;fill:#BDBEC0;enable-background:new    ;}
	.st1{fill-rule:evenodd;clip-rule:evenodd;fill:#231F20;}
	.st2{fill-rule:evenodd;clip-rule:evenodd;fill:#FFFFFF;}
	.st3{fill:#00A199;}
	.st4{fill:#31BDB5;}
	.st5{fill:#231F20;}
	.st6{fill:#4CC2BE;}
</style>
<g>
	<path class="st0" d="M393.7,437.7c0,6.8-54.1,12.2-121,12.2s-121-5.5-121-12.2s54.2-12.2,121-12.2S393.7,430.9,393.7,437.7z"/>
	<path class="st1" d="M141.1,82.4c0,0,7.7-11.1,18.5-11.9c10.8-0.8,20.8,7.7,20.8,7.7c0.8,1.1,1.5,2.7-0.8,2.7
		c-2.7,0.4-10.8-8.8-20-7.7C150.3,74.7,141.1,82.4,141.1,82.4z"/>
	<path class="st2" d="M167.2,88.9c12.3,5.4,18.8,21.5,14.2,36.1c-4.6,14.2-18.4,21.5-31.1,16.1c-12.3-5-18.8-21.1-14.2-35.8
		C140.7,91.2,154.6,83.9,167.2,88.9z"/>
	<path class="st3" d="M158.9,144.2c-3.1,0-6.2-0.6-9-1.9c-13-5.3-19.7-22-14.9-37.2c2.2-7.3,7.3-13.3,14.2-16.7
		c5.8-2.8,12.6-3,18.6-0.6l0,0c13,5.7,19.7,22.6,14.9,37.6c-2.2,7.3-7.4,13.3-14.2,16.7C165.4,143.5,162.2,144.2,158.9,144.2z
		 M159.1,88.7c-3.1,0-6.1,0.7-8.9,2c-6.2,3.1-10.9,8.6-12.8,15.2c-4.4,13.8,1.8,29.5,13.5,34.2c5.3,2.3,11.3,2.2,16.5-0.2
		c6.3-3,10.9-8.6,12.9-15.2c4.4-13.9-1.7-29.4-13.6-34.6C164.3,89.2,161.7,88.6,159.1,88.7L159.1,88.7z"/>
	<path class="st1" d="M171.5,113.5c6.4,2.3,9.6,9.3,7.3,15.7c0,0,0,0,0,0.1c-2.3,6.5-9.6,10-15.7,7.3c-6.2-2-9.6-8.6-7.6-14.9
		c0.1-0.3,0.2-0.6,0.3-0.9c2.2-6.3,9.1-9.6,15.4-7.4C171.2,113.4,171.4,113.5,171.5,113.5z"/>
	<path class="st3" d="M229.9,321.7c0,31.4-11.6,104.6-11.6,104.6c-4.5-2.4-12-4.2-17.6-3.3c-1.1,0.2-1.7,1.3-1.5,2.3
		c0.1,0.6,0.5,1.1,1.1,1.4l21.6,9.6c1.7,0.8,3.7,0.2,4.8-1.2l30.3-102.8C257.1,332.3,229.9,318,229.9,321.7z"/>
	<path class="st3" d="M320.7,321.7l-0.2,107.1c4.9-1.1,12.7-1,17.8,1.2c1,0.5,1.4,1.6,0.9,2.6c-0.3,0.6-0.8,1-1.5,1.1l-23.4,3.8
		c-1.8,0.3-3.6-0.7-4.3-2.5L307,328L320.7,321.7z"/>
	<path class="st3" d="M258.1,266.4c-18.7,44-80.6,12.1-104.9-14.3c-2.9-3.2,2.1-7.7,5-4.5c20.4,22.2,76.8,46.4,93.2,7.8
		c1.7-4,8.1-2,6.4,2L258.1,266.4z"/>
	<path class="st3" d="M168.7,219.6c4.6,5.5,6.5,12,4.5,19c-2.3,8.1-11,11.3-18.4,12.4c-4.3,0.7-5.7-5.9-1.4-6.6
		c5.5-0.8,11.1-2.2,13.4-7.9c1.7-4.3-0.4-9.1-3.1-12.5S165.9,216.2,168.7,219.6L168.7,219.6z"/>
	<path class="st3" d="M154.7,215.8c-5.3-3.7-14.9,3-15.7,8.8c-0.6,4.5,2.2,8.7,4.9,11.9c3.2,3.8,7.3,5,11.4,7.5
		c3.7,2.3,0,7.9-3.6,5.7c-3-1.8-6-2.8-8.8-5c-2.6-2.1-4.8-4.5-6.7-7.3c-3.3-4.8-5.2-11.1-3.1-16.8c3.3-8.8,16.6-16.5,25.2-10.5
		C161.8,212.6,158.2,218.3,154.7,215.8L154.7,215.8z"/>
	<path class="st3" d="M151.9,249.8c-6.9-3.5-13.6-7.3-20.6-10.4c-7.3-3.2-15.1-4.2-22.7-6.6c-4.2-1.2-2.1-7.7,2-6.4
		c7.6,2.3,15.3,3.5,22.7,6.6c7.7,3.1,14.8,7.4,22.2,11.1C159.4,246,155.7,251.7,151.9,249.8L151.9,249.8z"/>
	<path class="st3" d="M154,251.3c-10.4,1.8-21.6,1.1-30.9,6.8c-3.7,2.3-6.7-3.7-3-6c9.9-6.1,21.5-5.5,32.5-7.4
		C156.9,243.9,158.3,250.5,154,251.3L154,251.3z"/>
	<path class="st3" d="M156.2,251c-3.3,3-6.7,5.9-10.1,8.8c-2.7,2.4-6.5,4.9-7.2,8.6c-0.8,4.3-7.2,2.1-6.4-2c0.7-3.9,3.5-6.5,6.3-9.1
		c4.2-3.9,8.6-7.6,12.9-11.4C155,243.1,159.5,248.1,156.2,251L156.2,251z"/>
	<path class="st4" d="M291.7,53.5c17.1,5,28.9,20.7,29.1,38.5v262.1c0.1,5.9-0.2,11.8-0.8,17.7c-0.8,4.8-2.5,9.4-4.9,13.6
		c-4.8,9.2-18.2,13.9-40.1,13.9c-21.3,0-34.4-4.5-39.6-13.4c-2.5-4.4-4.2-9.2-4.9-14.1c-0.6-6.2-0.9-12.5-0.8-18.8V194.2l-6.7,6.2
		c-34.1,21.7-52.4,12.7-63.2,0.7c-10.8-12-19.9-43.7-1.5-60.1c0,0,62.7-61.2,84.3-81C256.7,47.2,276.1,48.9,291.7,53.5z"/>
	<path class="st2" d="M223.3,89.3c-12.7,5.4-18.8,21.5-14.2,36.1c4.6,14.2,18.5,21.5,31.1,16.1c12.3-5.4,18.8-21.1,14.2-35.8
		C249.8,91.6,236,83.9,223.3,89.3z"/>
	<path class="st3" d="M231.6,144.6c-3.3,0-6.5-0.7-9.5-2.1c-6.9-3.3-12-9.4-14.2-16.7c-4.9-15.5,1.7-32,14.9-37.6l0,0
		c5.8-2.5,12.5-2.4,18.2,0.2c7,3.4,12.3,9.6,14.6,17c4.8,15.1-1.8,31.5-14.9,37.3C237.9,143.9,234.8,144.6,231.6,144.6z M223.8,90.4
		c-11.9,5-18,20.6-13.6,34.6c2,6.6,6.7,12.2,12.9,15.2c5.2,2.4,11.2,2.5,16.5,0.2c11.8-5.2,17.9-20.5,13.6-34.2
		c-2.1-6.8-6.9-12.4-13.2-15.5C234.9,88.3,229,88.2,223.8,90.4L223.8,90.4z"/>
	<path class="st1" d="M218,111.6c-6.3,2.2-9.6,9.1-7.4,15.4c0,0.1,0.1,0.2,0.1,0.4c2.4,6.5,9.6,9.8,16.1,7.3c0,0,0,0,0,0
		c6.2-2.4,9.4-9.3,7-15.6c0-0.1-0.1-0.1-0.1-0.2c-2-6.2-8.6-9.6-14.8-7.7C218.6,111.4,218.3,111.5,218,111.6z"/>
	<path class="st2" d="M212.9,111.2c-2.2,0.8-3.4,3.2-2.6,5.4c0,0,0,0.1,0,0.1c0.9,2.3,3.4,3.4,5.6,2.6c2.2-0.8,3.3-3.3,2.4-5.4
		c0,0,0,0,0-0.1c-0.7-2.2-3-3.4-5.2-2.7C213.2,111.1,213,111.1,212.9,111.2z"/>
	<path class="st1" d="M249.8,83.6c0,0-7.3-11.1-18.1-11.9c-11.1-0.8-21.1,7.7-21.1,7.7c-0.4,1.2-1.1,2.7,1.2,3.1
		c2.7,0,10.8-9.2,20-8.1C241,75.9,249.8,83.6,249.8,83.6z"/>
	<path class="st2" d="M158.2,111.2c-2.2,0.8-3.4,3.2-2.6,5.4c0,0,0,0.1,0,0.1c0.8,2.3,3.4,3.4,5.6,2.6c0,0,0,0,0,0
		c2.2-0.8,3.3-3.2,2.5-5.4c0,0,0-0.1,0-0.1c-0.7-2.2-3-3.4-5.2-2.7C158.5,111.1,158.4,111.1,158.2,111.2z"/>
	<path class="st5" d="M161.4,181.2c0,0,17.6,15.7,32.9,1.2C194.4,182.4,178.4,206.3,161.4,181.2z"/>
	<path class="st3" d="M302.2,210.8c27.3,7.7,54.2-4.1,66.7-29.6c9.5-19.5-0.8-53.5-20.5-63.1c-6.3-3.1-10.4,7-4.1,10.1
		c15.1,7.4,20.4,34.8,14.5,48.9c-8.4,20.3-32.2,29.4-52.5,23.6C299.6,198.8,295.4,208.9,302.2,210.8L302.2,210.8z"/>
	<path class="st3" d="M339.3,116.4c-2.9,2-7.4,4.2-10.8,2.5c-2.7-1.3-6.1,0.4-7.1,3c-1.1,2.8,0.3,5.9,3,7.1c7,3.5,15.6,0.1,21.6-4
		S345,112.4,339.3,116.4L339.3,116.4z"/>
	<path class="st3" d="M344.5,102.4c0.5,2.3,1.1,4.9,0.4,7.3s-2.9,4.2-4.5,5.9c-2.1,2.1-3,5.1-1,7.7c1.7,2.1,5.6,3.1,7.7,1
		c3.2-3.2,6.2-6.2,8-10.5s1.1-8.8,0.3-12.9C354,94,343.2,95.5,344.5,102.4L344.5,102.4z"/>
	<path class="st3" d="M330.7,111.3c3,2.8,5.6,6.1,7.7,9.6c1.6,2.5,5.4,2.7,7.7,1c2.3-1.9,2.8-5.3,1-7.7c-2.7-4.3-5.9-8.2-9.7-11.6
		c-2.4-1.8-5.8-1.4-7.7,1C327.9,106.1,328.3,109.5,330.7,111.3z"/>
	<path class="st6" d="M304.3,360.7c4.9,0,4.9-7.7,0-7.7C299.3,353,299.3,360.7,304.3,360.7z"/>
	<path class="st6" d="M298.4,369.3c-5.5,16.9-27.4,13.1-40.5,10.1c-4.8-1.1-6.9,6.4-2,7.4c17.8,4,42.9,6.2,50-15.5
		C307.4,366.6,300,364.5,298.4,369.3L298.4,369.3z"/>
	<path class="st6" d="M278.7,70.4c16.7,0.4,21.4,13.1,20.8,27.9c-0.2,4.9,7.5,4.9,7.7,0c0.4-8.6-0.5-18.1-5.7-25.3
		c-5.4-7.5-13.9-10.1-22.8-10.3C273.8,62.5,273.8,70.2,278.7,70.4z"/>
	<path class="st6" d="M304.3,115.3c4.9,0,4.9-7.7,0-7.7C299.3,107.5,299.3,115.3,304.3,115.3z"/>
</g>
</svg>
