<?xml version="1.0" encoding="utf-8"?>
<!-- Generator: Adobe Illustrator 27.8.0, SVG Export Plug-In . SVG Version: 6.00 Build 0)  -->
<svg version="1.1" id="Layer_1" xmlns="http://www.w3.org/2000/svg" xmlns:xlink="http://www.w3.org/1999/xlink" x="0px" y="0px"
	 viewBox="0 0 500 500" style="enable-background:new 0 0 500 500;" xml:space="preserve">
<style type="text/css">
	.st0{display:none;}
	.st1{display:inline;}
	.st2{fill:#C5C7C4;}
	.st3{fill:#867C7C;}
	.st4{display:inline;fill:#E1E2DD;}
	.st5{display:inline;fill:#857C7C;}
	.st6{fill:#C1A89D;}
	.st7{fill:#F4DFD6;}
	.st8{fill:#333331;}
	.st9{fill:#605B53;}
	.st10{fill-rule:evenodd;clip-rule:evenodd;}
	.st11{fill-rule:evenodd;clip-rule:evenodd;fill:#FFFFFF;}
	.st12{fill-rule:evenodd;clip-rule:evenodd;fill:#F16265;}
	.st13{fill-rule:evenodd;clip-rule:evenodd;fill:#F4878A;}
</style>
<g class="st0">
	<g class="st1">
		<g>
			<path class="st2" d="M166,124.6c0,0-16.6-66.6-79-74.5c-7.7,22.9,0.5,87.8,52.4,118.5C160.2,137.6,166,124.6,166,124.6z"/>
			<path class="st3" d="M136.6,145.2l12.9-14.9c0,0-16.9-36.3-39.1-40.6C111.9,121.4,136.6,145.2,136.6,145.2z"/>
		</g>
	</g>
	<g class="st1">
		<g>
			<path class="st2" d="M334,124.6c0,0,16.6-66.6,79-74.5c7.7,22.9-0.5,87.8-52.4,118.5C339.8,137.6,334,124.6,334,124.6z"/>
			<path class="st3" d="M363.4,145.2l-12.9-14.9c0,0,16.9-36.3,39.1-40.6C388.1,121.4,363.4,145.2,363.4,145.2z"/>
		</g>
	</g>
	<path class="st4" d="M250.1,448.1c46.3,0,153.3-2.7,153.3-159.8c0-157.2-85.8-195.3-153.3-195.3c-65.4,0-153.3,36.1-153.3,195.3
		C96.8,445.4,203.8,448.1,250.1,448.1z"/>
	<g class="st1">
		<path d="M331,236.3c0,4.5-3.6,8.1-8.1,8.1l0,0c-4.5,0-8.1-3.6-8.1-8.1v-7c0-4.5,3.6-8.1,8.1-8.1l0,0c4.5,0,8.1,3.6,8.1,8.1V236.3z
			"/>
		<path d="M185.1,236.3c0,4.5-3.6,8.1-8.1,8.1l0,0c-4.5,0-8.1-3.6-8.1-8.1v-7c0-4.5,3.6-8.1,8.1-8.1l0,0c4.5,0,8.1,3.6,8.1,8.1
			V236.3z"/>
	</g>
	<path class="st5" d="M249.9,293.1c-91.6,0-144.1,68.8-138.8,81.3c30.7,73.9,103.1,75.5,139,75.5c35.8,0,107.8-1.6,138.7-74.9
		C394.1,362.3,341.5,293.1,249.9,293.1z"/>
	<path class="st1" d="M248.3,401.5c-37.9-0.8-54-23.4-55.8-26.1c0,0,0,0,0,0c-0.6-0.9-1.9-1.2-2.8-0.6c-0.9,0.6-1.2,1.9-0.6,2.8
		c1.9,2.8,19.6,27.7,60.6,27.9c0,0,0.1,0,0.1,0c0.1,0,0.2,0,0.2,0c0.1,0,0.2,0,0.2,0c0,0,0.1,0,0.1,0c41-0.2,58.7-25.1,60.6-27.9
		c0,0,0.9-1.9-0.5-2.9c-1.4-1-2.9,0.7-2.9,0.7c-1.7,2.6-17.8,25.1-55.3,26L248.3,401.5z"/>
	<g class="st1">
		<path d="M161,341c-0.7,4.9,13.4,3,18.2,0.7c4.8-2.3,8-6,4.6-12.8C179.3,319.8,163,325.6,161,341z"/>
		<path d="M339.1,341c-2-15.5-18.3-21.3-22.8-12.1c-3.4,6.8-0.1,10.5,4.6,12.8C325.6,344,339.8,345.9,339.1,341z"/>
	</g>
	<g class="st1">
		<path d="M98.2,318.3c1.3,15.6,4.6,28,4.6,28s12.8-16.1,31.8-33C150.2,301.2,122,308,98.2,318.3z"/>
		<path d="M97.3,265.3c0,0-1.1,17.1-0.6,26.1c0,0,15.2-4.8,48.2-16.3C160.8,269.4,141.7,265.2,97.3,265.3z"/>
		<path d="M139.1,232.8c3.7-3.7-16.1-15.2-34.5-18.6c-3,11.8-4.2,22.1-4.2,22.1S135.4,236.5,139.1,232.8z"/>
	</g>
	<g class="st1">
		<path d="M402,318.3c-1.3,15.6-4.6,28-4.6,28s-12.8-16.1-31.8-33C350.1,301.2,378.3,308,402,318.3z"/>
		<path d="M402.9,265.3c0,0,1.1,17.1,0.5,26.1c0,0-15.2-4.8-48.2-16.3C339.4,269.4,358.5,265.2,402.9,265.3z"/>
		<path d="M361.2,232.8c-3.7-3.7,16.1-15.2,34.5-18.6c3,11.8,4.2,22.1,4.2,22.1S364.9,236.5,361.2,232.8z"/>
	</g>
	<path class="st1" d="M166,117.1c0,0,25.1,68.5,34.5,66.4c9.4-2.1-2.3-82.3-2.3-82.3S180.6,106.1,166,117.1z"/>
	<g class="st1">
		<path d="M250,92.9c-15.4,0-21.8,1.4-21.8,1.4s1.1,89.1,21.7,89.1h0.2c20.6,0,21.7-89.1,21.7-89.1S265.3,92.9,250,92.9z"/>
		<path d="M249.9,92.9C249.9,92.9,250,92.9,249.9,92.9c0.1,0,0.1,0,0.2,0H249.9z"/>
	</g>
	<path class="st1" d="M334,117.1c0,0-25.1,68.5-34.5,66.4c-9.4-2.1,2.3-82.3,2.3-82.3S319.4,106.1,334,117.1z"/>
</g>
<g id="Racún" class="st0">
	<g class="st1">
		<path class="st6" d="M250,408c164,0,225-89,225-89c-31.8-35.6-59.1-144.3-59.1-144.3s17.2-70.6,5.1-76.3
			c-12.1-5.7-31.1,3.2-56.6,27.3c-28-21.6-61-33.7-111.2-33.7h-6.4c-50.2,0-83.3,12.1-111.2,33.7C110.2,101.6,91.1,92.7,79,98.4
			c-12.1,5.7,5.1,76.3,5.1,76.3S56.8,283.4,25,319C25,319,86,408,250,408z"/>
		<path class="st7" d="M75.1,206.8c0,0,43.1-40.5,100.3-40.5c57.2,0,85.6,64.8,46.2,124.6c-39.4,59.7-80.6,65.6-62.1,106.9
			c0,0-85.8-16.7-134.5-78.8C55.2,278.5,75.1,206.8,75.1,206.8z"/>
		<path class="st8" d="M99.3,161.1l18.3-18.9c0,0-15.3-19.2-22-16.8C88.9,127.8,99.3,161.1,99.3,161.1z"/>
		<path class="st9" d="M25,319c0,0,25.4-34.1,54.7-73.5c29.2-39.4,102.5-80.5,138.1-30.5c14.8,20.8,9.6,61.6-30.5,92.4
			C137.5,345.6,57.2,361.6,25,319z"/>
		<path class="st7" d="M424.9,206.8c0,0-43.1-40.5-100.3-40.5c-57.2,0-85.6,64.8-46.2,124.6c39.4,59.7,80.6,65.6,62.1,106.9
			c0,0,85.8-16.7,134.5-78.8C444.8,278.5,424.9,206.8,424.9,206.8z"/>
		<path class="st8" d="M400.7,161.1l-18.3-18.9c0,0,15.3-19.2,22-16.8C411.1,127.8,400.7,161.1,400.7,161.1z"/>
		<path class="st9" d="M475,319c0,0-25.4-34.1-54.7-73.5C391.1,206.1,317.8,165,282.2,215c-14.8,20.8-9.6,61.6,30.5,92.4
			C362.5,345.6,442.8,361.6,475,319z"/>
		<path d="M249.9,294.7c-13.7,0-22.9,3.8-22.9,13.3c0,9.5,12.1,20.5,22.9,20.5h0.3c10.9,0,22.9-10.9,22.9-20.5
			c0-9.5-9.2-13.3-22.9-13.3H249.9z"/>
		<path d="M264.4,343.5c-0.1-0.7-0.7-1.2-1.4-1.1c-0.7,0.1-1.2,0.7-1.1,1.4c0.3,3.4-0.4,5.9-2.2,7.1c-1.9,1.3-4.5,0.9-6.2,0
			c-1.3-0.7-2.1-1.7-2.1-2.7v-19.7c0-0.7-0.6-1.3-1.3-1.3c-0.7,0-1.3,0.6-1.3,1.3v19.7c0,1-0.8,2-2.1,2.7c-1.7,0.9-4.3,1.3-6.2,0
			c-1.8-1.2-2.6-3.7-2.2-7.1c0.1-0.7-0.4-1.3-1.1-1.4c-0.7-0.1-1.3,0.4-1.4,1.1c-0.5,5.6,1.5,8.2,3.4,9.5c1.3,0.9,2.8,1.2,4.3,1.2
			c1.6,0,3.3-0.4,4.5-1.1c0.9-0.5,1.6-1.1,2.2-1.8c0.6,0.7,1.3,1.3,2.2,1.8c1.3,0.7,2.9,1.1,4.5,1.1c1.5,0,3-0.4,4.3-1.2
			C262.8,351.8,264.9,349.1,264.4,343.5z"/>
	</g>
	<g class="st1">
		<path d="M158.8,265.9c0,4.7-3.8,8.5-8.5,8.5l0,0c-4.7,0-8.5-3.8-8.5-8.5v-7.4c0-4.7,3.8-8.5,8.5-8.5l0,0c4.7,0,8.5,3.8,8.5,8.5
			V265.9z"/>
		<path d="M358.2,265.9c0,4.7-3.8,8.5-8.5,8.5l0,0c-4.7,0-8.5-3.8-8.5-8.5v-7.4c0-4.7,3.8-8.5,8.5-8.5l0,0c4.7,0,8.5,3.8,8.5,8.5
			V265.9z"/>
	</g>
</g>
<g>
	<path class="st10" d="M123,130.4c4.7,0.7,11.7,2,19,4.2c-15.3-17.6-22.4-44.2-20.3-66.2c0.8-8.4,5.3-17.7,14.9-18.3
		c7.7-0.4,13,5.3,15.5,12c5.7,15.4,17.2,26.2,31,34.1c14.8-11.4,31.6-19.6,50.5-22.7c5.3-0.9,10.6-1.3,15.9-1.3
		c5.3,0,10.6,0.4,15.9,1.3c19,3.1,36,11.5,50.9,23c14-7.9,25.7-18.7,31.5-34.4c2.5-6.7,7.8-12.4,15.5-12c9.6,0.6,14.1,9.8,14.9,18.3
		c2.1,22.1-5.1,48.7-20.3,66.2c7.4-2.1,14.3-3.5,19-4.2c16-2.4,58.9-5.3,62.3,17.7c3.4,23-38.4,32.8-54.4,35.2
		c-1.5,0.2-3.4,0.5-5.3,0.7c15.3,35.5,24.5,74.7,28.7,113.7c7.1,9.7,12.3,20.6,14.4,32.8c0.7,3.9,1,7.9,1,12c0,4-0.3,8-1,12
		c-5.5,31.5-31.4,54.7-58.3,69.2c-34.4,18.5-76,26.3-114.8,26.3s-80.4-7.8-114.8-26.3c-26.9-14.4-52.8-37.7-58.3-69.2
		c-0.7-3.9-1-7.9-1-12c0-4,0.3-8,1-12c2.1-12.2,7.3-23.1,14.4-32.8c4.2-39,13.4-78.3,28.7-113.8c-1.6-0.2-3.2-0.4-4.5-0.6
		c-16-2.4-57.8-12.1-54.4-35.2C64.2,125.1,107,128,123,130.4L123,130.4z"/>
	<path class="st11" d="M378.6,141.1c26.3-3.9,48.7-0.1,50,8.6c1.3,8.7-19,18.9-45.3,22.8c-2.9,0.4-5.7,0.8-8.5,1
		c-1.5-3.2-3-6.3-4.7-9.4c-3.3-6.3-6.9-12.6-10.8-18.8C365.2,143.6,371.7,142.2,378.6,141.1L378.6,141.1L378.6,141.1z"/>
	<path class="st11" d="M295.5,209.1c-0.7-8.7-5.4-15.7-10.7-15.8c-5.2,0-8.9,7-8.3,15.6c0.7,8.7,5.4,15.7,10.7,15.8
		C292.4,224.8,296.1,217.8,295.5,209.1L295.5,209.1L295.5,209.1z M196.2,209.1c0.7-8.7,5.4-15.7,10.7-15.8c5.2,0,8.9,7,8.3,15.6
		c-0.7,8.7-5.4,15.7-10.7,15.8C199.3,224.8,195.6,217.8,196.2,209.1L196.2,209.1L196.2,209.1z M363.8,175.7
		c14.9,30.6,25.9,67.3,31.7,107.7c-9.3-8.8-20.1-16.2-31.2-22.1c-34.4-18.5-76-26.3-114.8-26.3c-38.8,0-80.4,7.8-114.8,26.3
		c-11,5.9-21.8,13.3-31.2,22.1c2-13.8,4.5-27.1,7.7-39.9c51-14.3,78.5-78.6,49.4-109.4c21.3-27.5,46.9-45.4,74.7-50
		C238.5,143.8,295.3,185.2,363.8,175.7L363.8,175.7L363.8,175.7z"/>
	<path class="st12" d="M305.9,301c-10.6-2.2-20.7,1-22.5,7.3c-1.9,6.2,5.2,13.1,15.8,15.3c10.6,2.2,20.7-1,22.5-7.3
		C323.6,310.1,316.5,303.2,305.9,301L305.9,301L305.9,301z M190.2,301c10.6-2.2,20.7,1,22.5,7.3c1.9,6.2-5.2,13.1-15.8,15.3
		c-10.6,2.2-20.7-1-22.5-7.3C172.6,310.1,179.6,303.2,190.2,301L190.2,301L190.2,301z M249.5,245.9c90.2,0,163.3,43.3,163.3,96.6
		c0,53.3-73.1,96.6-163.3,96.6c-90.2,0-163.3-43.3-163.3-96.6C86.3,289.1,159.4,245.9,249.5,245.9L249.5,245.9L249.5,245.9z"/>
	<path class="st13" d="M305.9,301c-10.6-2.2-20.7,1-22.5,7.3c-1.9,6.2,5.2,13.1,15.8,15.3c10.6,2.2,20.7-1,22.5-7.3
		C323.6,310.1,316.5,303.2,305.9,301L305.9,301L305.9,301z M190.2,301c10.6-2.2,20.7,1,22.5,7.3c1.9,6.2-5.2,13.1-15.8,15.3
		c-10.6,2.2-20.7-1-22.5-7.3C172.6,310.1,179.6,303.2,190.2,301L190.2,301L190.2,301z M257.6,252.1c80.1,0,145,38.4,145,85.8
		c0,47.4-64.9,85.8-145,85.8c-80.1,0-145-38.4-145-85.8C112.6,290.5,177.5,252.1,257.6,252.1L257.6,252.1L257.6,252.1z"/>
	<path class="st11" d="M121.4,141.1c-26.3-3.9-48.7-0.1-50,8.6c-1.3,8.7,19,18.9,45.3,22.8c2.6,0.4,5.1,0.7,7.6,0.9
		c1.5-3.1,3-6.2,4.6-9.3c3.3-6.4,6.9-12.8,10.9-19C134.2,143.5,128,142.1,121.4,141.1L121.4,141.1L121.4,141.1z"/>
	<path class="st11" d="M174.3,103.5c-15.2-9.4-26.4-21.7-32.3-37.7c-3-8.1-8.6-5.7-9.5,3.6c-2,20.9,5.5,44.7,18.8,59.3
		C158.2,119.6,165.9,111.1,174.3,103.5L174.3,103.5L174.3,103.5z"/>
	<path class="st11" d="M325.1,103.8c15.4-9.5,26.9-21.8,32.8-38c3-8.1,8.6-5.7,9.5,3.6c2,21.2-5.7,45.3-19.3,59.8
		C341.3,120.1,333.6,111.5,325.1,103.8L325.1,103.8L325.1,103.8z"/>
</g>
</svg>
