<?xml version="1.0" encoding="utf-8"?>
<!-- Generator: Adobe Illustrator 27.8.0, SVG Export Plug-In . SVG Version: 6.00 Build 0)  -->
<svg version="1.1" id="ainmhite" xmlns="http://www.w3.org/2000/svg" xmlns:xlink="http://www.w3.org/1999/xlink" x="0px" y="0px"
	 viewBox="0 0 500 500" style="enable-background:new 0 0 500 500;" xml:space="preserve">
<style type="text/css">
	.st0{display:none;}
	.st1{display:inline;}
	.st2{fill:#C5C7C4;}
	.st3{fill:#867C7C;}
	.st4{display:inline;fill:#E1E2DD;}
	.st5{display:inline;fill:#857C7C;}
	.st6{fill:#CA704B;}
	.st7{fill:#ECA183;}
	.st8{display:inline;fill:#E9A082;}
	.st9{display:inline;fill:#F4DFD6;}
	.st10{display:inline;fill:#ECA183;}
	.st11{display:inline;fill:#CCA276;}
	.st12{display:inline;fill:#E0D1B9;}
	.st13{fill:#865F37;}
	.st14{fill:#A6A377;}
	.st15{fill:#EEEDD5;}
	.st16{fill:#FFFFFF;}
	.st17{fill:#F79326;}
	.st18{fill:#F26326;}
	.st19{fill:#FCE22C;}
	.st20{fill:#F0EA3D;}
	.st21{fill:#F6C8C6;}
	.st22{fill:#F58A89;}
	.st23{fill:#E9D5AC;}
	.st24{fill:#917457;}
	.st25{fill:#C2A89D;}
	.st26{fill:#F4DFD6;}
	.st27{display:inline;fill:#91BCC1;}
	.st28{display:inline;fill:#466C70;}
	.st29{display:inline;fill:#ADC7CD;}
	.st30{display:inline;fill:#E2F0F1;}
	.st31{fill:#F15E27;}
	.st32{fill:#FDEFE2;}
	.st33{fill:#6CAFC6;}
	.st34{fill:#C8EAF3;}
	.st35{fill:#2F90AC;}
	.st36{fill:#465B77;}
	.st37{fill:#F79432;}
	.st38{fill:#FFC32C;}
	.st39{display:inline;fill:#F4792A;}
	.st40{display:inline;fill:#F0E3C9;}
	.st41{fill:#F2C329;}
	.st42{display:inline;fill:#F6E18F;}
</style>
<g id="séabra" class="st0">
	<g class="st1">
		<g>
			<path class="st2" d="M166,124.6c0,0-16.6-66.6-79-74.5c-7.7,22.9,0.5,87.8,52.4,118.5C160.2,137.6,166,124.6,166,124.6z"/>
			<path class="st3" d="M136.6,145.2l12.9-14.9c0,0-16.9-36.3-39.1-40.6C111.9,121.4,136.6,145.2,136.6,145.2z"/>
		</g>
	</g>
	<g class="st1">
		<g>
			<path class="st2" d="M334,124.6c0,0,16.6-66.6,79-74.5c7.7,22.9-0.5,87.8-52.4,118.5C339.8,137.6,334,124.6,334,124.6z"/>
			<path class="st3" d="M363.4,145.2l-12.9-14.9c0,0,16.9-36.3,39.1-40.6C388.1,121.4,363.4,145.2,363.4,145.2z"/>
		</g>
	</g>
	<path class="st4" d="M250.1,448.1c46.3,0,153.3-2.7,153.3-159.8c0-157.2-85.8-195.3-153.3-195.3c-65.4,0-153.3,36.1-153.3,195.3
		C96.8,445.4,203.8,448.1,250.1,448.1z"/>
	<g class="st1">
		<path d="M331,236.3c0,4.5-3.6,8.1-8.1,8.1l0,0c-4.5,0-8.1-3.6-8.1-8.1v-7c0-4.5,3.6-8.1,8.1-8.1l0,0c4.5,0,8.1,3.6,8.1,8.1V236.3z
			"/>
		<path d="M185.1,236.3c0,4.5-3.6,8.1-8.1,8.1l0,0c-4.5,0-8.1-3.6-8.1-8.1v-7c0-4.5,3.6-8.1,8.1-8.1l0,0c4.5,0,8.1,3.6,8.1,8.1
			V236.3z"/>
	</g>
	<path class="st5" d="M249.9,293.1c-91.6,0-144.1,68.8-138.8,81.3c30.7,73.9,103.1,75.5,139,75.5c35.8,0,107.8-1.6,138.7-74.9
		C394.1,362.3,341.5,293.1,249.9,293.1z"/>
	<path class="st1" d="M248.3,401.5c-37.9-0.8-54-23.4-55.8-26.1c0,0,0,0,0,0c-0.6-0.9-1.9-1.2-2.8-0.6c-0.9,0.6-1.2,1.9-0.6,2.8
		c1.9,2.8,19.6,27.7,60.6,27.9c0,0,0.1,0,0.1,0c0.1,0,0.2,0,0.2,0c0.1,0,0.2,0,0.2,0c0,0,0.1,0,0.1,0c41-0.2,58.7-25.1,60.6-27.9
		c0,0,0.9-1.9-0.5-2.9c-1.4-1-2.9,0.7-2.9,0.7c-1.7,2.6-17.8,25.1-55.3,26L248.3,401.5z"/>
	<g class="st1">
		<path d="M161,341c-0.7,4.9,13.4,3,18.2,0.7c4.8-2.3,8-6,4.6-12.8C179.3,319.8,163,325.6,161,341z"/>
		<path d="M339.1,341c-2-15.5-18.3-21.3-22.8-12.1c-3.4,6.8-0.1,10.5,4.6,12.8C325.6,344,339.8,345.9,339.1,341z"/>
	</g>
	<g class="st1">
		<path d="M98.2,318.3c1.3,15.6,4.6,28,4.6,28s12.8-16.1,31.8-33C150.2,301.2,122,308,98.2,318.3z"/>
		<path d="M97.3,265.3c0,0-1.1,17.1-0.6,26.1c0,0,15.2-4.8,48.2-16.3C160.8,269.4,141.7,265.2,97.3,265.3z"/>
		<path d="M139.1,232.8c3.7-3.7-16.1-15.2-34.5-18.6c-3,11.8-4.2,22.1-4.2,22.1S135.4,236.5,139.1,232.8z"/>
	</g>
	<g class="st1">
		<path d="M402,318.3c-1.3,15.6-4.6,28-4.6,28s-12.8-16.1-31.8-33C350.1,301.2,378.3,308,402,318.3z"/>
		<path d="M402.9,265.3c0,0,1.1,17.1,0.5,26.1c0,0-15.2-4.8-48.2-16.3C339.4,269.4,358.5,265.2,402.9,265.3z"/>
		<path d="M361.2,232.8c-3.7-3.7,16.1-15.2,34.5-18.6c3,11.8,4.2,22.1,4.2,22.1S364.9,236.5,361.2,232.8z"/>
	</g>
	<path class="st1" d="M166,117.1c0,0,25.1,68.5,34.5,66.4c9.4-2.1-2.3-82.3-2.3-82.3S180.6,106.1,166,117.1z"/>
	<g class="st1">
		<path d="M250,92.9c-15.4,0-21.8,1.4-21.8,1.4s1.1,89.1,21.7,89.1h0.2c20.6,0,21.7-89.1,21.7-89.1S265.3,92.9,250,92.9z"/>
		<path d="M249.9,92.9C249.9,92.9,250,92.9,249.9,92.9c0.1,0,0.1,0,0.2,0H249.9z"/>
	</g>
	<path class="st1" d="M334,117.1c0,0-25.1,68.5-34.5,66.4c-9.4-2.1,2.3-82.3,2.3-82.3S319.4,106.1,334,117.1z"/>
</g>
<g id="madra" class="st0">
	<g class="st1">
		<path class="st6" d="M250,117.3"/>
		<path class="st6" d="M251.4,450.1c49.2-0.3,98.2-13.4,129.4-38.9c55.9-45.7,62.5-152.2,29.9-214c-4-7.6,8.2-153-26.1-147.1
			c-35.7,6.2-53.9,78.2-54.7,79.1c-25-8.7-52.5-12.1-79.9-12.1l0,0c0,0,0,0,0,0h0l0,0c-27.4,0-54.8,3.4-79.9,12.1
			c-0.7-0.9-19-72.9-54.7-79.1c-34.3-6-22.1,139.4-26.1,147.1c-32.5,61.8-26,168.3,29.9,214c31.2,25.5,80.2,38.6,129.4,38.9H251.4z"
			/>
		<path class="st7" d="M352.8,142c0,0,22,17.5,32.8,25.8C389.9,130,384.7,55.6,352.8,142z"/>
	</g>
	<path class="st8" d="M350.7,293.3c-60-64.8-20.8-164.1-20.8-164.1s-19.1-13.4-79.9-13.4h0c-60.7,0-79.9,13.4-79.9,13.4
		s39.2,99.3-20.8,164.1c-34,42.5-55.1,103.8,29.7,147.4c30.9,10.2,71.7,9.5,71.7,9.5h0c0,0,39.4,0.7,70.3-9.5
		C405.7,397.1,384.7,335.8,350.7,293.3z"/>
	<path class="st1" d="M353.9,248c0,4.4,3.6,8,8,8l0,0c4.4,0,8-3.6,8-8v-6.9c0-4.4-3.6-8-8-8l0,0c-4.4,0-8,3.6-8,8V248z"/>
	<path class="st9" d="M382.7,350.8C371.8,257.5,250,270,250,270c0,0-121.8-12.5-132.7,80.8c-10.9,93.3,99.4,74.3,132.7,27.3
		C283.3,425.1,393.6,444.1,382.7,350.8z"/>
	<path class="st1" d="M249.8,260.5c-20,0-33.5,5.6-33.5,19.5c0,13.9,17.6,29.9,33.5,29.9h0.4c15.9,0,33.5-16,33.5-29.9
		c0-13.9-13.5-19.5-33.5-19.5H249.8z"/>
	<path class="st1" d="M138.1,248c0,4.4-3.6,8-8,8l0,0c-4.4,0-8-3.6-8-8v-6.9c0-4.4,3.6-8,8-8l0,0c4.4,0,8,3.6,8,8V248z"/>
	<path class="st10" d="M147.2,142c0,0-22,17.5-32.8,25.8C110.1,130,115.3,55.6,147.2,142z"/>
	<path class="st1" d="M247.9,309.7v71.2l2.1-2.8l2.1,2.8v-71.2C252.1,309.7,250.3,307.5,247.9,309.7z"/>
	<g class="st1">
		<path d="M207.7,329.2c-1.1,0-2,0.9-2,2c0,1.1,0.9,2,2,2c1.1,0,2-0.9,2-2C209.8,330.1,208.9,329.2,207.7,329.2z"/>
		<path d="M226.2,321.4c-1.1,0-2,0.9-2,2c0,1.1,0.9,2,2,2c1.1,0,2-0.9,2-2C228.2,322.3,227.3,321.4,226.2,321.4z"/>
		<path d="M224.9,342.3c-1.1,0-2,0.9-2,2c0,1.1,0.9,2,2,2c1.1,0,2-0.9,2-2C226.9,343.2,226,342.3,224.9,342.3z"/>
		<path d="M203.7,347.7c-1.1,0-2,0.9-2,2c0,1.1,0.9,2,2,2c1.1,0,2-0.9,2-2C205.7,348.6,204.8,347.7,203.7,347.7z"/>
		<path d="M221.6,362.1c-1.1,0-2,0.9-2,2c0,1.1,0.9,2,2,2c1.1,0,2-0.9,2-2C223.6,363,222.7,362.1,221.6,362.1z"/>
		<path d="M202.9,368.7c-1.1,0-2,0.9-2,2c0,1.1,0.9,2,2,2c1.1,0,2-0.9,2-2C204.9,369.6,204,368.7,202.9,368.7z"/>
		<path d="M183.2,358.1c-1.1,0-2,0.9-2,2c0,1.1,0.9,2,2,2c1.1,0,2-0.9,2-2C185.2,359,184.3,358.1,183.2,358.1z"/>
		<path d="M185.8,338.1c-1.1,0-2,0.9-2,2c0,1.1,0.9,2,2,2c1.1,0,2-0.9,2-2C187.8,339,186.9,338.1,185.8,338.1z"/>
		<path d="M191.2,319.7c-1.1,0-2,0.9-2,2s0.9,2,2,2s2-0.9,2-2S192.4,319.7,191.2,319.7z"/>
		<path d="M209.4,309.1c-1.1,0-2,0.9-2,2c0,1.1,0.9,2,2,2c1.1,0,2-0.9,2-2C211.4,310,210.5,309.1,209.4,309.1z"/>
		<path d="M240.2,329.9c-1.1,0-2,0.9-2,2c0,1.1,0.9,2,2,2c1.1,0,2-0.9,2-2C242.2,330.8,241.3,329.9,240.2,329.9z"/>
		<path d="M238.2,354c-1.1,0-2,0.9-2,2c0,1.1,0.9,2,2,2c1.1,0,2-0.9,2-2C240.2,354.9,239.3,354,238.2,354z"/>
	</g>
	<g class="st1">
		<path d="M292.5,329.2c1.1,0,2,0.9,2,2c0,1.1-0.9,2-2,2s-2-0.9-2-2C290.5,330.1,291.4,329.2,292.5,329.2z"/>
		<path d="M274.1,321.4c1.1,0,2,0.9,2,2c0,1.1-0.9,2-2,2c-1.1,0-2-0.9-2-2C272.1,322.3,273,321.4,274.1,321.4z"/>
		<path d="M275.3,342.3c1.1,0,2,0.9,2,2c0,1.1-0.9,2-2,2c-1.1,0-2-0.9-2-2C273.3,343.2,274.2,342.3,275.3,342.3z"/>
		<path d="M296.5,347.7c1.1,0,2,0.9,2,2c0,1.1-0.9,2-2,2c-1.1,0-2-0.9-2-2C294.5,348.6,295.4,347.7,296.5,347.7z"/>
		<path d="M278.6,362.1c1.1,0,2,0.9,2,2c0,1.1-0.9,2-2,2c-1.1,0-2-0.9-2-2C276.6,363,277.5,362.1,278.6,362.1z"/>
		<path d="M297.3,368.7c1.1,0,2,0.9,2,2c0,1.1-0.9,2-2,2c-1.1,0-2-0.9-2-2C295.3,369.6,296.2,368.7,297.3,368.7z"/>
		<path d="M317,358.1c1.1,0,2,0.9,2,2c0,1.1-0.9,2-2,2c-1.1,0-2-0.9-2-2C315,359,315.9,358.1,317,358.1z"/>
		<path d="M314.4,338.1c1.1,0,2,0.9,2,2c0,1.1-0.9,2-2,2c-1.1,0-2-0.9-2-2C312.4,339,313.3,338.1,314.4,338.1z"/>
		<path d="M309,319.7c1.1,0,2,0.9,2,2s-0.9,2-2,2c-1.1,0-2-0.9-2-2S307.9,319.7,309,319.7z"/>
		<path d="M290.9,309.1c1.1,0,2,0.9,2,2c0,1.1-0.9,2-2,2c-1.1,0-2-0.9-2-2C288.9,310,289.8,309.1,290.9,309.1z"/>
		<path d="M260,329.9c1.1,0,2,0.9,2,2c0,1.1-0.9,2-2,2c-1.1,0-2-0.9-2-2C258,330.8,258.9,329.9,260,329.9z"/>
		<path d="M262,354c1.1,0,2,0.9,2,2c0,1.1-0.9,2-2,2c-1.1,0-2-0.9-2-2C260,354.9,260.9,354,262,354z"/>
	</g>
</g>
<g id="béar" class="st0">
	<path class="st11" d="M439.4,151.9c-3.6-6.9-7.6-13.4-11.9-19.4c18-4.7,31.4-21.1,31.4-40.6c0-23.2-18.8-42-42-42
		c-21.1,0-38.6,15.6-41.5,35.9c-9.2-5.3-19.6-10.2-31.2-14c-31.8-12.2-61.9-14.2-94.1-14.2c-46,0-88.3,6.8-125.3,28.4
		c-2.9-20.4-20.4-36.1-41.6-36.1c-23.2,0-42,18.8-42,42c0,19.5,13.3,35.9,31.4,40.6c-4.3,6-8.3,12.5-11.9,19.4
		c-38.3,72.9-30.7,198.5,35.3,252.3c74.1,60.5,232.8,61.7,308.3,0C470.1,350.4,477.8,224.8,439.4,151.9z"/>
	<path class="st12" d="M250,408.1c0,0,95.3,10.8,95.3-70.8c0-86-51.7-129.5-95.3-129.5c-43.6,0-95.3,43.5-95.3,129.5
		C154.7,418.8,250,408.1,250,408.1z"/>
	<g class="st1">
		<g>
			<g>
				<path d="M142.4,211.9c0,5.1-4.2,9.3-9.3,9.3l0,0c-5.1,0-9.3-4.2-9.3-9.3v-8.1c0-5.1,4.2-9.3,9.3-9.3l0,0c5.1,0,9.3,4.2,9.3,9.3
					V211.9z"/>
				<path d="M376.1,211.9c0,5.1-4.2,9.3-9.3,9.3l0,0c-5.1,0-9.3-4.2-9.3-9.3v-8.1c0-5.1,4.2-9.3,9.3-9.3l0,0c5.1,0,9.3,4.2,9.3,9.3
					V211.9z"/>
			</g>
		</g>
	</g>
	<g class="st1">
		<path class="st13" d="M108.8,96.6c0.6-11.6-8.4-21.4-20-22c-11.6-0.6-21.4,8.4-22,20c-0.6,11.6,8.4,21.4,20,22L108.8,96.6z"/>
		<path class="st13" d="M391.6,97.5c-0.6-11.6,8.4-21.4,20-22c11.6-0.6,21.4,8.4,22,20c0.6,11.6-8.4,21.4-20,22L391.6,97.5z"/>
	</g>
	<path class="st1" d="M310.6,340.1c-1.8,2.7-18.7,26.4-58.2,27.4v-84c17.9-1.2,36.9-19,36.9-34.6c0-16.2-15.7-22.6-38.9-22.6H250
		c-23.2,0-38.9,6.5-38.9,22.6c0,15.6,19,33.4,36.9,34.6v84c-39.8-0.8-56.9-24.7-58.7-27.4c0,0,0,0,0,0c-0.7-1-2-1.3-3-0.6
		c-1,0.7-1.3,2-0.6,3c2,3,20.6,29.1,63.8,29.4c0,0,0.1,0,0.1,0c0.1,0,0.2,0,0.3,0c0.1,0,0.2,0,0.3,0c0,0,0.1,0,0.1,0
		c43.2-0.3,61.8-26.4,63.8-29.4c0,0,1-2-0.5-3.1C312.2,338.4,310.6,340.1,310.6,340.1z"/>
</g>
<g id="panda" class="st0">
	<g class="st1">
		<path d="M136.7,92.5c0,0-30.4-66.6-74.9-32.7c-44.5,33.9,14,79,14,79S109,119.4,136.7,92.5z"/>
		<path d="M363.3,92.5c0,0,30.4-66.6,74.9-32.7c44.5,33.9-14,79-14,79S391,119.4,363.3,92.5z"/>
		<path class="st14" d="M123.3,104.7c0,0-18-33.5-39.9-17.1c-21.9,16.4,7.5,41.7,7.5,41.7S113.9,113,123.3,104.7z"/>
		<path class="st14" d="M376.7,104.7c0,0,18-33.5,39.9-17.1c21.9,16.4-7.5,41.7-7.5,41.7S386.1,113,376.7,104.7z"/>
		<path class="st15" d="M250,449.8c101.8,0,209-38.3,209-195.9C459,96.3,328.8,71.1,250,71.1c-78.8,0-209,25.2-209,182.8
			C41,411.5,148.2,449.8,250,449.8z"/>
		<path d="M227,200.8c0-40-59.6-60.2-117.6-23c-58,37.2-48.2,99.6,0,126.9C157.5,332.1,227,280.7,227,200.8z"/>
		<path class="st16" d="M157.7,232.5c0,5.2-4.2,9.4-9.4,9.4l0,0c-5.2,0-9.4-4.2-9.4-9.4v-8.2c0-5.2,4.2-9.4,9.4-9.4l0,0
			c5.2,0,9.4,4.2,9.4,9.4V232.5z"/>
		<path d="M273,200.8c0-40,59.6-60.2,117.6-23c58,37.2,48.2,99.6,0,126.9C342.5,332.1,273,280.7,273,200.8z"/>
		<path class="st16" d="M339,232.5c0,5.2,4.2,9.4,9.4,9.4l0,0c5.2,0,9.4-4.2,9.4-9.4v-8.2c0-5.2-4.2-9.4-9.4-9.4l0,0
			c-5.2,0-9.4,4.2-9.4,9.4V232.5z"/>
	</g>
	<path class="st1" d="M250,283.1c14.8,0,20.8-5.9,18.3-16.5c-2.8-12.1-18.3-12.1-18.3-12.1s-15.5,0-18.3,12.1
		C229.2,277.2,235.2,283.1,250,283.1z"/>
	<path class="st1" d="M273.2,385.9c-1.1-0.4-2.4,0.2-2.8,1.3c0,0.1-3,8.2-18.3,8.9V275.8h-4.4v120.3c-15.2-0.7-19.4-8.7-19.6-9.1
		c-0.5-1.1-1.8-1.5-2.9-1c-1.1,0.5-1.6,1.8-1.1,2.9c0.2,0.5,5.7,11.7,25.7,11.7c20.2,0,24.4-11.4,24.6-11.9
		C275,387.5,274.4,386.3,273.2,385.9z"/>
</g>
<g id="leon" class="st0">
	<g class="st1">
		<path class="st17" d="M250,449.8c0,0,8.6,0.5,22.5,0c5-0.2,5.2-22.7,11.4-23.2c4.3-0.4,14.5,21.4,19.3,20.8
			c39.3-4.6,92.4-17.2,130.4-50.6c4.5-4-4-17.9,0.1-22.5c3-3.4,18.9,2.5,21.7-1.2c27.1-36.7,41.4-88.9,32.8-146.4
			c-0.8-5.5-24.4-4.8-25.7-10.4c-1.1-4.9,20.2-16.2,18.7-21.2c-3.9-13.4-9.1-27-15.6-40.6c-16.6-34.5-41-57.7-68.1-73.2
			c-5.4-3.1-17.2,6.5-22.8,4c-4.8-2.1-3.3-16.5-8.2-18.3C323.7,51.4,279.1,49.9,250,49.9c-6.3,0-13.4,0.1-21.1,0.3
			c-6.3,0.2-8.5,24.5-15.5,25c-5.7,0.5-16.2-22.8-22.3-22C147,59.1,95.8,74.7,59.5,116.2c-2.8,3.2,5,16.8,2.3,20.4
			c-3,4.1-16.4-1.8-19.2,2.7c-2.9,4.8-5.7,9.9-8.2,15.2c-20.7,43-27.5,85.4-24.3,123.4c0.6,7.1,26.1,6.5,27.4,13.3
			c1,5.5-22.2,18.5-20.8,23.7c9.4,33.7,27.1,62.1,49.7,82c15.1,13.3,32.7,23.3,50.8,30.8c5.4,2.3,17.5-10.1,23-8.3
			c4,1.3,1.3,17,5.3,18.1C199.4,452.7,250,449.8,250,449.8z"/>
		<polygon class="st18" points="483.7,251.1 263.3,251.1 465.5,170.9 463.7,166.2 262.1,246.1 418.7,104.3 415.3,100.6 262.2,239.2 
			335.8,64.6 331.2,62.6 253.3,247.3 252.5,247.9 252.5,55.7 247.5,55.7 247.5,247.9 246.7,247.3 168.8,62.6 164.2,64.6 
			237.8,239.2 84.7,100.6 81.3,104.3 237.9,246.1 36.3,166.2 34.5,170.9 236.7,251.1 16.3,251.1 16.3,256.2 236.8,256.2 32.2,337.7 
			34.1,342.4 239.6,260.5 93.1,407.8 96.7,411.4 240.9,266.4 174.1,437.6 178.8,439.5 247.5,263.5 247.5,444.3 252.5,444.3 
			252.5,263.5 321.2,439.5 325.9,437.6 259.1,266.4 403.3,411.4 406.9,407.8 260.4,260.5 465.9,342.4 467.8,337.7 263.2,256.2 
			483.7,256.2 		"/>
		<path class="st19" d="M250,380.7c137.1,0,156.2-64.1,156.2-113.6c0-49.5-35.5-80.6-35.5-80.6s75.5-48.2,22.2-80.6
			c-51.2-31.1-67.9,48.2-67.9,48.2s-23.5-15.9-69.2-16.5h-11.4c-45.7,0.6-69.2,16.5-69.2,16.5s-16.7-79.3-67.9-48.2
			c-53.3,32.4,22.2,80.6,22.2,80.6S93.8,217.5,93.8,267C93.8,316.5,112.9,380.7,250,380.7z"/>
		<g>
			<path class="st18" d="M121.5,128.7c-19,12,29.3,50.5,23.2,45.4l13.3-8.9C158,165.2,139.5,117.2,121.5,128.7z"/>
			<path class="st18" d="M378.5,128.7c-18.1-11.4-36.5,36.5-36.5,36.5l13.3,8.9C349.2,179.1,397.5,140.6,378.5,128.7z"/>
		</g>
		<path class="st20" d="M250,151.8c-30.2,0-38.6,124.2-39.1,125.2h78.3C288.6,276,280.2,151.8,250,151.8z"/>
		<path d="M278.7,334.8c-0.1-1.4-1.4-2.4-2.8-2.3c-1.4,0.1-2.4,1.4-2.3,2.8c0.7,6.9-0.9,11.8-4.5,14.2c-3.8,2.5-8.9,1.8-12.4,0
			c-2.7-1.4-4.3-3.5-4.3-5.5v-38.2c0-1.4-1.1-2.5-2.5-2.5c-1.4,0-2.5,1.1-2.5,2.5v38.2c0,2-1.6,4-4.3,5.5c-3.4,1.8-8.6,2.5-12.4,0
			c-3.6-2.4-5.1-7.3-4.5-14.2c0.1-1.4-0.9-2.6-2.3-2.8c-1.4-0.2-2.6,0.9-2.8,2.3c-1.1,11.2,3,16.4,6.7,18.9c2.6,1.7,5.6,2.5,8.6,2.5
			c3.3,0,6.5-0.9,9-2.2c1.8-1,3.3-2.2,4.4-3.5c1.1,1.4,2.6,2.6,4.4,3.5c2.5,1.3,5.7,2.2,9,2.2c2.9,0,6-0.7,8.6-2.5
			C275.7,351.2,279.8,346,278.7,334.8z"/>
		<path d="M250,269.9c22.5,0,41.3-1.3,40,12.7c-1.3,14-21.3,23.2-40,23.2c-18.7,0-38.7-9.2-40-23.2
			C208.7,268.6,227.5,269.9,250,269.9z"/>
	</g>
	<path class="st1" d="M158.1,263.2c0,6-4.9,10.9-10.9,10.9l0,0c-6,0-10.9-4.9-10.9-10.9v-9.5c0-6,4.9-10.9,10.9-10.9l0,0
		c6,0,10.9,4.9,10.9,10.9V263.2z"/>
	<path class="st1" d="M363.8,263.2c0,6-4.9,10.9-10.9,10.9l0,0c-6,0-10.9-4.9-10.9-10.9v-9.5c0-6,4.9-10.9,10.9-10.9l0,0
		c6,0,10.9,4.9,10.9,10.9V263.2z"/>
</g>
<g id="coinín" class="st0">
	<g class="st1">
		<g>
			<g>
				<path class="st21" d="M311.7,209.2c-21.4-9-41-10.1-61.7-10.1c-20.6,0-43.8,3.4-62.7,10L139,243.6c-3.7,4.8-7.1,10-10.1,15.8
					c-24.5,46.6-19.6,126.9,22.6,161.4c47.4,38.7,148.9,39.5,197.2,0c42.2-34.5,47.1-114.8,22.6-161.4c-3-5.7-6.4-11-10.1-15.8
					L311.7,209.2z"/>
			</g>
			<g>
				<path d="M249.8,307.1c-15.1,0-25.2,4.2-25.2,14.7c0,10.5,13.3,22.5,25.2,22.5h0.3c12,0,25.2-12,25.2-22.5
					c0-10.5-10.2-14.7-25.2-14.7H249.8z"/>
				<path d="M265.8,395.2c-0.1-0.8-0.8-1.3-1.5-1.3c-0.8,0.1-1.3,0.8-1.3,1.5c0.4,3.8-0.5,6.5-2.5,7.8c-2.1,1.4-4.9,1-6.8,0
					c-1.5-0.8-2.4-1.9-2.4-3v-60.7c0-0.8-0.6-1.4-1.4-1.4c-0.8,0-1.4,0.6-1.4,1.4v60.7c0,1.1-0.9,2.2-2.4,3c-1.9,1-4.7,1.4-6.8,0
					c-2-1.3-2.8-4-2.5-7.8c0.1-0.8-0.5-1.5-1.3-1.5c-0.8-0.1-1.5,0.5-1.5,1.3c-0.6,6.2,1.7,9.1,3.7,10.4c1.4,1,3.1,1.4,4.7,1.4
					c1.8,0,3.6-0.5,5-1.2c1-0.5,1.8-1.2,2.4-1.9c0.6,0.7,1.4,1.4,2.4,1.9c1.4,0.7,3.1,1.2,5,1.2c1.6,0,3.3-0.4,4.7-1.4
					C264.1,404.3,266.4,401.4,265.8,395.2z"/>
				<path d="M178.1,289c0,3.9-3.1,7-7,7l0,0c-3.9,0-7-3.1-7-7v-6.1c0-3.9,3.1-7,7-7l0,0c3.9,0,7,3.1,7,7V289z"/>
				<path d="M335.8,289c0,3.9-3.1,7-7,7l0,0c-3.9,0-7-3.1-7-7v-6.1c0-3.9,3.1-7,7-7l0,0c3.9,0,7,3.1,7,7V289z"/>
			</g>
			<g>
				<g>
					<path d="M168.8,349.2C168.8,349.2,168.7,349.2,168.8,349.2l-63-4.4c-0.7,0-1.3-0.7-1.2-1.4c0-0.7,0.7-1.3,1.4-1.2l62.9,4.4
						c0.7,0,1.3,0.7,1.2,1.4C170.1,348.7,169.5,349.2,168.8,349.2z"/>
					<path d="M105.9,381.4c-0.6,0-1.2-0.5-1.3-1.1c-0.1-0.7,0.4-1.4,1.1-1.5l62.9-9.8c0.7-0.1,1.4,0.4,1.5,1.1
						c0.1,0.7-0.4,1.4-1.1,1.5l-62.9,9.8C106,381.4,105.9,381.4,105.9,381.4z"/>
					<path d="M100.2,362.5c-0.7,0-1.3-0.6-1.3-1.3c0-0.7,0.6-1.3,1.3-1.3l61.8-1.4c0.7,0,1.3,0.6,1.3,1.3c0,0.7-0.6,1.3-1.3,1.3
						L100.2,362.5C100.2,362.5,100.2,362.5,100.2,362.5z"/>
				</g>
				<g>
					<path d="M331.2,349.2c-0.7,0-1.3-0.5-1.3-1.2c-0.1-0.7,0.5-1.3,1.2-1.4l62.9-4.4c0.7,0,1.3,0.5,1.4,1.2
						c0.1,0.7-0.5,1.3-1.2,1.4L331.2,349.2C331.3,349.2,331.2,349.2,331.2,349.2z"/>
					<path d="M394.1,381.4c-0.1,0-0.1,0-0.2,0l-62.9-9.8c-0.7-0.1-1.2-0.8-1.1-1.5c0.1-0.7,0.8-1.2,1.5-1.1l62.9,9.8
						c0.7,0.1,1.2,0.8,1.1,1.5C395.3,380.9,394.8,381.4,394.1,381.4z"/>
					<path d="M399.8,362.5C399.8,362.5,399.8,362.5,399.8,362.5l-61.9-1.4c-0.7,0-1.3-0.6-1.3-1.3c0-0.7,0.6-1.3,1.3-1.3l61.8,1.4
						c0.7,0,1.3,0.6,1.3,1.3C401.1,361.9,400.5,362.5,399.8,362.5z"/>
				</g>
			</g>
		</g>
	</g>
	<g class="st1">
		<path class="st21" d="M187.3,209.8c0,0-13.3-169.7-73.4-159.4C43,62.5,138.8,243.6,138.8,243.6S179.4,245,187.3,209.8z"/>
		<path class="st22" d="M155.5,230.9l15.5-10.8c0,0-13.5-97.1-35.5-88.4C114.3,140,155.5,230.9,155.5,230.9z"/>
		<g>
			<path class="st21" d="M312.7,209.8c0,0,13.3-169.7,73.4-159.4c70.9,12.1-24.9,193.2-24.9,193.2S320.6,245,312.7,209.8z"/>
			<path class="st22" d="M344.5,230.9L329,220.1c0,0,13.5-97.1,35.5-88.4C385.7,140,344.5,230.9,344.5,230.9z"/>
		</g>
	</g>
</g>
<g id="cat" class="st0">
	<g class="st1">
		<path class="st23" d="M429.2,168.2c-4.5-8.5-9.5-16.2-15-23.3c5-14.4,33.7-101.5-4.6-94.8c-39.8,6.9-69.8,41.4-70.6,42.4
			c-27.9-9.7-58.6-13.5-89.1-13.5c-30.5,0-61.2,3.7-89.1,13.5c-0.8-1-30.8-35.4-70.6-42.4c-38.3-6.7-9.5,80.5-4.6,94.8
			c-5.5,7.1-10.5,14.8-15,23.3c-36.3,68.9-29,187.8,33.4,238.8c70.1,57.3,220.3,58.4,291.7,0C458.2,356,465.5,237.1,429.2,168.2z"/>
		<path class="st24" d="M363.5,104.9c0,0,16.1,9.6,28.1,18.9C402.3,91.2,411.1,60.7,363.5,104.9z"/>
		<path class="st24" d="M136.5,104.9c0,0-16.1,9.6-28.1,18.9C97.7,91.2,88.9,60.7,136.5,104.9z"/>
	</g>
	<g class="st1">
		<path d="M249.8,238.8c-22.3,0-37.3,6.2-37.3,21.7c0,15.5,19.6,33.3,37.3,33.3h0.5c17.7,0,37.3-17.8,37.3-33.3
			c0-15.5-15.1-21.7-37.3-21.7H249.8z"/>
		<path d="M273.4,369.2c-0.1-1.1-1.1-2-2.3-1.9c-1.1,0.1-2,1.1-1.9,2.3c0.5,5.6-0.7,9.6-3.6,11.5c-3.1,2.1-7.3,1.5-10.1,0
			c-2.2-1.2-3.5-2.8-3.5-4.5v-89.8c0-1.1-0.9-2.1-2.1-2.1c-1.1,0-2.1,0.9-2.1,2.1v89.8c0,1.6-1.3,3.3-3.5,4.5c-2.8,1.5-7,2.1-10.1,0
			c-2.9-2-4.2-5.9-3.6-11.5c0.1-1.1-0.7-2.1-1.9-2.3c-1.1-0.1-2.1,0.7-2.3,1.9c-0.9,9.1,2.5,13.4,5.5,15.4c2.1,1.4,4.6,2,7,2
			c2.7,0,5.3-0.7,7.3-1.8c1.5-0.8,2.7-1.8,3.6-2.9c0.9,1.1,2.1,2.1,3.6,2.9c2,1.1,4.7,1.8,7.3,1.8c2.4,0,4.8-0.6,7-2
			C270.9,382.6,274.3,378.3,273.4,369.2z"/>
		<path d="M146.6,225c0,4.9-4,8.9-8.9,8.9l0,0c-4.9,0-8.9-4-8.9-8.9v-7.7c0-4.9,4-8.9,8.9-8.9l0,0c4.9,0,8.9,4,8.9,8.9V225z"/>
		<path d="M371.2,225c0,4.9-4,8.9-8.9,8.9l0,0c-4.9,0-8.9-4-8.9-8.9v-7.7c0-4.9,4-8.9,8.9-8.9l0,0c4.9,0,8.9,4,8.9,8.9V225z"/>
	</g>
	<path class="st1" d="M36.9,290.8l93.1,6.5c1.1,0.1,1.9,1,1.8,2.1c-0.1,1-0.9,1.8-1.9,1.8c0,0-0.1,0-0.1,0l-93.1-6.5"/>
	<path class="st1" d="M36.5,344.8l93.1-14.5c1.1-0.2,2.1,0.6,2.2,1.6c0.2,1.1-0.6,2.1-1.6,2.2l-93.1,14.5"/>
	<path class="st1" d="M28.4,316.9l91.5-2.1c1-0.1,2,0.8,2,1.9c0,1.1-0.8,2-1.9,2l-91.5,2.1"/>
	<path class="st1" d="M463.3,294.6l-93.1,6.5c0,0-0.1,0-0.1,0c-1,0-1.9-0.8-1.9-1.8c-0.1-1.1,0.7-2,1.8-2.1l93.1-6.5"/>
	<path class="st1" d="M462.9,348.7l-93.1-14.5c-1.1-0.2-1.8-1.2-1.6-2.2c0.2-1.1,1.2-1.8,2.2-1.6l93.1,14.5"/>
	<path class="st1" d="M471.6,320.7l-91.5-2.1c-1.1,0-1.9-0.9-1.9-2c0-1.1,0.9-1.9,2-1.9l91.5,2.1"/>
	<g class="st1">
		<path class="st24" d="M160.9,92.4c0,0,15.4,67.6,30.4,65.5c16-2.3,11-66.4,11-75.5C202.3,82.3,174.8,86.8,160.9,92.4z"/>
		<path class="st24" d="M250.1,79.1c0-0.1-0.1-0.1-0.1-0.1c-18.3,0-22.1,0.7-22.1,0.7s1.3,68,22.1,76.1c0-0.1,0-0.1,0.1-0.2
			c0,0.1,0,0.1,0.1,0.2c20.8-8.1,22.1-76.1,22.1-76.1s-3.7-0.7-22.1-0.7C250.1,78.9,250.1,79,250.1,79.1z"/>
		<path class="st24" d="M297.8,82.3c0,9.2-5.1,73.2,11,75.5c15,2.2,30.4-65.5,30.4-65.5C325.3,86.8,297.8,82.3,297.8,82.3z"/>
	</g>
</g>
<g id="dobhareach" class="st0">
	<g class="st1">
		<path class="st25" d="M315,99.7c-28.5,0-46.8,12.2-65,13c-18.1-0.8-36.5-13-65-13c-87.9,0-78.1,194.5-78.1,194.5h286.2
			C393.1,294.3,402.9,99.7,315,99.7z"/>
		<path class="st26" d="M250,449.7c37.4,0,158.7-1.6,158.7-114c0-112.3-112.3-118.8-158.7-118.8c-46.4,0-158.7,6.5-158.7,118.8
			C91.3,448.1,212.6,449.7,250,449.7z"/>
		<g>
			<path class="st25" d="M161.6,120.6c0,0,4.2-41.8-82.5-69.6C61,46.7,68.8,62.7,68.8,62.7s23.2,79.5,70.8,81.5
				C155,125.3,161.6,120.6,161.6,120.6z"/>
			<path class="st26" d="M135.4,129.7l11.8-14.4c0,0-35.4-34.2-41.6-26.8C99.5,95.8,135.4,129.7,135.4,129.7z"/>
			<path class="st25" d="M338.4,120.6c0,0-4.2-41.8,82.5-69.6c18.1-4.3,10.3,11.7,10.3,11.7s-23.2,79.5-70.8,81.5
				C345,125.3,338.4,120.6,338.4,120.6z"/>
			<path class="st26" d="M364.6,129.7l-11.8-14.4c0,0,35.4-34.2,41.6-26.8C400.5,95.8,364.6,129.7,364.6,129.7z"/>
		</g>
		<path d="M356.1,319.3c-1.5-0.5-3.2,0.3-3.8,1.8c0,0.1-4.7,12.6-19.4,24.9c-24.7,20.7-58.4,25-82.3,25c-0.2,0-0.4,0-0.6,0.1
			c-0.2,0-0.4-0.1-0.6-0.1c-23.9,0-57.6-4.3-82.3-25c-14.7-12.3-19.3-24.8-19.4-24.9c-0.5-1.5-2.2-2.3-3.8-1.8
			c-1.5,0.5-2.3,2.2-1.8,3.8c0.2,0.6,5,13.9,20.8,27.2c26.1,22,61.4,26.6,86.4,26.6c0.2,0,0.4,0,0.6-0.1c0.2,0,0.4,0.1,0.6,0.1
			c25,0,60.4-4.6,86.4-26.6c15.8-13.3,20.6-26.7,20.8-27.2C358.4,321.5,357.6,319.8,356.1,319.3z"/>
		<g>
			<path d="M141.4,278.1c-1.5,0-2.8-1.1-2.9-2.6c-0.1-0.9-2.3-21.2,10.2-27.6c13.1-6.7,26.1,3.6,31.2,9.9c1,1.3,0.8,3.1-0.5,4.1
				c-1.3,1-3.1,0.8-4.1-0.5l0,0c0,0-3.1-3.9-7.7-6.8c-5.7-3.6-11.2-4.1-16.1-1.6c-7.4,3.8-7.6,16.9-7.1,21.7c0.2,1.6-1,3.1-2.6,3.3
				C141.6,278.1,141.5,278.1,141.4,278.1z"/>
			<path class="st25" d="M165,283.7c-8.8,3-15.1-14.3-7.5-19.2C165.1,259.6,173.6,280.7,165,283.7z"/>
			<path d="M358.6,278.1c1.5,0,2.8-1.1,2.9-2.6c0.1-0.9,2.3-21.2-10.2-27.6c-13.1-6.7-26.1,3.6-31.2,9.9c-1,1.3-0.8,3.1,0.5,4.1
				c1.3,1,3.1,0.8,4.1-0.5l0,0c0,0,3.1-3.9,7.7-6.8c5.7-3.6,11.2-4.1,16.1-1.6c7.4,3.8,7.6,16.9,7.1,21.7c-0.2,1.6,1,3.1,2.6,3.3
				C358.4,278.1,358.5,278.1,358.6,278.1z"/>
			<path class="st25" d="M335,283.7c8.8,3,15.1-14.3,7.5-19.2C334.9,259.6,326.4,280.7,335,283.7z"/>
		</g>
	</g>
	<g class="st1">
		<path d="M176.6,167.6c-4.3,0-7.8,3.5-7.8,7.8v6.8c0,4.3,3.5,7.8,7.8,7.8c4.3,0,7.8-3.5,7.8-7.8v-6.8
			C184.4,171.1,180.9,167.6,176.6,167.6z"/>
		<path d="M323.4,167.6c-4.3,0-7.8,3.5-7.8,7.8v6.8c0,4.3,3.5,7.8,7.8,7.8c4.3,0,7.8-3.5,7.8-7.8v-6.8
			C331.2,171.1,327.7,167.6,323.4,167.6z"/>
	</g>
</g>
<g id="cóála" class="st0">
	<path class="st27" d="M328.4,134.4c0,0,4.2-80.6,63.2-84.3c59-3.6,134.2,88.7,93.9,149.9c-21.1,32-69.6,28.6-69.6,28.6L328.4,134.4
		z"/>
	<path class="st28" d="M353.9,161.9c0,0,16.5-49.8,48.2-47.1c31.7,2.7,52.4,37.1,37.1,62.2c-15.3,25.1-48.7,24.2-48.7,24.2
		L353.9,161.9z"/>
	<path class="st27" d="M171.6,134.4c0,0-4.2-80.6-63.2-84.3c-59-3.6-134.2,88.7-93.9,149.9c21.1,32,69.6,28.6,69.6,28.6L171.6,134.4
		z"/>
	<path class="st28" d="M146.1,161.9c0,0-16.5-49.8-48.2-47.1c-31.7,2.7-52.4,37.1-37.1,62.2c15.3,25.1,48.7,24.2,48.7,24.2
		L146.1,161.9z"/>
	<path class="st29" d="M252.5,119.2c67.7,0,162.3,34.9,174.7,162.7C439.6,410.2,354,450,252.5,450h-5C146,450,60.4,410.2,72.8,281.9
		c12.4-127.7,107-162.7,174.7-162.7H252.5z"/>
	<path class="st30" d="M321.6,317.9c-14-83.5-71.6-91.7-71.6-91.7s-57.6,8.2-71.6,91.7C167.6,382,211,404.5,250,404.5
		C289,404.5,332.4,382,321.6,317.9z"/>
	<path class="st1" d="M348.4,293.6c0,5.2,4.2,9.4,9.4,9.4l0,0c5.2,0,9.4-4.2,9.4-9.4v-8.2c0-5.2-4.2-9.4-9.4-9.4l0,0
		c-5.2,0-9.4,4.2-9.4,9.4V293.6z"/>
	<path class="st1" d="M250,230.9c20.1,0,58.1,54.4,46.5,90.3c-5.8,18.5-25.4,18.5-46.5,18.5c-21.1,0-40.7,0-46.5-18.5
		C191.9,285.3,229.9,230.9,250,230.9z"/>
	<path class="st1" d="M278.3,359.4c-1.3-0.7-3-0.1-3.6,1.2c-0.2,0.4-5,9.4-23.7,9.4c-19,0-25.5-9.3-25.8-9.7
		c-0.8-1.2-2.5-1.6-3.8-0.8c-1.3,0.8-1.6,2.5-0.8,3.8c0.3,0.5,8.2,12.2,30.4,12.2c22.4,0,28.3-12,28.6-12.5
		C280.2,361.6,279.7,360,278.3,359.4z"/>
	<path class="st1" d="M151.6,293.6c0,5.2-4.2,9.4-9.4,9.4l0,0c-5.2,0-9.4-4.2-9.4-9.4v-8.2c0-5.2,4.2-9.4,9.4-9.4l0,0
		c5.2,0,9.4,4.2,9.4,9.4V293.6z"/>
</g>
<g id="tíogar" class="st0">
	<g class="st1">
		<path class="st17" d="M146.4,103.5c0,0-43.2-84.8-100-40.4C-10.3,107.5,67.1,171,67.1,171s12-10.2,40.3-35.2
			C135.8,110.9,146.4,103.5,146.4,103.5z"/>
		<path class="st31" d="M123.9,121.5c0,0-25.8-48.9-52.4-21.3c-22.4,23.2,16.8,52.4,16.8,52.4L123.9,121.5z"/>
		<path class="st17" d="M353.6,103.5c0,0,43.2-84.8,100-40.4c56.7,44.4-20.6,107.9-20.6,107.9s-12-10.2-40.3-35.2
			C364.2,110.9,353.6,103.5,353.6,103.5z"/>
		<path class="st31" d="M376.1,121.5c0,0,25.8-48.9,52.4-21.3c22.4,23.2-16.8,52.4-16.8,52.4L376.1,121.5z"/>
		<path class="st17" d="M250.3,449.7c69.1,0,190.9-13.9,209.7-129.1c18.8-115.1-43-236.9-209.7-236.9h-0.5
			C83.1,83.7,21.3,205.5,40.1,320.7c18.8,115.1,140.6,129.1,209.7,129.1H250.3z"/>
		<path class="st32" d="M250.3,449.7c75,0,113.7-17.4,113.7-17.4s38.5-33.3,28.4-95.1c-10.1-61.8-76.3-89.9-142.1-89.9h-0.5
			c-65.8,0-132,28.1-142.1,89.9C97.6,399,136,432.4,136,432.4s38.7,17.4,113.7,17.4H250.3z"/>
		<path d="M41,237.6c0,0,44.2,9.8,51.5,22.7c7.3,12.9-55.7,19.4-55.7,19.4S37.6,252.2,41,237.6z"/>
		<path d="M37,288.4c0,0,49.9-2,58.9,6.5c9,8.4-54.4,33.3-54.4,33.3S36.8,303.9,37,288.4z"/>
		<path d="M43.1,335.1c0,0,44.4-12.2,53.6-7c9.2,5.2-38.5,43.6-38.5,43.6S48,356,43.1,335.1z"/>
		<path d="M168.6,95.2c0,0,26.7,95.1,36,93.4c9.3-1.7,1.8-101.9,1.8-101.9S186.6,88.7,168.6,95.2z"/>
		<path d="M459,237.6c0,0-44.2,9.8-51.5,22.7c-7.3,12.9,55.7,19.4,55.7,19.4S462.4,252.2,459,237.6z"/>
		<path d="M463,288.4c0,0-49.9-2-58.9,6.5c-9,8.4,54.4,33.3,54.4,33.3S463.2,303.9,463,288.4z"/>
		<path d="M456.9,335.1c0,0-44.4-12.2-53.6-7c-9.2,5.2,38.5,43.6,38.5,43.6S452,356,456.9,335.1z"/>
		<path d="M250.3,181.1c12.3-12,19.7-67,24.5-96.4c0,0-3.5-0.9-23.2-0.9h-3.2c-19.7,0-23.2,0.9-23.2,0.9
			c4.8,29.4,12.3,84.4,24.5,96.4"/>
		<path d="M331.4,95.2c0,0-26.7,95.1-36,93.4c-9.3-1.7-1.8-101.9-1.8-101.9S313.4,88.7,331.4,95.2z"/>
		<path d="M250.3,317.4c24.2,0,40.5-6.7,40.5-23.6c0-16.9-21.3-27.1-40.5-27.1h-0.5c-19.2,0-40.5,10.2-40.5,27.1
			c0,16.9,16.3,23.6,40.5,23.6H250.3z"/>
		<g>
			<path class="st17" d="M198.2,328.7l-47-8.2c-1.2-0.2-2.4,0.6-2.6,1.8c-0.2,1.2,0.6,2.4,1.8,2.6l47,8.2c0.1,0,0.3,0,0.4,0
				c1.1,0,2-0.8,2.2-1.9C200.3,330.1,199.5,328.9,198.2,328.7z"/>
			<path class="st17" d="M193.7,354.9c1.2,0,2.2-1,2.2-2.2c0-1.2-1-2.3-2.2-2.3l-50.4-1.1c-1.2,0-2.3,1-2.3,2.2c0,1.2,1,2.3,2.2,2.3
				L193.7,354.9C193.6,354.9,193.7,354.9,193.7,354.9z"/>
			<path class="st17" d="M197.5,371.1l-43.9,6.7c-1.2,0.2-2.1,1.3-1.9,2.6c0.2,1.1,1.1,1.9,2.2,1.9c0.1,0,0.2,0,0.3,0l43.9-6.7
				c1.2-0.2,2.1-1.3,1.9-2.6C199.9,371.7,198.7,370.9,197.5,371.1z"/>
			<path class="st17" d="M302.1,333.2c0.1,0,0.3,0,0.4,0l47-8.2c1.2-0.2,2-1.4,1.8-2.6c-0.2-1.2-1.4-2-2.6-1.8l-47,8.2
				c-1.2,0.2-2,1.4-1.8,2.6C300.1,332.4,301.1,333.2,302.1,333.2z"/>
			<path class="st17" d="M356.7,349.3C356.7,349.3,356.7,349.3,356.7,349.3l-50.4,1.1c-1.2,0-2.2,1.1-2.2,2.3c0,1.2,1,2.2,2.2,2.2
				c0,0,0,0,0,0l50.4-1.1c1.2,0,2.2-1.1,2.2-2.3C358.9,350.2,357.9,349.3,356.7,349.3z"/>
			<path class="st17" d="M346.4,377.7l-43.9-6.7c-1.2-0.2-2.4,0.7-2.6,1.9c-0.2,1.2,0.7,2.4,1.9,2.6l43.9,6.7c0.1,0,0.2,0,0.3,0
				c1.1,0,2-0.8,2.2-1.9C348.5,379.1,347.6,377.9,346.4,377.7z"/>
		</g>
		<path d="M275.4,404.6c-0.1-1.2-1.2-2.1-2.5-2c-1.2,0.1-2.1,1.2-2,2.5c0.6,6.1-0.8,10.4-4,12.5c-3.3,2.2-7.9,1.6-10.9,0
			c-2.4-1.3-3.8-3.1-3.8-4.8v-97.5c0-1.2-1-2.2-2.2-2.2c-1.2,0-2.2,1-2.2,2.2v97.5c0,1.8-1.4,3.6-3.8,4.8c-3,1.6-7.6,2.3-10.9,0
			c-3.2-2.1-4.5-6.5-4-12.5c0.1-1.2-0.8-2.3-2-2.5c-1.2-0.1-2.3,0.8-2.5,2c-1,9.9,2.7,14.6,5.9,16.7c2.3,1.5,5,2.2,7.6,2.2
			c2.9,0,5.7-0.8,8-2c1.6-0.9,2.9-1.9,3.9-3.1c1,1.2,2.3,2.3,3.9,3.1c2.2,1.2,5.1,2,8,2c2.6,0,5.3-0.6,7.6-2.2
			C272.7,419.1,276.4,414.5,275.4,404.6z"/>
	</g>
	<path class="st1" d="M137.7,247.9c0,5.3-4.3,9.7-9.7,9.7l0,0c-5.3,0-9.7-4.3-9.7-9.7v-8.4c0-5.3,4.3-9.7,9.7-9.7l0,0
		c5.3,0,9.7,4.3,9.7,9.7V247.9z"/>
	<path class="st1" d="M381.6,247.9c0,5.3-4.3,9.7-9.7,9.7l0,0c-5.3,0-9.7-4.3-9.7-9.7v-8.4c0-5.3,4.3-9.7,9.7-9.7l0,0
		c5.3,0,9.7,4.3,9.7,9.7V247.9z"/>
</g>
<g id="eilifint" class="st0">
	<g class="st1">
		<g>
			<path class="st33" d="M130.4,320.3c0,0-15.6,27.8-63,27.8c-47.4,0-59-59-59-111.5c0-52.5,11.6-111.5,59-111.5
				c47.4,0,63,27.8,63,27.8V320.3z"/>
			<path class="st34" d="M114.6,283.8c0,0-8.8,15.7-35.5,15.7c-26.7,0-33.3-33.3-33.3-62.9c0-29.6,6.6-62.9,33.3-62.9
				c26.7,0,35.5,15.7,35.5,15.7V283.8z"/>
			<path class="st33" d="M369.6,320.3c0,0,15.6,27.8,63,27.8c47.4,0,59-59,59-111.5c0-52.5-11.6-111.5-59-111.5
				c-47.4,0-63,27.8-63,27.8V320.3z"/>
			<path class="st34" d="M385.4,283.8c0,0,8.8,15.7,35.5,15.7c26.7,0,33.3-33.3,33.3-62.9c0-29.6-6.6-62.9-33.3-62.9
				c-26.7,0-35.5,15.7-35.5,15.7V283.8z"/>
			<path class="st33" d="M250,368.1c27.9,0,151.5,4.3,151.5-123.6c0-127.9-94.3-147.9-151.5-147.9c-57.2,0-151.5,20-151.5,147.9
				C98.5,372.4,222.1,368.1,250,368.1z"/>
			<path class="st35" d="M250,245.8c-27.2,0-51.2,5-49.3,62.2c1.9,57.1,49.3,101.6,135.8,94.8c78.2-6.1,103.6-78.1,106.7-131.3
				c0.5-27.9-12.4-8.7-19.4-8.2c-6.6,0.4-14.7-22.3-19.7,4.8c-2.6,14.3-9.1,69.3-45.7,85.5c-31.3,13.8-59.1-5.7-60.5-46.5
				C296.1,257.3,282.2,245.8,250,245.8z"/>
		</g>
		<path d="M157.9,232.3c-3.8,0-6.9,3.1-6.9,6.9v6c0,3.8,3.1,6.9,6.9,6.9c3.8,0,6.9-3.1,6.9-6.9v-6
			C164.8,235.4,161.7,232.3,157.9,232.3z"/>
		<path d="M342.1,232.3c-3.8,0-6.9,3.1-6.9,6.9v6c0,3.8,3.1,6.9,6.9,6.9c3.8,0,6.9-3.1,6.9-6.9v-6
			C349,235.4,345.9,232.3,342.1,232.3z"/>
	</g>
	<g class="st1">
		<path class="st34" d="M288.8,293.3c0.3,0.1,0.6,0.2,0.9,0.2c0.7,0,1.4-0.4,1.8-1.1c0.5-1,0.1-2.2-0.9-2.7
			c-23.2-11.4-44.6-10.8-58.5-8.3c-15.1,2.7-24.5,8.1-24.9,8.3c-1,0.6-1.3,1.8-0.7,2.7c0.6,1,1.8,1.3,2.7,0.7
			C209.5,293,246.4,272.4,288.8,293.3z"/>
		<path class="st34" d="M292.2,324.8c1.1,0.1,2.1-0.7,2.2-1.8c0.1-1.1-0.7-2.1-1.8-2.2c-1.8-0.2-45.1-4.7-76.7,21.5
			c-0.8,0.7-1,2-0.3,2.8c0.4,0.5,1,0.7,1.5,0.7c0.5,0,0.9-0.2,1.3-0.5C248.8,320.3,291.8,324.8,292.2,324.8z"/>
		<path class="st34" d="M306.5,347.6c-0.2-1.1-1.3-1.8-2.4-1.5c-1.5,0.3-36.3,8.4-51.5,33.8c-0.6,0.9-0.3,2.2,0.7,2.7
			c0.3,0.2,0.7,0.3,1,0.3c0.7,0,1.3-0.3,1.7-1c14.4-24,48.6-31.9,49-32C306.1,349.8,306.8,348.7,306.5,347.6z"/>
		<path class="st34" d="M325.1,359.5c-0.7,0.6-17.7,15.1-22.4,37.2c-0.2,1.1,0.5,2.1,1.5,2.4c0.1,0,0.3,0,0.4,0c0.9,0,1.8-0.6,2-1.6
			c4.5-20.7,20.9-34.8,21.1-34.9c0.8-0.7,1-2,0.2-2.8C327.2,358.9,325.9,358.8,325.1,359.5z"/>
		<path class="st34" d="M352.8,359.1c-1.1-0.3-2.2,0.3-2.5,1.3c-0.2,0.7-5.2,17.2-3.3,35.2c0.1,1,1,1.8,2,1.8c0.1,0,0.1,0,0.2,0
			c1.1-0.1,1.9-1.1,1.8-2.2c-1.8-17.2,3.1-33.5,3.2-33.6C354.5,360.5,353.9,359.4,352.8,359.1z"/>
		<path class="st34" d="M370.6,350c-0.9,0.6-1.1,1.9-0.5,2.8c0.1,0.1,9,12.7,9.2,30.7c0,1.1,0.9,2,2,2c0,0,0,0,0,0c1.1,0,2-0.9,2-2
			c-0.3-19.4-9.6-32.5-10-33C372.7,349.6,371.5,349.4,370.6,350z"/>
		<path class="st34" d="M387.6,334.6c-1-0.5-2.2-0.2-2.7,0.8c-0.5,1-0.2,2.2,0.8,2.7c0.1,0.1,14.8,8.3,18.5,26.8
			c0.2,0.9,1,1.6,2,1.6c0.1,0,0.3,0,0.4,0c1.1-0.2,1.8-1.3,1.6-2.4C403.9,343.8,388.2,334.9,387.6,334.6z"/>
		<path class="st34" d="M393.8,320.5c-1.1-0.1-2.1,0.6-2.3,1.7c-0.2,1.1,0.6,2.1,1.7,2.3c0.2,0,18.2,2.7,27,15.8
			c0.4,0.6,1,0.9,1.7,0.9c0.4,0,0.8-0.1,1.1-0.3c0.9-0.6,1.2-1.9,0.5-2.8C413.8,323.4,394.6,320.6,393.8,320.5z"/>
		<path class="st34" d="M399.9,302.3c-1.1,0.2-1.8,1.2-1.6,2.3c0.2,1.1,1.2,1.8,2.3,1.6c0.2,0,18.5-3.3,29.2,9
			c0.4,0.5,0.9,0.7,1.5,0.7c0.5,0,0.9-0.2,1.3-0.5c0.8-0.7,0.9-2,0.2-2.8C420.7,298.6,400.8,302.1,399.9,302.3z"/>
		<path class="st34" d="M439.5,287.1c-10.5-12.7-32.9-7.8-33.8-7.5c-1.1,0.2-1.8,1.3-1.5,2.4c0.2,1.1,1.3,1.8,2.4,1.5
			c0.2,0,20.9-4.6,29.9,6.2c0.4,0.5,1,0.7,1.5,0.7c0.5,0,0.9-0.2,1.3-0.5C440.1,289.2,440.2,287.9,439.5,287.1z"/>
	</g>
</g>
<g id="piongain">
	<g>
		<path class="st36" d="M250,49.8c45.5,0,214.5,14.2,214.5,195.7c0,181.5-125.9,204.7-214.5,204.7c-88.6,0-214.5-23.2-214.5-204.7
			C35.5,64,204.5,49.8,250,49.8z"/>
		<path class="st16" d="M252,426.9c252.9,0,214-235.2,116.1-252c-97.8-16.8-119.2,59.5-119.2,59.5s-21.4-76.3-119.2-59.5
			s-136.8,252,116.1,252H252z"/>
		<path d="M134.4,290.3c0,5.5-4.4,9.9-9.9,9.9l0,0c-5.5,0-9.9-4.4-9.9-9.9v-8.6c0-5.5,4.4-9.9,9.9-9.9l0,0c5.5,0,9.9,4.4,9.9,9.9
			V290.3z"/>
		<path d="M383.2,290.3c0,5.5-4.4,9.9-9.9,9.9l0,0c-5.5,0-9.9-4.4-9.9-9.9v-8.6c0-5.5,4.4-9.9,9.9-9.9l0,0c5.5,0,9.9,4.4,9.9,9.9
			V290.3z"/>
	</g>
	<g>
		<path class="st37" d="M250,294C250,294,250,294,250,294C250,294,250,294,250,294C250,294,250,294,250,294C250,294,250,294,250,294
			c-10.7,1.7-34.4,21.5-41.5,51.9c14,26.9,41.2,28.6,41.2,28.6s27.9-1.8,41.9-28.6C284.4,315.5,260.7,295.7,250,294z"/>
		<path class="st38" d="M250,294C250,294,250,294,250,294C250,294,250,294,250,294C250,294,250,294,250,294C250,294,250,294,250,294
			c-1,0.2-29.3,6.4-41.5,51.9c11.6,9.7,36.7,10.5,40.1,10.5c0,0,0,0,0,0s30.6-0.1,43-10.5C279.3,300.4,251,294.2,250,294z"/>
	</g>
</g>
<g id="sionnach" class="st0">
	<path class="st39" d="M399.8,91.6c0,0,46-4.8,86.7,0c-10.9,40-35.5,79.3-35.5,79.3S412.8,121,399.8,91.6z"/>
	<path class="st40" d="M412.5,111.6c0,0,24.6-2.6,46.3,0c-5.8,21.4-19,42.4-19,42.4S419.4,127.4,412.5,111.6z"/>
	<path class="st39" d="M100.2,91.6c0,0-46-4.8-86.7,0c10.9,40,35.5,79.3,35.5,79.3S87.2,121,100.2,91.6z"/>
	<path class="st40" d="M87.5,111.6c0,0-24.6-2.6-46.3,0c5.8,21.4,19,42.4,19,42.4S80.6,127.4,87.5,111.6z"/>
	<path class="st40" d="M49,170.9c0,0-12.9,118.6-24.8,152c-10.4,26-20.1,29-20.1,29l32.7,3.7l-14.1,15.6c0,0,98.2,3,193.3,44.6
		c-5.9-11.9-2.7-23.2-2.7-23.2S195,213.7,49,170.9z"/>
	<path class="st39" d="M250,385.8c0,0,20.8-1.4,36.7,6.9C314.5,198.6,451,170.9,451,170.9c-25-95.7-97.8-106.8-183-106.8H232
		c-85.3,0-158.1,11.1-183,106.8c0,0,136.6,27.7,164.3,221.8C229.2,384.4,250,385.8,250,385.8z"/>
	<path class="st40" d="M451,170.9c0,0,12.9,118.6,24.8,152c10.4,26,20.1,29,20.1,29l-32.7,3.7l14.1,15.6c0,0-98.2,3-193.3,44.6
		c5.9-11.9,2.7-23.2,2.7-23.2S305,213.7,451,170.9z"/>
	<path class="st1" d="M118.6,292.7c0,5.4-4.4,9.8-9.8,9.8l0,0c-5.4,0-9.8-4.4-9.8-9.8v-8.5c0-5.4,4.4-9.8,9.8-9.8l0,0
		c5.4,0,9.8,4.4,9.8,9.8V292.7z"/>
	<path class="st1" d="M399.8,292.7c0,5.4-4.4,9.8-9.8,9.8l0,0c-5.4,0-9.8-4.4-9.8-9.8v-8.5c0-5.4,4.4-9.8,9.8-9.8l0,0
		c5.4,0,9.8,4.4,9.8,9.8V292.7z"/>
	<path class="st1" d="M288,393c-3.1-7.3-22.1-10.4-38-10.4c-15.9,0-34.9,3.1-38,10.4c-3.1,7.3-2.7,42.9,38,42.9
		C290.7,435.8,291.2,400.3,288,393z"/>
</g>
<g id="sioráf" class="st0">
	<g class="st1">
		<g>
			<path class="st17" d="M183.9,62.1c0,12.5,11.9,9.4,11.9,9.4l3.8,47.1l15.9-4.6l-3.3-43.9c0,0,13.9,0.5,12.2-12.1
				C222.6,45.5,183.8,48.2,183.9,62.1z"/>
			<path class="st17" d="M275.5,58.1c-1.7,12.6,12.2,12.1,12.2,12.1l-3.3,43.9l15.9,4.6l3.8-47.1c0,0,11.9,3.1,11.9-9.4
				C316,48.2,277.3,45.5,275.5,58.1z"/>
		</g>
		<path class="st41" d="M249.9,450c44.3,0,146.7-2.5,146.7-152.9s-82.1-186.9-146.7-186.9c-62.6,0-146.7,34.5-146.7,186.9
			C103.3,447.5,205.6,450,249.9,450z"/>
		<g>
			<g>
				<path class="st41" d="M171.6,147.2c0,0,9.2-64.6-45-90.8c-13.1,8.7-26.1,79.9,11.6,123.4C166.5,158.1,171.6,147.2,171.6,147.2z"
					/>
				<path class="st17" d="M142.8,157.8l15.3-15.2c0,0-3.4-32.4-22.3-43.1C127.6,128.7,142.8,157.8,142.8,157.8z"/>
			</g>
			<g>
				<path class="st41" d="M328.3,147.2c0,0-9.2-64.6,45-90.8c13.1,8.7,26.1,79.9-11.6,123.4C333.4,158.1,328.3,147.2,328.3,147.2z"
					/>
				<path class="st17" d="M357.1,157.8l-15.3-15.2c0,0,3.4-32.4,22.3-43.1C372.3,128.7,357.1,157.8,357.1,157.8z"/>
			</g>
		</g>
		<g>
			<path d="M327.5,245.7c0,4.3-3.5,7.7-7.7,7.7l0,0c-4.3,0-7.7-3.5-7.7-7.7v-6.7c0-4.3,3.5-7.7,7.7-7.7l0,0c4.3,0,7.7,3.5,7.7,7.7
				V245.7z"/>
			<path d="M187.9,245.7c0,4.3-3.5,7.7-7.7,7.7l0,0c-4.3,0-7.7-3.5-7.7-7.7v-6.7c0-4.3,3.5-7.7,7.7-7.7l0,0c4.3,0,7.7,3.5,7.7,7.7
				V245.7z"/>
		</g>
		<path class="st17" d="M219.4,113c0,0,10.6,25.3,18.1,28.3c7.5,3,37-13.7,40.6-17.6c3.6-3.9,2.5-10.7,2.5-10.7s-12.9-2.9-30.6-2.9
			C232.3,110.2,219.4,113,219.4,113z"/>
		<path class="st17" d="M126.6,182.5c0,0,16.6,17.6,19.2,27.4c2.6,9.9-18.9,52.9-25.6,56.9c-6.7,4-15.6,0-15.6,0
			S106.9,218.2,126.6,182.5z"/>
		<path class="st17" d="M369.5,311.7c0,0-12.6-19.8-5.7-31.6c6.9-11.8,31.3-17.2,31.3-17.2s4.2,34.7-0.7,71.9
			C385.6,320.8,369.5,311.7,369.5,311.7z"/>
		<path class="st17" d="M367.5,172.3c0,0-9.7,17.2-7.3,23.4c2.4,6.3,26.3,20.5,26.3,20.5S379.3,188.9,367.5,172.3z"/>
		<path class="st17" d="M325.3,138.7c-13.8-9-41.4-3.9-44.4,3.3c-2.9,7.2,4.8,31.4,20.3,37c15.5,5.7,38.2,1.5,41.8-6.3
			C346.6,165,333.5,144.1,325.3,138.7z"/>
		<path class="st17" d="M173.2,141.8c-10.9,7.9-15,30.6-10.4,35c4.6,4.3,25.4,5.5,34.3-4.8c8.9-10.2,12.3-28.8,7.4-33.8
			C199.6,133.1,179.7,137,173.2,141.8z"/>
	</g>
	<path class="st42" d="M351.9,301.8c1.3-7.2,1.4-16.1-4.8-20.6c-9.2-6.8-22,0.1-28.7,8c-19.1-5.4-41.9-9-68.5-9
		c-26.5,0-49.3,3.6-68.4,9c-6.7-7.9-19.5-14.8-28.7-8c-6.1,4.5-6.1,13.4-4.8,20.6c-28.9,14.1-42.8,30.4-42.4,33.6
		C121.8,447.9,209.8,450,250,450c40.2,0,128.2-2.1,144.2-114.7C394.6,332.1,380.7,315.8,351.9,301.8z"/>
	<g class="st1">
		<path class="st17" d="M164.3,297.5c-3.5,2.2-4.2,7.5-1.5,11.8c2.7,4.3,7.8,6,11.3,3.8c3.5-2.2,4.2-7.5,1.5-11.8
			C172.9,297,167.8,295.3,164.3,297.5z"/>
		<path class="st17" d="M335.7,297.5c-3.5-2.2-8.6-0.5-11.3,3.8c-2.7,4.3-2.1,9.6,1.5,11.8c3.5,2.2,8.6,0.5,11.3-3.8
			C339.9,305,339.2,299.7,335.7,297.5z"/>
	</g>
	<path class="st1" d="M248.3,372.4c-36.2-0.8-51.7-22.4-53.4-24.9l0,0c-0.6-0.9-1.8-1.1-2.7-0.5c-0.9,0.6-1.1,1.8-0.5,2.7
		c1.8,2.7,18.8,26.5,58,26.7c0,0,0.1,0,0.1,0c0.1,0,0.2,0,0.2,0c0.1,0,0.2,0,0.2,0c0,0,0.1,0,0.1,0c39.3-0.2,56.2-24,58-26.7
		c0,0,0.9-1.8-0.5-2.8c-1.4-1-2.8,0.6-2.8,0.6c-1.7,2.5-17,24-52.9,24.9L248.3,372.4z"/>
</g>
</svg>
