<?xml version="1.0" encoding="utf-8"?>
<!-- Generator: Adobe Illustrator 27.8.0, SVG Export Plug-In . SVG Version: 6.00 Build 0)  -->
<svg version="1.1" id="ainmhite" xmlns="http://www.w3.org/2000/svg" xmlns:xlink="http://www.w3.org/1999/xlink" x="0px" y="0px"
	 viewBox="0 0 500 500" style="enable-background:new 0 0 500 500;" xml:space="preserve">
<style type="text/css">
	.st0{opacity:0.5;fill:#BDBEC0;enable-background:new    ;}
	.st1{fill-rule:evenodd;clip-rule:evenodd;fill:#231F20;}
	.st2{fill-rule:evenodd;clip-rule:evenodd;fill:#FFFFFF;}
	.st3{fill:#00A199;}
	.st4{fill:#31BDB5;}
	.st5{fill:#231F20;}
	.st6{fill:#4CC2BE;}
</style>
<g>
	<g>
		<path class="st0" d="M244.9,371.8c0,4.4-35.1,7.9-78.5,7.9S88,376.1,88,371.8c0-4.4,35.1-7.9,78.5-7.9S244.9,367.4,244.9,371.8z"
			/>
		<path class="st1" d="M81.1,141.3c0,0,5-7.2,12-7.7c7-0.5,13.5,5,13.5,5c0.5,0.7,1,1.7-0.5,1.7c-1.7,0.2-7-5.7-13-5
			C87,136.3,81.1,141.3,81.1,141.3z"/>
		<path class="st2" d="M98,145.5c8,3.5,12.2,14,9.2,23.4c-3,9.2-12,14-20.2,10.5c-8-3.2-12.2-13.7-9.2-23.2
			C80.8,147,89.8,142.3,98,145.5z"/>
		<path class="st3" d="M92.6,181.4c-2,0-4-0.4-5.9-1.2c-8.5-3.4-12.8-14.3-9.7-24.2c1.4-4.7,4.8-8.6,9.2-10.8
			c3.8-1.8,8.2-1.9,12.1-0.4l0,0c8.4,3.7,12.8,14.6,9.7,24.4c-1.4,4.7-4.8,8.7-9.2,10.8C96.8,180.9,94.7,181.3,92.6,181.4z
			 M92.7,145.3c-2,0-4,0.5-5.8,1.3c-4,2-7.1,5.6-8.3,9.9c-2.8,9,1.2,19.1,8.8,22.2c3.4,1.5,7.3,1.4,10.7-0.1c4.1-2,7.1-5.5,8.4-9.9
			c2.9-9-1.1-19.1-8.8-22.4C96.1,145.7,94.4,145.3,92.7,145.3L92.7,145.3z"/>
		<path class="st1" d="M100.8,161.5c4.1,1.5,6.2,6.1,4.7,10.2c0,0,0,0,0,0c-1.5,4.2-6.2,6.5-10.2,4.7c-4-1.3-6.2-5.6-5-9.6
			c0.1-0.2,0.1-0.4,0.2-0.6c1.4-4.1,5.9-6.2,10-4.8C100.6,161.4,100.7,161.4,100.8,161.5z"/>
		<path class="st3" d="M138.6,296.5c0,20.4-7.5,67.9-7.5,67.9c-2.9-1.5-7.8-2.8-11.4-2.2c-0.7,0.1-1.1,0.8-1,1.5
			c0.1,0.4,0.3,0.7,0.7,0.9l14,6.2c1.1,0.5,2.4,0.2,3.1-0.8l19.7-66.7C156.3,303.4,138.6,294.1,138.6,296.5z"/>
		<path class="st3" d="M197.6,296.5l-0.1,69.5c3.2-0.7,8.2-0.7,11.6,0.8c0.6,0.3,0.9,1.1,0.6,1.7c-0.2,0.4-0.5,0.6-0.9,0.7
			l-15.2,2.5c-1.2,0.2-2.3-0.5-2.8-1.6l-2-69.5L197.6,296.5z"/>
		<path class="st3" d="M157,260.6c-12.1,28.6-52.3,7.9-68.1-9.3c-1.9-2.1,1.3-5,3.2-2.9c13.2,14.4,49.8,30.1,60.5,5
			c1.1-2.6,5.3-1.3,4.2,1.3L157,260.6z"/>
		<path class="st3" d="M99,230.2c3,3.6,4.2,7.8,2.9,12.3c-1.5,5.3-7.1,7.3-12,8.1c-2.8,0.4-3.7-3.8-0.9-4.3c3.5-0.5,7.2-1.4,8.7-5.1
			c1.1-2.8-0.2-5.9-2-8.1C93.9,231,97.2,228.1,99,230.2L99,230.2z"/>
		<path class="st3" d="M89.9,227.8c-3.4-2.4-9.7,2-10.2,5.7c-0.4,2.9,1.5,5.7,3.2,7.7c2.1,2.5,4.7,3.3,7.4,4.9
			c2.4,1.5,0,5.1-2.4,3.7c-1.9-1.2-3.9-1.8-5.7-3.3c-1.7-1.3-3.1-2.9-4.3-4.7c-2.2-3.1-3.4-7.2-2-10.9c2.2-5.7,10.8-10.7,16.4-6.8
			C94.5,225.8,92.1,229.5,89.9,227.8L89.9,227.8z"/>
		<path class="st3" d="M88.1,249.9c-4.5-2.3-8.8-4.7-13.4-6.8c-4.7-2.1-9.8-2.7-14.7-4.3c-2.7-0.8-1.4-5,1.3-4.2
			c4.9,1.5,9.9,2.3,14.7,4.3c5,2,9.6,4.8,14.4,7.2C92.9,247.4,90.6,251.1,88.1,249.9L88.1,249.9z"/>
		<path class="st3" d="M89.4,250.8c-6.7,1.2-14,0.7-20,4.4c-2.4,1.5-4.3-2.4-2-3.9c6.4-3.9,14-3.5,21.1-4.8
			C91.3,246.1,92.2,250.3,89.4,250.8L89.4,250.8z"/>
		<path class="st3" d="M90.9,250.7c-2.2,1.9-4.4,3.8-6.6,5.7c-1.8,1.5-4.2,3.2-4.7,5.6c-0.5,2.8-4.7,1.4-4.2-1.3
			c0.5-2.5,2.3-4.2,4.1-5.9c2.7-2.5,5.6-4.9,8.4-7.4C90.1,245.5,93,248.8,90.9,250.7L90.9,250.7z"/>
		<path class="st4" d="M178.8,122.5c11.1,3.3,18.8,13.4,18.9,25v170.1c0.1,3.8-0.1,7.7-0.5,11.5c-0.5,3.1-1.6,6.1-3.2,8.8
			c-3.1,6-11.8,9-26,9c-13.8,0-22.3-2.9-25.7-8.7c-1.6-2.8-2.7-5.9-3.2-9.2c-0.4-4-0.6-8.1-0.5-12.2V213.8l-4.3,4
			c-22.1,14.1-34,8.2-41,0.5s-12.9-28.4-1-39c0,0,40.7-39.7,54.7-52.5C156.1,118.4,168.6,119.5,178.8,122.5z"/>
		<path class="st2" d="M134.4,145.7c-8.2,3.5-12.2,14-9.2,23.4c3,9.2,12,14,20.2,10.5c8-3.5,12.2-13.7,9.2-23.2
			C151.6,147.2,142.6,142.3,134.4,145.7z"/>
		<path class="st3" d="M139.8,181.6c-2.1,0-4.2-0.5-6.1-1.3c-4.5-2.2-7.8-6.1-9.2-10.8c-3.2-10,1.1-20.8,9.7-24.4l0,0
			c3.8-1.6,8.1-1.6,11.8,0.2c4.6,2.2,8,6.2,9.4,11.1c3.1,9.8-1.1,20.4-9.7,24.2C143.8,181.2,141.8,181.6,139.8,181.6z M134.7,146.5
			c-7.7,3.3-11.7,13.3-8.8,22.4c1.3,4.3,4.3,7.9,8.4,9.9c3.4,1.6,7.3,1.6,10.7,0.1c7.6-3.3,11.6-13.3,8.8-22.2
			c-1.3-4.4-4.5-8-8.6-10C141.9,145.1,138.1,145,134.7,146.5L134.7,146.5z"/>
		<path class="st1" d="M131,160.2c-4.1,1.4-6.3,5.9-4.8,10c0,0.1,0.1,0.2,0.1,0.2c1.6,4.2,6.3,6.3,10.5,4.8c0,0,0,0,0,0
			c4-1.5,6.1-6.1,4.5-10.1c0,0,0-0.1-0.1-0.1c-1.3-4-5.6-6.3-9.6-5C131.4,160.1,131.2,160.1,131,160.2z"/>
		<path class="st2" d="M127.7,159.9c-1.4,0.5-2.2,2.1-1.7,3.5c0,0,0,0,0,0.1c0.6,1.5,2.2,2.2,3.7,1.7c1.4-0.5,2.1-2.1,1.6-3.5
			c0,0,0,0,0,0c-0.4-1.4-2-2.2-3.4-1.7C127.8,159.9,127.7,159.9,127.7,159.9z"/>
		<path class="st1" d="M151.6,142c0,0-4.7-7.2-11.7-7.7c-7.2-0.5-13.7,5-13.7,5c-0.2,0.8-0.7,1.7,0.8,2c1.7,0,7-6,13-5.2
			C145.9,137,151.6,142,151.6,142z"/>
		<path class="st2" d="M92.2,159.9c-1.4,0.5-2.2,2.1-1.7,3.5c0,0,0,0.1,0,0.1c0.6,1.5,2.2,2.2,3.6,1.7c0,0,0,0,0,0
			c1.4-0.5,2.1-2.1,1.6-3.5c0,0,0,0,0-0.1c-0.4-1.4-1.9-2.2-3.4-1.8C92.3,159.9,92.3,159.9,92.2,159.9z"/>
		<path class="st5" d="M94.2,205.4c0,0,11.4,10.2,21.3,0.8C115.6,206.2,105.3,221.7,94.2,205.4z"/>
		<path class="st3" d="M185.6,224.5c17.7,5,35.2-2.7,43.3-19.2c6.2-12.6-0.5-34.7-13.3-41c-4.1-2-6.7,4.6-2.7,6.6
			c9.8,4.8,13.2,22.6,9.4,31.7c-5.5,13.1-20.9,19.1-34.1,15.3C183.9,216.8,181.2,223.3,185.6,224.5L185.6,224.5z"/>
		<path class="st3" d="M209.6,163.3c-1.9,1.3-4.8,2.7-7,1.6c-1.7-0.9-3.9,0.3-4.6,2c-0.7,1.8,0.2,3.9,2,4.6c4.5,2.3,10.2,0.1,14-2.6
			C217.8,166.2,213.4,160.7,209.6,163.3L209.6,163.3z"/>
		<path class="st3" d="M213,154.3c0.3,1.5,0.7,3.2,0.2,4.7s-1.8,2.8-2.9,3.8c-1.4,1.4-1.9,3.3-0.6,5c1.1,1.4,3.6,2,5,0.6
			c2.1-2.1,4.1-4.1,5.2-6.8c1.1-2.7,0.7-5.7,0.2-8.4C219.2,148.8,212.2,149.8,213,154.3L213,154.3z"/>
		<path class="st3" d="M204.1,160c1.9,1.8,3.6,3.9,5,6.2c1.1,1.6,3.5,1.7,5,0.6c1.5-1.2,1.8-3.4,0.6-5c-1.7-2.8-3.9-5.3-6.3-7.5
			c-1.6-1.2-3.8-0.9-5,0.7C202.2,156.6,202.5,158.8,204.1,160z"/>
		<path class="st6" d="M186.9,321.8c3.2,0,3.2-5,0-5S183.7,321.8,186.9,321.8z"/>
		<path class="st6" d="M183.1,327.4c-3.6,11-17.8,8.5-26.3,6.6c-3.1-0.7-4.5,4.1-1.3,4.8c11.6,2.6,27.8,4,32.4-10.1
			C189,325.6,184.1,324.3,183.1,327.4L183.1,327.4z"/>
		<path class="st6" d="M170.4,133.4c10.8,0.2,13.9,8.5,13.5,18.1c-0.1,3.2,4.9,3.2,5,0c0.2-5.6-0.3-11.7-3.7-16.4
			c-3.5-4.9-9-6.6-14.8-6.7C167.2,128.4,167.2,133.4,170.4,133.4z"/>
		<path class="st6" d="M186.9,162.6c3.2,0,3.2-5,0-5S183.7,162.6,186.9,162.6z"/>
	</g>
	<g>
		<path class="st0" d="M441.5,371.8c0,4.4-35.1,7.9-78.5,7.9s-78.5-3.6-78.5-7.9c0-4.4,35.1-7.9,78.5-7.9S441.5,367.4,441.5,371.8z"
			/>
		<path class="st1" d="M277.6,141.3c0,0,5-7.2,12-7.7c7-0.5,13.5,5,13.5,5c0.5,0.7,1,1.7-0.5,1.7c-1.7,0.2-7-5.7-13-5
			C283.6,136.3,277.6,141.3,277.6,141.3z"/>
		<path class="st2" d="M294.6,145.5c8,3.5,12.2,14,9.2,23.4c-3,9.2-12,14-20.2,10.5c-8-3.2-12.2-13.7-9.2-23.2
			C277.4,147,286.4,142.3,294.6,145.5z"/>
		<path class="st3" d="M289.2,181.4c-2,0-4-0.4-5.9-1.2c-8.5-3.4-12.8-14.3-9.7-24.2c1.4-4.7,4.8-8.6,9.2-10.8
			c3.8-1.8,8.2-1.9,12.1-0.4l0,0c8.4,3.7,12.8,14.6,9.7,24.4c-1.4,4.7-4.8,8.7-9.2,10.8C293.4,180.9,291.3,181.3,289.2,181.4z
			 M289.3,145.3c-2,0-4,0.5-5.8,1.3c-4,2-7.1,5.6-8.3,9.9c-2.8,9,1.2,19.1,8.8,22.2c3.4,1.5,7.3,1.4,10.7-0.1c4.1-2,7.1-5.5,8.4-9.9
			c2.9-9-1.1-19.1-8.8-22.4C292.7,145.7,291,145.3,289.3,145.3L289.3,145.3z"/>
		<path class="st1" d="M297.3,161.5c4.1,1.5,6.2,6.1,4.7,10.2c0,0,0,0,0,0c-1.5,4.2-6.2,6.5-10.2,4.7c-4-1.3-6.2-5.6-5-9.6
			c0.1-0.2,0.1-0.4,0.2-0.6c1.4-4.1,5.9-6.2,10-4.8C297.2,161.4,297.3,161.4,297.3,161.5z"/>
		<path class="st3" d="M335.2,296.5c0,20.4-7.5,67.9-7.5,67.9c-2.9-1.5-7.8-2.8-11.4-2.2c-0.7,0.1-1.1,0.8-1,1.5
			c0.1,0.4,0.3,0.7,0.7,0.9l14,6.2c1.1,0.5,2.4,0.2,3.1-0.8l19.7-66.7C352.9,303.4,335.2,294.1,335.2,296.5z"/>
		<path class="st3" d="M394.2,296.5L394,366c3.2-0.7,8.2-0.7,11.6,0.8c0.6,0.3,0.9,1.1,0.6,1.7c-0.2,0.4-0.5,0.6-0.9,0.7l-15.2,2.5
			c-1.2,0.2-2.3-0.5-2.8-1.6l-2-69.5L394.2,296.5z"/>
		<path class="st3" d="M353.5,260.6c-12.1,28.6-52.3,7.9-68.1-9.3c-1.9-2.1,1.3-5,3.2-2.9c13.2,14.4,49.8,30.1,60.5,5
			c1.1-2.6,5.3-1.3,4.2,1.3L353.5,260.6z"/>
		<path class="st3" d="M295.5,230.2c3,3.6,4.2,7.8,2.9,12.3c-1.5,5.3-7.1,7.3-12,8.1c-2.8,0.4-3.7-3.8-0.9-4.3
			c3.5-0.5,7.2-1.4,8.7-5.1c1.1-2.8-0.2-5.9-2-8.1C290.5,231,293.7,228.1,295.5,230.2L295.5,230.2z"/>
		<path class="st3" d="M286.4,227.8c-3.4-2.4-9.7,2-10.2,5.7c-0.4,2.9,1.5,5.7,3.2,7.7c2.1,2.5,4.7,3.3,7.4,4.9
			c2.4,1.5,0,5.1-2.4,3.7c-1.9-1.2-3.9-1.8-5.7-3.3c-1.7-1.3-3.1-2.9-4.3-4.7c-2.2-3.1-3.4-7.2-2-10.9c2.2-5.7,10.8-10.7,16.4-6.8
			C291,225.8,288.7,229.5,286.4,227.8L286.4,227.8z"/>
		<path class="st3" d="M284.6,249.9c-4.5-2.3-8.8-4.7-13.4-6.8c-4.7-2.1-9.8-2.7-14.7-4.3c-2.7-0.8-1.4-5,1.3-4.2
			c4.9,1.5,9.9,2.3,14.7,4.3c5,2,9.6,4.8,14.4,7.2C289.5,247.4,287.1,251.1,284.6,249.9L284.6,249.9z"/>
		<path class="st3" d="M286,250.8c-6.7,1.2-14,0.7-20,4.4c-2.4,1.5-4.3-2.4-2-3.9c6.4-3.9,14-3.5,21.1-4.8
			C287.9,246.1,288.8,250.3,286,250.8L286,250.8z"/>
		<path class="st3" d="M287.5,250.7c-2.2,1.9-4.4,3.8-6.6,5.7c-1.8,1.5-4.2,3.2-4.7,5.6c-0.5,2.8-4.7,1.4-4.2-1.3
			c0.5-2.5,2.3-4.2,4.1-5.9c2.7-2.5,5.6-4.9,8.4-7.4C286.6,245.5,289.6,248.8,287.5,250.7L287.5,250.7z"/>
		<path class="st4" d="M375.4,122.5c11.1,3.3,18.8,13.4,18.9,25v170.1c0.1,3.8-0.1,7.7-0.5,11.5c-0.5,3.1-1.6,6.1-3.2,8.8
			c-3.1,6-11.8,9-26,9c-13.8,0-22.3-2.9-25.7-8.7c-1.6-2.8-2.7-5.9-3.2-9.2c-0.4-4-0.6-8.1-0.5-12.2V213.8l-4.3,4
			c-22.1,14.1-34,8.2-41,0.5c-7-7.8-12.9-28.4-1-39c0,0,40.7-39.7,54.7-52.5C352.6,118.4,365.2,119.5,375.4,122.5z"/>
		<path class="st2" d="M331,145.7c-8.2,3.5-12.2,14-9.2,23.4c3,9.2,12,14,20.2,10.5c8-3.5,12.2-13.7,9.2-23.2
			C348.2,147.2,339.2,142.3,331,145.7z"/>
		<path class="st3" d="M336.4,181.6c-2.1,0-4.2-0.5-6.1-1.3c-4.5-2.2-7.8-6.1-9.2-10.8c-3.2-10,1.1-20.8,9.7-24.4l0,0
			c3.8-1.6,8.1-1.6,11.8,0.2c4.6,2.2,8,6.2,9.4,11.1c3.1,9.8-1.1,20.4-9.7,24.2C340.4,181.2,338.4,181.6,336.4,181.6z M331.3,146.5
			c-7.7,3.3-11.7,13.3-8.8,22.4c1.3,4.3,4.3,7.9,8.4,9.9c3.4,1.6,7.3,1.6,10.7,0.1c7.6-3.3,11.6-13.3,8.8-22.2
			c-1.3-4.4-4.5-8-8.6-10C338.5,145.1,334.6,145,331.3,146.5L331.3,146.5z"/>
		<path class="st1" d="M327.5,160.2c-4.1,1.4-6.3,5.9-4.8,10c0,0.1,0.1,0.2,0.1,0.2c1.6,4.2,6.3,6.3,10.5,4.8c0,0,0,0,0,0
			c4-1.5,6.1-6.1,4.5-10.1c0,0,0-0.1-0.1-0.1c-1.3-4-5.6-6.3-9.6-5C327.9,160.1,327.7,160.1,327.5,160.2z"/>
		<path class="st2" d="M324.2,159.9c-1.4,0.5-2.2,2.1-1.7,3.5c0,0,0,0,0,0.1c0.6,1.5,2.2,2.2,3.7,1.7c1.4-0.5,2.1-2.1,1.6-3.5
			c0,0,0,0,0,0c-0.4-1.4-2-2.2-3.4-1.7C324.4,159.9,324.3,159.9,324.2,159.9z"/>
		<path class="st1" d="M348.2,142c0,0-4.7-7.2-11.7-7.7c-7.2-0.5-13.7,5-13.7,5c-0.2,0.8-0.7,1.7,0.8,2c1.7,0,7-6,13-5.2
			C342.4,137,348.2,142,348.2,142z"/>
		<path class="st2" d="M288.8,159.9c-1.4,0.5-2.2,2.1-1.7,3.5c0,0,0,0.1,0,0.1c0.6,1.5,2.2,2.2,3.6,1.7c0,0,0,0,0,0
			c1.4-0.5,2.1-2.1,1.6-3.5c0,0,0,0,0-0.1c-0.4-1.4-1.9-2.2-3.4-1.8C288.9,159.9,288.8,159.9,288.8,159.9z"/>
		<path class="st5" d="M290.8,205.4c0,0,11.4,10.2,21.3,0.8C312.2,206.2,301.8,221.7,290.8,205.4z"/>
		<path class="st3" d="M382.2,224.5c17.7,5,35.2-2.7,43.3-19.2c6.2-12.6-0.5-34.7-13.3-41c-4.1-2-6.7,4.6-2.7,6.6
			c9.8,4.8,13.2,22.6,9.4,31.7c-5.5,13.1-20.9,19.1-34.1,15.3C380.5,216.8,377.8,223.3,382.2,224.5L382.2,224.5z"/>
		<path class="st3" d="M406.2,163.3c-1.9,1.3-4.8,2.7-7,1.6c-1.7-0.9-3.9,0.3-4.6,2c-0.7,1.8,0.2,3.9,2,4.6c4.5,2.3,10.2,0.1,14-2.6
			C414.4,166.2,409.9,160.7,406.2,163.3L406.2,163.3z"/>
		<path class="st3" d="M409.6,154.3c0.3,1.5,0.7,3.2,0.2,4.7s-1.8,2.8-2.9,3.8c-1.4,1.4-1.9,3.3-0.6,5c1.1,1.4,3.6,2,5,0.6
			c2.1-2.1,4.1-4.1,5.2-6.8s0.7-5.7,0.2-8.4C415.7,148.8,408.7,149.8,409.6,154.3L409.6,154.3z"/>
		<path class="st3" d="M400.6,160c1.9,1.8,3.6,3.9,5,6.2c1.1,1.6,3.5,1.7,5,0.6c1.5-1.2,1.8-3.4,0.6-5c-1.7-2.8-3.9-5.3-6.3-7.5
			c-1.6-1.2-3.8-0.9-5,0.7C398.8,156.6,399.1,158.8,400.6,160z"/>
		<path class="st6" d="M383.5,321.8c3.2,0,3.2-5,0-5S380.3,321.8,383.5,321.8z"/>
		<path class="st6" d="M379.7,327.4c-3.6,11-17.8,8.5-26.3,6.6c-3.1-0.7-4.5,4.1-1.3,4.8c11.6,2.6,27.8,4,32.4-10.1
			C385.5,325.6,380.7,324.3,379.7,327.4L379.7,327.4z"/>
		<path class="st6" d="M366.9,133.4c10.8,0.2,13.9,8.5,13.5,18.1c-0.1,3.2,4.9,3.2,5,0c0.2-5.6-0.3-11.7-3.7-16.4
			c-3.5-4.9-9-6.6-14.8-6.7C363.7,128.4,363.7,133.4,366.9,133.4z"/>
		<path class="st6" d="M383.5,162.6c3.2,0,3.2-5,0-5S380.3,162.6,383.5,162.6z"/>
	</g>
</g>
</svg>
