<?xml version="1.0" encoding="utf-8"?>
<!-- Generator: Adobe Illustrator 27.8.0, SVG Export Plug-In . SVG Version: 6.00 Build 0)  -->
<svg version="1.1" id="ainmhite" xmlns="http://www.w3.org/2000/svg" xmlns:xlink="http://www.w3.org/1999/xlink" x="0px" y="0px"
	 viewBox="0 0 500 500" style="enable-background:new 0 0 500 500;" xml:space="preserve">
<style type="text/css">
	.st0{display:none;}
	.st1{display:inline;opacity:0.5;fill:#BDBEC0;enable-background:new    ;}
	.st2{display:inline;fill-rule:evenodd;clip-rule:evenodd;fill:#231F20;}
	.st3{display:inline;fill-rule:evenodd;clip-rule:evenodd;fill:#FFFFFF;}
	.st4{display:inline;fill:#00A199;}
	.st5{display:inline;fill:#31BDB5;}
	.st6{display:inline;fill:#231F20;}
	.st7{display:inline;fill:#4CC2BE;}
	.st8{opacity:0.5;fill:#BDBEC0;enable-background:new    ;}
	.st9{fill:#37AAD6;}
	.st10{fill:#4AC1F0;}
	.st11{fill-rule:evenodd;clip-rule:evenodd;fill:#231F20;}
	.st12{fill-rule:evenodd;clip-rule:evenodd;fill:#FFFFFF;}
	.st13{fill:#73D0F2;}
	.st14{fill:#466BB3;}
	.st15{fill:#4B70B7;}
	.st16{fill:#231F20;}
	.st17{fill:#6C9BD2;}
</style>
<g class="st0">
	<path class="st1" d="M227.5,371.8c0,4.4-35.1,7.9-78.5,7.9s-78.5-3.6-78.5-7.9c0-4.4,35.1-7.9,78.5-7.9S227.5,367.4,227.5,371.8z"
		/>
	<path class="st2" d="M63.6,141.3c0,0,5-7.2,12-7.7c7-0.5,13.5,5,13.5,5c0.5,0.7,1,1.7-0.5,1.7c-1.7,0.2-7-5.7-13-5
		C69.6,136.3,63.6,141.3,63.6,141.3z"/>
	<path class="st3" d="M80.5,145.5c8,3.5,12.2,14,9.2,23.4c-3,9.2-12,14-20.2,10.5c-8-3.2-12.2-13.7-9.2-23.2
		C63.3,147,72.3,142.3,80.5,145.5z"/>
	<path class="st4" d="M75.1,181.4c-2,0-4-0.4-5.9-1.2c-8.5-3.4-12.8-14.3-9.7-24.2c1.4-4.7,4.8-8.6,9.2-10.8
		c3.8-1.8,8.2-1.9,12.1-0.4l0,0c8.4,3.7,12.8,14.6,9.7,24.4c-1.4,4.7-4.8,8.7-9.2,10.8C79.3,180.9,77.3,181.3,75.1,181.4z
		 M75.2,145.3c-2,0-4,0.5-5.8,1.3c-4,2-7.1,5.6-8.3,9.9c-2.8,9,1.2,19.1,8.8,22.2c3.4,1.5,7.3,1.4,10.7-0.1c4.1-2,7.1-5.5,8.4-9.9
		c2.9-9-1.1-19.1-8.8-22.4C78.6,145.7,76.9,145.3,75.2,145.3L75.2,145.3z"/>
	<path class="st2" d="M83.3,161.5c4.1,1.5,6.2,6.1,4.7,10.2c0,0,0,0,0,0c-1.5,4.2-6.2,6.5-10.2,4.7c-4-1.3-6.2-5.6-5-9.6
		c0.1-0.2,0.1-0.4,0.2-0.6c1.4-4.1,5.9-6.2,10-4.8C83.1,161.4,83.2,161.4,83.3,161.5z"/>
	<path class="st4" d="M121.2,296.5c0,20.4-7.5,67.9-7.5,67.9c-2.9-1.5-7.8-2.8-11.4-2.2c-0.7,0.1-1.1,0.8-1,1.5
		c0.1,0.4,0.3,0.7,0.7,0.9l14,6.2c1.1,0.5,2.4,0.2,3.1-0.8l19.7-66.7C138.8,303.4,121.2,294.1,121.2,296.5z"/>
	<path class="st4" d="M180.1,296.5L180,366c3.2-0.7,8.2-0.7,11.6,0.8c0.6,0.3,0.9,1.1,0.6,1.7c-0.2,0.4-0.5,0.6-0.9,0.7l-15.2,2.5
		c-1.2,0.2-2.3-0.5-2.8-1.6l-2-69.5L180.1,296.5z"/>
	<path class="st4" d="M139.5,260.6c-12.1,28.6-52.3,7.9-68.1-9.3c-1.9-2.1,1.3-5,3.2-2.9c13.2,14.4,49.8,30.1,60.5,5
		c1.1-2.6,5.3-1.3,4.2,1.3L139.5,260.6z"/>
	<path class="st4" d="M81.5,230.2c3,3.6,4.2,7.8,2.9,12.3c-1.5,5.3-7.1,7.3-12,8.1c-2.8,0.4-3.7-3.8-0.9-4.3
		c3.5-0.5,7.2-1.4,8.7-5.1c1.1-2.8-0.2-5.9-2-8.1C76.5,231,79.7,228.1,81.5,230.2L81.5,230.2z"/>
	<path class="st4" d="M72.4,227.8c-3.4-2.4-9.7,2-10.2,5.7c-0.4,2.9,1.5,5.7,3.2,7.7c2.1,2.5,4.7,3.3,7.4,4.9c2.4,1.5,0,5.1-2.4,3.7
		c-1.9-1.2-3.9-1.8-5.7-3.3c-1.7-1.3-3.1-2.9-4.3-4.7c-2.2-3.1-3.4-7.2-2-10.9c2.2-5.7,10.8-10.7,16.4-6.8
		C77,225.8,74.6,229.5,72.4,227.8L72.4,227.8z"/>
	<path class="st4" d="M70.6,249.9c-4.5-2.3-8.8-4.7-13.4-6.8c-4.7-2.1-9.8-2.7-14.7-4.3c-2.7-0.8-1.4-5,1.3-4.2
		c4.9,1.5,9.9,2.3,14.7,4.3c5,2,9.6,4.8,14.4,7.2C75.5,247.4,73.1,251.1,70.6,249.9L70.6,249.9z"/>
	<path class="st4" d="M71.9,250.8c-6.7,1.2-14,0.7-20,4.4c-2.4,1.5-4.3-2.4-2-3.9c6.4-3.9,14-3.5,21.1-4.8
		C73.8,246.1,74.7,250.3,71.9,250.8L71.9,250.8z"/>
	<path class="st4" d="M73.4,250.7c-2.2,1.9-4.4,3.8-6.6,5.7c-1.8,1.5-4.2,3.2-4.7,5.6c-0.5,2.8-4.7,1.4-4.2-1.3
		c0.5-2.5,2.3-4.2,4.1-5.9c2.7-2.5,5.6-4.9,8.4-7.4C72.6,245.5,75.5,248.8,73.4,250.7L73.4,250.7z"/>
	<path class="st5" d="M161.3,122.5c11.1,3.3,18.8,13.4,18.9,25v170.1c0.1,3.8-0.1,7.7-0.5,11.5c-0.5,3.1-1.6,6.1-3.2,8.8
		c-3.1,6-11.8,9-26,9c-13.8,0-22.3-2.9-25.7-8.7c-1.6-2.8-2.7-5.9-3.2-9.2c-0.4-4-0.6-8.1-0.5-12.2V213.8l-4.3,4
		c-22.1,14.1-34,8.2-41,0.5c-7-7.8-12.9-28.4-1-39c0,0,40.7-39.7,54.7-52.5C138.6,118.4,151.2,119.5,161.3,122.5z"/>
	<path class="st3" d="M116.9,145.7c-8.2,3.5-12.2,14-9.2,23.4c3,9.2,12,14,20.2,10.5c8-3.5,12.2-13.7,9.2-23.2
		C134.1,147.2,125.1,142.3,116.9,145.7z"/>
	<path class="st4" d="M122.3,181.6c-2.1,0-4.2-0.5-6.1-1.3c-4.5-2.2-7.8-6.1-9.2-10.8c-3.2-10,1.1-20.8,9.7-24.4l0,0
		c3.8-1.6,8.1-1.6,11.8,0.2c4.6,2.2,8,6.2,9.4,11.1c3.1,9.8-1.1,20.4-9.7,24.2C126.4,181.2,124.4,181.6,122.3,181.6z M117.2,146.5
		c-7.7,3.3-11.7,13.3-8.8,22.4c1.3,4.3,4.3,7.9,8.4,9.9c3.4,1.6,7.3,1.6,10.7,0.1c7.6-3.3,11.6-13.3,8.8-22.2c-1.3-4.4-4.5-8-8.6-10
		C124.4,145.1,120.6,145,117.2,146.5L117.2,146.5z"/>
	<path class="st2" d="M113.5,160.2c-4.1,1.4-6.3,5.9-4.8,10c0,0.1,0.1,0.2,0.1,0.2c1.6,4.2,6.3,6.3,10.5,4.8c0,0,0,0,0,0
		c4-1.5,6.1-6.1,4.5-10.1c0,0,0-0.1-0.1-0.1c-1.3-4-5.6-6.3-9.6-5C113.9,160.1,113.7,160.1,113.5,160.2z"/>
	<path class="st3" d="M110.2,159.9c-1.4,0.5-2.2,2.1-1.7,3.5c0,0,0,0,0,0.1c0.6,1.5,2.2,2.2,3.7,1.7c1.4-0.5,2.1-2.1,1.6-3.5
		c0,0,0,0,0,0c-0.4-1.4-2-2.2-3.4-1.7C110.3,159.9,110.3,159.9,110.2,159.9z"/>
	<path class="st2" d="M134.1,142c0,0-4.7-7.2-11.7-7.7c-7.2-0.5-13.7,5-13.7,5c-0.2,0.8-0.7,1.7,0.8,2c1.7,0,7-6,13-5.2
		C128.4,137,134.1,142,134.1,142z"/>
	<path class="st3" d="M74.7,159.9c-1.4,0.5-2.2,2.1-1.7,3.5c0,0,0,0.1,0,0.1c0.5,1.5,2.2,2.2,3.6,1.7c0,0,0,0,0,0
		c1.4-0.5,2.1-2.1,1.6-3.5c0,0,0,0,0-0.1c-0.4-1.4-1.9-2.2-3.4-1.8C74.9,159.9,74.8,159.9,74.7,159.9z"/>
	<path class="st6" d="M76.8,205.4c0,0,11.4,10.2,21.3,0.8C98.1,206.2,87.8,221.7,76.8,205.4z"/>
	<path class="st4" d="M168.1,224.5c17.7,5,35.2-2.7,43.3-19.2c6.2-12.6-0.5-34.7-13.3-41c-4.1-2-6.7,4.6-2.7,6.6
		c9.8,4.8,13.2,22.6,9.4,31.7c-5.5,13.1-20.9,19.1-34.1,15.3C166.4,216.8,163.7,223.3,168.1,224.5L168.1,224.5z"/>
	<path class="st4" d="M192.2,163.3c-1.9,1.3-4.8,2.7-7,1.6c-1.7-0.9-3.9,0.3-4.6,2c-0.7,1.8,0.2,3.9,2,4.6c4.5,2.3,10.2,0.1,14-2.6
		C200.3,166.2,195.9,160.7,192.2,163.3L192.2,163.3z"/>
	<path class="st4" d="M195.6,154.3c0.3,1.5,0.7,3.2,0.2,4.7s-1.8,2.8-2.9,3.8c-1.4,1.4-1.9,3.3-0.6,5c1.1,1.4,3.6,2,5,0.6
		c2.1-2.1,4.1-4.1,5.2-6.8c1.1-2.7,0.7-5.7,0.2-8.4C201.7,148.8,194.7,149.8,195.6,154.3L195.6,154.3z"/>
	<path class="st4" d="M186.6,160c1.9,1.8,3.6,3.9,5,6.2c1.1,1.6,3.5,1.7,5,0.6c1.5-1.2,1.8-3.4,0.6-5c-1.7-2.8-3.9-5.3-6.3-7.5
		c-1.6-1.2-3.8-0.9-5,0.7C184.8,156.6,185.1,158.8,186.6,160z"/>
	<path class="st7" d="M169.4,321.8c3.2,0,3.2-5,0-5C166.2,316.8,166.2,321.8,169.4,321.8z"/>
	<path class="st7" d="M165.7,327.4c-3.6,11-17.8,8.5-26.3,6.6c-3.1-0.7-4.5,4.1-1.3,4.8c11.6,2.6,27.8,4,32.4-10.1
		C171.5,325.6,166.7,324.3,165.7,327.4L165.7,327.4z"/>
	<path class="st7" d="M152.9,133.4c10.8,0.2,13.9,8.5,13.5,18.1c-0.1,3.2,4.9,3.2,5,0c0.2-5.6-0.3-11.7-3.7-16.4
		c-3.5-4.9-9-6.6-14.8-6.7C149.7,128.4,149.7,133.4,152.9,133.4z"/>
	<path class="st7" d="M169.4,162.6c3.2,0,3.2-5,0-5C166.2,157.6,166.2,162.6,169.4,162.6z"/>
</g>
<g>
	<g>
		<path class="st8" d="M437.9,371.7c0,4.6-39.8,8.3-88.8,8.3s-88.8-3.7-88.8-8.3s39.7-8.3,88.8-8.3S437.9,367,437.9,371.7z"/>
		<path class="st9" d="M421,222.2c7.9,12.6,25,5.3,33.8-2.5c11.3-10,12-31.6,3.4-43.3c-2.3-3.1-7.5-0.1-5.2,3
			c7,9.5,6.2,23.6,0.1,33.3c-4.3,6.9-21,15.5-26.8,6.4C424.2,215.9,419,218.9,421,222.2L421,222.2z"/>
		<path class="st9" d="M457.3,178.7c3.3-2.7,5.7-6.1,6-10.4c0-1.7-1.3-3-3-3c-1.7,0-3,1.4-3,3c-0.2,2.6-2.4,4.6-4.2,6.2
			c-1.2,1.2-1.2,3.1,0,4.3C454.3,179.8,456.1,179.8,457.3,178.7L457.3,178.7z"/>
		<path class="st9" d="M452.9,174.6c-3.1,0.2-8.2-1.7-9.6-4.7c-1.6-3.5-6.8-0.5-5.2,3c2.2,4.8,9.7,7.9,14.8,7.7
			C456.8,180.4,456.8,174.4,452.9,174.6L452.9,174.6z"/>
		<path class="st9" d="M455.8,176.4c0-3.3-1-6.6-2.7-9.5c-1.9-3.4-7.1-0.3-5.2,3c1.2,1.9,1.9,4.1,1.9,6.4
			C449.8,180.3,455.8,180.3,455.8,176.4z"/>
		<path class="st9" d="M240.7,174.9c-6,11.8-9.3,24.7-3.4,37.2c5.1,10.9,16.1,20.5,28.7,19.8c3.8-0.2,3.8-6.1,0-5.9
			c-10.3,0.6-18-7.1-22.9-15.4c-6.1-10.5-2.6-22.7,2.6-32.8C247.4,174.4,242.4,171.5,240.7,174.9L240.7,174.9z"/>
		<path class="st9" d="M237.7,164.5c-1.2,4.9-0.4,9.6,3.1,13.4c2.6,2.8,6.7-1.4,4.1-4.1c-2-2.2-2.2-4.9-1.6-7.7
			C244.2,162.4,238.6,160.8,237.7,164.5L237.7,164.5z"/>
		<path class="st9" d="M243.6,179.3c6.5,0.5,12.2-1,16.3-6.3c2.3-3-2.8-5.9-5-3c-2.7,3.5-7.2,3.7-11.2,3.4
			C239.9,173.1,239.9,179,243.6,179.3L243.6,179.3z"/>
		<path class="st9" d="M247.3,175.8c1.1-3,2.7-6.3,5.8-7.5c3.5-1.3,2-7-1.5-5.6c-5.3,2-8.1,6.4-9.9,11.5
			C240.4,177.8,246,179.3,247.3,175.8L247.3,175.8z"/>
		<path class="st9" d="M313.4,303.8l-6.3,63.1c-2.9-1-7.4-1.4-10.6-0.3c-0.6,0.2-0.9,0.9-0.7,1.5c0.1,0.3,0.4,0.6,0.8,0.7l13.5,3.6
			c1.1,0.3,2.2-0.2,2.7-1.2l8.2-62.9L313.4,303.8z"/>
		<path class="st9" d="M387.5,303.8l6.3,63.1c2.9-1,7.4-1.4,10.6-0.3c0.6,0.2,0.9,0.9,0.7,1.5c-0.1,0.4-0.4,0.6-0.8,0.7l-13.5,3.6
			c-1.1,0.3-2.2-0.2-2.7-1.2l-8.2-62.9L387.5,303.8z"/>
		<path class="st10" d="M284.2,153.6c6.2-7.9,14.8-14.4,26-19.8c11.2-5.3,24.1-8,38.7-8c14.7,0,27.5,2.6,38.4,7.8
			c10.9,5.2,19.6,11.7,25.9,19.5c6.5,8.2,11.6,17.4,15.1,27.3c6.4,17.8,9.7,36.6,9.6,55.5c0,35.1-8.3,62.8-24.9,83.4
			c-6.2,7.7-14.7,14.1-25.7,19.2s-23.6,7.6-38.1,7.6c-14.4,0-27.3-2.6-38.4-7.7c-11.2-5.1-19.9-11.5-26.1-19
			c-6.6-8.1-11.8-17.2-15.5-27c-6.2-16.7-9.3-35.5-9.3-56.6c0-19.4,2.5-35.9,7.5-49.7C272.5,172.3,278.1,161.5,284.2,153.6z
			 M348.7,282.3c17.4,0,26.1-15.1,26.1-45.2v-1.4c0-30.9-8.6-46.4-25.8-46.4c-17.2,0-25.8,15.5-25.8,46.5
			C323.1,266.8,331.7,282.3,348.7,282.3L348.7,282.3z"/>
		<path class="st11" d="M305.1,129.2c0,0,5.9-8.5,14.1-9.1s15.9,5.9,15.9,5.9c0.6,0.8,1.2,2.1-0.6,2.1c-2.1,0.3-8.2-6.7-15.3-5.9
			C312.2,123.3,305.1,129.2,305.1,129.2z"/>
		<path class="st12" d="M328.6,138.7c9.4,4.1,14.4,16.5,10.9,27.7c-3.5,10.9-14.1,16.5-23.8,12.4c-9.4-3.8-14.4-16.2-10.9-27.4
			C308.3,140.5,318.9,134.9,328.6,138.7z"/>
		<path class="st9" d="M322.2,181.2c-2.4,0-4.8-0.5-7-1.4c-10-4.1-15.1-16.9-11.5-28.6c1.7-5.6,5.6-10.2,10.9-12.8
			c4.5-2.1,9.7-2.3,14.3-0.5l0,0c10,4.4,15.1,17.3,11.5,28.9c-1.7,5.6-5.7,10.3-10.9,12.8C327.2,180.6,324.7,181.1,322.2,181.2z
			 M322.4,138.6c-2.4,0-4.7,0.5-6.8,1.5c-4.7,2.3-8.3,6.5-9.8,11.6c-3.3,10.5,1.4,22.5,10.3,26.1c4,1.7,8.6,1.7,12.6-0.1
			c4.8-2.3,8.3-6.5,9.9-11.6c3.4-10.6-1.3-22.4-10.3-26.4C326.4,138.9,324.4,138.6,322.4,138.6L322.4,138.6z"/>
		<path class="st11" d="M331.7,156.6c4.9,1.8,7.4,7.1,5.6,12c0,0,0,0,0,0.1c-1.8,5-7.4,7.6-12.1,5.6c-4.8-1.5-7.4-6.6-5.8-11.4
			c0.1-0.2,0.2-0.5,0.3-0.7c1.7-4.8,7-7.4,11.8-5.7C331.5,156.5,331.6,156.6,331.7,156.6z"/>
		<path class="st12" d="M322.8,156.3c1.6,0.6,2.4,2.3,1.9,3.9c0,0,0,0,0,0c-0.5,1.6-2.2,2.4-3.8,1.9c-0.1,0-0.1,0-0.2-0.1
			c-1.6-0.5-2.4-2.2-1.9-3.7c0-0.1,0.1-0.2,0.1-0.2C319.4,156.6,321.1,155.7,322.8,156.3C322.7,156.3,322.7,156.3,322.8,156.3z"/>
		<path class="st11" d="M393.1,129.2c0,0-5.6-8.5-13.8-9.1c-8.5-0.6-16.2,5.9-16.2,5.9c-0.3,0.8-0.8,2.1,0.8,2.3
			c2.1,0,8.2-7.1,15.3-6.2C386.3,123.3,393.1,129.2,393.1,129.2z"/>
		<path class="st12" d="M370.4,139c-9.7,4.1-14.4,16.5-10.9,27.7c3.5,10.9,14.1,16.5,23.8,12.4c9.4-4.1,14.4-16.2,10.9-27.4
			C390.7,140.8,380.2,134.9,370.4,139z"/>
		<path class="st9" d="M376.8,181.4c-2.5,0-5-0.5-7.3-1.6c-5.3-2.6-9.2-7.2-10.9-12.8c-3.8-11.9,1.3-24.6,11.5-28.9
			c4.5-1.9,9.6-1.9,14,0.2c5.4,2.6,9.4,7.4,11.2,13.1c3.7,11.6-1.4,24.2-11.5,28.6C381.6,180.9,379.2,181.4,376.8,181.4z
			 M376.8,138.8c-2.1,0-4.1,0.4-6,1.2c-9.1,3.8-13.7,15.7-10.3,26.4c1.5,5.1,5.1,9.3,9.9,11.6c4,1.8,8.6,1.9,12.6,0.1
			c9-3.9,13.6-15.6,10.3-26.1c-1.6-5.2-5.2-9.5-10.1-11.8C381.2,139.2,379,138.8,376.8,138.8z"/>
		<path class="st11" d="M367.3,156.7c-4.8,1.7-7.4,7-5.7,11.8c0,0.1,0.1,0.2,0.1,0.3c1.9,5,7.4,7.5,12.3,5.6c0,0,0,0,0,0
			c4.7-1.8,7.4-7.4,5.3-12.1c-1.5-4.8-6.6-7.4-11.4-5.8C367.8,156.5,367.6,156.6,367.3,156.7z"/>
		<path class="st12" d="M378.4,156.3c1.6,0.6,2.4,2.4,1.8,4c0,0,0,0,0,0c-0.5,1.6-2.2,2.4-3.8,1.9c-0.1,0-0.1,0-0.2-0.1
			c-1.6-0.5-2.4-2.2-1.9-3.7c0-0.1,0.1-0.2,0.1-0.2C375,156.6,376.7,155.7,378.4,156.3C378.4,156.3,378.4,156.3,378.4,156.3z"/>
		<path class="st13" d="M420.2,268.6c-2.9,21-15.6,39.4-34.2,49.6c-3,1.6-0.3,6.2,2.7,4.5c20.2-11.1,33.9-31.3,36.8-54.1
			C425.9,265.2,420.6,265.2,420.2,268.6z"/>
		<path class="st13" d="M376.3,327c3.4,0,3.4-5.3,0-5.3S372.9,327,376.3,327z"/>
		<path class="st13" d="M276,240c0-22,0.7-47.2,14.8-65.3c2.1-2.6-1.7-6.4-3.7-3.7c-15.1,19.4-16.3,45.4-16.3,69
			C270.7,243.4,276,243.4,276,240L276,240z"/>
		<path class="st13" d="M297.4,167.5c3.4,0,3.4-5.3,0-5.3S294.1,167.5,297.4,167.5z"/>
	</g>
	<g>
		<path class="st8" d="M202.9,371.6c0,4.6-37,8.4-82.6,8.4s-82.6-3.7-82.6-8.4c0-4.6,37-8.4,82.6-8.4S202.9,367,202.9,371.6z"/>
		<path class="st14" d="M154,253.7c-1.2,18.5,21.5,23.6,35.9,22.2c18.7-1.8,35.2-23.2,35-41.4c0-4.8-7.5-5.6-7.5-0.7
			c0.1,14.7-11,28.4-24.2,33.7c-9.4,3.8-32.7,0.3-31.8-13.1C161.8,249.6,154.3,248.8,154,253.7L154,253.7z"/>
		<path class="st14" d="M222.5,236.2c5.3-0.4,10.2-2,13.7-6.1c1.3-1.6,0.7-4.1-0.8-5.2c-1.7-1.2-4-0.8-5.2,0.8
			c-2.1,2.5-5.7,2.9-8.8,3.1c-2,0.1-3.4,2.4-3.1,4.3C218.5,235.2,220.4,236.5,222.5,236.2L222.5,236.2z"/>
		<path class="st14" d="M221,228.9c-3.3-2.1-7.1-7.6-6.3-11.7c0.9-4.7-6.6-5.4-7.5-0.7c-1.3,6.5,4.1,15.1,9.4,18.5
			C220.7,237.6,225.1,231.5,221,228.9L221,228.9z"/>
		<path class="st14" d="M222.6,232.8c2.4-3.4,3.8-7.4,4.1-11.5c0.5-4.8-6.9-5.5-7.5-0.7c-0.2,2.8-1.1,5.5-2.8,7.9
			C213.6,232.3,219.7,236.7,222.6,232.8L222.6,232.8z"/>
		<path class="st14" d="M147.4,241.2c14.8,4,12.7,23,7.7,33.9c-6.4,14.1-27.4,21.2-41.5,16.3c-3.7-1.3-2.3-7.3,1.4-6
			c11.4,4,25-1,32.7-9.9c5.5-6.3,8.9-25.4-1.8-28.2C142.1,246.2,143.5,240.1,147.4,241.2L147.4,241.2z"/>
		<path class="st14" d="M115.6,289.9c-1.7,4-4.3,7.4-8.4,9c-1.6,0.5-3.4-0.4-3.9-2c-0.5-1.6,0.4-3.3,2-3.9c2.5-1,3.8-3.7,4.8-6
			c0.7-1.6,2.8-2,4.2-1.3C115.9,286.6,116.5,288.4,115.6,289.9L115.6,289.9z"/>
		<path class="st14" d="M110.3,286.8c-0.8-3.1-4.1-7.5-7.5-8c-4-0.5-2.5-6.5,1.4-6c5.4,0.7,10.7,7.2,12,12.2
			C117.2,288.9,111.3,290.7,110.3,286.8L110.3,286.8z"/>
		<path class="st14" d="M112.9,289.1c-3.3,1-6.8,1-10.1,0.2c-3.9-0.8-2.5-6.9,1.4-6c2.2,0.6,4.6,0.6,6.9-0.1
			C114.9,282,116.8,287.9,112.9,289.1L112.9,289.1z"/>
		<path class="st15" d="M83.4,120l51.1,0.3H166c3.9-0.1,7.8,0.1,11.7,0.5c3.1,0.6,6,1.6,8.7,3.2c6,3.1,9.1,12.1,9.1,26.8
			c0,13.4-2.8,21.6-8.4,24.5c-2.5,1.6-5.3,2.6-8.2,3.2c-3.6,0.4-7.3,0.6-10.9,0.5h-58.8c-0.5,2.7-1.6,11.2-3.4,25.5
			c3.9-0.5,7.8-0.8,11.7-0.7c21.3,0,40.4,8,57.4,24s25.5,35.6,25.5,58.8c0,23.2-8.1,43.1-24.2,59.8c-16.1,16.7-36.2,25-60.1,25
			c-20.8,0-39.6-5.3-56.4-15.8c-3-1.8-5.8-4-8.4-6.4l-2.7-2.4C40.3,339.7,36,333,36,326.9c0-6,4.1-13.3,12.4-21.8
			c6.7-7.4,13.2-11.1,19.5-11.1s13.8,3.6,22.5,10.7c4,4.7,11,7.1,21,7.1c10,0,17.4-2.1,22.2-6.4c4.8-4.3,7.2-10.1,7.2-17.6
			c0-7.5-2.6-13.4-7.9-17.8c-5-4.3-11.4-6.6-18-6.6c-6.7,0-12.1,2-16.1,6c-6,5.1-12.1,7.7-18.3,7.7c-6.2,0-13.2-2.1-21.2-6.4
			c-8-4.3-13.2-7.7-15.6-10.2c-2.5-2.6-3.7-5.3-3.7-8.2c0-2.9,2.2-20.9,6.7-54.1c4.5-33.2,6.8-50.4,7.1-51.7
			c0.6-2.4,1.4-4.8,2.3-7.1c1.3-3.2,2.9-6.2,4.9-9.1c1.9-2.7,4.8-5.1,8.7-7.2C74,121,78.6,119.9,83.4,120z"/>
		<path class="st12" d="M171.2,207.3c-7.8,4.6-10.6,16.1-6.2,25.2c4.6,9.2,14.7,12.6,22.5,8c7.8-4.8,10.6-16.3,6-25.5
			C189.1,206,179,202.5,171.2,207.3z"/>
		<path class="st14" d="M180.1,243.5c-1.5,0-3.1-0.2-4.5-0.7c-5-1.6-9.1-5.1-11.3-9.9c-4.6-9.7-1.7-21.5,6.5-26.3
			c3.7-2.3,8.2-2.9,12.4-1.7c4.9,1.6,8.9,5.1,11,9.8c4.8,9.5,2,21.5-6.3,26.5C185.6,242.7,182.9,243.5,180.1,243.5z M178.8,206
			c-2.5,0-5,0.7-7.1,2l0,0c-7.3,4.3-10.1,15.4-5.9,24.2c2,4.3,5.8,7.6,10.3,9c3.7,1.1,7.7,0.7,11-1.3c7.5-4.6,10.1-15.6,5.6-24.4
			c-1.9-4.3-5.6-7.5-10-8.9C181.4,206.2,180.1,206,178.8,206z"/>
		<path class="st11" d="M183.2,214.9c-3.8,1.9-5.4,6.6-3.4,10.5c0,0.1,0.1,0.2,0.1,0.3c2.2,4,7,5.5,10.7,3.3c3.9-2.2,5.3-7,3.3-11
			C191.7,214.2,186.9,212.7,183.2,214.9z"/>
		<path class="st11" d="M188.4,200.7c0,0-6-6.7-13.3-6c-7.3,0.5-13.3,6.9-13.3,6.9c-0.5,0.9-0.5,2.1,0.9,2.1
			c1.8-0.2,6.4-7.3,12.6-7.3C181.8,196.3,188.4,200.7,188.4,200.7z"/>
		<path class="st11" d="M129.2,208.8c0,0,4.8-9.2,12.9-11.1c8.2-1.9,16.9,3.4,16.9,3.4c0.5,1.1,1.1,2.1-0.5,2.4
			c-2.1,0.5-9.2-5.8-16.1-3.7C135.3,201.9,129.2,208.8,129.2,208.8z"/>
		<path class="st12" d="M150.1,211.2c10.1,2.6,16.9,14.3,14.8,25.9c-1.8,11.6-11.6,19-21.9,16.1c-10.3-2.6-16.9-14.3-15.1-25.9
			C130,215.7,139.8,208.5,150.1,211.2z"/>
		<path class="st14" d="M147.4,254.6c-1.6,0-3.2-0.2-4.7-0.7c-10.6-2.7-17.6-14.7-15.7-26.8c1.1-6.2,4.5-11.5,9.3-14.6
			c4.1-2.7,9.2-3.5,14-2.2l0,0c10.7,2.8,17.6,14.9,15.4,26.8c-1,6.3-4.3,11.7-9.2,14.7C153.8,253.7,150.7,254.6,147.4,254.6z
			 M145.8,211.4c-3,0-6,0.9-8.6,2.5c-4.6,3.1-7.6,8-8.5,13.4c-1.8,11.2,4.7,22.4,14.4,24.9c4.2,1.2,8.8,0.6,12.5-1.8
			c4.4-2.8,7.5-7.8,8.4-13.6c2-11-4.5-22.4-14.2-25C148.5,211.6,147.2,211.4,145.8,211.4L145.8,211.4z"/>
		<path class="st11" d="M157.7,220.8c4.5,1,7.2,5.5,6.2,9.9c0,0,0,0.1,0,0.1c-1.1,4.4-5.6,7.1-10,5.9c-4.4-1.1-7.1-5.6-5.9-10
			C149,222.5,153.3,219.8,157.7,220.8z"/>
		<path class="st12" d="M151.6,221.5c1.9,0.4,3.1,2.2,2.7,4c-0.4,1.9-2.2,3.1-4,2.7c-1.9-0.4-3.1-2.2-2.7-4c0,0,0-0.1,0-0.1
			C148,222.3,149.7,221.1,151.6,221.5z"/>
		<path class="st12" d="M182.6,214.8c1.9,0.4,3.1,2.2,2.7,4c-0.4,1.9-2.2,3.1-4,2.7c-1.9-0.4-3.1-2.2-2.7-4c0,0,0-0.1,0-0.1
			C179,215.6,180.8,214.4,182.6,214.8z"/>
		<path class="st16" d="M190.1,268.6c-0.4,3.9-2.1,7.5-6.2,8.6c-7.4,2.1-13.6-4.9-15.2-11.2c-2.1-8.3,10.2-5.6,15-8.7
			c0.8-0.6,1.7-1,2.7-1.1c1.6,0.1,2.4,1.8,2.9,3.4C190,262.5,190.3,265.5,190.1,268.6z"/>
		<path class="st17" d="M171.2,132.3c3.4,0,3.4-5.2,0-5.2S167.8,132.3,171.2,132.3z"/>
		<path class="st17" d="M184.4,306.1c-2.7,10.4-8.5,19.7-16.7,26.6c-2.6,2.2,1.1,5.9,3.7,3.7c8.9-7.5,15.2-17.6,18.1-28.9
			C190.3,304.2,185.2,302.8,184.4,306.1L184.4,306.1z"/>
		<path class="st17" d="M189.4,299.1c3.4,0,3.4-5.2,0-5.2C186.1,293.8,186.1,299.1,189.4,299.1z"/>
		<path class="st17" d="M51.6,313.2c-7.3,3.7-10.2,12.6-6.4,19.9c1.5,3,4,5.3,7,6.7c3,1.4,5.7-3.1,2.6-4.5
			c-7.7-3.6-8.2-13.5-0.6-17.6C57.2,316.1,54.6,311.6,51.6,313.2L51.6,313.2z"/>
		<path class="st17" d="M48.2,239.7c-0.9,4-2.4,10.6,0.3,14.2c1.2,1.6,3.2,2.4,4.9,3.3l8.4,4.6c3,1.6,5.6-2.9,2.6-4.5
			c-3.4-1.8-6.8-3.7-10.1-5.5c-3.4-1.9-1.7-7.4-1-10.5C54.1,237.8,49,236.4,48.2,239.7L48.2,239.7z"/>
		<path class="st17" d="M180.8,133.9c5,0.4,3.5,11.5,3.5,15.1c0,4.4-0.1,8.8-0.3,13.1c-0.2,3.4,5,3.4,5.2,0
			c0.4-6.3,0.4-12.6,0.3-18.9s-1-13.9-8.8-14.6C177.5,128.4,177.5,133.6,180.8,133.9z"/>
	</g>
</g>
</svg>
