<?xml version="1.0" encoding="utf-8"?>
<!-- Generator: Adobe Illustrator 27.8.0, SVG Export Plug-In . SVG Version: 6.00 Build 0)  -->
<svg version="1.1" id="ainmhite" xmlns="http://www.w3.org/2000/svg" xmlns:xlink="http://www.w3.org/1999/xlink" x="0px" y="0px"
	 viewBox="0 0 500 500" style="enable-background:new 0 0 500 500;" xml:space="preserve">
<style type="text/css">
	.st0{opacity:0.5;fill:#BDBEC0;enable-background:new    ;}
	.st1{fill-rule:evenodd;clip-rule:evenodd;fill:#231F20;}
	.st2{fill-rule:evenodd;clip-rule:evenodd;fill:#FFFFFF;}
	.st3{fill:#00A199;}
	.st4{fill:#31BDB5;}
	.st5{fill:#231F20;}
	.st6{fill:#4CC2BE;}
	.st7{fill:#37AAD6;}
	.st8{fill:#4AC1F0;}
	.st9{fill:#73D0F2;}
</style>
<g>
	<g>
		<path class="st0" d="M148,344.2c0,3.4-27.1,6.1-60.5,6.1S27,347.5,27,344.2s27.1-6.1,60.5-6.1S148,340.8,148,344.2z"/>
		<path class="st1" d="M21.7,166.4c0,0,3.8-5.6,9.2-6c5.4-0.4,10.4,3.8,10.4,3.8c0.4,0.6,0.8,1.3-0.4,1.3c-1.3,0.2-5.4-4.4-10-3.8
			C26.3,162.6,21.7,166.4,21.7,166.4z"/>
		<path class="st2" d="M34.7,169.7c6.2,2.7,9.4,10.8,7.1,18.1c-2.3,7.1-9.2,10.8-15.6,8.1c-6.2-2.5-9.4-10.6-7.1-17.9
			C21.5,170.9,28.4,167.2,34.7,169.7z"/>
		<path class="st3" d="M30.6,197.4c-1.6,0-3.1-0.3-4.5-0.9c-6.5-2.6-9.9-11-7.5-18.6c1.1-3.6,3.7-6.7,7.1-8.4
			c2.9-1.4,6.3-1.5,9.3-0.3l0,0c6.5,2.8,9.8,11.3,7.5,18.8c-1.1,3.7-3.7,6.7-7.1,8.3C33.8,197,32.2,197.3,30.6,197.4z M30.6,169.6
			c-1.5,0-3.1,0.3-4.5,1c-3.1,1.5-5.4,4.3-6.4,7.6c-2.2,6.9,0.9,14.7,6.8,17.1c2.6,1.1,5.7,1.1,8.3-0.1c3.1-1.5,5.5-4.3,6.5-7.6
			c2.2-6.9-0.8-14.7-6.8-17.3C33.3,169.8,32,169.6,30.6,169.6L30.6,169.6z"/>
		<path class="st1" d="M36.9,182c3.2,1.2,4.8,4.7,3.7,7.8c0,0,0,0,0,0c-1.1,3.3-4.8,5-7.9,3.6c-3.1-1-4.8-4.3-3.8-7.4
			c0-0.2,0.1-0.3,0.2-0.5c1.1-3.2,4.6-4.8,7.7-3.7C36.7,182,36.8,182,36.9,182z"/>
		<path class="st3" d="M66.1,286.2c0,15.7-5.8,52.3-5.8,52.3c-2.3-1.2-6-2.1-8.8-1.7c-0.5,0.1-0.9,0.6-0.8,1.2
			c0.1,0.3,0.3,0.6,0.5,0.7l10.8,4.8c0.8,0.4,1.8,0.1,2.4-0.6l15.2-51.4C79.7,291.4,66.1,284.3,66.1,286.2z"/>
		<path class="st3" d="M111.5,286.2l-0.1,53.6c2.5-0.6,6.3-0.5,8.9,0.6c0.5,0.2,0.7,0.8,0.5,1.3c-0.1,0.3-0.4,0.5-0.7,0.5l-11.7,1.9
			c-0.9,0.1-1.8-0.4-2.1-1.2l-1.6-53.6L111.5,286.2z"/>
		<path class="st3" d="M80.2,258.5c-9.4,22-40.3,6.1-52.5-7.1c-1.5-1.6,1-3.8,2.5-2.3c10.2,11.1,38.4,23.2,46.6,3.9
			c0.8-2,4.1-1,3.2,1L80.2,258.5z"/>
		<path class="st3" d="M35.5,235c2.3,2.7,3.2,6,2.3,9.5c-1.1,4.1-5.5,5.6-9.2,6.2c-2.1,0.3-2.8-3-0.7-3.3c2.7-0.4,5.6-1.1,6.7-3.9
			c0.9-2.2-0.2-4.6-1.6-6.2C31.6,235.6,34.1,233.4,35.5,235L35.5,235z"/>
		<path class="st3" d="M28.4,233.2c-2.7-1.9-7.5,1.5-7.9,4.4c-0.3,2.2,1.1,4.4,2.5,6c1.6,1.9,3.6,2.5,5.7,3.8c1.9,1.1,0,4-1.8,2.8
			c-1.5-0.9-3-1.4-4.4-2.5c-1.3-1-2.4-2.3-3.3-3.6c-1.7-2.4-2.6-5.6-1.5-8.4c1.7-4.4,8.3-8.3,12.6-5.3
			C32,231.6,30.2,234.4,28.4,233.2L28.4,233.2z"/>
		<path class="st3" d="M27.1,250.2c-3.4-1.7-6.8-3.7-10.3-5.2c-3.7-1.6-7.6-2.1-11.4-3.3c-2.1-0.6-1-3.8,1-3.2
			c3.8,1.2,7.7,1.8,11.4,3.3c3.8,1.6,7.4,3.7,11.1,5.6C30.8,248.3,29,251.1,27.1,250.2L27.1,250.2z"/>
		<path class="st3" d="M28.1,250.9c-5.2,0.9-10.8,0.5-15.4,3.4c-1.9,1.1-3.3-1.9-1.5-3c4.9-3,10.8-2.7,16.3-3.7
			C29.6,247.2,30.3,250.5,28.1,250.9L28.1,250.9z"/>
		<path class="st3" d="M29.2,250.8c-1.7,1.5-3.4,2.9-5.1,4.4c-1.4,1.2-3.3,2.5-3.6,4.3c-0.4,2.1-3.6,1.1-3.2-1
			c0.4-1.9,1.8-3.2,3.2-4.5c2.1-2,4.3-3.8,6.5-5.7C28.6,246.8,30.9,249.3,29.2,250.8L29.2,250.8z"/>
		<path class="st4" d="M97,152c8.6,2.5,14.5,10.4,14.5,19.3v131.1c0,3-0.1,5.9-0.4,8.9c-0.4,2.4-1.3,4.7-2.5,6.8
			c-2.4,4.6-9.1,6.9-20,6.9c-10.6,0-17.2-2.2-19.8-6.7c-1.3-2.2-2.1-4.6-2.5-7.1c-0.3-3.1-0.4-6.3-0.4-9.4v-79.5l-3.3,3.1
			c-17.1,10.9-26.2,6.4-31.6,0.4s-9.9-21.9-0.8-30c0,0,31.4-30.6,42.2-40.5C79.5,148.8,89.2,149.7,97,152z"/>
		<path class="st2" d="M62.8,169.9c-6.3,2.7-9.4,10.8-7.1,18.1c2.3,7.1,9.2,10.8,15.6,8.1c6.2-2.7,9.4-10.6,7.1-17.9
			C76,171.1,69.1,167.2,62.8,169.9z"/>
		<path class="st3" d="M67,197.5c-1.6,0-3.2-0.4-4.7-1c-3.4-1.7-6-4.7-7.1-8.3c-2.5-7.7,0.8-16,7.5-18.8l0,0
			c2.9-1.3,6.2-1.2,9.1,0.1c3.5,1.7,6.2,4.8,7.3,8.5c2.4,7.6-0.9,15.8-7.5,18.6C70.1,197.2,68.5,197.5,67,197.5z M63,170.5
			c-6,2.5-9,10.3-6.8,17.3c1,3.3,3.4,6.1,6.5,7.6c2.6,1.2,5.6,1.2,8.3,0.1c5.9-2.6,8.9-10.3,6.8-17.1c-1-3.4-3.4-6.2-6.6-7.7
			C68.6,169.4,65.6,169.3,63,170.5L63,170.5z"/>
		<path class="st1" d="M60.1,181c-3.2,1.1-4.8,4.6-3.7,7.7c0,0.1,0,0.1,0.1,0.2c1.2,3.2,4.8,4.9,8.1,3.7c0,0,0,0,0,0
			c3.1-1.2,4.7-4.7,3.5-7.8c0,0,0-0.1,0-0.1c-1-3.1-4.3-4.8-7.4-3.8C60.4,180.9,60.3,181,60.1,181z"/>
		<path class="st2" d="M57.6,180.8c-1.1,0.4-1.7,1.6-1.3,2.7c0,0,0,0,0,0.1c0.4,1.1,1.7,1.7,2.8,1.3c1.1-0.4,1.6-1.6,1.2-2.7
			c0,0,0,0,0,0c-0.3-1.1-1.5-1.7-2.6-1.3C57.7,180.8,57.7,180.8,57.6,180.8z"/>
		<path class="st1" d="M76,167c0,0-3.7-5.6-9-6c-5.6-0.4-10.6,3.8-10.6,3.8c-0.2,0.6-0.6,1.3,0.6,1.5c1.3,0,5.4-4.6,10-4
			C71.6,163.2,76,167,76,167z"/>
		<path class="st2" d="M30.2,180.8c-1.1,0.4-1.7,1.6-1.3,2.7c0,0,0,0,0,0.1c0.4,1.1,1.7,1.7,2.8,1.3c0,0,0,0,0,0
			c1.1-0.4,1.7-1.6,1.3-2.7c0,0,0,0,0-0.1c-0.3-1.1-1.5-1.7-2.6-1.3C30.4,180.8,30.3,180.8,30.2,180.8z"/>
		<path class="st5" d="M31.8,215.9c0,0,8.8,7.8,16.5,0.6C48.3,216.5,40.3,228.4,31.8,215.9z"/>
		<path class="st3" d="M102.3,230.6c13.7,3.8,27.1-2,33.4-14.8c4.7-9.7-0.4-26.8-10.3-31.6c-3.2-1.5-5.2,3.5-2,5.1
			c7.5,3.7,10.2,17.4,7.2,24.5c-4.2,10.1-16.1,14.7-26.3,11.8C101,224.7,98.9,229.7,102.3,230.6L102.3,230.6z"/>
		<path class="st3" d="M120.8,183.4c-1.5,1-3.7,2.1-5.4,1.2c-1.3-0.7-3,0.2-3.6,1.5c-0.5,1.4,0.1,3,1.5,3.6c3.5,1.8,7.8,0.1,10.8-2
			C127.1,185.7,123.7,181.4,120.8,183.4L120.8,183.4z"/>
		<path class="st3" d="M123.4,176.5c0.2,1.2,0.6,2.5,0.2,3.6c-0.4,1.2-1.4,2.1-2.3,3c-1.1,1-1.5,2.5-0.5,3.8
			c0.8,1.1,2.8,1.5,3.8,0.5c1.6-1.6,3.1-3.1,4-5.2c0.9-2.1,0.6-4.4,0.2-6.5C128.2,172.2,122.7,173,123.4,176.5L123.4,176.5z"/>
		<path class="st3" d="M116.5,180.9c1.5,1.4,2.8,3,3.8,4.8c0.8,1.2,2.7,1.3,3.8,0.5c1.2-0.9,1.4-2.6,0.5-3.8c-1.3-2.1-3-4.1-4.8-5.8
			c-1.2-0.9-2.9-0.7-3.8,0.5C115.1,178.3,115.3,180,116.5,180.9z"/>
		<path class="st6" d="M103.3,305.7c2.5,0,2.5-3.9,0-3.9C100.8,301.8,100.8,305.7,103.3,305.7z"/>
		<path class="st6" d="M100.4,310c-2.8,8.5-13.7,6.5-20.3,5.1c-2.4-0.5-3.5,3.2-1,3.7c8.9,2,21.5,3.1,25-7.8
			C104.9,308.6,101.1,307.6,100.4,310L100.4,310z"/>
		<path class="st6" d="M90.5,160.4c8.4,0.2,10.7,6.6,10.4,14c-0.1,2.5,3.8,2.5,3.9,0c0.2-4.3-0.3-9-2.9-12.7
			c-2.7-3.7-7-5.1-11.4-5.2C88,156.5,88,160.4,90.5,160.4z"/>
		<path class="st6" d="M103.3,182.9c2.5,0,2.5-3.9,0-3.9C100.8,179,100.8,182.9,103.3,182.9z"/>
	</g>
	<g>
		<path class="st0" d="M475.6,343.3c0,3.5-30.6,6.4-68.3,6.4s-68.3-2.9-68.3-6.4c0-3.5,30.6-6.4,68.3-6.4S475.6,339.8,475.6,343.3z"
			/>
		<path class="st7" d="M462.7,228.3c6.1,9.7,19.3,4,26-1.9c8.7-7.7,9.2-24.3,2.6-33.3c-1.7-2.4-5.8-0.1-4,2.3
			c5.4,7.3,4.8,18.1,0.1,25.6c-3.3,5.3-16.2,12-20.6,4.9C465.1,223.5,461.1,225.8,462.7,228.3L462.7,228.3z"/>
		<path class="st7" d="M490.6,194.9c2.5-2.1,4.4-4.7,4.6-8c0-1.3-1-2.3-2.3-2.3c-1.3,0-2.3,1-2.3,2.3c-0.2,2-1.8,3.5-3.2,4.7
			c-0.9,0.9-0.9,2.4,0,3.3C488.3,195.7,489.7,195.7,490.6,194.9L490.6,194.9z"/>
		<path class="st7" d="M487.2,191.7c-2.4,0.1-6.3-1.3-7.4-3.6c-1.2-2.7-5.2-0.4-4,2.3c1.7,3.7,7.5,6.1,11.4,5.9
			C490.2,196.2,490.2,191.6,487.2,191.7L487.2,191.7z"/>
		<path class="st7" d="M489.4,193.1c0-2.6-0.8-5.1-2.1-7.3c-1.5-2.6-5.5-0.3-4,2.3c0.9,1.5,1.4,3.2,1.5,4.9
			C484.8,196.1,489.4,196.1,489.4,193.1z"/>
		<path class="st7" d="M323.9,191.9c-4.6,9.1-7.1,19-2.6,28.6c3.9,8.4,12.4,15.8,22.1,15.2c2.9-0.2,2.9-4.7,0-4.5
			c-7.9,0.4-13.9-5.4-17.6-11.9c-4.7-8.1-2-17.5,2-25.2C329.1,191.6,325.2,189.3,323.9,191.9L323.9,191.9z"/>
		<path class="st7" d="M321.7,183.9c-0.9,3.8-0.3,7.4,2.4,10.3c2,2.1,5.2-1.1,3.2-3.2c-1.6-1.7-1.7-3.8-1.2-5.9
			C326.7,182.3,322.4,181.1,321.7,183.9L321.7,183.9z"/>
		<path class="st7" d="M326.2,195.3c5,0.4,9.4-0.8,12.5-4.8c1.8-2.3-2.1-4.5-3.9-2.3c-2.1,2.7-5.5,2.8-8.6,2.6
			C323.3,190.6,323.3,195.1,326.2,195.3L326.2,195.3z"/>
		<path class="st7" d="M329.1,192.6c0.8-2.3,2.1-4.8,4.5-5.7c2.7-1,1.5-5.4-1.2-4.3c-4.1,1.5-6.2,4.9-7.6,8.9
			C323.7,194.2,328.1,195.3,329.1,192.6L329.1,192.6z"/>
		<path class="st7" d="M379.9,291.1l-4.8,48.6c-2.2-0.7-5.7-1.1-8.1-0.3c-0.5,0.2-0.7,0.7-0.5,1.2c0.1,0.3,0.3,0.5,0.6,0.5l10.4,2.8
			c0.8,0.2,1.7-0.2,2.1-0.9l6.3-48.4L379.9,291.1z"/>
		<path class="st7" d="M436.9,291.1l4.8,48.6c2.2-0.7,5.7-1.1,8.1-0.3c0.5,0.2,0.7,0.7,0.5,1.1c-0.1,0.3-0.3,0.5-0.6,0.6l-10.4,2.8
			c-0.8,0.2-1.7-0.2-2.1-0.9l-6.3-48.4L436.9,291.1z"/>
		<path class="st8" d="M357.4,175.5c4.7-6,11.4-11.1,20-15.2c8.6-4.1,18.5-6.1,29.8-6.1c11.3,0,21.1,2,29.6,6c8.4,4,15.1,9,19.9,15
			c5,6.3,9,13.4,11.7,21c5,13.7,7.4,28.1,7.4,42.7c0,27-6.4,48.3-19.1,64.1c-4.7,6-11.3,10.9-19.7,14.7s-18.2,5.8-29.3,5.8
			c-11.1,0-21-2-29.6-5.9c-8.6-3.9-15.3-8.8-20.1-14.6c-5.1-6.2-9.1-13.3-11.9-20.8c-4.7-12.8-7.1-27.3-7.1-43.6
			c0-14.9,1.9-27.6,5.8-38.2C348.4,189.9,352.7,181.6,357.4,175.5z M407,274.5c13.4,0,20.1-11.6,20.1-34.8v-1.1
			c0-23.8-6.6-35.7-19.9-35.7c-13.2,0-19.9,11.9-19.9,35.8C387.4,262.6,393.9,274.5,407,274.5L407,274.5z"/>
		<path class="st1" d="M373.5,156.8c0,0,4.5-6.6,10.9-7c6.3-0.5,12.2,4.5,12.2,4.5c0.5,0.6,0.9,1.6-0.5,1.6
			c-1.6,0.2-6.3-5.2-11.8-4.5C378.9,152.2,373.5,156.8,373.5,156.8z"/>
		<path class="st2" d="M391.6,164.1c7.2,3.2,11.1,12.7,8.4,21.3c-2.7,8.4-10.9,12.7-18.3,9.5c-7.2-2.9-11.1-12.5-8.4-21.1
			C376,165.5,384.1,161.2,391.6,164.1z"/>
		<path class="st7" d="M386.7,196.8c-1.8,0-3.7-0.4-5.4-1.1c-7.7-3.1-11.7-13-8.8-22c1.3-4.3,4.3-7.9,8.4-9.9
			c3.5-1.6,7.4-1.8,11-0.4l0,0c7.7,3.4,11.7,13.3,8.8,22.2c-1.3,4.3-4.4,7.9-8.4,9.9C390.5,196.3,388.6,196.8,386.7,196.8z
			 M386.8,164c-1.8,0-3.6,0.4-5.2,1.2c-3.6,1.8-6.4,5-7.5,8.9c-2.6,8.1,1.1,17.3,7.9,20.1c3.1,1.3,6.6,1.3,9.7-0.1
			c3.7-1.8,6.4-5,7.6-8.9c2.6-8.2-1-17.3-7.9-20.3C389.9,164.3,388.3,164,386.8,164L386.8,164z"/>
		<path class="st1" d="M393.9,177.9c3.7,1.4,5.7,5.5,4.3,9.2c0,0,0,0,0,0c-1.4,3.9-5.7,5.9-9.3,4.3c-3.7-1.2-5.7-5.1-4.5-8.8
			c0.1-0.2,0.1-0.4,0.2-0.5c1.3-3.7,5.4-5.7,9.1-4.4C393.8,177.8,393.9,177.8,393.9,177.9z"/>
		<path class="st2" d="M387.1,177.7c1.2,0.4,1.9,1.8,1.4,3c0,0,0,0,0,0c-0.4,1.2-1.7,1.9-2.9,1.5c0,0-0.1,0-0.1,0
			c-1.2-0.4-1.9-1.7-1.5-2.9c0-0.1,0-0.1,0.1-0.2C384.5,177.8,385.8,177.2,387.1,177.7C387.1,177.6,387.1,177.6,387.1,177.7z"/>
		<path class="st1" d="M441.2,156.8c0,0-4.3-6.6-10.6-7c-6.6-0.5-12.4,4.5-12.4,4.5c-0.2,0.6-0.6,1.6,0.6,1.8
			c1.6,0,6.3-5.4,11.8-4.8C436,152.2,441.2,156.8,441.2,156.8z"/>
		<path class="st2" d="M423.7,164.4c-7.5,3.2-11.1,12.7-8.4,21.3c2.7,8.4,10.9,12.7,18.3,9.5c7.2-3.2,11.1-12.5,8.4-21.1
			C439.4,165.7,431.2,161.2,423.7,164.4z"/>
		<path class="st7" d="M428.7,197c-1.9,0-3.8-0.4-5.6-1.2c-4.1-2-7.1-5.5-8.4-9.9c-2.9-9.2,1-18.9,8.8-22.3
			c3.5-1.5,7.4-1.4,10.8,0.1c4.1,2,7.3,5.7,8.6,10.1c2.8,9-1,18.6-8.8,22C432.3,196.6,430.5,197,428.7,197z M428.7,164.1
			c-1.6,0-3.2,0.3-4.6,0.9c-7,3-10.5,12.1-7.9,20.3c1.2,3.9,3.9,7.1,7.6,8.9c3.1,1.4,6.6,1.5,9.7,0.1c6.9-3,10.5-12,7.9-20.1
			c-1.2-4-4-7.3-7.8-9.1C432,164.5,430.4,164.1,428.7,164.1z"/>
		<path class="st1" d="M421.4,178c-3.7,1.3-5.7,5.4-4.4,9.1c0,0.1,0.1,0.1,0.1,0.2c1.4,3.8,5.7,5.7,9.5,4.3c0,0,0,0,0,0
			c3.6-1.4,5.7-5.7,4.1-9.3c-1.2-3.7-5.1-5.7-8.8-4.5C421.7,177.8,421.6,177.9,421.4,178z"/>
		<path class="st2" d="M429.9,177.7c1.2,0.4,1.9,1.8,1.4,3c0,0,0,0,0,0c-0.4,1.2-1.7,1.9-2.9,1.5c0,0-0.1,0-0.1,0
			c-1.2-0.4-1.9-1.7-1.5-2.9c0-0.1,0-0.1,0.1-0.2C427.3,177.9,428.6,177.2,429.9,177.7C429.9,177.6,429.9,177.6,429.9,177.7z"/>
		<path class="st9" d="M462,264c-2.2,16.2-12,30.3-26.3,38.2c-2.3,1.2-0.2,4.7,2,3.5c15.5-8.6,26.1-24,28.3-41.7
			C466.4,261.4,462.4,261.4,462,264z"/>
		<path class="st9" d="M428.3,309c2.6,0,2.6-4,0-4C425.7,304.9,425.7,309,428.3,309z"/>
		<path class="st9" d="M351.1,242c0-16.9,0.5-36.3,11.4-50.2c1.6-2-1.3-4.9-2.9-2.9c-11.6,15-12.5,35-12.5,53.1
			C347.1,244.6,351.1,244.6,351.1,242L351.1,242z"/>
		<path class="st9" d="M367.6,186.2c2.6,0,2.6-4,0-4C365,182.2,365,186.2,367.6,186.2z"/>
	</g>
	<g>
		<path class="st0" d="M297.1,343.3c0,3.5-30.6,6.4-68.3,6.4s-68.3-2.9-68.3-6.4c0-3.5,30.6-6.4,68.3-6.4S297.1,339.8,297.1,343.3z"
			/>
		<path class="st7" d="M284.1,228.3c6.1,9.7,19.3,4,26-1.9c8.7-7.7,9.2-24.3,2.6-33.3c-1.7-2.4-5.8-0.1-4,2.3
			c5.4,7.3,4.8,18.1,0.1,25.6c-3.3,5.3-16.2,12-20.6,4.9C286.6,223.5,282.6,225.8,284.1,228.3L284.1,228.3z"/>
		<path class="st7" d="M312.1,194.9c2.5-2.1,4.4-4.7,4.6-8c0-1.3-1-2.3-2.3-2.3c-1.3,0-2.3,1-2.3,2.3c-0.2,2-1.8,3.5-3.2,4.7
			c-0.9,0.9-0.9,2.4,0,3.3C309.8,195.7,311.2,195.7,312.1,194.9L312.1,194.9z"/>
		<path class="st7" d="M308.7,191.7c-2.4,0.1-6.3-1.3-7.4-3.6c-1.2-2.7-5.2-0.4-4,2.3c1.7,3.7,7.5,6.1,11.4,5.9
			C311.7,196.2,311.7,191.6,308.7,191.7L308.7,191.7z"/>
		<path class="st7" d="M310.9,193.1c0-2.6-0.8-5.1-2.1-7.3c-1.5-2.6-5.5-0.3-4,2.3c0.9,1.5,1.4,3.2,1.5,4.9
			C306.3,196.1,310.9,196.1,310.9,193.1z"/>
		<path class="st7" d="M145.4,191.9c-4.6,9.1-7.1,19-2.6,28.6c3.9,8.4,12.4,15.8,22.1,15.2c2.9-0.2,2.9-4.7,0-4.5
			c-7.9,0.4-13.9-5.4-17.6-11.9c-4.7-8.1-2-17.5,2-25.2C150.6,191.6,146.7,189.3,145.4,191.9L145.4,191.9z"/>
		<path class="st7" d="M143.2,183.9c-0.9,3.8-0.3,7.4,2.4,10.3c2,2.1,5.2-1.1,3.2-3.2c-1.6-1.7-1.7-3.8-1.2-5.9
			C148.2,182.3,143.8,181.1,143.2,183.9L143.2,183.9z"/>
		<path class="st7" d="M147.7,195.3c5,0.4,9.4-0.8,12.5-4.8c1.8-2.3-2.1-4.5-3.9-2.3c-2.1,2.7-5.5,2.8-8.6,2.6
			C144.8,190.6,144.8,195.1,147.7,195.3L147.7,195.3z"/>
		<path class="st7" d="M150.5,192.6c0.8-2.3,2.1-4.8,4.5-5.7c2.7-1,1.5-5.4-1.2-4.3c-4.1,1.5-6.2,4.9-7.6,8.9
			C145.2,194.2,149.6,195.3,150.5,192.6L150.5,192.6z"/>
		<path class="st7" d="M201.4,291.1l-4.8,48.6c-2.2-0.7-5.7-1.1-8.1-0.3c-0.5,0.2-0.7,0.7-0.5,1.2c0.1,0.3,0.3,0.5,0.6,0.5l10.4,2.8
			c0.8,0.2,1.7-0.2,2.1-0.9l6.3-48.4L201.4,291.1z"/>
		<path class="st7" d="M258.3,291.1l4.8,48.6c2.2-0.7,5.7-1.1,8.1-0.3c0.5,0.2,0.7,0.7,0.5,1.1c-0.1,0.3-0.3,0.5-0.6,0.6l-10.4,2.8
			c-0.8,0.2-1.7-0.2-2.1-0.9l-6.3-48.4L258.3,291.1z"/>
		<path class="st8" d="M178.9,175.5c4.7-6,11.4-11.1,20-15.2c8.6-4.1,18.5-6.1,29.8-6.1c11.3,0,21.1,2,29.6,6c8.4,4,15.1,9,19.9,15
			c5,6.3,9,13.4,11.7,21c5,13.7,7.4,28.1,7.4,42.7c0,27-6.4,48.3-19.1,64.1c-4.7,6-11.3,10.9-19.7,14.7s-18.2,5.8-29.3,5.8
			c-11.1,0-21-2-29.6-5.9c-8.6-3.9-15.3-8.8-20.1-14.6c-5.1-6.2-9.1-13.3-11.9-20.8c-4.7-12.8-7.1-27.3-7.1-43.6
			c0-14.9,1.9-27.6,5.8-38.2C169.9,189.9,174.2,181.6,178.9,175.5z M228.5,274.5c13.4,0,20.1-11.6,20.1-34.8v-1.1
			c0-23.8-6.6-35.7-19.9-35.7c-13.2,0-19.9,11.9-19.9,35.8C208.9,262.6,215.4,274.5,228.5,274.5L228.5,274.5z"/>
		<path class="st1" d="M195,156.8c0,0,4.5-6.6,10.9-7c6.3-0.5,12.2,4.5,12.2,4.5c0.5,0.6,0.9,1.6-0.5,1.6c-1.6,0.2-6.3-5.2-11.8-4.5
			C200.4,152.2,195,156.8,195,156.8z"/>
		<path class="st2" d="M213.1,164.1c7.2,3.2,11.1,12.7,8.4,21.3c-2.7,8.4-10.9,12.7-18.3,9.5c-7.2-2.9-11.1-12.5-8.4-21.1
			C197.5,165.5,205.6,161.2,213.1,164.1z"/>
		<path class="st7" d="M208.2,196.8c-1.8,0-3.7-0.4-5.4-1.1c-7.7-3.1-11.7-13-8.8-22c1.3-4.3,4.3-7.9,8.4-9.9
			c3.5-1.6,7.4-1.8,11-0.4l0,0c7.7,3.4,11.7,13.3,8.8,22.2c-1.3,4.3-4.4,7.9-8.4,9.9C212,196.3,210.1,196.8,208.2,196.8z M208.3,164
			c-1.8,0-3.6,0.4-5.2,1.2c-3.6,1.8-6.4,5-7.5,8.9c-2.6,8.1,1.1,17.3,7.9,20.1c3.1,1.3,6.6,1.3,9.7-0.1c3.7-1.8,6.4-5,7.6-8.9
			c2.6-8.2-1-17.3-7.9-20.3C211.4,164.3,209.8,164,208.3,164L208.3,164z"/>
		<path class="st1" d="M215.4,177.9c3.7,1.4,5.7,5.5,4.3,9.2c0,0,0,0,0,0c-1.4,3.9-5.7,5.9-9.3,4.3c-3.7-1.2-5.7-5.1-4.5-8.8
			c0.1-0.2,0.1-0.4,0.2-0.5c1.3-3.7,5.4-5.7,9.1-4.4C215.3,177.8,215.4,177.8,215.4,177.9z"/>
		<path class="st2" d="M208.6,177.7c1.2,0.4,1.9,1.8,1.4,3c0,0,0,0,0,0c-0.4,1.2-1.7,1.9-2.9,1.5c0,0-0.1,0-0.1,0
			c-1.2-0.4-1.9-1.7-1.5-2.9c0-0.1,0-0.1,0.1-0.2C206,177.8,207.3,177.2,208.6,177.7C208.5,177.6,208.6,177.6,208.6,177.7z"/>
		<path class="st1" d="M262.7,156.8c0,0-4.3-6.6-10.6-7c-6.6-0.5-12.4,4.5-12.4,4.5c-0.2,0.6-0.6,1.6,0.6,1.8
			c1.6,0,6.3-5.4,11.8-4.8C257.5,152.2,262.7,156.8,262.7,156.8z"/>
		<path class="st2" d="M245.2,164.4c-7.5,3.2-11.1,12.7-8.4,21.3c2.7,8.4,10.9,12.7,18.3,9.5c7.2-3.2,11.1-12.5,8.4-21.1
			C260.8,165.7,252.7,161.2,245.2,164.4z"/>
		<path class="st7" d="M250.1,197c-1.9,0-3.8-0.4-5.6-1.2c-4.1-2-7.1-5.5-8.4-9.9c-2.9-9.2,1-18.9,8.8-22.3
			c3.5-1.5,7.4-1.4,10.8,0.1c4.1,2,7.3,5.7,8.6,10.1c2.8,9-1,18.6-8.8,22C253.8,196.6,252,197,250.1,197z M250.1,164.1
			c-1.6,0-3.2,0.3-4.6,0.9c-7,3-10.5,12.1-7.9,20.3c1.2,3.9,3.9,7.1,7.6,8.9c3.1,1.4,6.6,1.5,9.7,0.1c6.9-3,10.5-12,7.9-20.1
			c-1.2-4-4-7.3-7.8-9.1C253.5,164.5,251.8,164.1,250.1,164.1z"/>
		<path class="st1" d="M242.9,178c-3.7,1.3-5.7,5.4-4.4,9.1c0,0.1,0.1,0.1,0.1,0.2c1.4,3.8,5.7,5.7,9.5,4.3c0,0,0,0,0,0
			c3.6-1.4,5.7-5.7,4.1-9.3c-1.2-3.7-5.1-5.7-8.8-4.5C243.2,177.8,243,177.9,242.9,178z"/>
		<path class="st2" d="M251.4,177.7c1.2,0.4,1.9,1.8,1.4,3c0,0,0,0,0,0c-0.4,1.2-1.7,1.9-2.9,1.5c0,0-0.1,0-0.1,0
			c-1.2-0.4-1.9-1.7-1.5-2.9c0-0.1,0-0.1,0.1-0.2C248.8,177.9,250.1,177.2,251.4,177.7C251.3,177.6,251.4,177.6,251.4,177.7z"/>
		<path class="st9" d="M283.5,264c-2.2,16.2-12,30.3-26.3,38.2c-2.3,1.2-0.2,4.7,2,3.5c15.5-8.6,26.1-24,28.3-41.7
			C287.9,261.4,283.9,261.4,283.5,264z"/>
		<path class="st9" d="M249.8,309c2.6,0,2.6-4,0-4C247.2,304.9,247.2,309,249.8,309z"/>
		<path class="st9" d="M172.6,242c0-16.9,0.5-36.3,11.4-50.2c1.6-2-1.3-4.9-2.9-2.9c-11.6,15-12.5,35-12.5,53.1
			C168.6,244.6,172.6,244.6,172.6,242L172.6,242z"/>
		<path class="st9" d="M189.1,186.2c2.6,0,2.6-4,0-4C186.5,182.2,186.5,186.2,189.1,186.2z"/>
	</g>
</g>
</svg>
