<?xml version="1.0" encoding="utf-8"?>
<!-- Generator: Adobe Illustrator 27.8.0, SVG Export Plug-In . SVG Version: 6.00 Build 0)  -->
<svg version="1.1" id="ainmhite" xmlns="http://www.w3.org/2000/svg" xmlns:xlink="http://www.w3.org/1999/xlink" x="0px" y="0px"
	 viewBox="0 0 500 500" style="enable-background:new 0 0 500 500;" xml:space="preserve">
<style type="text/css">
	.st0{opacity:0.5;fill:#BDBEC0;enable-background:new    ;}
	.st1{fill-rule:evenodd;clip-rule:evenodd;fill:#231F20;}
	.st2{fill-rule:evenodd;clip-rule:evenodd;fill:#FFFFFF;}
	.st3{fill:#00A199;}
	.st4{fill:#31BDB5;}
	.st5{fill:#231F20;}
	.st6{fill:#4CC2BE;}
	.st7{fill:#37AAD6;}
	.st8{fill:#4AC1F0;}
	.st9{fill:#73D0F2;}
</style>
<g>
	<g>
		<path class="st0" d="M227.5,371.8c0,4.4-35.1,7.9-78.5,7.9s-78.5-3.6-78.5-7.9c0-4.4,35.1-7.9,78.5-7.9S227.5,367.4,227.5,371.8z"
			/>
		<path class="st1" d="M63.6,141.3c0,0,5-7.2,12-7.7c7-0.5,13.5,5,13.5,5c0.5,0.7,1,1.7-0.5,1.7c-1.7,0.2-7-5.7-13-5
			C69.6,136.3,63.6,141.3,63.6,141.3z"/>
		<path class="st2" d="M80.5,145.5c8,3.5,12.2,14,9.2,23.4c-3,9.2-12,14-20.2,10.5c-8-3.2-12.2-13.7-9.2-23.2
			C63.3,147,72.3,142.3,80.5,145.5z"/>
		<path class="st3" d="M75.1,181.4c-2,0-4-0.4-5.9-1.2c-8.5-3.4-12.8-14.3-9.7-24.2c1.4-4.7,4.8-8.6,9.2-10.8
			c3.8-1.8,8.2-1.9,12.1-0.4l0,0c8.4,3.7,12.8,14.6,9.7,24.4c-1.4,4.7-4.8,8.7-9.2,10.8C79.3,180.9,77.3,181.3,75.1,181.4z
			 M75.2,145.3c-2,0-4,0.5-5.8,1.3c-4,2-7.1,5.6-8.3,9.9c-2.8,9,1.2,19.1,8.8,22.2c3.4,1.5,7.3,1.4,10.7-0.1c4.1-2,7.1-5.5,8.4-9.9
			c2.9-9-1.1-19.1-8.8-22.4C78.6,145.7,76.9,145.3,75.2,145.3L75.2,145.3z"/>
		<path class="st1" d="M83.3,161.5c4.1,1.5,6.2,6.1,4.7,10.2c0,0,0,0,0,0c-1.5,4.2-6.2,6.5-10.2,4.7c-4-1.3-6.2-5.6-5-9.6
			c0.1-0.2,0.1-0.4,0.2-0.6c1.4-4.1,5.9-6.2,10-4.8C83.1,161.4,83.2,161.4,83.3,161.5z"/>
		<path class="st3" d="M121.2,296.5c0,20.4-7.5,67.9-7.5,67.9c-2.9-1.5-7.8-2.8-11.4-2.2c-0.7,0.1-1.1,0.8-1,1.5
			c0.1,0.4,0.3,0.7,0.7,0.9l14,6.2c1.1,0.5,2.4,0.2,3.1-0.8l19.7-66.7C138.8,303.4,121.2,294.1,121.2,296.5z"/>
		<path class="st3" d="M180.1,296.5L180,366c3.2-0.7,8.2-0.7,11.6,0.8c0.6,0.3,0.9,1.1,0.6,1.7c-0.2,0.4-0.5,0.6-0.9,0.7l-15.2,2.5
			c-1.2,0.2-2.3-0.5-2.8-1.6l-2-69.5L180.1,296.5z"/>
		<path class="st3" d="M139.5,260.6c-12.1,28.6-52.3,7.9-68.1-9.3c-1.9-2.1,1.3-5,3.2-2.9c13.2,14.4,49.8,30.1,60.5,5
			c1.1-2.6,5.3-1.3,4.2,1.3L139.5,260.6z"/>
		<path class="st3" d="M81.5,230.2c3,3.6,4.2,7.8,2.9,12.3c-1.5,5.3-7.1,7.3-12,8.1c-2.8,0.4-3.7-3.8-0.9-4.3
			c3.5-0.5,7.2-1.4,8.7-5.1c1.1-2.8-0.2-5.9-2-8.1C76.5,231,79.7,228.1,81.5,230.2L81.5,230.2z"/>
		<path class="st3" d="M72.4,227.8c-3.4-2.4-9.7,2-10.2,5.7c-0.4,2.9,1.5,5.7,3.2,7.7c2.1,2.5,4.7,3.3,7.4,4.9
			c2.4,1.5,0,5.1-2.4,3.7c-1.9-1.2-3.9-1.8-5.7-3.3c-1.7-1.3-3.1-2.9-4.3-4.7c-2.2-3.1-3.4-7.2-2-10.9c2.2-5.7,10.8-10.7,16.4-6.8
			C77,225.8,74.6,229.5,72.4,227.8L72.4,227.8z"/>
		<path class="st3" d="M70.6,249.9c-4.5-2.3-8.8-4.7-13.4-6.8c-4.7-2.1-9.8-2.7-14.7-4.3c-2.7-0.8-1.4-5,1.3-4.2
			c4.9,1.5,9.9,2.3,14.7,4.3c5,2,9.6,4.8,14.4,7.2C75.5,247.4,73.1,251.1,70.6,249.9L70.6,249.9z"/>
		<path class="st3" d="M71.9,250.8c-6.7,1.2-14,0.7-20,4.4c-2.4,1.5-4.3-2.4-2-3.9c6.4-3.9,14-3.5,21.1-4.8
			C73.8,246.1,74.7,250.3,71.9,250.8L71.9,250.8z"/>
		<path class="st3" d="M73.4,250.7c-2.2,1.9-4.4,3.8-6.6,5.7c-1.8,1.5-4.2,3.2-4.7,5.6c-0.5,2.8-4.7,1.4-4.2-1.3
			c0.5-2.5,2.3-4.2,4.1-5.9c2.7-2.5,5.6-4.9,8.4-7.4C72.6,245.5,75.5,248.8,73.4,250.7L73.4,250.7z"/>
		<path class="st4" d="M161.3,122.5c11.1,3.3,18.8,13.4,18.9,25v170.1c0.1,3.8-0.1,7.7-0.5,11.5c-0.5,3.1-1.6,6.1-3.2,8.8
			c-3.1,6-11.8,9-26,9c-13.8,0-22.3-2.9-25.7-8.7c-1.6-2.8-2.7-5.9-3.2-9.2c-0.4-4-0.6-8.1-0.5-12.2V213.8l-4.3,4
			c-22.1,14.1-34,8.2-41,0.5c-7-7.8-12.9-28.4-1-39c0,0,40.7-39.7,54.7-52.5C138.6,118.4,151.2,119.5,161.3,122.5z"/>
		<path class="st2" d="M116.9,145.7c-8.2,3.5-12.2,14-9.2,23.4c3,9.2,12,14,20.2,10.5c8-3.5,12.2-13.7,9.2-23.2
			C134.1,147.2,125.1,142.3,116.9,145.7z"/>
		<path class="st3" d="M122.3,181.6c-2.1,0-4.2-0.5-6.1-1.3c-4.5-2.2-7.8-6.1-9.2-10.8c-3.2-10,1.1-20.8,9.7-24.4l0,0
			c3.8-1.6,8.1-1.6,11.8,0.2c4.6,2.2,8,6.2,9.4,11.1c3.1,9.8-1.1,20.4-9.7,24.2C126.4,181.2,124.4,181.6,122.3,181.6z M117.2,146.5
			c-7.7,3.3-11.7,13.3-8.8,22.4c1.3,4.3,4.3,7.9,8.4,9.9c3.4,1.6,7.3,1.6,10.7,0.1c7.6-3.3,11.6-13.3,8.8-22.2
			c-1.3-4.4-4.5-8-8.6-10C124.4,145.1,120.6,145,117.2,146.5L117.2,146.5z"/>
		<path class="st1" d="M113.5,160.2c-4.1,1.4-6.3,5.9-4.8,10c0,0.1,0.1,0.2,0.1,0.2c1.6,4.2,6.3,6.3,10.5,4.8c0,0,0,0,0,0
			c4-1.5,6.1-6.1,4.5-10.1c0,0,0-0.1-0.1-0.1c-1.3-4-5.6-6.3-9.6-5C113.9,160.1,113.7,160.1,113.5,160.2z"/>
		<path class="st2" d="M110.2,159.9c-1.4,0.5-2.2,2.1-1.7,3.5c0,0,0,0,0,0.1c0.6,1.5,2.2,2.2,3.7,1.7c1.4-0.5,2.1-2.1,1.6-3.5
			c0,0,0,0,0,0c-0.4-1.4-2-2.2-3.4-1.7C110.3,159.9,110.3,159.9,110.2,159.9z"/>
		<path class="st1" d="M134.1,142c0,0-4.7-7.2-11.7-7.7c-7.2-0.5-13.7,5-13.7,5c-0.2,0.8-0.7,1.7,0.8,2c1.7,0,7-6,13-5.2
			C128.4,137,134.1,142,134.1,142z"/>
		<path class="st2" d="M74.7,159.9c-1.4,0.5-2.2,2.1-1.7,3.5c0,0,0,0.1,0,0.1c0.5,1.5,2.2,2.2,3.6,1.7c0,0,0,0,0,0
			c1.4-0.5,2.1-2.1,1.6-3.5c0,0,0,0,0-0.1c-0.4-1.4-1.9-2.2-3.4-1.8C74.9,159.9,74.8,159.9,74.7,159.9z"/>
		<path class="st5" d="M76.8,205.4c0,0,11.4,10.2,21.3,0.8C98.1,206.2,87.8,221.7,76.8,205.4z"/>
		<path class="st3" d="M168.1,224.5c17.7,5,35.2-2.7,43.3-19.2c6.2-12.6-0.5-34.7-13.3-41c-4.1-2-6.7,4.6-2.7,6.6
			c9.8,4.8,13.2,22.6,9.4,31.7c-5.5,13.1-20.9,19.1-34.1,15.3C166.4,216.8,163.7,223.3,168.1,224.5L168.1,224.5z"/>
		<path class="st3" d="M192.2,163.3c-1.9,1.3-4.8,2.7-7,1.6c-1.7-0.9-3.9,0.3-4.6,2c-0.7,1.8,0.2,3.9,2,4.6c4.5,2.3,10.2,0.1,14-2.6
			C200.3,166.2,195.9,160.7,192.2,163.3L192.2,163.3z"/>
		<path class="st3" d="M195.6,154.3c0.3,1.5,0.7,3.2,0.2,4.7s-1.8,2.8-2.9,3.8c-1.4,1.4-1.9,3.3-0.6,5c1.1,1.4,3.6,2,5,0.6
			c2.1-2.1,4.1-4.1,5.2-6.8c1.1-2.7,0.7-5.7,0.2-8.4C201.7,148.8,194.7,149.8,195.6,154.3L195.6,154.3z"/>
		<path class="st3" d="M186.6,160c1.9,1.8,3.6,3.9,5,6.2c1.1,1.6,3.5,1.7,5,0.6c1.5-1.2,1.8-3.4,0.6-5c-1.7-2.8-3.9-5.3-6.3-7.5
			c-1.6-1.2-3.8-0.9-5,0.7C184.8,156.6,185.1,158.8,186.6,160z"/>
		<path class="st6" d="M169.4,321.8c3.2,0,3.2-5,0-5C166.2,316.8,166.2,321.8,169.4,321.8z"/>
		<path class="st6" d="M165.7,327.4c-3.6,11-17.8,8.5-26.3,6.6c-3.1-0.7-4.5,4.1-1.3,4.8c11.6,2.6,27.8,4,32.4-10.1
			C171.5,325.6,166.7,324.3,165.7,327.4L165.7,327.4z"/>
		<path class="st6" d="M152.9,133.4c10.8,0.2,13.9,8.5,13.5,18.1c-0.1,3.2,4.9,3.2,5,0c0.2-5.6-0.3-11.7-3.7-16.4
			c-3.5-4.9-9-6.6-14.8-6.7C149.7,128.4,149.7,133.4,152.9,133.4z"/>
		<path class="st6" d="M169.4,162.6c3.2,0,3.2-5,0-5C166.2,157.6,166.2,162.6,169.4,162.6z"/>
	</g>
	<g>
		<path class="st0" d="M432.9,371.7c0,4.6-39.8,8.3-88.8,8.3s-88.8-3.7-88.8-8.3s39.7-8.3,88.8-8.3S432.9,367,432.9,371.7z"/>
		<path class="st7" d="M416,222.2c7.9,12.6,25,5.3,33.8-2.5c11.3-10,12-31.6,3.4-43.3c-2.3-3.1-7.5-0.1-5.2,3
			c7,9.5,6.2,23.6,0.1,33.3c-4.3,6.9-21,15.5-26.8,6.4C419.1,215.9,413.9,218.9,416,222.2L416,222.2z"/>
		<path class="st7" d="M452.3,178.7c3.3-2.7,5.7-6.1,6-10.4c0-1.7-1.3-3-3-3c-1.7,0-3,1.4-3,3c-0.2,2.6-2.4,4.6-4.2,6.2
			c-1.2,1.2-1.2,3.1,0,4.3C449.3,179.8,451.1,179.8,452.3,178.7L452.3,178.7z"/>
		<path class="st7" d="M447.9,174.6c-3.1,0.2-8.2-1.7-9.6-4.7c-1.6-3.5-6.8-0.5-5.2,3c2.2,4.8,9.7,7.9,14.8,7.7
			C451.8,180.4,451.8,174.4,447.9,174.6L447.9,174.6z"/>
		<path class="st7" d="M450.8,176.4c0-3.3-1-6.6-2.7-9.5c-1.9-3.4-7.1-0.3-5.2,3c1.2,1.9,1.9,4.1,1.9,6.4
			C444.8,180.3,450.8,180.3,450.8,176.4z"/>
		<path class="st7" d="M235.6,174.9c-6,11.8-9.3,24.7-3.4,37.2c5.1,10.9,16.1,20.5,28.7,19.8c3.8-0.2,3.8-6.1,0-5.9
			c-10.3,0.6-18-7.1-22.9-15.4c-6.1-10.5-2.6-22.7,2.6-32.8C242.4,174.4,237.3,171.5,235.6,174.9L235.6,174.9z"/>
		<path class="st7" d="M232.7,164.5c-1.2,4.9-0.4,9.6,3.1,13.4c2.6,2.8,6.7-1.4,4.1-4.1c-2-2.2-2.2-4.9-1.6-7.7
			C239.2,162.4,233.6,160.8,232.7,164.5L232.7,164.5z"/>
		<path class="st7" d="M238.6,179.3c6.5,0.5,12.2-1,16.3-6.3c2.3-3-2.8-5.9-5-3c-2.7,3.5-7.2,3.7-11.2,3.4
			C234.8,173.1,234.9,179,238.6,179.3L238.6,179.3z"/>
		<path class="st7" d="M242.3,175.8c1.1-3,2.7-6.3,5.8-7.5c3.5-1.3,2-7-1.5-5.6c-5.3,2-8.1,6.4-9.9,11.5
			C235.4,177.8,241,179.3,242.3,175.8L242.3,175.8z"/>
		<path class="st7" d="M308.4,303.8l-6.3,63.1c-2.9-1-7.4-1.4-10.6-0.3c-0.6,0.2-0.9,0.9-0.7,1.5c0.1,0.3,0.4,0.6,0.8,0.7l13.5,3.6
			c1.1,0.3,2.2-0.2,2.7-1.2l8.2-62.9L308.4,303.8z"/>
		<path class="st7" d="M382.4,303.8l6.3,63.1c2.9-1,7.4-1.4,10.6-0.3c0.6,0.2,0.9,0.9,0.7,1.5c-0.1,0.4-0.4,0.6-0.8,0.7l-13.5,3.6
			c-1.1,0.3-2.2-0.2-2.7-1.2l-8.2-62.9L382.4,303.8z"/>
		<path class="st8" d="M279.2,153.6c6.2-7.9,14.8-14.4,26-19.8c11.2-5.3,24.1-8,38.7-8c14.7,0,27.5,2.6,38.4,7.8
			c10.9,5.2,19.6,11.7,25.9,19.5c6.5,8.2,11.6,17.4,15.1,27.3c6.4,17.8,9.7,36.6,9.6,55.5c0,35.1-8.3,62.8-24.9,83.4
			c-6.2,7.7-14.7,14.1-25.7,19.2s-23.6,7.6-38.1,7.6c-14.4,0-27.3-2.6-38.4-7.7c-11.2-5.1-19.9-11.5-26.1-19
			c-6.6-8.1-11.8-17.2-15.5-27c-6.2-16.7-9.3-35.5-9.3-56.6c0-19.4,2.5-35.9,7.5-49.7C267.5,172.3,273.1,161.5,279.2,153.6z
			 M343.7,282.3c17.4,0,26.1-15.1,26.1-45.2v-1.4c0-30.9-8.6-46.4-25.8-46.4c-17.2,0-25.8,15.5-25.8,46.5
			C318.1,266.8,326.6,282.3,343.7,282.3L343.7,282.3z"/>
		<path class="st1" d="M300.1,129.2c0,0,5.9-8.5,14.1-9.1s15.9,5.9,15.9,5.9c0.6,0.8,1.2,2.1-0.6,2.1c-2.1,0.3-8.2-6.7-15.3-5.9
			C307.1,123.3,300.1,129.2,300.1,129.2z"/>
		<path class="st2" d="M323.6,138.7c9.4,4.1,14.4,16.5,10.9,27.7c-3.5,10.9-14.1,16.5-23.8,12.4c-9.4-3.8-14.4-16.2-10.9-27.4
			C303.3,140.5,313.9,134.9,323.6,138.7z"/>
		<path class="st7" d="M317.2,181.2c-2.4,0-4.8-0.5-7-1.4c-10-4.1-15.1-16.9-11.5-28.6c1.7-5.6,5.6-10.2,10.9-12.8
			c4.5-2.1,9.7-2.3,14.3-0.5l0,0c10,4.4,15.1,17.3,11.5,28.9c-1.7,5.6-5.7,10.3-10.9,12.8C322.2,180.6,319.7,181.1,317.2,181.2z
			 M317.3,138.6c-2.4,0-4.7,0.5-6.8,1.5c-4.7,2.3-8.3,6.5-9.8,11.6c-3.3,10.5,1.4,22.5,10.3,26.1c4,1.7,8.6,1.7,12.6-0.1
			c4.8-2.3,8.3-6.5,9.9-11.6c3.4-10.6-1.3-22.4-10.3-26.4C321.4,138.9,319.4,138.6,317.3,138.6L317.3,138.6z"/>
		<path class="st1" d="M326.7,156.6c4.9,1.8,7.4,7.1,5.6,12c0,0,0,0,0,0.1c-1.8,5-7.4,7.6-12.1,5.6c-4.8-1.5-7.4-6.6-5.8-11.4
			c0.1-0.2,0.2-0.5,0.3-0.7c1.7-4.8,7-7.4,11.8-5.7C326.5,156.5,326.6,156.6,326.7,156.6z"/>
		<path class="st2" d="M317.7,156.3c1.6,0.6,2.4,2.3,1.9,3.9c0,0,0,0,0,0c-0.5,1.6-2.2,2.4-3.8,1.9c-0.1,0-0.1,0-0.2-0.1
			c-1.6-0.5-2.4-2.2-1.9-3.7c0-0.1,0.1-0.2,0.1-0.2C314.3,156.6,316.1,155.7,317.7,156.3C317.7,156.3,317.7,156.3,317.7,156.3z"/>
		<path class="st1" d="M388.1,129.2c0,0-5.6-8.5-13.8-9.1c-8.5-0.6-16.2,5.9-16.2,5.9c-0.3,0.8-0.8,2.1,0.8,2.3
			c2.1,0,8.2-7.1,15.3-6.2C381.3,123.3,388.1,129.2,388.1,129.2z"/>
		<path class="st2" d="M365.4,139c-9.7,4.1-14.4,16.5-10.9,27.7c3.5,10.9,14.1,16.5,23.8,12.4c9.4-4.1,14.4-16.2,10.9-27.4
			C385.7,140.8,375.1,134.9,365.4,139z"/>
		<path class="st7" d="M371.8,181.4c-2.5,0-5-0.5-7.3-1.6c-5.3-2.6-9.2-7.2-10.9-12.8c-3.8-11.9,1.3-24.6,11.5-28.9
			c4.5-1.9,9.6-1.9,14,0.2c5.4,2.6,9.4,7.4,11.2,13.1c3.7,11.6-1.4,24.2-11.5,28.6C376.6,180.9,374.2,181.4,371.8,181.4z
			 M371.8,138.8c-2.1,0-4.1,0.4-6,1.2c-9.1,3.8-13.7,15.7-10.3,26.4c1.5,5.1,5.1,9.3,9.9,11.6c4,1.8,8.6,1.9,12.6,0.1
			c9-3.9,13.6-15.6,10.3-26.1c-1.6-5.2-5.2-9.5-10.1-11.8C376.2,139.2,374,138.8,371.8,138.8z"/>
		<path class="st1" d="M362.3,156.7c-4.8,1.7-7.4,7-5.7,11.8c0,0.1,0.1,0.2,0.1,0.3c1.9,5,7.4,7.5,12.3,5.6c0,0,0,0,0,0
			c4.7-1.8,7.4-7.4,5.3-12.1c-1.5-4.8-6.6-7.4-11.4-5.8C362.8,156.5,362.6,156.6,362.3,156.7z"/>
		<path class="st2" d="M373.4,156.3c1.6,0.6,2.4,2.4,1.8,4c0,0,0,0,0,0c-0.5,1.6-2.2,2.4-3.8,1.9c-0.1,0-0.1,0-0.2-0.1
			c-1.6-0.5-2.4-2.2-1.9-3.7c0-0.1,0.1-0.2,0.1-0.2C370,156.6,371.7,155.7,373.4,156.3C373.3,156.3,373.4,156.3,373.4,156.3z"/>
		<path class="st9" d="M415.2,268.6c-2.9,21-15.6,39.4-34.2,49.6c-3,1.6-0.3,6.2,2.7,4.5c20.2-11.1,33.9-31.3,36.8-54.1
			C420.9,265.2,415.6,265.2,415.2,268.6z"/>
		<path class="st9" d="M371.3,327c3.4,0,3.4-5.3,0-5.3S367.9,327,371.3,327z"/>
		<path class="st9" d="M271,240c0-22,0.7-47.2,14.8-65.3c2.1-2.6-1.7-6.4-3.7-3.7c-15.1,19.4-16.3,45.4-16.3,69
			C265.7,243.4,271,243.4,271,240L271,240z"/>
		<path class="st9" d="M292.4,167.5c3.4,0,3.4-5.3,0-5.3C289,162.2,289,167.5,292.4,167.5z"/>
	</g>
</g>
</svg>
