<?xml version="1.0" encoding="utf-8"?>
<!-- Generator: Adobe Illustrator 27.8.0, SVG Export Plug-In . SVG Version: 6.00 Build 0)  -->
<svg version="1.1" id="ainmhite" xmlns="http://www.w3.org/2000/svg" xmlns:xlink="http://www.w3.org/1999/xlink" x="0px" y="0px"
	 viewBox="0 0 500 500" style="enable-background:new 0 0 500 500;" xml:space="preserve">
<style type="text/css">
	.st0{display:none;}
	.st1{display:inline;opacity:0.5;fill:#BDBEC0;enable-background:new    ;}
	.st2{display:inline;fill-rule:evenodd;clip-rule:evenodd;fill:#231F20;}
	.st3{display:inline;fill-rule:evenodd;clip-rule:evenodd;fill:#FFFFFF;}
	.st4{display:inline;fill:#00A199;}
	.st5{display:inline;fill:#31BDB5;}
	.st6{display:inline;fill:#231F20;}
	.st7{display:inline;fill:#4CC2BE;}
	.st8{opacity:0.5;fill:#BDBEC0;enable-background:new    ;}
	.st9{fill:#37AAD6;}
	.st10{fill:#4AC1F0;}
	.st11{fill-rule:evenodd;clip-rule:evenodd;fill:#231F20;}
	.st12{fill-rule:evenodd;clip-rule:evenodd;fill:#FFFFFF;}
	.st13{fill:#73D0F2;}
	.st14{fill:#E770A7;}
	.st15{fill:#F17DB1;}
	.st16{fill:#231F20;}
	.st17{fill:#F7B4D1;}
</style>
<g class="st0">
	<path class="st1" d="M227.5,371.8c0,4.4-35.1,7.9-78.5,7.9s-78.5-3.6-78.5-7.9c0-4.4,35.1-7.9,78.5-7.9S227.5,367.4,227.5,371.8z"
		/>
	<path class="st2" d="M63.6,141.3c0,0,5-7.2,12-7.7c7-0.5,13.5,5,13.5,5c0.5,0.7,1,1.7-0.5,1.7c-1.7,0.2-7-5.7-13-5
		C69.6,136.3,63.6,141.3,63.6,141.3z"/>
	<path class="st3" d="M80.5,145.5c8,3.5,12.2,14,9.2,23.4c-3,9.2-12,14-20.2,10.5c-8-3.2-12.2-13.7-9.2-23.2
		C63.3,147,72.3,142.3,80.5,145.5z"/>
	<path class="st4" d="M75.1,181.4c-2,0-4-0.4-5.9-1.2c-8.5-3.4-12.8-14.3-9.7-24.2c1.4-4.7,4.8-8.6,9.2-10.8
		c3.8-1.8,8.2-1.9,12.1-0.4l0,0c8.4,3.7,12.8,14.6,9.7,24.4c-1.4,4.7-4.8,8.7-9.2,10.8C79.3,180.9,77.3,181.3,75.1,181.4z
		 M75.2,145.3c-2,0-4,0.5-5.8,1.3c-4,2-7.1,5.6-8.3,9.9c-2.8,9,1.2,19.1,8.8,22.2c3.4,1.5,7.3,1.4,10.7-0.1c4.1-2,7.1-5.5,8.4-9.9
		c2.9-9-1.1-19.1-8.8-22.4C78.6,145.7,76.9,145.3,75.2,145.3L75.2,145.3z"/>
	<path class="st2" d="M83.3,161.5c4.1,1.5,6.2,6.1,4.7,10.2c0,0,0,0,0,0c-1.5,4.2-6.2,6.5-10.2,4.7c-4-1.3-6.2-5.6-5-9.6
		c0.1-0.2,0.1-0.4,0.2-0.6c1.4-4.1,5.9-6.2,10-4.8C83.1,161.4,83.2,161.4,83.3,161.5z"/>
	<path class="st4" d="M121.2,296.5c0,20.4-7.5,67.9-7.5,67.9c-2.9-1.5-7.8-2.8-11.4-2.2c-0.7,0.1-1.1,0.8-1,1.5
		c0.1,0.4,0.3,0.7,0.7,0.9l14,6.2c1.1,0.5,2.4,0.2,3.1-0.8l19.7-66.7C138.8,303.4,121.2,294.1,121.2,296.5z"/>
	<path class="st4" d="M180.1,296.5L180,366c3.2-0.7,8.2-0.7,11.6,0.8c0.6,0.3,0.9,1.1,0.6,1.7c-0.2,0.4-0.5,0.6-0.9,0.7l-15.2,2.5
		c-1.2,0.2-2.3-0.5-2.8-1.6l-2-69.5L180.1,296.5z"/>
	<path class="st4" d="M139.5,260.6c-12.1,28.6-52.3,7.9-68.1-9.3c-1.9-2.1,1.3-5,3.2-2.9c13.2,14.4,49.8,30.1,60.5,5
		c1.1-2.6,5.3-1.3,4.2,1.3L139.5,260.6z"/>
	<path class="st4" d="M81.5,230.2c3,3.6,4.2,7.8,2.9,12.3c-1.5,5.3-7.1,7.3-12,8.1c-2.8,0.4-3.7-3.8-0.9-4.3
		c3.5-0.5,7.2-1.4,8.7-5.1c1.1-2.8-0.2-5.9-2-8.1C76.5,231,79.7,228.1,81.5,230.2L81.5,230.2z"/>
	<path class="st4" d="M72.4,227.8c-3.4-2.4-9.7,2-10.2,5.7c-0.4,2.9,1.5,5.7,3.2,7.7c2.1,2.5,4.7,3.3,7.4,4.9c2.4,1.5,0,5.1-2.4,3.7
		c-1.9-1.2-3.9-1.8-5.7-3.3c-1.7-1.3-3.1-2.9-4.3-4.7c-2.2-3.1-3.4-7.2-2-10.9c2.2-5.7,10.8-10.7,16.4-6.8
		C77,225.8,74.6,229.5,72.4,227.8L72.4,227.8z"/>
	<path class="st4" d="M70.6,249.9c-4.5-2.3-8.8-4.7-13.4-6.8c-4.7-2.1-9.8-2.7-14.7-4.3c-2.7-0.8-1.4-5,1.3-4.2
		c4.9,1.5,9.9,2.3,14.7,4.3c5,2,9.6,4.8,14.4,7.2C75.5,247.4,73.1,251.1,70.6,249.9L70.6,249.9z"/>
	<path class="st4" d="M71.9,250.8c-6.7,1.2-14,0.7-20,4.4c-2.4,1.5-4.3-2.4-2-3.9c6.4-3.9,14-3.5,21.1-4.8
		C73.8,246.1,74.7,250.3,71.9,250.8L71.9,250.8z"/>
	<path class="st4" d="M73.4,250.7c-2.2,1.9-4.4,3.8-6.6,5.7c-1.8,1.5-4.2,3.2-4.7,5.6c-0.5,2.8-4.7,1.4-4.2-1.3
		c0.5-2.5,2.3-4.2,4.1-5.9c2.7-2.5,5.6-4.9,8.4-7.4C72.6,245.5,75.5,248.8,73.4,250.7L73.4,250.7z"/>
	<path class="st5" d="M161.3,122.5c11.1,3.3,18.8,13.4,18.9,25v170.1c0.1,3.8-0.1,7.7-0.5,11.5c-0.5,3.1-1.6,6.1-3.2,8.8
		c-3.1,6-11.8,9-26,9c-13.8,0-22.3-2.9-25.7-8.7c-1.6-2.8-2.7-5.9-3.2-9.2c-0.4-4-0.6-8.1-0.5-12.2V213.8l-4.3,4
		c-22.1,14.1-34,8.2-41,0.5c-7-7.8-12.9-28.4-1-39c0,0,40.7-39.7,54.7-52.5C138.6,118.4,151.2,119.5,161.3,122.5z"/>
	<path class="st3" d="M116.9,145.7c-8.2,3.5-12.2,14-9.2,23.4c3,9.2,12,14,20.2,10.5c8-3.5,12.2-13.7,9.2-23.2
		C134.1,147.2,125.1,142.3,116.9,145.7z"/>
	<path class="st4" d="M122.3,181.6c-2.1,0-4.2-0.5-6.1-1.3c-4.5-2.2-7.8-6.1-9.2-10.8c-3.2-10,1.1-20.8,9.7-24.4l0,0
		c3.8-1.6,8.1-1.6,11.8,0.2c4.6,2.2,8,6.2,9.4,11.1c3.1,9.8-1.1,20.4-9.7,24.2C126.4,181.2,124.4,181.6,122.3,181.6z M117.2,146.5
		c-7.7,3.3-11.7,13.3-8.8,22.4c1.3,4.3,4.3,7.9,8.4,9.9c3.4,1.6,7.3,1.6,10.7,0.1c7.6-3.3,11.6-13.3,8.8-22.2c-1.3-4.4-4.5-8-8.6-10
		C124.4,145.1,120.6,145,117.2,146.5L117.2,146.5z"/>
	<path class="st2" d="M113.5,160.2c-4.1,1.4-6.3,5.9-4.8,10c0,0.1,0.1,0.2,0.1,0.2c1.6,4.2,6.3,6.3,10.5,4.8c0,0,0,0,0,0
		c4-1.5,6.1-6.1,4.5-10.1c0,0,0-0.1-0.1-0.1c-1.3-4-5.6-6.3-9.6-5C113.9,160.1,113.7,160.1,113.5,160.2z"/>
	<path class="st3" d="M110.2,159.9c-1.4,0.5-2.2,2.1-1.7,3.5c0,0,0,0,0,0.1c0.6,1.5,2.2,2.2,3.7,1.7c1.4-0.5,2.1-2.1,1.6-3.5
		c0,0,0,0,0,0c-0.4-1.4-2-2.2-3.4-1.7C110.3,159.9,110.3,159.9,110.2,159.9z"/>
	<path class="st2" d="M134.1,142c0,0-4.7-7.2-11.7-7.7c-7.2-0.5-13.7,5-13.7,5c-0.2,0.8-0.7,1.7,0.8,2c1.7,0,7-6,13-5.2
		C128.4,137,134.1,142,134.1,142z"/>
	<path class="st3" d="M74.7,159.9c-1.4,0.5-2.2,2.1-1.7,3.5c0,0,0,0.1,0,0.1c0.5,1.5,2.2,2.2,3.6,1.7c0,0,0,0,0,0
		c1.4-0.5,2.1-2.1,1.6-3.5c0,0,0,0,0-0.1c-0.4-1.4-1.9-2.2-3.4-1.8C74.9,159.9,74.8,159.9,74.7,159.9z"/>
	<path class="st6" d="M76.8,205.4c0,0,11.4,10.2,21.3,0.8C98.1,206.2,87.8,221.7,76.8,205.4z"/>
	<path class="st4" d="M168.1,224.5c17.7,5,35.2-2.7,43.3-19.2c6.2-12.6-0.5-34.7-13.3-41c-4.1-2-6.7,4.6-2.7,6.6
		c9.8,4.8,13.2,22.6,9.4,31.7c-5.5,13.1-20.9,19.1-34.1,15.3C166.4,216.8,163.7,223.3,168.1,224.5L168.1,224.5z"/>
	<path class="st4" d="M192.2,163.3c-1.9,1.3-4.8,2.7-7,1.6c-1.7-0.9-3.9,0.3-4.6,2c-0.7,1.8,0.2,3.9,2,4.6c4.5,2.3,10.2,0.1,14-2.6
		C200.3,166.2,195.9,160.7,192.2,163.3L192.2,163.3z"/>
	<path class="st4" d="M195.6,154.3c0.3,1.5,0.7,3.2,0.2,4.7s-1.8,2.8-2.9,3.8c-1.4,1.4-1.9,3.3-0.6,5c1.1,1.4,3.6,2,5,0.6
		c2.1-2.1,4.1-4.1,5.2-6.8c1.1-2.7,0.7-5.7,0.2-8.4C201.7,148.8,194.7,149.8,195.6,154.3L195.6,154.3z"/>
	<path class="st4" d="M186.6,160c1.9,1.8,3.6,3.9,5,6.2c1.1,1.6,3.5,1.7,5,0.6c1.5-1.2,1.8-3.4,0.6-5c-1.7-2.8-3.9-5.3-6.3-7.5
		c-1.6-1.2-3.8-0.9-5,0.7C184.8,156.6,185.1,158.8,186.6,160z"/>
	<path class="st7" d="M169.4,321.8c3.2,0,3.2-5,0-5C166.2,316.8,166.2,321.8,169.4,321.8z"/>
	<path class="st7" d="M165.7,327.4c-3.6,11-17.8,8.5-26.3,6.6c-3.1-0.7-4.5,4.1-1.3,4.8c11.6,2.6,27.8,4,32.4-10.1
		C171.5,325.6,166.7,324.3,165.7,327.4L165.7,327.4z"/>
	<path class="st7" d="M152.9,133.4c10.8,0.2,13.9,8.5,13.5,18.1c-0.1,3.2,4.9,3.2,5,0c0.2-5.6-0.3-11.7-3.7-16.4
		c-3.5-4.9-9-6.6-14.8-6.7C149.7,128.4,149.7,133.4,152.9,133.4z"/>
	<path class="st7" d="M169.4,162.6c3.2,0,3.2-5,0-5C166.2,157.6,166.2,162.6,169.4,162.6z"/>
</g>
<g>
	<g>
		<path class="st8" d="M453.1,371.7c0,4.6-39.8,8.3-88.8,8.3s-88.8-3.7-88.8-8.3s39.7-8.3,88.8-8.3S453.1,367,453.1,371.7z"/>
		<path class="st9" d="M436.2,222.2c7.9,12.6,25,5.3,33.8-2.5c11.3-10,12-31.6,3.4-43.3c-2.3-3.1-7.5-0.1-5.2,3
			c7,9.5,6.2,23.6,0.1,33.3c-4.3,6.9-21,15.5-26.8,6.4C439.4,215.9,434.2,218.9,436.2,222.2L436.2,222.2z"/>
		<path class="st9" d="M472.5,178.7c3.3-2.7,5.7-6.1,6-10.4c0-1.7-1.3-3-3-3c-1.7,0-3,1.4-3,3c-0.2,2.6-2.4,4.6-4.2,6.2
			c-1.2,1.2-1.2,3.1,0,4.3C469.5,179.8,471.3,179.8,472.5,178.7L472.5,178.7z"/>
		<path class="st9" d="M468.1,174.6c-3.1,0.2-8.2-1.7-9.6-4.7c-1.6-3.5-6.8-0.5-5.2,3c2.2,4.8,9.7,7.9,14.8,7.7
			C472,180.4,472,174.4,468.1,174.6L468.1,174.6z"/>
		<path class="st9" d="M471,176.4c0-3.3-1-6.6-2.7-9.5c-1.9-3.4-7.1-0.3-5.2,3c1.2,1.9,1.9,4.1,1.9,6.4
			C465,180.3,471,180.3,471,176.4z"/>
		<path class="st9" d="M255.9,174.9c-6,11.8-9.3,24.7-3.4,37.2c5.1,10.9,16.1,20.5,28.7,19.8c3.8-0.2,3.8-6.1,0-5.9
			c-10.3,0.6-18-7.1-22.9-15.4c-6.1-10.5-2.6-22.7,2.6-32.8C262.6,174.4,257.6,171.5,255.9,174.9L255.9,174.9z"/>
		<path class="st9" d="M252.9,164.5c-1.2,4.9-0.4,9.6,3.1,13.4c2.6,2.8,6.7-1.4,4.1-4.1c-2-2.2-2.2-4.9-1.6-7.7
			C259.4,162.4,253.8,160.8,252.9,164.5L252.9,164.5z"/>
		<path class="st9" d="M258.8,179.3c6.5,0.5,12.2-1,16.3-6.3c2.3-3-2.8-5.9-5-3c-2.7,3.5-7.2,3.7-11.2,3.4
			C255.1,173.1,255.1,179,258.8,179.3L258.8,179.3z"/>
		<path class="st9" d="M262.5,175.8c1.1-3,2.7-6.3,5.8-7.5c3.5-1.3,2-7-1.5-5.6c-5.3,2-8.1,6.4-9.9,11.5
			C255.6,177.8,261.2,179.3,262.5,175.8L262.5,175.8z"/>
		<path class="st9" d="M328.6,303.8l-6.3,63.1c-2.9-1-7.4-1.4-10.6-0.3c-0.6,0.2-0.9,0.9-0.7,1.5c0.1,0.3,0.4,0.6,0.8,0.7l13.5,3.6
			c1.1,0.3,2.2-0.2,2.7-1.2l8.2-62.9L328.6,303.8z"/>
		<path class="st9" d="M402.7,303.8l6.3,63.1c2.9-1,7.4-1.4,10.6-0.3c0.6,0.2,0.9,0.9,0.7,1.5c-0.1,0.4-0.4,0.6-0.8,0.7l-13.5,3.6
			c-1.1,0.3-2.2-0.2-2.7-1.2l-8.2-62.9L402.7,303.8z"/>
		<path class="st10" d="M299.4,153.6c6.2-7.9,14.8-14.4,26-19.8c11.2-5.3,24.1-8,38.7-8c14.7,0,27.5,2.6,38.4,7.8
			c10.9,5.2,19.6,11.7,25.9,19.5c6.5,8.2,11.6,17.4,15.1,27.3c6.4,17.8,9.7,36.6,9.6,55.5c0,35.1-8.3,62.8-24.9,83.4
			c-6.2,7.7-14.7,14.1-25.7,19.2s-23.6,7.6-38.1,7.6c-14.4,0-27.3-2.6-38.4-7.7c-11.2-5.1-19.9-11.5-26.1-19
			c-6.6-8.1-11.8-17.2-15.5-27c-6.2-16.7-9.3-35.5-9.3-56.6c0-19.4,2.5-35.9,7.5-49.7C287.7,172.3,293.3,161.5,299.4,153.6z
			 M363.9,282.3c17.4,0,26.1-15.1,26.1-45.2v-1.4c0-30.9-8.6-46.4-25.8-46.4c-17.2,0-25.8,15.5-25.8,46.5
			C338.3,266.8,346.9,282.3,363.9,282.3L363.9,282.3z"/>
		<path class="st11" d="M320.3,129.2c0,0,5.9-8.5,14.1-9.1c8.2-0.6,15.9,5.9,15.9,5.9c0.6,0.8,1.2,2.1-0.6,2.1
			c-2.1,0.3-8.2-6.7-15.3-5.9C327.3,123.3,320.3,129.2,320.3,129.2z"/>
		<path class="st12" d="M343.8,138.7c9.4,4.1,14.4,16.5,10.9,27.7c-3.5,10.9-14.1,16.5-23.8,12.4c-9.4-3.8-14.4-16.2-10.9-27.4
			C323.5,140.5,334.1,134.9,343.8,138.7z"/>
		<path class="st9" d="M337.4,181.2c-2.4,0-4.8-0.5-7-1.4c-10-4.1-15.1-16.9-11.5-28.6c1.7-5.6,5.6-10.2,10.9-12.8
			c4.5-2.1,9.7-2.3,14.3-0.5l0,0c10,4.4,15.1,17.3,11.5,28.9c-1.7,5.6-5.7,10.3-10.9,12.8C342.4,180.6,339.9,181.1,337.4,181.2z
			 M337.6,138.6c-2.4,0-4.7,0.5-6.8,1.5c-4.7,2.3-8.3,6.5-9.8,11.6c-3.3,10.5,1.4,22.5,10.3,26.1c4,1.7,8.6,1.7,12.6-0.1
			c4.8-2.3,8.3-6.5,9.9-11.6c3.4-10.6-1.3-22.4-10.3-26.4C341.6,138.9,339.6,138.6,337.6,138.6L337.6,138.6z"/>
		<path class="st11" d="M346.9,156.6c4.9,1.8,7.4,7.1,5.6,12c0,0,0,0,0,0.1c-1.8,5-7.4,7.6-12.1,5.6c-4.8-1.5-7.4-6.6-5.8-11.4
			c0.1-0.2,0.2-0.5,0.3-0.7c1.7-4.8,7-7.4,11.8-5.7C346.7,156.5,346.8,156.6,346.9,156.6z"/>
		<path class="st12" d="M338,156.3c1.6,0.6,2.4,2.3,1.9,3.9c0,0,0,0,0,0c-0.5,1.6-2.2,2.4-3.8,1.9c-0.1,0-0.1,0-0.2-0.1
			c-1.6-0.5-2.4-2.2-1.9-3.7c0-0.1,0.1-0.2,0.1-0.2C334.5,156.6,336.3,155.7,338,156.3C337.9,156.3,337.9,156.3,338,156.3z"/>
		<path class="st11" d="M408.3,129.2c0,0-5.6-8.5-13.8-9.1c-8.5-0.6-16.2,5.9-16.2,5.9c-0.3,0.8-0.8,2.1,0.8,2.3
			c2.1,0,8.2-7.1,15.3-6.2C401.5,123.3,408.3,129.2,408.3,129.2z"/>
		<path class="st12" d="M385.6,139c-9.7,4.1-14.4,16.5-10.9,27.7c3.5,10.9,14.1,16.5,23.8,12.4c9.4-4.1,14.4-16.2,10.9-27.4
			C405.9,140.8,395.3,134.9,385.6,139z"/>
		<path class="st9" d="M392,181.4c-2.5,0-5-0.5-7.3-1.6c-5.3-2.6-9.2-7.2-10.9-12.8c-3.8-11.9,1.3-24.6,11.5-28.9
			c4.5-1.9,9.6-1.9,14,0.2c5.4,2.6,9.4,7.4,11.2,13.1c3.7,11.6-1.4,24.2-11.5,28.6C396.8,180.9,394.4,181.4,392,181.4z M392,138.8
			c-2.1,0-4.1,0.4-6,1.2c-9.1,3.8-13.7,15.7-10.3,26.4c1.5,5.1,5.1,9.3,9.9,11.6c4,1.8,8.6,1.9,12.6,0.1c9-3.9,13.6-15.6,10.3-26.1
			c-1.6-5.2-5.2-9.5-10.1-11.8C396.4,139.2,394.2,138.8,392,138.8z"/>
		<path class="st11" d="M382.5,156.7c-4.8,1.7-7.4,7-5.7,11.8c0,0.1,0.1,0.2,0.1,0.3c1.9,5,7.4,7.5,12.3,5.6c0,0,0,0,0,0
			c4.7-1.8,7.4-7.4,5.3-12.1c-1.5-4.8-6.6-7.4-11.4-5.8C383,156.5,382.8,156.6,382.5,156.7z"/>
		<path class="st12" d="M393.6,156.3c1.6,0.6,2.4,2.4,1.8,4c0,0,0,0,0,0c-0.5,1.6-2.2,2.4-3.8,1.9c-0.1,0-0.1,0-0.2-0.1
			c-1.6-0.5-2.4-2.2-1.9-3.7c0-0.1,0.1-0.2,0.1-0.2C390.2,156.6,391.9,155.7,393.6,156.3C393.5,156.3,393.6,156.3,393.6,156.3z"/>
		<path class="st13" d="M435.4,268.6c-2.9,21-15.6,39.4-34.2,49.6c-3,1.6-0.3,6.2,2.7,4.5c20.2-11.1,33.9-31.3,36.8-54.1
			C441.1,265.2,435.8,265.2,435.4,268.6z"/>
		<path class="st13" d="M391.5,327c3.4,0,3.4-5.3,0-5.3C388.1,321.8,388.1,327,391.5,327z"/>
		<path class="st13" d="M291.2,240c0-22,0.7-47.2,14.8-65.3c2.1-2.6-1.7-6.4-3.7-3.7c-15.1,19.4-16.3,45.4-16.3,69
			C285.9,243.4,291.2,243.4,291.2,240L291.2,240z"/>
		<path class="st13" d="M312.6,167.5c3.4,0,3.4-5.3,0-5.3C309.3,162.2,309.3,167.5,312.6,167.5z"/>
	</g>
	<g>
		<path class="st8" d="M238.7,372.6c0,4.1-48.8,7.4-109,7.4s-109-3.3-109-7.4s48.8-7.4,109-7.4S238.7,368.6,238.7,372.6z"/>
		<path class="st14" d="M174.1,222.4c-6.6,16,12,27.2,25.2,30.2c17.1,3.9,37.9-10.1,43.1-26.2c1.4-4.2-5-7.1-6.4-2.8
			c-4.2,13-18.1,21.8-31.3,22.6c-9.5,0.6-28.9-9.4-24.2-20.9C182.3,221.1,175.8,218.2,174.1,222.4L174.1,222.4z"/>
		<path class="st14" d="M239.7,227.2c4.8,1.2,9.6,1.2,13.9-1.4c1.6-1.1,1.9-3.3,0.8-4.8c0,0,0,0,0,0c-1.1-1.5-3.3-1.9-4.9-0.8
			c-2.6,1.6-5.9,0.9-8.7,0.2c-1.8-0.5-3.7,1.1-4,2.9C236.6,225.1,237.8,226.9,239.7,227.2L239.7,227.2z"/>
		<path class="st14" d="M240.6,220.3c-2.3-2.9-4-8.8-2.1-12.2c2.2-3.9-4.2-6.7-6.4-2.8c-3.1,5.4-0.9,14.5,2.8,19.1
			C237.7,227.9,243.4,223.8,240.6,220.3L240.6,220.3z"/>
		<path class="st14" d="M240.8,224.2c3.1-2.3,5.6-5.4,7.1-9c1.9-4.1-4.5-6.9-6.4-2.8c-1,2.4-2.6,4.6-4.7,6.1
			C233.1,221.2,237.1,226.8,240.8,224.2L240.8,224.2z"/>
		<path class="st15" d="M192.9,311.7c9.2,0,15.8,1.1,19.7,3.2c3.9,2.1,6.7,5.6,7.9,9.8c1.4,4.4,2,10.1,2,17.2c0,7.1-0.7,12.8-2.2,17
			c-1.5,4.3-3.9,7.2-7.3,8.8c-5,2.7-11.9,4.1-20.9,4h-132c-8.1,0-15.1-3-20.9-9.1c-5.6-5.6-8.8-13.3-8.7-21.3
			c0-12.2,4.2-23.3,12.7-33.6c8.6-10.4,19-19.3,30.5-26.3c11.9-7.3,23.9-14.5,35.8-21.6c11.3-6.6,21.5-14.7,30.5-24.1
			c8.4-9,12.7-18.5,12.7-28.7c0-2-0.8-4.9-2.4-8.6c-1.3-3.3-3.1-6.3-5.2-9.1c-1.9-2.4-4.9-4.6-9-6.6c-4.1-2-9.7-3-16.9-3
			c-7.1-0.1-13.9,2.8-18.7,7.9c-5.3,5.3-8.3,10.5-8.9,15.7l-1.3,7.8v2c0.1,3.7-0.1,7.4-0.5,11.1c-0.5,3-1.6,5.9-3.2,8.4
			c-3.4,5.4-12.2,8.1-26.3,8.1c-15.7,0-25.1-4.3-28-12.8c-1.1-3.6-1.7-9.3-1.7-17.2c0-23.4,8.4-44.4,25.2-62.9S94.5,120,121.6,120
			c27.1,0,49.1,9.4,66,28.2s25.3,40.2,25.3,64.3c0,12.6-2.8,25.1-8.4,36.5c-5.7,11.4-12.4,20.6-20.3,27.6
			c-16.7,14.8-31.5,24.9-44.6,30l-8.4,3.4v1.7L192.9,311.7z"/>
		<path class="st12" d="M194,161.6c-8.6,5-11.4,17.5-6.7,27.4c5,10.1,15.8,13.9,24.4,8.6c8.4-5,11.4-17.5,6.7-27.4
			C213.5,160.3,202.6,156.3,194,161.6z"/>
		<path class="st14" d="M203.4,200.8c-1.6,0-3.1-0.2-4.7-0.7c-5.4-1.7-9.9-5.6-12.2-10.8c-5-10.6-1.8-23.4,7-28.5
			c4-2.4,8.8-3.1,13.2-1.7c5.4,1.7,9.9,5.5,12.4,10.7c4.9,10.3,1.7,23.4-7,28.5C209.5,199.9,206.5,200.8,203.4,200.8z M202.1,160.1
			c-2.7,0-5.4,0.8-7.7,2.2l0,0c-8.1,4.7-10.9,16.5-6.3,26.3c2.2,4.7,6.2,8.3,11.2,9.9c4,1.2,8.4,0.6,12-1.6
			c7.9-4.7,10.8-16.8,6.3-26.3c-2.2-4.7-6.3-8.3-11.3-9.8C205,160.3,203.6,160.1,202.1,160.1z"/>
		<path class="st11" d="M205.4,164.5c-4,2.1-5.5,7.1-3.4,11.1c2.2,3.9,7.1,5.4,11,3.2c0,0,0.1,0,0.1,0c4-1.9,5.4-6.9,3.2-10.9
			C214.3,163.9,209.4,162.4,205.4,164.5C205.5,164.5,205.4,164.5,205.4,164.5z"/>
		<path class="st11" d="M210.4,154.3c0,0-5.5-6.1-12.1-5.6c-6.6,0.3-12.1,6.3-12.1,6.3c-0.3,0.7-0.4,1.7,0.9,1.7
			c1.6-0.2,5.8-6.5,11.4-6.4S210.4,154.3,210.4,154.3z"/>
		<path class="st16" d="M210.6,208.4c-0.2,0.2-0.5,0.3-0.7,0.5l-0.1,0.1c-0.6,0.4-1.2,0.7-1.9,1.1c-1.5,0.8-3.1,1.5-4.7,2.1l0,0
			c-0.5,0.2-1.1,0.4-1.7,0.6l-0.4,0.1c-0.6,0.2-1.2,0.4-1.7,0.5c-1.7,0.5-3.4,0.9-5.1,1.2l0,0l-1.7,0.3l-1.4,0.2l0,0
			c-0.2,0.9-0.6,1.7-1.1,2.4c0.5-0.7,0.9-1.6,1.1-2.4l0,0c-1.8,0.2-3.6,0.3-5.4,0.3c-0.7,0-1.3,0-2,0h-0.1c-0.7,0-1.3,0-2-0.1l0,0
			c-0.6,0.7-1.2,1.3-2,1.7c0.8-0.5,1.4-1.1,2-1.7l0,0c-1.6-0.1-3.2-0.3-4.7-0.6c-0.6-0.1-1.2-0.3-1.8-0.4H175
			c-0.6-0.1-1.2-0.3-1.7-0.5c0.1,0.4,0.2,0.8,0.4,1.1v0.1c0.1,0.4,0.3,0.7,0.5,1.1l0.1,0.1c0.2,0.3,0.4,0.7,0.6,1l0.1,0.1
			c0.2,0.3,0.5,0.6,0.7,0.9l0.1,0.1c0.3,0.3,0.5,0.6,0.9,0.9l0.1,0.1c0.3,0.3,0.6,0.5,1,0.8l0.1,0.1c0.3,0.3,0.7,0.5,1.1,0.7h0.1
			c0.4,0.2,0.8,0.5,1.2,0.7l0,0c1.5,0.8,3.1,1.4,4.8,1.7l0,0c2.1,0.5,4.2,0.7,6.3,0.6l0,0c2-0.1,4-0.4,6-0.9l0,0l0.2-0.1
			c0.5-0.1,1-0.3,1.4-0.4c1.6-0.5,3.1-1.2,4.6-2l0,0c1.5-0.8,2.8-1.8,4-3l0,0l0.5-0.5l0,0c0.1-0.2,0.3-0.3,0.4-0.5l0.1-0.1l0.4-0.5
			l0.1-0.1c0.1-0.2,0.2-0.3,0.4-0.5l0.1-0.1c0.1-0.1,0.2-0.3,0.3-0.5l0.1-0.1l0.3-0.5c0-0.1,0.1-0.1,0.1-0.2
			c0.1-0.1,0.2-0.3,0.2-0.4l0.1-0.2c0.1-0.1,0.1-0.3,0.2-0.4s0.1-0.1,0.1-0.2c0-0.1,0.1-0.3,0.2-0.4s0.1-0.2,0.1-0.2l0.1-0.4
			l0.1-0.3c0-0.1,0.1-0.3,0.1-0.4s0-0.2,0.1-0.3c0.1-0.1,0.1-0.2,0.1-0.4c0-0.1,0-0.2,0.1-0.3c0.1-0.1,0-0.2,0-0.3
			c0-0.1,0-0.2,0-0.4v-0.3v-0.7c0-0.2,0-0.4,0-0.7C211.1,208,210.9,208.2,210.6,208.4z"/>
		<path class="st11" d="M152,161.4c0,0,4.7-9.9,13.4-11.6c8.6-1.7,17.8,3.6,17.8,3.6c0.7,1,1.1,2.1-0.5,2.6c-2.2,0.3-9.8-6.1-17-4
			C158.5,154.1,152,161.4,152,161.4z"/>
		<path class="st12" d="M173.9,163.9c10.4,2.7,17.5,15,15.5,27c-2.1,12.3-12.5,19.6-23.2,16.7c-10.7-2.7-17.5-15-15.5-27
			C152.8,168.5,163.1,160.9,173.9,163.9z"/>
		<path class="st14" d="M170.9,209c-1.7,0-3.3-0.2-4.9-0.7c-10.9-2.7-18.2-15.3-16.2-28c1-6.2,4.6-11.7,9.8-15.2
			c4.3-2.7,9.6-3.5,14.5-2.2c10.7,2.8,18.2,15.6,16.2,28c-1.1,6.5-4.6,12-9.6,15.2C177.7,208,174.3,209,170.9,209z M169.2,164.1
			c-3.1,0-6.1,0.9-8.8,2.6c-4.8,3.2-8.1,8.3-9,14c-1.9,11.8,4.8,23.5,14.9,26c4.5,1.3,9.4,0.6,13.3-2c4.6-2.9,7.8-8,8.8-14
			c1.8-11.5-5-23.4-14.9-26l0,0C172.2,164.3,170.7,164.1,169.2,164.1z"/>
		<path class="st11" d="M180,169.8c4.8,1.1,7.9,5.9,6.8,10.7c0,0,0,0,0,0.1c-0.9,4.8-5.5,8-10.3,7c-0.1,0-0.1,0-0.2,0
			c-4.9-1.1-7.9-6-6.8-10.9C170.6,172,175.3,169,180,169.8L180,169.8z"/>
		<path class="st12" d="M171.9,169.9c1.9,0.4,3,2.3,2.6,4.2c0,0,0,0,0,0c-0.3,1.9-2.1,3.1-4,2.7c0,0-0.1,0-0.1,0
			c-1.9-0.4-3.1-2.3-2.7-4.2C168.1,170.8,169.9,169.5,171.9,169.9L171.9,169.9L171.9,169.9z"/>
		<path class="st12" d="M203.6,166.2c1.9,0.4,3,2.3,2.6,4.2c0,0,0,0,0,0c-0.3,1.9-2.1,3.1-4,2.7c0,0-0.1,0-0.1,0
			c-1.9-0.4-3.1-2.3-2.7-4.2C199.8,167,201.6,165.8,203.6,166.2L203.6,166.2z"/>
		<path class="st14" d="M245.7,272.6c-0.4-1.9-2.3-3.1-4.2-2.7c-1.8,0.2-3.6-0.3-5.1-1.3c2-1,3.9-2.3,5.6-3.8c3.4-3-1.3-8.2-4.7-5.2
			c-1.3,1.2-2.8,2.2-4.3,2.9c0.1-3.1,1.2-6.5,3.3-8.1c3.6-2.7-1.1-7.8-4.7-5.2c-5,3.7-6.6,12.9-5.1,18.6c0.1,0.3,0.2,0.5,0.3,0.7
			c-9.2,9.3-24.7,11.5-36.7,7.1c-6-2.2-13.8-12.7-16.2-18.6c-0.2,2.2-1.4,3.6-4.6,6.8c3.2,6.1,7.8,11.4,13.3,15.5
			c13.7,10.1,37.4,6.1,49-5.7c3.4,2.2,7.2,3.5,11.4,3C244.9,276.4,246.1,274.6,245.7,272.6C245.7,272.7,245.7,272.7,245.7,272.6z"/>
		<path class="st17" d="M147.2,137.2c-16.4-8.7-34.2-7.4-51.5-2c-3.3,1-1.9,6.3,1.4,5.2c15.8-4.9,32.1-6.6,47.3,1.4
			C147.6,143.5,150.3,138.8,147.2,137.2L147.2,137.2z"/>
		<path class="st17" d="M84,147c3.5,0,3.5-5.4,0-5.4S80.5,147,84,147z"/>
		<path class="st17" d="M58.3,307.9c-11.1,10.9-24.6,38.1-7.7,50c2.9,2,5.6-2.7,2.7-4.7c-6.5-4.6-5.4-14.3-3.5-20.9
			c2.2-7.8,6.5-14.9,12.3-20.6C64.6,309.2,60.8,305.4,58.3,307.9L58.3,307.9z"/>
		<path class="st17" d="M63,364.9c3.5,0,3.5-5.4,0-5.4C59.5,359.5,59.5,364.9,63,364.9z"/>
	</g>
</g>
</svg>
