<?xml version="1.0" encoding="utf-8"?>
<!-- Generator: Adobe Illustrator 27.8.0, SVG Export Plug-In . SVG Version: 6.00 Build 0)  -->
<svg version="1.1" id="ainmhite" xmlns="http://www.w3.org/2000/svg" xmlns:xlink="http://www.w3.org/1999/xlink" x="0px" y="0px"
	 viewBox="0 0 500 500" style="enable-background:new 0 0 500 500;" xml:space="preserve">
<style type="text/css">
	.st0{display:none;}
	.st1{display:inline;opacity:0.5;fill:#BDBEC0;enable-background:new    ;}
	.st2{display:inline;fill-rule:evenodd;clip-rule:evenodd;fill:#231F20;}
	.st3{display:inline;fill-rule:evenodd;clip-rule:evenodd;fill:#FFFFFF;}
	.st4{display:inline;fill:#00A199;}
	.st5{display:inline;fill:#31BDB5;}
	.st6{display:inline;fill:#231F20;}
	.st7{display:inline;fill:#4CC2BE;}
	.st8{opacity:0.5;fill:#BDBEC0;enable-background:new    ;}
	.st9{fill:#37AAD6;}
	.st10{fill:#4AC1F0;}
	.st11{fill-rule:evenodd;clip-rule:evenodd;fill:#231F20;}
	.st12{fill-rule:evenodd;clip-rule:evenodd;fill:#FFFFFF;}
	.st13{fill:#73D0F2;}
	.st14{fill:#E41D31;}
	.st15{fill:#D2D3D4;}
	.st16{fill:#EE2C3D;}
	.st17{fill:#F26C7C;}
</style>
<g class="st0">
	<path class="st1" d="M227.5,371.8c0,4.4-35.1,7.9-78.5,7.9s-78.5-3.6-78.5-7.9c0-4.4,35.1-7.9,78.5-7.9S227.5,367.4,227.5,371.8z"
		/>
	<path class="st2" d="M63.6,141.3c0,0,5-7.2,12-7.7c7-0.5,13.5,5,13.5,5c0.5,0.7,1,1.7-0.5,1.7c-1.7,0.2-7-5.7-13-5
		C69.6,136.3,63.6,141.3,63.6,141.3z"/>
	<path class="st3" d="M80.5,145.5c8,3.5,12.2,14,9.2,23.4c-3,9.2-12,14-20.2,10.5c-8-3.2-12.2-13.7-9.2-23.2
		C63.3,147,72.3,142.3,80.5,145.5z"/>
	<path class="st4" d="M75.1,181.4c-2,0-4-0.4-5.9-1.2c-8.5-3.4-12.8-14.3-9.7-24.2c1.4-4.7,4.8-8.6,9.2-10.8
		c3.8-1.8,8.2-1.9,12.1-0.4l0,0c8.4,3.7,12.8,14.6,9.7,24.4c-1.4,4.7-4.8,8.7-9.2,10.8C79.3,180.9,77.3,181.3,75.1,181.4z
		 M75.2,145.3c-2,0-4,0.5-5.8,1.3c-4,2-7.1,5.6-8.3,9.9c-2.8,9,1.2,19.1,8.8,22.2c3.4,1.5,7.3,1.4,10.7-0.1c4.1-2,7.1-5.5,8.4-9.9
		c2.9-9-1.1-19.1-8.8-22.4C78.6,145.7,76.9,145.3,75.2,145.3L75.2,145.3z"/>
	<path class="st2" d="M83.3,161.5c4.1,1.5,6.2,6.1,4.7,10.2c0,0,0,0,0,0c-1.5,4.2-6.2,6.5-10.2,4.7c-4-1.3-6.2-5.6-5-9.6
		c0.1-0.2,0.1-0.4,0.2-0.6c1.4-4.1,5.9-6.2,10-4.8C83.1,161.4,83.2,161.4,83.3,161.5z"/>
	<path class="st4" d="M121.2,296.5c0,20.4-7.5,67.9-7.5,67.9c-2.9-1.5-7.8-2.8-11.4-2.2c-0.7,0.1-1.1,0.8-1,1.5
		c0.1,0.4,0.3,0.7,0.7,0.9l14,6.2c1.1,0.5,2.4,0.2,3.1-0.8l19.7-66.7C138.8,303.4,121.2,294.1,121.2,296.5z"/>
	<path class="st4" d="M180.1,296.5L180,366c3.2-0.7,8.2-0.7,11.6,0.8c0.6,0.3,0.9,1.1,0.6,1.7c-0.2,0.4-0.5,0.6-0.9,0.7l-15.2,2.5
		c-1.2,0.2-2.3-0.5-2.8-1.6l-2-69.5L180.1,296.5z"/>
	<path class="st4" d="M139.5,260.6c-12.1,28.6-52.3,7.9-68.1-9.3c-1.9-2.1,1.3-5,3.2-2.9c13.2,14.4,49.8,30.1,60.5,5
		c1.1-2.6,5.3-1.3,4.2,1.3L139.5,260.6z"/>
	<path class="st4" d="M81.5,230.2c3,3.6,4.2,7.8,2.9,12.3c-1.5,5.3-7.1,7.3-12,8.1c-2.8,0.4-3.7-3.8-0.9-4.3
		c3.5-0.5,7.2-1.4,8.7-5.1c1.1-2.8-0.2-5.9-2-8.1C76.5,231,79.7,228.1,81.5,230.2L81.5,230.2z"/>
	<path class="st4" d="M72.4,227.8c-3.4-2.4-9.7,2-10.2,5.7c-0.4,2.9,1.5,5.7,3.2,7.7c2.1,2.5,4.7,3.3,7.4,4.9c2.4,1.5,0,5.1-2.4,3.7
		c-1.9-1.2-3.9-1.8-5.7-3.3c-1.7-1.3-3.1-2.9-4.3-4.7c-2.2-3.1-3.4-7.2-2-10.9c2.2-5.7,10.8-10.7,16.4-6.8
		C77,225.8,74.6,229.5,72.4,227.8L72.4,227.8z"/>
	<path class="st4" d="M70.6,249.9c-4.5-2.3-8.8-4.7-13.4-6.8c-4.7-2.1-9.8-2.7-14.7-4.3c-2.7-0.8-1.4-5,1.3-4.2
		c4.9,1.5,9.9,2.3,14.7,4.3c5,2,9.6,4.8,14.4,7.2C75.5,247.4,73.1,251.1,70.6,249.9L70.6,249.9z"/>
	<path class="st4" d="M71.9,250.8c-6.7,1.2-14,0.7-20,4.4c-2.4,1.5-4.3-2.4-2-3.9c6.4-3.9,14-3.5,21.1-4.8
		C73.8,246.1,74.7,250.3,71.9,250.8L71.9,250.8z"/>
	<path class="st4" d="M73.4,250.7c-2.2,1.9-4.4,3.8-6.6,5.7c-1.8,1.5-4.2,3.2-4.7,5.6c-0.5,2.8-4.7,1.4-4.2-1.3
		c0.5-2.5,2.3-4.2,4.1-5.9c2.7-2.5,5.6-4.9,8.4-7.4C72.6,245.5,75.5,248.8,73.4,250.7L73.4,250.7z"/>
	<path class="st5" d="M161.3,122.5c11.1,3.3,18.8,13.4,18.9,25v170.1c0.1,3.8-0.1,7.7-0.5,11.5c-0.5,3.1-1.6,6.1-3.2,8.8
		c-3.1,6-11.8,9-26,9c-13.8,0-22.3-2.9-25.7-8.7c-1.6-2.8-2.7-5.9-3.2-9.2c-0.4-4-0.6-8.1-0.5-12.2V213.8l-4.3,4
		c-22.1,14.1-34,8.2-41,0.5c-7-7.8-12.9-28.4-1-39c0,0,40.7-39.7,54.7-52.5C138.6,118.4,151.2,119.5,161.3,122.5z"/>
	<path class="st3" d="M116.9,145.7c-8.2,3.5-12.2,14-9.2,23.4c3,9.2,12,14,20.2,10.5c8-3.5,12.2-13.7,9.2-23.2
		C134.1,147.2,125.1,142.3,116.9,145.7z"/>
	<path class="st4" d="M122.3,181.6c-2.1,0-4.2-0.5-6.1-1.3c-4.5-2.2-7.8-6.1-9.2-10.8c-3.2-10,1.1-20.8,9.7-24.4l0,0
		c3.8-1.6,8.1-1.6,11.8,0.2c4.6,2.2,8,6.2,9.4,11.1c3.1,9.8-1.1,20.4-9.7,24.2C126.4,181.2,124.4,181.6,122.3,181.6z M117.2,146.5
		c-7.7,3.3-11.7,13.3-8.8,22.4c1.3,4.3,4.3,7.9,8.4,9.9c3.4,1.6,7.3,1.6,10.7,0.1c7.6-3.3,11.6-13.3,8.8-22.2c-1.3-4.4-4.5-8-8.6-10
		C124.4,145.1,120.6,145,117.2,146.5L117.2,146.5z"/>
	<path class="st2" d="M113.5,160.2c-4.1,1.4-6.3,5.9-4.8,10c0,0.1,0.1,0.2,0.1,0.2c1.6,4.2,6.3,6.3,10.5,4.8c0,0,0,0,0,0
		c4-1.5,6.1-6.1,4.5-10.1c0,0,0-0.1-0.1-0.1c-1.3-4-5.6-6.3-9.6-5C113.9,160.1,113.7,160.1,113.5,160.2z"/>
	<path class="st3" d="M110.2,159.9c-1.4,0.5-2.2,2.1-1.7,3.5c0,0,0,0,0,0.1c0.6,1.5,2.2,2.2,3.7,1.7c1.4-0.5,2.1-2.1,1.6-3.5
		c0,0,0,0,0,0c-0.4-1.4-2-2.2-3.4-1.7C110.3,159.9,110.3,159.9,110.2,159.9z"/>
	<path class="st2" d="M134.1,142c0,0-4.7-7.2-11.7-7.7c-7.2-0.5-13.7,5-13.7,5c-0.2,0.8-0.7,1.7,0.8,2c1.7,0,7-6,13-5.2
		C128.4,137,134.1,142,134.1,142z"/>
	<path class="st3" d="M74.7,159.9c-1.4,0.5-2.2,2.1-1.7,3.5c0,0,0,0.1,0,0.1c0.5,1.5,2.2,2.2,3.6,1.7c0,0,0,0,0,0
		c1.4-0.5,2.1-2.1,1.6-3.5c0,0,0,0,0-0.1c-0.4-1.4-1.9-2.2-3.4-1.8C74.9,159.9,74.8,159.9,74.7,159.9z"/>
	<path class="st6" d="M76.8,205.4c0,0,11.4,10.2,21.3,0.8C98.1,206.2,87.8,221.7,76.8,205.4z"/>
	<path class="st4" d="M168.1,224.5c17.7,5,35.2-2.7,43.3-19.2c6.2-12.6-0.5-34.7-13.3-41c-4.1-2-6.7,4.6-2.7,6.6
		c9.8,4.8,13.2,22.6,9.4,31.7c-5.5,13.1-20.9,19.1-34.1,15.3C166.4,216.8,163.7,223.3,168.1,224.5L168.1,224.5z"/>
	<path class="st4" d="M192.2,163.3c-1.9,1.3-4.8,2.7-7,1.6c-1.7-0.9-3.9,0.3-4.6,2c-0.7,1.8,0.2,3.9,2,4.6c4.5,2.3,10.2,0.1,14-2.6
		C200.3,166.2,195.9,160.7,192.2,163.3L192.2,163.3z"/>
	<path class="st4" d="M195.6,154.3c0.3,1.5,0.7,3.2,0.2,4.7s-1.8,2.8-2.9,3.8c-1.4,1.4-1.9,3.3-0.6,5c1.1,1.4,3.6,2,5,0.6
		c2.1-2.1,4.1-4.1,5.2-6.8c1.1-2.7,0.7-5.7,0.2-8.4C201.7,148.8,194.7,149.8,195.6,154.3L195.6,154.3z"/>
	<path class="st4" d="M186.6,160c1.9,1.8,3.6,3.9,5,6.2c1.1,1.6,3.5,1.7,5,0.6c1.5-1.2,1.8-3.4,0.6-5c-1.7-2.8-3.9-5.3-6.3-7.5
		c-1.6-1.2-3.8-0.9-5,0.7C184.8,156.6,185.1,158.8,186.6,160z"/>
	<path class="st7" d="M169.4,321.8c3.2,0,3.2-5,0-5C166.2,316.8,166.2,321.8,169.4,321.8z"/>
	<path class="st7" d="M165.7,327.4c-3.6,11-17.8,8.5-26.3,6.6c-3.1-0.7-4.5,4.1-1.3,4.8c11.6,2.6,27.8,4,32.4-10.1
		C171.5,325.6,166.7,324.3,165.7,327.4L165.7,327.4z"/>
	<path class="st7" d="M152.9,133.4c10.8,0.2,13.9,8.5,13.5,18.1c-0.1,3.2,4.9,3.2,5,0c0.2-5.6-0.3-11.7-3.7-16.4
		c-3.5-4.9-9-6.6-14.8-6.7C149.7,128.4,149.7,133.4,152.9,133.4z"/>
	<path class="st7" d="M169.4,162.6c3.2,0,3.2-5,0-5C166.2,157.6,166.2,162.6,169.4,162.6z"/>
</g>
<g>
	<g>
		<path class="st8" d="M429.8,371.7c0,4.6-39.8,8.3-88.8,8.3s-88.8-3.7-88.8-8.3s39.7-8.3,88.8-8.3S429.8,367,429.8,371.7z"/>
		<path class="st9" d="M412.9,222.2c7.9,12.6,25,5.3,33.8-2.5c11.3-10,12-31.6,3.4-43.3c-2.3-3.1-7.5-0.1-5.2,3
			c7,9.5,6.2,23.6,0.1,33.3c-4.3,6.9-21,15.5-26.8,6.4C416.1,215.9,410.9,218.9,412.9,222.2L412.9,222.2z"/>
		<path class="st9" d="M449.2,178.7c3.3-2.7,5.7-6.1,6-10.4c0-1.7-1.3-3-3-3c-1.7,0-3,1.4-3,3c-0.2,2.6-2.4,4.6-4.2,6.2
			c-1.2,1.2-1.2,3.1,0,4.3C446.2,179.8,448,179.8,449.2,178.7L449.2,178.7z"/>
		<path class="st9" d="M444.9,174.6c-3.1,0.2-8.2-1.7-9.6-4.7c-1.6-3.5-6.8-0.5-5.2,3c2.2,4.8,9.7,7.9,14.8,7.7
			C448.7,180.4,448.7,174.4,444.9,174.6L444.9,174.6z"/>
		<path class="st9" d="M447.7,176.4c0-3.3-1-6.6-2.7-9.5c-1.9-3.4-7.1-0.3-5.2,3c1.2,1.9,1.9,4.1,1.9,6.4
			C441.7,180.3,447.7,180.3,447.7,176.4z"/>
		<path class="st9" d="M232.6,174.9c-6,11.8-9.3,24.7-3.4,37.2c5.1,10.9,16.1,20.5,28.7,19.8c3.8-0.2,3.8-6.1,0-5.9
			c-10.3,0.6-18-7.1-22.9-15.4c-6.1-10.5-2.6-22.7,2.6-32.8C239.3,174.4,234.3,171.5,232.6,174.9L232.6,174.9z"/>
		<path class="st9" d="M229.6,164.5c-1.2,4.9-0.4,9.6,3.1,13.4c2.6,2.8,6.7-1.4,4.1-4.1c-2-2.2-2.2-4.9-1.6-7.7
			C236.1,162.4,230.5,160.8,229.6,164.5L229.6,164.5z"/>
		<path class="st9" d="M235.5,179.3c6.5,0.5,12.2-1,16.3-6.3c2.3-3-2.8-5.9-5-3c-2.7,3.5-7.2,3.7-11.2,3.4
			C231.8,173.1,231.8,179,235.5,179.3L235.5,179.3z"/>
		<path class="st9" d="M239.2,175.8c1.1-3,2.7-6.3,5.8-7.5c3.5-1.3,2-7-1.5-5.6c-5.3,2-8.1,6.4-9.9,11.5
			C232.3,177.8,237.9,179.3,239.2,175.8L239.2,175.8z"/>
		<path class="st9" d="M305.3,303.8l-6.3,63.1c-2.9-1-7.4-1.4-10.6-0.3c-0.6,0.2-0.9,0.9-0.7,1.5c0.1,0.3,0.4,0.6,0.8,0.7l13.5,3.6
			c1.1,0.3,2.2-0.2,2.7-1.2l8.2-62.9L305.3,303.8z"/>
		<path class="st9" d="M379.4,303.8l6.3,63.1c2.9-1,7.4-1.4,10.6-0.3c0.6,0.2,0.9,0.9,0.7,1.5c-0.1,0.4-0.4,0.6-0.8,0.7l-13.5,3.6
			c-1.1,0.3-2.2-0.2-2.7-1.2l-8.2-62.9L379.4,303.8z"/>
		<path class="st10" d="M276.1,153.6c6.2-7.9,14.8-14.4,26-19.8c11.2-5.3,24.1-8,38.7-8c14.7,0,27.5,2.6,38.4,7.8
			c10.9,5.2,19.6,11.7,25.9,19.5c6.5,8.2,11.6,17.4,15.1,27.3c6.4,17.8,9.7,36.6,9.6,55.5c0,35.1-8.3,62.8-24.9,83.4
			c-6.2,7.7-14.7,14.1-25.7,19.2s-23.6,7.6-38.1,7.6c-14.4,0-27.3-2.6-38.4-7.7c-11.2-5.1-19.9-11.5-26.1-19
			c-6.6-8.1-11.8-17.2-15.5-27c-6.2-16.7-9.3-35.5-9.3-56.6c0-19.4,2.5-35.9,7.5-49.7C264.4,172.3,270,161.5,276.1,153.6z
			 M340.6,282.3c17.4,0,26.1-15.1,26.1-45.2v-1.4c0-30.9-8.6-46.4-25.8-46.4c-17.2,0-25.8,15.5-25.8,46.5
			C315,266.8,323.6,282.3,340.6,282.3L340.6,282.3z"/>
		<path class="st11" d="M297,129.2c0,0,5.9-8.5,14.1-9.1s15.9,5.9,15.9,5.9c0.6,0.8,1.2,2.1-0.6,2.1c-2.1,0.3-8.2-6.7-15.3-5.9
			C304.1,123.3,297,129.2,297,129.2z"/>
		<path class="st12" d="M320.5,138.7c9.4,4.1,14.4,16.5,10.9,27.7c-3.5,10.9-14.1,16.5-23.8,12.4c-9.4-3.8-14.4-16.2-10.9-27.4
			C300.2,140.5,310.8,134.9,320.5,138.7z"/>
		<path class="st9" d="M314.1,181.2c-2.4,0-4.8-0.5-7-1.4c-10-4.1-15.1-16.9-11.5-28.6c1.7-5.6,5.6-10.2,10.9-12.8
			c4.5-2.1,9.7-2.3,14.3-0.5l0,0c10,4.4,15.1,17.3,11.5,28.9c-1.7,5.6-5.7,10.3-10.9,12.8C319.1,180.6,316.6,181.1,314.1,181.2z
			 M314.3,138.6c-2.4,0-4.7,0.5-6.8,1.5c-4.7,2.3-8.3,6.5-9.8,11.6c-3.3,10.5,1.4,22.5,10.3,26.1c4,1.7,8.6,1.7,12.6-0.1
			c4.8-2.3,8.3-6.5,9.9-11.6c3.4-10.6-1.3-22.4-10.3-26.4C318.3,138.9,316.3,138.6,314.3,138.6L314.3,138.6z"/>
		<path class="st11" d="M323.6,156.6c4.9,1.8,7.4,7.1,5.6,12c0,0,0,0,0,0.1c-1.8,5-7.4,7.6-12.1,5.6c-4.8-1.5-7.4-6.6-5.8-11.4
			c0.1-0.2,0.2-0.5,0.3-0.7c1.7-4.8,7-7.4,11.8-5.7C323.4,156.5,323.5,156.6,323.6,156.6z"/>
		<path class="st12" d="M314.7,156.3c1.6,0.6,2.4,2.3,1.9,3.9c0,0,0,0,0,0c-0.5,1.6-2.2,2.4-3.8,1.9c-0.1,0-0.1,0-0.2-0.1
			c-1.6-0.5-2.4-2.2-1.9-3.7c0-0.1,0.1-0.2,0.1-0.2C311.3,156.6,313,155.7,314.7,156.3C314.6,156.3,314.6,156.3,314.7,156.3z"/>
		<path class="st11" d="M385,129.2c0,0-5.6-8.5-13.8-9.1c-8.5-0.6-16.2,5.9-16.2,5.9c-0.3,0.8-0.8,2.1,0.8,2.3
			c2.1,0,8.2-7.1,15.3-6.2C378.2,123.3,385,129.2,385,129.2z"/>
		<path class="st12" d="M362.3,139c-9.7,4.1-14.4,16.5-10.9,27.7c3.5,10.9,14.1,16.5,23.8,12.4c9.4-4.1,14.4-16.2,10.9-27.4
			C382.6,140.8,372.1,134.9,362.3,139z"/>
		<path class="st9" d="M368.7,181.4c-2.5,0-5-0.5-7.3-1.6c-5.3-2.6-9.2-7.2-10.9-12.8c-3.8-11.9,1.3-24.6,11.5-28.9
			c4.5-1.9,9.6-1.9,14,0.2c5.4,2.6,9.4,7.4,11.2,13.1c3.7,11.6-1.4,24.2-11.5,28.6C373.5,180.9,371.1,181.4,368.7,181.4z
			 M368.7,138.8c-2.1,0-4.1,0.4-6,1.2c-9.1,3.8-13.7,15.7-10.3,26.4c1.5,5.1,5.1,9.3,9.9,11.6c4,1.8,8.6,1.9,12.6,0.1
			c9-3.9,13.6-15.6,10.3-26.1c-1.6-5.2-5.2-9.5-10.1-11.8C373.1,139.2,370.9,138.8,368.7,138.8z"/>
		<path class="st11" d="M359.2,156.7c-4.8,1.7-7.4,7-5.7,11.8c0,0.1,0.1,0.2,0.1,0.3c1.9,5,7.4,7.5,12.3,5.6c0,0,0,0,0,0
			c4.7-1.8,7.4-7.4,5.3-12.1c-1.5-4.8-6.6-7.4-11.4-5.8C359.7,156.5,359.5,156.6,359.2,156.7z"/>
		<path class="st12" d="M370.3,156.3c1.6,0.6,2.4,2.4,1.8,4c0,0,0,0,0,0c-0.5,1.6-2.2,2.4-3.8,1.9c-0.1,0-0.1,0-0.2-0.1
			c-1.6-0.5-2.4-2.2-1.9-3.7c0-0.1,0.1-0.2,0.1-0.2C366.9,156.6,368.6,155.7,370.3,156.3C370.3,156.3,370.3,156.3,370.3,156.3z"/>
		<path class="st13" d="M412.1,268.6c-2.9,21-15.6,39.4-34.2,49.6c-3,1.6-0.3,6.2,2.7,4.5c20.2-11.1,33.9-31.3,36.8-54.1
			C417.8,265.2,412.5,265.2,412.1,268.6z"/>
		<path class="st13" d="M368.2,327c3.4,0,3.4-5.3,0-5.3S364.8,327,368.2,327z"/>
		<path class="st13" d="M267.9,240c0-22,0.7-47.2,14.8-65.3c2.1-2.6-1.7-6.4-3.7-3.7c-15.1,19.4-16.3,45.4-16.3,69
			C262.7,243.4,267.9,243.4,267.9,240L267.9,240z"/>
		<path class="st13" d="M289.3,167.5c3.4,0,3.4-5.3,0-5.3C286,162.2,286,167.5,289.3,167.5z"/>
	</g>
	<g>
		<path class="st8" d="M208,375.1c0,2.7-35.5,4.9-79.2,4.9s-79.2-2.2-79.2-4.9c0-2.7,35.5-4.9,79.2-4.9S208,372.4,208,375.1z"/>
		<path class="st14" d="M188.5,190c14.2,4.8,22.8-11.8,24.7-23.4c2.4-15-10.9-32.2-25.1-35.9c-3.7-1-5.9,4.7-2.1,5.7
			c11.5,3,19.9,14.4,21.3,25.9c1,8.1-6.4,25.5-16.7,22.1C186.9,183.1,184.8,188.8,188.5,190L188.5,190z"/>
		<path class="st14" d="M189,133c0.8-4.2,0.5-8.3-2-11.9c-1.1-1.3-3-1.5-4.3-0.4c-1.3,1.1-1.4,3-0.4,4.3c1.5,2.2,1.1,5.1,0.6,7.5
			c-0.3,1.6,1.2,3.2,2.7,3.3C187.3,135.9,188.8,134.7,189,133L189,133z"/>
		<path class="st14" d="M182.9,132.6c-2.3,2.1-7.4,3.9-10.4,2.4c-3.5-1.7-5.6,4-2.1,5.7c4.8,2.4,12.6,0,16.4-3.5
			C189.7,134.7,185.9,130,182.9,132.6L182.9,132.6z"/>
		<path class="st14" d="M186.3,132.2c-2.2-2.6-5-4.5-8.1-5.6c-3.6-1.4-5.7,4.3-2.1,5.7c2.2,0.7,4.1,2,5.6,3.8
			C184.1,139.1,188.8,135.3,186.3,132.2L186.3,132.2z"/>
		<path class="st14" d="M113.4,249.9c7.7,12.9-6.8,24.8-17.7,29c-14.1,5.5-33.8-3.8-40.3-16.9c-1.7-3.5,3.4-6.7,5.1-3.2
			c5.3,10.6,18.3,16.4,29.8,15.4c8.2-0.7,23.6-11.7,18-21C106.3,249.8,111.4,246.5,113.4,249.9L113.4,249.9z"/>
		<path class="st14" d="M57.8,262.4c-3.9,1.6-8,2.3-12.1,0.6c-1.5-0.8-2.1-2.6-1.3-4.1c0.8-1.5,2.6-2,4.1-1.3c2.4,1,5.2,0,7.5-1
			c1.5-0.6,3.3,0.5,3.8,2C60.2,260.2,59.4,261.9,57.8,262.4L57.8,262.4z"/>
		<path class="st14" d="M56.2,256.6c1.6-2.7,2.3-8.1,0.2-10.7c-2.4-3.1,2.7-6.3,5.1-3.2c3.3,4.2,2.6,12.3,0.1,16.7
			C59.6,262.7,54.2,260,56.2,256.6z"/>
		<path class="st14" d="M56.5,260c-3-1.6-5.5-3.9-7.2-6.8c-2.1-3.2,3-6.5,5.1-3.2c1.2,2,2.9,3.6,4.9,4.6
			C62.7,256.4,60,261.7,56.5,260L56.5,260z"/>
		<path class="st15" d="M114.4,220.6c0,0,6.4-0.9,5.9-6.9c0,0,7.2,1.4,6.6-7.2c0,0,8.4,3,6.5-5.9c0,0,8.3,3.8,6.1-5.5
			c0,0,4.5,3,5.3-2.3s-5.6-10-8.4-11.4c-2.8-1.4-13.2-3-13.8-2.7s-5,5.3-5.8,5.2s-5.4,7.4-5.5,8.1s-4.4,9.9-4.1,10.3
			C107.6,202.9,107.7,217,114.4,220.6z"/>
		<path class="st16" d="M188.7,166.2c-13-16.5-32.4-24.7-58.2-24.7c-20.3,0-37.6,6.7-51.7,20.1c-14.2,13.4-21.3,30.1-21.3,50
			c0,16.2,6.9,30.7,20.8,43.6c13.9,12.9,30.5,19.4,49.8,19.4c7.7-0.1,15.2-1.8,22.2-5l-1.5,4.1c-2.4,6.5-7.8,13.8-16.2,21.9
			c-4.1,3.9-10,7.3-17.6,10.1c-7.5,2.7-15.5,4.1-23.5,4.1c-8.1,0-13.8,0.6-17.1,1.8c-7.5,2.4-11.2,10.4-11.2,24.2
			c0,12.2,2.8,20,8.3,23.4c3.2,2,8.5,3,16,3h1.8c36.8,0,65.9-12.6,87.2-37.8c21.3-25.2,32-56.7,31.9-94.3
			C208.3,203.9,201.8,182.7,188.7,166.2z M153.8,208.7c0,11.8-9.6,21.4-21.3,21.4c-11.8,0-21.4-9.6-21.4-21.3
			c0-11.8,9.6-21.4,21.3-21.4c0,0,0,0,0,0C144.3,187.3,153.8,196.9,153.8,208.7C153.8,208.7,153.8,208.7,153.8,208.7L153.8,208.7z"
			/>
		<path class="st11" d="M112.2,134.8c0,0-8.6-2.3-14.6,2.1c-6,4.4-7.5,13-7.5,13c0.2,1,0.6,2.2,1.8,1.2c1.5-1.1,1.6-9.2,6.8-12.7
			C104.3,134.8,112.2,134.8,112.2,134.8z"/>
		<path class="st12" d="M101.9,149.7c-4.1,8.3-0.3,19.4,8.6,24.8c8.8,5.5,19.3,3.1,23.2-5.3c4.1-8.3,0.3-19.4-8.4-24.9
			C116.3,138.9,106,141.5,101.9,149.7z"/>
		<path class="st14" d="M120.4,178.2c-3.6,0-7.2-1.1-10.3-3.1c-9.2-5.5-13.3-17.1-8.9-25.8l0,0c1.9-3.9,5.4-6.8,9.6-8.1
			c5.1-1.4,10.5-0.6,14.9,2.2c9.1,5.7,13,17.4,8.8,26c-1.8,3.9-5.3,6.9-9.4,8.1C123.5,178.1,121.9,178.3,120.4,178.2z M115.6,142.2
			c-1.5,0-2.9,0.2-4.4,0.6c-3.8,1.1-6.9,3.7-8.6,7.2l0,0c-4,8-0.2,18.6,8.3,23.7c4,2.7,9,3.5,13.6,2.2c3.7-1.1,6.8-3.7,8.4-7.2
			c3.9-7.9,0.3-18.6-8.1-23.9C122.1,143.2,118.9,142.3,115.6,142.2z"/>
		<path class="st11" d="M112.2,158.4c-2.1,4.2-0.4,9.2,3.8,11.3c3.9,1.9,8.6,0.6,10.9-3.1c2.4-4,0.7-9.1-3.1-11.4
			C119.7,152.8,114.5,154.3,112.2,158.4C112.2,158.4,112.2,158.4,112.2,158.4z"/>
		<path class="st12" d="M79.1,169.8c8.7-2.8,19.2,2.6,23.1,12.1c4.2,9.4,0.3,19.5-8.6,22.4c-8.7,2.8-19.3-2.8-23.3-12.3
			C66.2,182.6,70.2,172.7,79.1,169.8z"/>
		<path class="st14" d="M88.9,205.9c-7.9,0-15.9-5.3-19.3-13.5c-2.2-4.7-2.3-10-0.3-14.8c1.8-4.1,5.3-7.2,9.5-8.5l0,0
			c9.2-2.9,20,2.7,24.1,12.6c2.2,4.8,2.3,10.2,0.3,15.1c-1.8,4-5.2,7.1-9.4,8.4C92.3,205.6,90.6,205.9,88.9,205.9z M79.3,170.6
			c-3.8,1.2-6.9,4-8.5,7.6c-1.8,4.3-1.7,9.2,0.3,13.5c3.8,9.1,14,14.5,22.3,11.9c3.7-1.2,6.8-3.9,8.4-7.5c1.8-4.4,1.7-9.4-0.3-13.8
			C97.7,173.1,87.7,167.9,79.3,170.6L79.3,170.6z"/>
		<path class="st11" d="M85.2,181.2c4.4-1.6,9.3,0.7,10.9,5.1c1.6,4.3-0.6,9.1-4.8,10.8c-4.4,1.5-9.2-0.7-10.8-5.1
			C78.7,187.8,80.8,182.9,85.2,181.2C85.1,181.2,85.1,181.2,85.2,181.2z"/>
		<path class="st12" d="M109.2,159.1c-0.9,1.7-0.3,3.7,1.4,4.7s3.7,0.3,4.7-1.4c0.9-1.6,0.3-3.7-1.3-4.6
			C112.3,156.8,110.2,157.4,109.2,159.1C109.2,159.1,109.2,159.1,109.2,159.1z"/>
		<path class="st12" d="M79.2,185c2-0.8,4.2,0.1,5.1,2.1c0.8,2-0.1,4.2-2.1,5.1c-0.1,0-0.2,0.1-0.3,0.1c-2,0.7-4.2-0.3-4.9-2.3
			C76.3,187.9,77.2,185.7,79.2,185C79.2,185,79.2,185,79.2,185z"/>
		<path class="st11" d="M62.5,178.7c0,0-0.8-8.8,4.5-14.2c5.3-5.3,13.9-5.6,13.9-5.6c0.9,0.4,1.9,0.9,0.9,1.9
			c-1.5,1.5-9.4,0.4-13.6,5.2C63.8,170.6,62.5,178.7,62.5,178.7z"/>
		<path class="st17" d="M160.8,160.7c11.8,5.6,20.6,16,24,28.6c0.9,3.1,5.8,1.8,4.9-1.3c-3.8-13.8-13.4-25.4-26.3-31.6
			C160.4,154.9,157.8,159.3,160.8,160.7L160.8,160.7z"/>
		<path class="st17" d="M191.2,200.9c3.2,0,3.2-5.1,0-5.1S187.9,200.9,191.2,200.9z"/>
		<path class="st17" d="M153.6,279.4c-3.6,8.9-10.3,16.4-17.9,22.1c-2.6,1.9,0,6.4,2.6,4.4c8.7-6.6,16-15,20.2-25.2
			C159.7,277.7,154.8,276.4,153.6,279.4L153.6,279.4z"/>
		<path class="st17" d="M72.3,325.9c-0.2,4.6-0.4,9.2-0.6,13.8c-0.1,3.5-0.3,7.2,1.9,10.1c4.1,5.8,11.7,4.6,17.7,3
			c3.1-0.9,1.8-5.8-1.3-4.9c-5.7,1.5-13,2.6-13.2-5.5c-0.1-5.5,0.4-11.1,0.7-16.6C77.5,322.7,72.4,322.7,72.3,325.9L72.3,325.9z"/>
		<path class="st17" d="M99.6,352c3.2,0,3.2-5.1,0-5.1S96.4,352,99.6,352z"/>
	</g>
</g>
</svg>
