<?xml version="1.0" encoding="utf-8"?>
<!-- Generator: Adobe Illustrator 27.8.0, SVG Export Plug-In . SVG Version: 6.00 Build 0)  -->
<svg version="1.1" id="uimhireacha" xmlns="http://www.w3.org/2000/svg" xmlns:xlink="http://www.w3.org/1999/xlink" x="0px"
	 y="0px" viewBox="0 0 500 500" style="enable-background:new 0 0 500 500;" xml:space="preserve">
<style type="text/css">
	.st0{display:none;}
	.st1{display:inline;opacity:0.5;fill:#BDBEC0;enable-background:new    ;}
	.st2{display:inline;fill-rule:evenodd;clip-rule:evenodd;fill:#231F20;}
	.st3{display:inline;fill-rule:evenodd;clip-rule:evenodd;fill:#FFFFFF;}
	.st4{display:inline;fill:#00A199;}
	.st5{display:inline;fill:#31BDB5;}
	.st6{display:inline;fill:#231F20;}
	.st7{display:inline;fill:#4CC2BE;}
	.st8{display:inline;fill:#E770A7;}
	.st9{display:inline;fill:#F17DB1;}
	.st10{display:inline;fill:#F7B4D1;}
	.st11{display:inline;fill:#F79022;}
	.st12{display:inline;fill:#EE2C3D;}
	.st13{display:inline;fill:#EA8623;}
	.st14{display:inline;fill:#FBB365;}
	.st15{display:inline;fill:#75C043;}
	.st16{display:inline;fill:#82C341;}
	.st17{display:inline;fill:#6EBE45;}
	.st18{display:inline;fill:#FFFFFF;}
	.st19{display:inline;fill:#8DC63F;}
	.st20{display:inline;fill:#466BB3;}
	.st21{display:inline;fill:#4B70B7;}
	.st22{display:inline;fill:#6C9BD2;}
	.st23{display:inline;fill:#AE4B9C;}
	.st24{display:inline;fill:#B6539F;}
	.st25{display:inline;fill:#C56CAB;}
	.st26{display:inline;fill:#F9C013;}
	.st27{display:inline;fill:#FBA919;}
	.st28{display:inline;fill:#FCD30A;}
	.st29{opacity:0.5;fill:#BDBEC0;enable-background:new    ;}
	.st30{fill:#16AC5C;}
	.st31{fill:#31B565;}
	.st32{fill:#51BA6D;}
	.st33{fill-rule:evenodd;clip-rule:evenodd;fill:#FFFFFF;}
	.st34{fill-rule:evenodd;clip-rule:evenodd;fill:#231F20;}
	.st35{display:inline;fill:#E41D31;}
	.st36{display:inline;fill:#D2D3D4;}
	.st37{display:inline;fill:#F26C7C;}
	.st38{display:inline;}
	.st39{fill:#37AAD6;}
	.st40{fill:#4AC1F0;}
	.st41{fill:#73D0F2;}
</style>
<g id="haon" class="st0">
	<path class="st1" d="M393.7,437.7c0,6.8-54.1,12.2-121,12.2s-121-5.5-121-12.2s54.2-12.2,121-12.2S393.7,430.9,393.7,437.7z"/>
	<path class="st2" d="M141.1,82.4c0,0,7.7-11.1,18.5-11.9c10.8-0.8,20.8,7.7,20.8,7.7c0.8,1.1,1.5,2.7-0.8,2.7
		c-2.7,0.4-10.8-8.8-20-7.7C150.3,74.7,141.1,82.4,141.1,82.4z"/>
	<path class="st3" d="M167.2,88.9c12.3,5.4,18.8,21.5,14.2,36.1c-4.6,14.2-18.4,21.5-31.1,16.1c-12.3-5-18.8-21.1-14.2-35.8
		C140.7,91.2,154.6,83.9,167.2,88.9z"/>
	<path class="st4" d="M158.9,144.2c-3.1,0-6.2-0.6-9-1.9c-13-5.3-19.7-22-14.9-37.2c2.2-7.3,7.3-13.3,14.2-16.7
		c5.8-2.8,12.6-3,18.6-0.6l0,0c13,5.7,19.7,22.6,14.9,37.6c-2.2,7.3-7.4,13.3-14.2,16.7C165.4,143.5,162.2,144.2,158.9,144.2z
		 M159.1,88.7c-3.1,0-6.1,0.7-8.9,2c-6.2,3.1-10.9,8.6-12.8,15.2c-4.4,13.8,1.8,29.5,13.5,34.2c5.3,2.3,11.3,2.2,16.5-0.2
		c6.3-3,10.9-8.6,12.9-15.2c4.4-13.9-1.7-29.4-13.6-34.6C164.3,89.2,161.7,88.6,159.1,88.7L159.1,88.7z"/>
	<path class="st2" d="M171.5,113.5c6.4,2.3,9.6,9.3,7.3,15.7c0,0,0,0,0,0.1c-2.3,6.5-9.6,10-15.7,7.3c-6.2-2-9.6-8.6-7.6-14.9
		c0.1-0.3,0.2-0.6,0.3-0.9c2.2-6.3,9.1-9.6,15.4-7.4C171.2,113.4,171.4,113.5,171.5,113.5z"/>
	<path class="st4" d="M229.9,321.7c0,31.4-11.6,104.6-11.6,104.6c-4.5-2.4-12-4.2-17.6-3.3c-1.1,0.2-1.7,1.3-1.5,2.3
		c0.1,0.6,0.5,1.1,1.1,1.4l21.6,9.6c1.7,0.8,3.7,0.2,4.8-1.2l30.3-102.8C257.1,332.3,229.9,318,229.9,321.7z"/>
	<path class="st4" d="M320.7,321.7l-0.2,107.1c4.9-1.1,12.7-1,17.8,1.2c1,0.5,1.4,1.6,0.9,2.6c-0.3,0.6-0.8,1-1.5,1.1l-23.4,3.8
		c-1.8,0.3-3.6-0.7-4.3-2.5L307,328L320.7,321.7z"/>
	<path class="st4" d="M258.1,266.4c-18.7,44-80.6,12.1-104.9-14.3c-2.9-3.2,2.1-7.7,5-4.5c20.4,22.2,76.8,46.4,93.2,7.8
		c1.7-4,8.1-2,6.4,2L258.1,266.4z"/>
	<path class="st4" d="M168.7,219.6c4.6,5.5,6.5,12,4.5,19c-2.3,8.1-11,11.3-18.4,12.4c-4.3,0.7-5.7-5.9-1.4-6.6
		c5.5-0.8,11.1-2.2,13.4-7.9c1.7-4.3-0.4-9.1-3.1-12.5S165.9,216.2,168.7,219.6L168.7,219.6z"/>
	<path class="st4" d="M154.7,215.8c-5.3-3.7-14.9,3-15.7,8.8c-0.6,4.5,2.2,8.7,4.9,11.9c3.2,3.8,7.3,5,11.4,7.5
		c3.7,2.3,0,7.9-3.6,5.7c-3-1.8-6-2.8-8.8-5c-2.6-2.1-4.8-4.5-6.7-7.3c-3.3-4.8-5.2-11.1-3.1-16.8c3.3-8.8,16.6-16.5,25.2-10.5
		C161.8,212.6,158.2,218.3,154.7,215.8L154.7,215.8z"/>
	<path class="st4" d="M151.9,249.8c-6.9-3.5-13.6-7.3-20.6-10.4c-7.3-3.2-15.1-4.2-22.7-6.6c-4.2-1.2-2.1-7.7,2-6.4
		c7.6,2.3,15.3,3.5,22.7,6.6c7.7,3.1,14.8,7.4,22.2,11.1C159.4,246,155.7,251.7,151.9,249.8L151.9,249.8z"/>
	<path class="st4" d="M154,251.3c-10.4,1.8-21.6,1.1-30.9,6.8c-3.7,2.3-6.7-3.7-3-6c9.9-6.1,21.5-5.5,32.5-7.4
		C156.9,243.9,158.3,250.5,154,251.3L154,251.3z"/>
	<path class="st4" d="M156.2,251c-3.3,3-6.7,5.9-10.1,8.8c-2.7,2.4-6.5,4.9-7.2,8.6c-0.8,4.3-7.2,2.1-6.4-2c0.7-3.9,3.5-6.5,6.3-9.1
		c4.2-3.9,8.6-7.6,12.9-11.4C155,243.1,159.5,248.1,156.2,251L156.2,251z"/>
	<path class="st5" d="M291.7,53.5c17.1,5,28.9,20.7,29.1,38.5v262.1c0.1,5.9-0.2,11.8-0.8,17.7c-0.8,4.8-2.5,9.4-4.9,13.6
		c-4.8,9.2-18.2,13.9-40.1,13.9c-21.3,0-34.4-4.5-39.6-13.4c-2.5-4.4-4.2-9.2-4.9-14.1c-0.6-6.2-0.9-12.5-0.8-18.8V194.2l-6.7,6.2
		c-34.1,21.7-52.4,12.7-63.2,0.7c-10.8-12-19.9-43.7-1.5-60.1c0,0,62.7-61.2,84.3-81C256.7,47.2,276.1,48.9,291.7,53.5z"/>
	<path class="st3" d="M223.3,89.3c-12.7,5.4-18.8,21.5-14.2,36.1c4.6,14.2,18.5,21.5,31.1,16.1c12.3-5.4,18.8-21.1,14.2-35.8
		C249.8,91.6,236,83.9,223.3,89.3z"/>
	<path class="st4" d="M231.6,144.6c-3.3,0-6.5-0.7-9.5-2.1c-6.9-3.3-12-9.4-14.2-16.7c-4.9-15.5,1.7-32,14.9-37.6l0,0
		c5.8-2.5,12.5-2.4,18.2,0.2c7,3.4,12.3,9.6,14.6,17c4.8,15.1-1.8,31.5-14.9,37.3C237.9,143.9,234.8,144.6,231.6,144.6z M223.8,90.4
		c-11.9,5-18,20.6-13.6,34.6c2,6.6,6.7,12.2,12.9,15.2c5.2,2.4,11.2,2.5,16.5,0.2c11.8-5.2,17.9-20.5,13.6-34.2
		c-2.1-6.8-6.9-12.4-13.2-15.5C234.9,88.3,229,88.2,223.8,90.4L223.8,90.4z"/>
	<path class="st2" d="M218,111.6c-6.3,2.2-9.6,9.1-7.4,15.4c0,0.1,0.1,0.2,0.1,0.4c2.4,6.5,9.6,9.8,16.1,7.3c0,0,0,0,0,0
		c6.2-2.4,9.4-9.3,7-15.6c0-0.1-0.1-0.1-0.1-0.2c-2-6.2-8.6-9.6-14.8-7.7C218.6,111.4,218.3,111.5,218,111.6z"/>
	<path class="st3" d="M212.9,111.2c-2.2,0.8-3.4,3.2-2.6,5.4c0,0,0,0.1,0,0.1c0.9,2.3,3.4,3.4,5.6,2.6c2.2-0.8,3.3-3.3,2.4-5.4
		c0,0,0,0,0-0.1c-0.7-2.2-3-3.4-5.2-2.7C213.2,111.1,213,111.1,212.9,111.2z"/>
	<path class="st2" d="M249.8,83.6c0,0-7.3-11.1-18.1-11.9c-11.1-0.8-21.1,7.7-21.1,7.7c-0.4,1.2-1.1,2.7,1.2,3.1
		c2.7,0,10.8-9.2,20-8.1C241,75.9,249.8,83.6,249.8,83.6z"/>
	<path class="st3" d="M158.2,111.2c-2.2,0.8-3.4,3.2-2.6,5.4c0,0,0,0.1,0,0.1c0.8,2.3,3.4,3.4,5.6,2.6c0,0,0,0,0,0
		c2.2-0.8,3.3-3.2,2.5-5.4c0,0,0-0.1,0-0.1c-0.7-2.2-3-3.4-5.2-2.7C158.5,111.1,158.4,111.1,158.2,111.2z"/>
	<path class="st6" d="M161.4,181.2c0,0,17.6,15.7,32.9,1.2C194.4,182.4,178.4,206.3,161.4,181.2z"/>
	<path class="st4" d="M302.2,210.8c27.3,7.7,54.2-4.1,66.7-29.6c9.5-19.5-0.8-53.5-20.5-63.1c-6.3-3.1-10.4,7-4.1,10.1
		c15.1,7.4,20.4,34.8,14.5,48.9c-8.4,20.3-32.2,29.4-52.5,23.6C299.6,198.8,295.4,208.9,302.2,210.8L302.2,210.8z"/>
	<path class="st4" d="M339.3,116.4c-2.9,2-7.4,4.2-10.8,2.5c-2.7-1.3-6.1,0.4-7.1,3c-1.1,2.8,0.3,5.9,3,7.1c7,3.5,15.6,0.1,21.6-4
		S345,112.4,339.3,116.4L339.3,116.4z"/>
	<path class="st4" d="M344.5,102.4c0.5,2.3,1.1,4.9,0.4,7.3s-2.9,4.2-4.5,5.9c-2.1,2.1-3,5.1-1,7.7c1.7,2.1,5.6,3.1,7.7,1
		c3.2-3.2,6.2-6.2,8-10.5s1.1-8.8,0.3-12.9C354,94,343.2,95.5,344.5,102.4L344.5,102.4z"/>
	<path class="st4" d="M330.7,111.3c3,2.8,5.6,6.1,7.7,9.6c1.6,2.5,5.4,2.7,7.7,1c2.3-1.9,2.8-5.3,1-7.7c-2.7-4.3-5.9-8.2-9.7-11.6
		c-2.4-1.8-5.8-1.4-7.7,1C327.9,106.1,328.3,109.5,330.7,111.3z"/>
	<path class="st7" d="M304.3,360.7c4.9,0,4.9-7.7,0-7.7C299.3,353,299.3,360.7,304.3,360.7z"/>
	<path class="st7" d="M298.4,369.3c-5.5,16.9-27.4,13.1-40.5,10.1c-4.8-1.1-6.9,6.4-2,7.4c17.8,4,42.9,6.2,50-15.5
		C307.4,366.6,300,364.5,298.4,369.3L298.4,369.3z"/>
	<path class="st7" d="M278.7,70.4c16.7,0.4,21.4,13.1,20.8,27.9c-0.2,4.9,7.5,4.9,7.7,0c0.4-8.6-0.5-18.1-5.7-25.3
		c-5.4-7.5-13.9-10.1-22.8-10.3C273.8,62.5,273.8,70.2,278.7,70.4z"/>
	<path class="st7" d="M304.3,115.3c4.9,0,4.9-7.7,0-7.7C299.3,107.5,299.3,115.3,304.3,115.3z"/>
</g>
<g id="dó" class="st0">
	<path class="st1" d="M405.1,438.6c0,6.3-75.1,11.4-167.6,11.4s-167.6-5.1-167.6-11.4s75.1-11.4,167.6-11.4S405.1,432.4,405.1,438.6
		z"/>
	<path class="st8" d="M305.7,207.5c-10.1,24.6,18.4,41.8,38.7,46.4c26.3,6,58.3-15.5,66.3-40.3c2.1-6.5-7.7-11-9.8-4.4
		c-6.5,20-27.8,33.5-48.2,34.8c-14.6,0.9-44.5-14.4-37.2-32.2C318.2,205.5,308.3,201.1,305.7,207.5L305.7,207.5z"/>
	<path class="st8" d="M406.6,214.9c7.3,1.9,14.7,1.9,21.4-2.1c2.4-1.7,3-5,1.3-7.5c0,0,0,0,0,0c-1.8-2.4-5.1-2.9-7.5-1.2
		c-4,2.4-9.1,1.3-13.4,0.3c-2.8-0.7-5.7,1.7-6.2,4.4C401.7,211.7,403.7,214.4,406.6,214.9L406.6,214.9z"/>
	<path class="st8" d="M407.9,204.3c-3.5-4.4-6.1-13.6-3.2-18.8c3.4-6-6.4-10.4-9.8-4.4c-4.7,8.3-1.3,22.3,4.3,29.4
		C403.5,216,412.2,209.7,407.9,204.3L407.9,204.3z"/>
	<path class="st8" d="M408.3,210.3c4.8-3.5,8.5-8.3,10.9-13.8c2.9-6.3-6.9-10.7-9.8-4.4c-1.5,3.7-4.1,7-7.3,9.4
		C396.4,205.6,402.6,214.3,408.3,210.3L408.3,210.3z"/>
	<path class="st9" d="M334.6,344.9c14.2,0,24.3,1.6,30.4,4.9c5.9,3.2,10.3,8.6,12.2,15.1c2.1,6.7,3.1,15.6,3.1,26.5
		c0,10.9-1.1,19.6-3.4,26.2c-2.3,6.6-6,11.1-11.2,13.5c-7.6,4.2-18.4,6.2-32.2,6.2h-203c-12.5,0-23.2-4.7-32.2-14
		c-8.7-8.7-13.5-20.4-13.4-32.7c0-18.7,6.5-35.9,19.5-51.7c13.3-16,29.2-29.7,47-40.5c18.3-11.2,36.7-22.3,55-33.2
		c17.3-10.1,33.1-22.6,46.9-37.1c13-13.8,19.5-28.5,19.5-44.1c0-3.1-1.2-7.5-3.6-13.2c-2-5-4.7-9.7-8-14c-2.9-3.6-7.5-7-13.8-10.1
		c-6.2-3.1-14.9-4.7-26-4.7c-10.9-0.1-21.3,4.3-28.8,12.2c-8.1,8.1-12.7,16.2-13.8,24.1l-2.1,11.9v3.1c0.1,5.7-0.2,11.4-0.8,17.1
		c-0.8,4.6-2.5,9-4.9,13c-5.2,8.3-18.7,12.5-40.5,12.5c-24.2,0-38.6-6.6-43.1-19.7c-1.7-5.5-2.6-14.4-2.6-26.5
		c0-36,12.9-68.3,38.7-96.8S183.2,50,224.8,50c41.7,0,75.5,14.5,101.5,43.4c26,28.9,39,61.9,39,98.9c0.1,19.5-4.4,38.7-13,56.1
		c-8.7,17.6-19.1,31.8-31.2,42.4c-25.6,22.8-48.5,38.2-68.6,46.2l-13,5.2v2.7L334.6,344.9z"/>
	<path class="st3" d="M336.2,113.9c-13.2,7.7-17.5,26.9-10.3,42.1c7.6,15.6,24.4,21.4,37.5,13.3c12.9-7.6,17.5-26.9,10.3-42.1
		C366.2,112,349.4,105.8,336.2,113.9z"/>
	<path class="st8" d="M350.8,174.3c-2.4,0-4.8-0.4-7.2-1c-8.3-2.7-15.2-8.7-18.8-16.6c-7.7-16.3-2.8-35.9,10.8-43.9
		c6.1-3.7,13.5-4.7,20.3-2.7c8.4,2.6,15.3,8.5,19.1,16.4c7.5,15.9,2.6,35.9-10.8,43.9C360.2,172.9,355.5,174.3,350.8,174.3z
		 M348.8,111.7c-4.2,0-8.3,1.2-11.8,3.4l0,0c-12.5,7.3-16.8,25.4-9.7,40.4c3.4,7.2,9.6,12.7,17.2,15.2c6.2,1.8,12.9,0.9,18.4-2.5
		c12.2-7.3,16.7-25.8,9.8-40.4c-3.4-7.2-9.7-12.7-17.4-15.1C353.1,112,351,111.7,348.8,111.7z"/>
	<path class="st2" d="M353.9,118.4c-6.2,3.3-8.5,11-5.2,17.1c3.3,6,10.9,8.3,17,4.9c0,0,0.1,0,0.1-0.1c6.2-3,8.2-10.6,4.9-16.7
		C367.5,117.6,360,115.2,353.9,118.4C353.9,118.4,353.9,118.4,353.9,118.4z"/>
	<path class="st2" d="M361.5,102.7c0,0-8.4-9.4-18.6-8.6c-10.2,0.5-18.6,9.7-18.6,9.7c-0.5,1-0.6,2.7,1.3,2.7
		c2.5-0.3,8.9-9.9,17.6-9.9C351.9,96.6,361.5,102.7,361.5,102.7z"/>
	<path class="st6" d="M361.7,186c-0.4,0.3-0.7,0.5-1.1,0.7l-0.2,0.1c-0.9,0.6-1.9,1.1-2.9,1.7c-2.4,1.3-4.8,2.4-7.3,3.3l0,0
		c-0.8,0.3-1.7,0.6-2.6,0.9l-0.6,0.2c-0.9,0.3-1.8,0.6-2.7,0.8c-2.6,0.7-5.3,1.3-7.9,1.8l0,0l-2.7,0.4l-2.2,0.3l0,0
		c-0.4,1.3-0.9,2.6-1.7,3.8c0.8-1.1,1.4-2.4,1.7-3.8l0,0c-2.8,0.3-5.6,0.5-8.3,0.5c-1,0-2.1,0-3.1,0h-0.1c-1,0-2-0.1-3-0.2l0,0
		c-0.9,1-1.9,2-3.1,2.7c1.2-0.7,2.2-1.6,3.1-2.7l0,0c-2.4-0.2-4.9-0.5-7.3-0.9c-1-0.2-1.9-0.4-2.8-0.6H307c-0.9-0.2-1.8-0.5-2.7-0.7
		c0.1,0.6,0.3,1.2,0.5,1.8v0.1c0.2,0.6,0.5,1.1,0.7,1.6l0.1,0.2c0.3,0.5,0.6,1,0.9,1.5l0.1,0.2c0.3,0.5,0.7,0.9,1.1,1.4l0.1,0.1
		c0.4,0.5,0.8,0.9,1.3,1.3l0.1,0.1c0.5,0.4,1,0.8,1.5,1.2l0.1,0.1c0.5,0.4,1.1,0.8,1.7,1.1h0.1c0.6,0.4,1.2,0.7,1.9,1.1l0,0
		c2.3,1.2,4.8,2.1,7.4,2.7l0,0c3.2,0.7,6.5,1,9.7,0.9l0,0c3.1-0.1,6.2-0.5,9.2-1.3l0,0l0.3-0.1c0.7-0.2,1.5-0.4,2.2-0.6
		c2.5-0.8,4.8-1.8,7.1-3.1l0,0c2.2-1.3,4.3-2.8,6.2-4.6l0,0l0.8-0.8l0,0c0.2-0.3,0.5-0.5,0.7-0.8l0.1-0.1l0.6-0.7l0.1-0.1
		c0.2-0.3,0.4-0.5,0.5-0.7l0.1-0.2c0.2-0.2,0.3-0.5,0.5-0.7l0.1-0.2l0.4-0.7c0-0.1,0.1-0.2,0.1-0.2c0.1-0.2,0.3-0.4,0.4-0.7l0.1-0.3
		c0.1-0.2,0.2-0.4,0.3-0.6c0.1-0.2,0.1-0.2,0.1-0.3s0.2-0.4,0.2-0.6s0.1-0.2,0.1-0.4l0.2-0.6l0.1-0.4c0-0.2,0.1-0.4,0.1-0.6
		c0-0.2,0-0.3,0.1-0.5c0.1-0.1,0.1-0.4,0.1-0.5c0-0.2,0-0.3,0.1-0.5c0.1-0.2,0-0.3,0.1-0.5c0.1-0.2,0-0.4,0-0.5v-0.5v-1
		c0-0.3,0-0.7,0-1C362.6,185.4,362.2,185.7,361.7,186z"/>
	<path class="st2" d="M271.7,113.7c0,0,7.3-15.2,20.6-17.9c13.3-2.7,27.3,5.5,27.3,5.5c1.1,1.5,1.7,3.2-0.7,4
		c-3.4,0.5-15-9.4-26.1-6.1S271.7,113.7,271.7,113.7z"/>
	<path class="st3" d="M305.3,117.5c16,4.1,26.8,23.1,23.9,41.5c-3.3,18.9-19.2,30.1-35.7,25.6c-16.4-4.1-26.8-23.1-23.9-41.6
		C272.9,124.7,288.7,113,305.3,117.5z"/>
	<path class="st8" d="M300.6,187c-2.6,0-5.1-0.3-7.6-1c-16.8-4.2-28.1-23.5-24.9-43c1.5-9.6,7-18,15.1-23.4
		c6.6-4.2,14.7-5.4,22.3-3.4c16.5,4.3,27.9,24,24.9,43.1c-1.7,10-7.1,18.5-14.8,23.4C311.2,185.5,306,187,300.6,187z M298.1,117.9
		c-4.8,0-9.4,1.4-13.5,3.9c-7.4,4.9-12.4,12.8-13.9,21.6c-2.9,18.2,7.4,36.1,22.9,40c6.9,2,14.4,0.9,20.5-3c7-4.5,12-12.3,13.6-21.5
		c2.8-17.7-7.7-36.1-22.9-40.1l0,0C302.7,118.1,300.4,117.8,298.1,117.9z"/>
	<path class="st2" d="M314.8,126.7c7.5,1.7,12.1,9,10.5,16.5c0,0,0,0.1,0,0.1c-1.4,7.4-8.5,12.2-15.9,10.8c-0.1,0-0.2,0-0.3-0.1
		c-7.5-1.8-12.2-9.3-10.4-16.8C300.3,130,307.4,125.3,314.8,126.7L314.8,126.7z"/>
	<path class="st3" d="M302.2,126.8c2.9,0.7,4.7,3.5,4,6.4c0,0,0,0,0,0c-0.5,2.8-3.3,4.7-6.1,4.2c0,0-0.1,0-0.1,0
		c-2.9-0.6-4.8-3.5-4.2-6.4C296.4,128.1,299.3,126.2,302.2,126.8L302.2,126.8L302.2,126.8z"/>
	<path class="st3" d="M351,121.1c2.9,0.7,4.7,3.5,4,6.4c0,0,0,0,0,0c-0.5,2.8-3.3,4.7-6.1,4.2c0,0-0.1,0-0.1,0
		c-2.9-0.6-4.8-3.5-4.2-6.4C345.2,122.3,348,120.5,351,121.1L351,121.1z"/>
	<path class="st8" d="M415.8,284.8c-0.7-2.9-3.5-4.7-6.4-4.1c-2.8,0.2-5.5-0.5-7.9-2c3.1-1.6,6-3.6,8.6-5.9
		c5.2-4.6-2.1-12.6-7.3-7.9c-2,1.8-4.2,3.3-6.7,4.5c0.2-4.8,1.8-10,5.1-12.4c5.5-4.1-1.7-12-7.3-7.9c-7.6,5.7-10.2,19.9-7.9,28.7
		c0.1,0.4,0.2,0.8,0.4,1.1c-14.2,14.3-38,17.7-56.5,10.9c-9.3-3.4-21.2-19.5-25-28.5c-0.4,3.4-2.2,5.6-7.1,10.4
		c5,9.4,12,17.5,20.5,23.8c21.1,15.6,57.6,9.4,75.5-8.8c5.2,3.4,11.1,5.4,17.6,4.6c2.9-0.6,4.8-3.4,4.2-6.3
		C415.9,284.9,415.9,284.9,415.8,284.8z"/>
	<path class="st10" d="M264.3,76.4c-25.3-13.4-52.6-11.3-79.2-3.1c-5.1,1.6-2.9,9.7,2.2,8c24.4-7.6,49.4-10.2,72.8,2.2
		C264.9,86.1,269.1,78.9,264.3,76.4L264.3,76.4z"/>
	<path class="st10" d="M167.1,91.6c5.3,0,5.3-8.3,0-8.3C161.7,83.3,161.7,91.6,167.1,91.6z"/>
	<path class="st10" d="M127.4,339c-17.1,16.8-37.9,58.6-11.9,76.9c4.4,3.1,8.6-4.1,4.2-7.2c-10-7.1-8.3-22-5.3-32.2
		c3.4-12,10-23,19-31.7C137.2,341.1,131.3,335.2,127.4,339L127.4,339z"/>
	<path class="st10" d="M134.7,426.8c5.3,0,5.3-8.3,0-8.3C129.3,418.5,129.3,426.8,134.7,426.8z"/>
</g>
<g id="trí" class="st0">
	<path class="st1" d="M358.6,439c0,6.1-48.6,11-108.6,11s-108.6-4.9-108.6-11S190,428,250,428S358.6,432.9,358.6,439z"/>
	<path class="st11" d="M342.2,109c22.7,22.4,34.1,47.6,34.1,75.7s-12.5,48.3-37.5,60.8v3.4c3.2,1.6,7.9,5.1,14.2,10.3
		c5.6,4.6,10.7,9.9,15.2,15.6c10.4,13.1,16.1,29.4,15.9,46.1c0,34.3-12.8,62.5-38.4,84.8C319.9,427.9,287.8,439,249,439
		c-38.4,0-70.5-11.2-96.1-33.6c-9.6-8.6-18.1-20-25.5-34.1c-2.1-4-3.9-8.2-5.3-12.5l-1-4.8c-3.5-10.6-5.2-19.2-5.2-25.9
		c0-18.6,15.7-27.9,47.1-27.9c12.8,0,21.3,1.6,25.5,4.8c5.4,4.2,10.3,12.5,14.4,25c3.2,10.3,12,17.9,26.4,23.1
		c6.5,2,13.4,3,20.2,2.9c17,0,29.5-3.4,37.5-10.3c8-6.9,12-14.6,12-23.3c0-8.6-3.9-16.3-11.8-22.8c-7.8-6.5-17.7-10-27.9-9.9
		c-10.7,0-18-0.3-21.9-1c-4.4-0.8-8.6-2.5-12.5-4.8c-8.6-4.2-13-16.5-13-37c0-22.4,5.9-35.7,17.8-39.9c5.4-1.6,13.8-2.4,25-2.4
		c24.3,0,36.5-6.2,36.5-18.7c0-6.7-3.2-13.1-9.6-19.2c-6.4-6.1-15.3-9.1-26.7-9.1s-20.4,1.9-27.1,5.8c-6.7,3.8-10.9,7.7-12.5,11.5
		l-2.9,5.8c-7.4,16-17.9,24-31.7,24c-8,0-16.8-2.9-26.4-8.6c-16-9.3-24-20-24-32.2c0-5.1,3.7-16,11.1-32.7
		c1.3-2.9,4.8-7.9,10.6-15.2c5.8-7.2,12.5-13.6,19.9-18.9c7.5-5.4,18.1-10.4,31.7-14.9c14.7-4.6,30-6.9,45.4-6.7
		C288.4,75.3,319.5,86.5,342.2,109z"/>
	<path class="st12" d="M187.5,163.1l-1,0.3h-0.2c-0.8,0.2-1.6,0.4-2.5,0.5c-2,0.3-4,0.5-6,0.4l0,0c-0.7,0-1.3,0-2-0.1h-0.4
		c-0.7,0-1.4-0.1-2-0.2c-1.9-0.3-3.8-0.7-5.7-1.3l0,0c-0.6-0.2-1.3-0.4-1.9-0.6c-0.6-0.2-1-0.3-1.5-0.5l0,0c-0.7,1.1-1.6,2-2.7,2.9
		c1-0.8,1.9-1.8,2.7-2.9l0,0c-1.9-0.7-3.7-1.6-5.4-2.5c-0.7-0.4-1.3-0.7-1.9-1.1l0,0c-0.6-0.4-1.3-0.8-1.8-1.3l0,0
		c-0.9,0.6-2,1.1-3.1,1.4c1.1-0.3,2.1-0.7,3.1-1.4l0,0c-1.5-1.1-2.9-2.2-4.2-3.5c-0.5-0.5-1-1.1-1.5-1.6l0,0
		c-0.5-0.5-0.9-1.1-1.4-1.7c-0.2,0.6-0.3,1.3-0.4,1.8c0,0,0,0.1,0,0.1c-0.1,0.6-0.2,1.2-0.2,1.8c0,0,0,0.1,0,0.2c0,0.6,0,1.1,0,1.7
		v0.2c0,0.6,0,1.1,0.1,1.7c0.1,0.8,0,0.1,0,0.2c0.1,0.6,0.2,1.1,0.3,1.7v0.2c0.1,0.6,0.3,1.1,0.4,1.7v0.1c0.2,0.6,0.4,1.1,0.6,1.7
		c0,0,0,0,0,0.1c0.2,0.6,0.5,1.1,0.7,1.7l0,0c0.9,1.9,2.1,3.6,3.5,5.1l0,0c1.6,1.8,3.6,3.3,5.7,4.4l0,0c2,1,4.1,1.8,6.3,2.1l0,0h0.2
		c0.6,0.1,1.1,0.2,1.6,0.2c1.9,0.1,3.9,0,5.8-0.3l0,0c2-0.4,4-1.1,5.8-2l0,0l0.8-0.5l0,0l0.7-0.5h0.1c0.2-0.2,0.5-0.3,0.7-0.5
		l0.1-0.1c0.2-0.2,0.4-0.3,0.7-0.5l0.1-0.1l0.6-0.5l0.2-0.1l0.5-0.5l0.2-0.2l0.5-0.5l0.2-0.2l0.5-0.5l0.2-0.3l0.4-0.5l0.2-0.3
		l0.4-0.5c0.1-0.1,0.2-0.2,0.2-0.3l0.3-0.5l0.2-0.4l0.3-0.5l0.3-0.4c0.1-0.2,0.2-0.3,0.3-0.4c0.1-0.2,0.2-0.3,0.3-0.5
		c0.1-0.2,0.2-0.3,0.2-0.4l0.3-0.6l0.2-0.3c0.1-0.3,0.3-0.6,0.4-1C188.3,162.8,187.9,162.9,187.5,163.1z"/>
	<path class="st2" d="M136.7,57.9c0,0,11.2-9.5,23.2-7.6c12,1.9,20.9,13.6,20.9,13.6c0.3,1.4,0.4,3-1.8,2.5
		c-3.1-0.4-9.5-12.4-19.8-13.2C148.4,52.3,136.7,57.9,136.7,57.9z"/>
	<path class="st3" d="M163.5,72.2c12.1,8.9,15.2,28.2,6.1,42.7c-8.7,14.6-26.1,19.2-38.1,10c-12.4-9-15.2-28.2-6.4-42.8
		S151.1,63.2,163.5,72.2z"/>
	<path class="st13" d="M145.5,130.9c-5.4,0-10.6-1.8-14.8-5.1c-12.7-9.3-15.8-29.2-6.7-44.5c4.2-7.4,11.4-12.8,19.8-14.7
		c7.2-1.5,14.6,0.1,20.5,4.4l0,0c12.9,9.5,15.7,29.4,6.4,44.4c-4.3,7.6-11.7,13.1-20.3,14.9C148.7,130.8,147.1,130.9,145.5,130.9z
		 M149,68.7c-1.6,0-3.2,0.2-4.8,0.5c-7.6,1.8-14.2,6.6-18.1,13.5c-8.4,14.1-5.7,32.6,6.1,41.1c5,3.9,11.4,5.4,17.6,4.2
		c7.9-1.7,14.7-6.7,18.7-13.7c8.5-13.7,5.9-32.4-5.7-41C158.8,70.3,154,68.7,149,68.7z"/>
	<path class="st2" d="M156.8,99.5c6.4,4.4,8,13.1,3.8,19.6c-4.3,6.3-13,8-19.3,3.6c-6.3-4.3-8-13-3.6-19.3l0,0
		C141.9,97.2,150.4,95.5,156.8,99.5z"/>
	<path class="st3" d="M148.4,93.8c2.6,1.8,3.3,5.4,1.5,8c-1.8,2.6-5.3,3.3-7.9,1.5c-2.6-1.8-3.3-5.3-1.5-7.9
		C142.3,92.9,145.8,92.2,148.4,93.8z"/>
	<path class="st3" d="M216.9,91c-15.2-3.2-31.4,7.7-36.5,23.7c-4.9,16.5,2.9,32,18.1,35.1c14.7,3.4,31.3-7.3,36-23.5
		C239.7,109.9,231.6,94.3,216.9,91z"/>
	<path class="st13" d="M204,151.7c-2,0-3.9-0.2-5.8-0.7c-7-1.4-13-5.6-16.6-11.7c-4.2-7-5.1-16.1-2.4-25c5.4-16.8,22.4-27.8,38-24.6
		l0,0c7,1.6,13,6.1,16.5,12.3c4.1,7.2,4.8,16,2,24.7C231.4,141.3,217.7,151.7,204,151.7z M211.6,91.7c-12.8,0-25.6,9.6-30,23.4
		c-2.4,8.2-1.6,16.6,2.2,23c3.3,5.5,8.7,9.3,15,10.6c14.2,3.2,30-7.1,34.6-22.6c2.5-8,2-16.1-1.8-22.7c-3.2-5.6-8.6-9.7-14.9-11.1
		C215,91.9,213.3,91.7,211.6,91.7L211.6,91.7z"/>
	<path class="st2" d="M200.5,113.6c-7.4-2.1-15,2.7-17.1,10c-1.8,7.5,2.6,15,10,17.1c7.5,2,15.2-2.5,17.1-10
		C212.5,123.3,208,115.6,200.5,113.6L200.5,113.6z"/>
	<path class="st2" d="M245,103c0,0,0.1-14.8-9.3-22.2c-9.6-7.9-24-6.7-24-6.7c-1.5,0.6-2.8,1.8-0.9,3.3c2.7,1.5,15.8-1.5,23.3,5.5
		C241.9,90.2,245,103,245,103z"/>
	<path class="st3" d="M196.3,108.6c2.6,1.8,3.3,5.4,1.5,8c-1.8,2.6-5.3,3.3-7.9,1.5c-2.6-1.8-3.3-5.3-1.5-7.9
		C190.2,107.7,193.7,107,196.3,108.6z"/>
	<path class="st14" d="M353,182c-1.7,16.1-5.1,38.2-24.5,41.1c-5.1,0.8-2.9,8.4,2.1,7.6c23.3-3.5,28.3-29.4,30.3-48.7
		C361.4,176.9,353.5,176.9,353,182L353,182z"/>
	<path class="st14" d="M332.4,268.4c10.5,5.9,17.9,16.1,20.2,27.9c1,5,8.7,2.9,7.6-2.1c-2.9-13.8-11.6-25.7-23.8-32.6
		C331.9,259,328,265.8,332.4,268.4L332.4,268.4z"/>
	<path class="st14" d="M363.7,317.2c5.1,0,5.1-7.9,0-7.9C358.6,309.3,358.6,317.2,363.7,317.2z"/>
	<path class="st14" d="M315.2,231.4c5.1,0,5.1-7.9,0-7.9C310.1,223.5,310.1,231.4,315.2,231.4z"/>
	<path class="st14" d="M134.4,322.9c-0.5,19.1,6.1,37.6,18.4,52.2c3.3,3.9,8.8-1.7,5.6-5.6c-10.9-13.1-16.6-29.6-16.1-46.6
		C142.4,317.9,134.5,317.9,134.4,322.9L134.4,322.9z"/>
	<path class="st14" d="M164.7,388.3c5.1,0,5.1-7.9,0-7.9C159.6,380.4,159.6,388.3,164.7,388.3z"/>
	<path class="st11" d="M269.6,262.8c-1.1,24.1-31.2,27.4-49.6,23.5c-24-5.1-42.1-35.1-39.3-58.5c0.7-6.2,10.5-6.1,9.8,0.1
		c-2.3,19,10.1,38.2,26.4,47.1c11.6,6.3,42.1,5.1,42.9-12.3C260.1,256.3,269.9,256.5,269.6,262.8L269.6,262.8z"/>
	<path class="st11" d="M183.6,230.3c-6.8-1.3-12.8-4.1-16.8-9.9c-1.3-2.3-0.5-5.3,1.9-6.6c2.3-1.3,5.3-0.5,6.6,1.8
		c2.4,3.5,7,4.6,10.9,5.3c2.6,0.5,4.1,3.6,3.4,6C188.8,229.5,186.2,231,183.6,230.3L183.6,230.3z"/>
	<path class="st11" d="M186.5,221.1c4.6-2.3,10.3-8.8,9.8-14.3c-0.5-6.3,9.2-6.1,9.8,0.2c0.7,8.6-7.4,18.9-14.8,22.6
		C185.7,232.4,180.9,223.9,186.5,221.1L186.5,221.1z"/>
	<path class="st11" d="M183.9,225.9c-2.6-4.7-3.9-10.1-3.7-15.5c0-6.3,9.8-6.2,9.8,0.1c-0.2,3.7,0.7,7.3,2.4,10.6
		C195.6,226.6,187.1,231.4,183.9,225.9L183.9,225.9z"/>
</g>
<g id="ceathar" class="st0">
	<path class="st1" d="M399,437.5c0,6.9-59.4,12.5-132.7,12.5s-132.7-5.6-132.7-12.5S193,425,266.3,425S399,430.6,399,437.5z"/>
	<path class="st15" d="M264.9,330.4v99c-4.6-1.1-11.7-1-16.5,1.1c-0.9,0.4-1.3,1.5-0.9,2.4c0.3,0.5,0.8,0.9,1.3,1l21.6,3.5
		c1.7,0.3,3.3-0.7,4-2.2l3.1-99L264.9,330.4z"/>
	<path class="st15" d="M346.3,330.4l-0.2,99c4.6-1.1,11.7-1,16.5,1.2c0.9,0.4,1.3,1.5,0.8,2.4c-0.3,0.5-0.8,0.9-1.4,1l-21.7,3.5
		c-1.7,0.3-3.3-0.7-4-2.3l-2.9-99L346.3,330.4z"/>
	<path class="st15" d="M286.2,213c-12.6,20.6-40.3,9-54.6-3.3c-18.5-15.9-19.9-50.8-6.2-69.9c3.6-5,12.1-0.3,8.5,4.8
		c-11.1,15.5-9.5,38.2,0.5,53.8c7.1,11.1,34.3,24.7,43.4,9.8C281,202.8,289.5,207.6,286.2,213z"/>
	<path class="st15" d="M226.7,143.5c-5.3-4.4-9.3-9.7-9.9-16.7c0-2.7,2.1-4.9,4.8-4.9c2.7,0,4.8,2.1,4.9,4.8c0.4,4.2,3.9,7.3,7,9.9
		c2.1,1.7,1.8,5,0.1,6.9C231.7,145.2,228.6,145.3,226.7,143.5L226.7,143.5z"/>
	<path class="st15" d="M233.7,136.8c5,0.2,13.2-2.8,15.4-7.8c2.5-5.7,11-0.9,8.5,4.8c-3.5,7.9-15.6,12.9-23.7,12.6
		C227.5,146.3,227.4,136.5,233.7,136.8z"/>
	<path class="st15" d="M229.1,139.7c0-5.4,1.5-10.7,4.2-15.3c3-5.5,11.5-0.7,8.5,4.8c-1.9,3.1-2.9,6.7-2.9,10.4
		C239,145.9,229.3,146,229.1,139.7z"/>
	<path class="st15" d="M336.5,223.5c25.7,7.2,51-3.8,62.7-27.9c8.9-18.3-0.8-50.3-19.3-59.4c-6-2.9-9.8,6.6-3.9,9.5
		c14.2,6.9,19.2,32.7,13.6,46c-7.9,19-30.2,27.6-49.4,22.2C334.1,212.2,330.2,221.7,336.5,223.5L336.5,223.5z"/>
	<path class="st15" d="M371.3,134.8c-2.8,1.9-7,4-10.2,2.4c-2.5-1.3-5.7,0.4-6.7,2.8c-1,2.6,0.2,5.6,2.8,6.7
		c6.6,3.3,14.7,0.1,20.3-3.8C383.2,139,376.8,131,371.3,134.8L371.3,134.8z"/>
	<path class="st15" d="M376.3,121.7c0.4,2.2,1.1,4.7,0.3,6.8c-0.7,2.2-2.7,4-4.3,5.5c-2,2-2.8,4.8-0.9,7.2c1.5,2,5.2,2.9,7.2,0.9
		c3-3,5.9-5.9,7.5-9.8s1.1-8.2,0.3-12.2C385.2,113.7,375,115.2,376.3,121.7L376.3,121.7z"/>
	<path class="st15" d="M363.3,130c2.8,2.7,5.2,5.7,7.2,9c1.5,2.3,5.1,2.5,7.2,0.9c2.2-1.8,2.6-4.9,0.9-7.2c-2.5-4-5.6-7.7-9.1-10.9
		c-2.3-1.7-5.5-1.3-7.2,1C360.6,125.1,361.1,128.3,363.3,130z"/>
	<path class="st16" d="M268.7,81c2.5-4.4,6.8-7.4,12.9-9.1c6.1-1.7,14-2.6,23.9-2.5c9.8,0,17.7,1,23.6,3c5.9,2,10.1,5.3,12.6,9.8
		c2.2,3.8,3.8,8,4.4,12.4c0.5,5.4,0.8,10.9,0.7,16.4v259.9c0,12.2-1.5,21.1-4.4,26.9c-2.7,5.6-7.6,9.7-13.6,11.4
		c-7.4,2-15,3-22.6,2.8c-9,0-16.2-0.8-21.5-2.3c-4.4-1.1-8.5-3-12.2-5.6c-3-2.4-5.1-5.7-6.1-9.3c-1.9-5.3-2.8-13.4-2.8-24.3v-57
		H160.8c-32.5,0.1-59.7-24.5-62.9-56.8c-6.1-64.3,47.3-180,51.5-183.5c4.2-3.4,9.6-5.1,16.1-5.1c7.3,0.1,14.5,1.2,21.5,3.3
		c21.8,5.9,32.7,15.8,32.7,29.9c0,5-1.1,11.6-3.3,19.6c-0.3,0.4-0.4,0.9-0.5,1.4l-28.5,114.1h76.2V108.6c-0.1-5.3,0.1-10.6,0.7-15.9
		C265,88.6,266.5,84.6,268.7,81z"/>
	<path class="st2" d="M253.3,66.2c0,0,5.9-12.8,17-15.5c11.5-2.8,23.2,4.2,23.2,4.2c1.1,1.1,1.9,2.9-0.3,3.3
		c-2.9,0.8-12.8-7.7-22.5-4.6C261.4,56.6,253.3,66.2,253.3,66.2z"/>
	<path class="st3" d="M281.5,68.8c14.2,3.3,23.5,19,21.4,35c-2.5,16-15.7,26-29.9,22.6c-13.8-3.3-23.5-19-21-35
		C254.2,75.6,267.7,65.5,281.5,68.8z"/>
	<path class="st17" d="M278.4,128.4c-1.9,0-3.8-0.2-5.7-0.7c-14.7-3.5-24.6-19.9-21.9-36.4c1-8.1,5.3-15.4,11.9-20.1
		c5.6-3.9,12.5-5.2,19.1-3.6c14.6,3.4,24.6,19.7,22.3,36.4c-1.1,8.2-5.6,15.5-12.3,20.3C287.9,126.9,283.2,128.4,278.4,128.4z
		 M276.2,69.5c-4.3,0-8.5,1.3-12.1,3.8c-6,4.3-10,11-10.9,18.4c-2.4,15,6.8,30.4,20,33.6c5.9,1.4,12.1,0.3,17.1-3.1
		c6.1-4.4,10.2-11.1,11.2-18.5c2.1-15.4-7-30.4-20.4-33.5l0,0C279.6,69.7,277.9,69.5,276.2,69.5z"/>
	<path class="st2" d="M286.1,95.1c7.1,1.4,11.8,8.2,10.5,15.3c-1.1,7.2-7.8,12.1-14.9,11c-7.2-1.1-12.1-7.8-11-14.9
		c0.1-0.3,0.1-0.7,0.2-1c1.2-7,8-11.7,15-10.5C285.9,95.1,286,95.1,286.1,95.1z"/>
	<path class="st3" d="M275.8,94.4c2.7,0.5,4.5,3.1,4,5.9c0,0,0,0,0,0c-0.5,2.7-3.1,4.5-5.9,4c-2.7-0.5-4.5-3.1-4-5.9c0,0,0,0,0,0
		C270.4,95.6,273,93.8,275.8,94.4z"/>
	<path class="st3" d="M326.7,68c-14,2.8-24.2,17.9-22.8,34.1c1.4,15.9,14.3,26.8,28.7,23.9c14-2.5,24.2-17.9,22.8-33.7
		C354,76.1,341.1,65.6,326.7,68z"/>
	<path class="st17" d="M328.1,127.8c-5.2,0-10.2-1.7-14.4-4.8c-6.4-5-10.4-12.6-11-20.7c-1.5-16.9,9-32.4,23.8-35.4l0,0
		c6.8-1.2,13.9,0.5,19.4,4.8c6.4,5.1,10.3,12.6,10.8,20.7c1.5,16.8-9.2,32.5-23.8,35.1C331.2,127.7,329.7,127.8,328.1,127.8z
		 M326.9,69.3c-13.6,2.7-23.1,17.1-21.7,32.7c0.5,7.5,4.2,14.3,10.1,18.9c4.9,3.7,11.2,5.1,17.2,3.9c13.2-2.3,23.1-17.1,21.8-32.4
		c-0.5-7.4-4-14.2-9.8-18.9C339.5,69.7,333.1,68.2,326.9,69.3L326.9,69.3z"/>
	<path class="st2" d="M321.1,93.8c-7.2,0.9-12.2,7.4-11.3,14.6c0,0,0,0.1,0,0.1c0.8,7,7.1,12.1,14.1,11.3c0.2,0,0.4,0,0.6-0.1
		c7.2-0.9,12.2-7.5,11.3-14.6c0,0,0,0,0-0.1c-0.8-7-7.1-12.1-14.1-11.3C321.4,93.8,321.3,93.8,321.1,93.8z"/>
	<path class="st3" d="M314.8,94.4c2.7,0.5,4.5,3.1,4,5.9c0,0,0,0,0,0c-0.5,2.7-3.1,4.5-5.9,4c-2.7-0.5-4.5-3.1-4-5.9c0,0,0,0,0,0
		C309.4,95.6,312,93.8,314.8,94.4z"/>
	<path class="st2" d="M356,68.2c0,0-5.3-13.3-16.2-16.6c-11.3-3.4-23.4,3.4-23.4,3.4c-1.1,1.1-2.1,2.6,0.1,3.3
		c2.9,0.7,13.2-7.1,22.6-3.8C348.2,57.8,356,68.2,356,68.2z"/>
	<path class="st18" d="M298.7,169.6c-3.6-0.6-7.1-1.8-10.3-3.5C291.6,167.8,295.1,169,298.7,169.6z"/>
	<path class="st18" d="M278.9,150.3c1.5,0.8,4.1-1.3,6.2-3.8l0,0c-2.6-0.8-5.2-1.8-7.6-3l0,0C277.5,146.6,277.7,149.6,278.9,150.3z"
		/>
	<path class="st18" d="M328,151.1c1.4-0.8,1.6-4.7,1.4-8.1l0,0c-2.7,1.4-5.4,2.5-8.3,3.4C323.3,149.3,326.3,152,328,151.1z"/>
	<polygon class="st18" points="319.6,165.8 319.6,165.8 319.6,165.8 	"/>
	<path class="st18" d="M319.6,165.8c-0.8,0.4-1.6,0.9-2.4,1.3C318,166.7,318.8,166.3,319.6,165.8z"/>
	<path class="st18" d="M317.2,167.1l-0.2,0.1L317.2,167.1z"/>
	<path class="st18" d="M311.7,168.9h-0.1H311.7z"/>
	<path class="st18" d="M303.5,160.3c-1.9,0.3-3.9,5.7-4.8,9.3c4.3,0.7,8.7,0.5,12.9-0.6c-0.9,0.2-1.8,0.4-2.8,0.6
		C308.2,165.6,305.9,159.9,303.5,160.3z"/>
	<path class="st18" d="M317,167.1c-0.8,0.4-1.6,0.7-2.5,1C315.4,167.8,316.2,167.5,317,167.1z"/>
	<path class="st18" d="M320,156.7c-1.4,1-1,5.5-0.4,9.1c2.7-1.5,5.1-3.4,7.3-5.7C324.5,157.6,321.5,155.6,320,156.7z"/>
	<path class="st18" d="M314.5,168.1l-0.2,0.1L314.5,168.1z"/>
	<path class="st18" d="M314.3,168.2c-0.9,0.3-1.7,0.6-2.6,0.8C312.6,168.8,313.4,168.5,314.3,168.2z"/>
	<path class="st18" d="M288,156.5c-1.4-0.6-4.6,1.7-7.1,3.9c2.2,2.2,4.7,4.1,7.5,5.6C289.6,162.4,290,157.4,288,156.5z"/>
	<path class="st18" d="M296.7,155.6c1.4-0.2,2.9-3.4,3.9-6.5l0,0c-3-0.1-6-0.4-8.9-1l0,0C292.6,151.8,294.7,155.9,296.7,155.6z"/>
	<path class="st18" d="M310.5,155.2c1.5-0.2,3.1-3.9,4.1-7.2c-2.9,0.5-5.8,0.9-8.7,1C306.9,152.3,308.7,155.5,310.5,155.2z"/>
	<path class="st6" d="M326.9,160.1L326.9,160.1c0.3-0.3,0.6-0.7,0.9-1l0,0l0.9-1l0.1-0.1c0.3-0.3,0.5-0.7,0.8-1l0.1-0.2
		c0.3-0.3,0.5-0.7,0.7-1l0.2-0.2l0.6-1c0-0.1,0.1-0.2,0.2-0.3c0.2-0.3,0.4-0.6,0.6-1l0.2-0.3c0.2-0.3,0.3-0.6,0.5-0.9l0.2-0.4
		c0.1-0.3,0.3-0.6,0.4-0.9c0.1-0.3,0.1-0.3,0.2-0.5c0.1-0.2,0.2-0.6,0.4-0.9l0.2-0.5c0.1-0.3,0.2-0.6,0.3-0.9l0.2-0.6
		c0.1-0.3,0.2-0.6,0.3-0.8l0.2-0.7c0.1-0.3,0.1-0.5,0.2-0.8c0.1-0.3,0.1-0.5,0.2-0.7l0.2-0.8c0-0.3,0.1-0.6,0.1-0.8
		c0-0.3,0.1-0.5,0.1-0.7c0-0.2,0.1-0.7,0.1-1s0-0.4,0-0.6c0-0.5,0.1-1.1,0.1-1.6c-0.5,0.4-1,0.7-1.5,1.1l-1.3,0.9l-0.3,0.2
		c-1.1,0.7-2.2,1.3-3.3,1.9l0,0c0.1,3.4-0.1,7.3-1.4,8.1c-1.7,0.9-4.7-1.7-6.8-4.7l0,0c-0.9,0.3-1.9,0.6-2.9,0.8l-0.7,0.2
		c-1,0.3-2,0.5-3,0.7c-1,3.3-2.5,6.9-4.1,7.2c-1.8,0.3-3.6-2.9-4.7-6.2l0,0c-1,0-2,0.1-2.9,0.1h-2.3l0,0c-1,3.1-2.5,6.3-3.9,6.5
		c-2,0.3-4.1-3.8-5-7.5l0,0c-1.1-0.2-2.2-0.4-3.3-0.7h-0.1c-1.1-0.3-2.2-0.6-3.2-0.9l0,0c-2,2.5-4.6,4.7-6.2,3.8
		c-1.3-0.7-1.5-3.8-1.5-6.8l0,0c-1-0.5-2-1-2.9-1.6l-0.1-0.1c-0.9-0.5-1.8-1.1-2.7-1.7c0.1,0.9,0.2,1.9,0.3,2.8c0,0.1,0,0.1,0,0.2
		c0.2,0.9,0.3,1.8,0.6,2.6c0,0.1,0,0.2,0.1,0.3c0.2,0.8,0.5,1.7,0.8,2.5c0,0.1,0,0.2,0.1,0.3c0.3,0.8,0.6,1.6,1,2.4
		c0,0.1,0.1,0.2,0.1,0.3c0.4,0.8,0.8,1.5,1.2,2.3l0.1,0.2c0.4,0.8,0.9,1.5,1.4,2.2l0.1,0.2c0.5,0.7,1,1.4,1.6,2.1l0.1,0.1
		c0.6,0.7,1.3,1.4,1.8,2l0,0c2.5-2.3,5.7-4.6,7.1-3.9c2,0.9,1.6,5.9,0.4,9.6l0,0c3.2,1.7,6.7,2.9,10.3,3.5l0,0
		c0.9-3.6,2.9-9.1,4.8-9.3c2.4-0.3,4.8,5.3,5.3,9.3c3.8-0.6,7.5-1.9,10.8-3.8c-0.6-3.6-1-8.1,0.4-9.1S324.5,157.7,326.9,160.1
		L326.9,160.1z"/>
	<path class="st19" d="M115.5,228.4c-4.7,13.1-2.8,28.2,3.9,40.3c8.3,15,23.5,22.9,40.3,24.4c5,0.5,5-7.4,0-7.9
		c-14.5-1.3-27.3-8.5-34-21.7c-5.3-10.2-6.2-22.2-2.5-33.1C124.8,225.7,117.2,223.6,115.5,228.4L115.5,228.4z"/>
	<path class="st19" d="M153.8,108.7c2.1-6.4,3.3-15.6,10.7-17.9c5.7-1.8,13.5-0.3,18.9,1.6c4.8,1.7,6.8-5.9,2.1-7.5
		c-7.7-2.7-18.1-4.1-25.8-0.7c-8.9,4-10.8,14-13.6,22.4C144.6,111.4,152.2,113.5,153.8,108.7L153.8,108.7z"/>
	<path class="st19" d="M195.6,96.5c5,0,5-7.9,0-7.9S190.6,96.5,195.6,96.5z"/>
	<path class="st19" d="M334.1,386.2c-0.4-23.5,0.4-47,0-70.5c-0.1-5-8-5-7.9,0c0.4,23.5-0.4,47,0,70.5
		C326.3,391.2,334.2,391.2,334.1,386.2z"/>
	<path class="st19" d="M330.1,302.8c5,0,5-7.9,0-7.9S325.1,302.8,330.1,302.8z"/>
</g>
<g id="ciúg" class="st0">
	<path class="st1" d="M352.3,437.1c0,7.1-56.9,12.9-127.1,12.9s-127.1-5.8-127.1-12.9s56.9-12.9,127.1-12.9S352.3,430,352.3,437.1z"
		/>
	<path class="st20" d="M277,255.7c-1.9,28.5,33,36.3,55.3,34.1c28.8-2.8,54.1-35.7,53.8-63.6c-0.1-7.4-11.6-8.6-11.5-1.1
		c0.2,22.6-16.9,43.6-37.3,51.9c-14.5,5.9-50.2,0.5-48.9-20.1C289,249.4,277.5,248.2,277,255.7L277,255.7z"/>
	<path class="st20" d="M382.4,228.8c8.1-0.6,15.6-3.1,21-9.4c2-2.4,1.1-6.3-1.3-8.1c-2.6-1.8-6.2-1.2-8.1,1.3
		c-3.3,3.9-8.8,4.5-13.5,4.8c-3.1,0.2-5.3,3.7-4.8,6.6C376.3,227.2,379.3,229.3,382.4,228.8L382.4,228.8z"/>
	<path class="st20" d="M380.1,217.6c-5-3.3-10.9-11.8-9.7-18.1c1.4-7.3-10.1-8.4-11.5-1.1c-2,10,6.2,23.2,14.4,28.5
		C379.6,230.9,386.4,221.6,380.1,217.6L380.1,217.6z"/>
	<path class="st20" d="M382.6,223.6c3.7-5.2,5.8-11.4,6.3-17.7c0.8-7.4-10.7-8.5-11.5-1.1c-0.3,4.3-1.8,8.5-4.2,12.1
		C368.8,222.8,378.1,229.6,382.6,223.6L382.6,223.6z"/>
	<path class="st20" d="M266.9,236.5c22.7,6.1,19.5,35.4,11.9,52.1c-9.9,21.7-42.1,32.6-63.9,25c-5.7-2-3.6-11.3,2.2-9.3
		c17.6,6.2,38.5-1.6,50.3-15.3c8.4-9.8,13.7-39-2.7-43.4C258.8,244.1,260.9,234.8,266.9,236.5L266.9,236.5z"/>
	<path class="st20" d="M218,311.4c-2.6,6.2-6.5,11.4-12.9,13.9c-2.5,0.8-5.2-0.6-5.9-3.1c-0.7-2.5,0.7-5.1,3.1-5.9
		c3.9-1.5,5.8-5.7,7.3-9.3c1-2.4,4.3-3.1,6.5-2C218.4,306.2,219.3,309.1,218,311.4L218,311.4z"/>
	<path class="st20" d="M209.8,306.7c-1.2-4.8-6.3-11.6-11.5-12.3c-6.1-0.8-3.9-10.1,2.2-9.3c8.3,1.1,16.4,11,18.4,18.8
		C220.4,309.8,211.3,312.6,209.8,306.7L209.8,306.7z"/>
	<path class="st20" d="M213.9,310.2c-5,1.5-10.4,1.6-15.5,0.3c-6-1.3-3.9-10.6,2.2-9.3c3.5,0.9,7.1,0.9,10.5-0.1
		C216.9,299.2,219.7,308.3,213.9,310.2L213.9,310.2z"/>
	<path class="st21" d="M168.4,50l78.6,0.5h48.6c6-0.1,12.1,0.2,18.1,0.8c4.7,0.9,9.3,2.5,13.4,4.9c9.3,4.8,13.9,18.6,13.9,41.3
		c0,20.6-4.3,33.2-12.9,37.7c-3.9,2.4-8.2,4.1-12.7,4.9c-5.6,0.6-11.2,0.9-16.8,0.8h-90.4c-0.7,4.1-2.4,17.2-5.2,39.3
		c6-0.8,12-1.2,18.1-1c32.7,0,62.2,12.3,88.4,36.9c26.2,24.6,39.3,54.8,39.3,90.4c0,35.7-12.4,66.3-37.2,92
		C286.7,424.2,255.9,437,219,437c-32.1,0-61-8.1-86.8-24.3c-4.6-2.8-8.9-6.1-12.9-9.8l-4.1-3.6c-13.1-11.4-19.6-21.7-19.6-31
		s6.4-20.5,19.1-33.5c10.3-11.4,20.3-17.1,30-17.1s21.2,5.5,34.6,16.5c6.2,7.2,16.9,10.9,32.3,10.9c15.3,0,26.7-3.3,34.2-9.8
		c7.4-6.5,11.1-15.6,11.1-27.1c0-11.5-4-20.6-12.2-27.4c-7.7-6.6-17.5-10.2-27.6-10.1c-10.3,0-18.6,3.1-24.8,9.3
		c-9.3,7.9-18.7,11.9-28.2,11.9c-9.5,0-20.3-3.3-32.6-9.8c-12.2-6.5-20.2-11.8-24-15.8s-5.7-8.2-5.7-12.7c0-4.5,3.4-32.2,10.3-83.2
		c6.9-51,10.5-77.5,10.9-79.6c0.9-3.7,2.1-7.4,3.6-10.9c1.9-4.9,4.5-9.6,7.5-13.9c2.9-4.1,7.4-7.8,13.4-11.1
		C153.9,51.6,161.1,49.9,168.4,50z"/>
	<path class="st3" d="M303.5,184.4c-12,7.1-16.2,24.7-9.5,38.8c7.1,14.1,22.6,19.4,34.6,12.4c12-7.4,16.2-25.1,9.2-39.2
		C331,182.3,315.5,176.9,303.5,184.4z"/>
	<path class="st20" d="M317.2,240c-2.4,0-4.7-0.3-7-1c-7.6-2.4-13.9-7.9-17.4-15.2c-7.1-14.9-2.6-33.1,10-40.5
		c5.7-3.6,12.6-4.5,19.1-2.6c7.5,2.4,13.7,7.9,17,15.1c7.3,14.7,3,33-9.7,40.8C325.6,238.8,321.4,239.9,317.2,240z M315.2,182.3
		c-3.9,0-7.7,1.1-11,3.1l0,0c-11.3,6.6-15.5,23.7-9,37.2c3.1,6.6,8.9,11.6,15.8,13.9c5.7,1.7,11.8,1,17-2c11.5-7.1,15.5-24,8.7-37.5
		c-3-6.6-8.6-11.6-15.4-13.8C319.2,182.6,317.2,182.3,315.2,182.3z"/>
	<path class="st2" d="M321.9,196c-5.9,3-8.3,10.2-5.3,16.1c0.1,0.1,0.1,0.3,0.2,0.4c3.4,6.1,10.8,8.4,16.5,5.1
		c6-3.3,8.2-10.8,5.1-16.9C335.1,195,327.6,192.6,321.9,196z"/>
	<path class="st2" d="M330,174.1c0,0-9.2-10.2-20.5-9.2c-11.3,0.7-20.5,10.6-20.5,10.6c-0.7,1.4-0.7,3.2,1.4,3.2
		c2.8-0.3,9.9-11.3,19.4-11.3C319.7,167.4,330,174.1,330,174.1z"/>
	<path class="st2" d="M238.9,186.6c0,0,7.3-14.2,19.9-17.1c12.6-2.9,26,5.3,26,5.3c0.8,1.6,1.6,3.3-0.8,3.7
		c-3.3,0.8-14.2-8.9-24.8-5.7C248.3,176,238.9,186.6,238.9,186.6z"/>
	<path class="st3" d="M271,190.3c15.5,4.1,26,21.9,22.8,39.8c-2.8,17.9-17.9,29.3-33.7,24.8c-15.9-4.1-26-21.9-23.2-39.8
		C240.1,197.2,255.1,186.1,271,190.3z"/>
	<path class="st20" d="M266.9,257.1c-2.5,0-4.9-0.3-7.3-1c-16.2-4.2-27.1-22.7-24.1-41.3c1.7-9.6,6.9-17.7,14.3-22.4
		c6.4-4.1,14.2-5.4,21.5-3.4l0,0c16.4,4.3,27.1,22.9,23.7,41.3c-1.5,9.7-6.7,17.9-14.1,22.7C276.8,255.6,271.9,257.1,266.9,257.1z
		 M264.4,190.7c-4.7,0-9.3,1.3-13.2,3.9c-7,4.8-11.8,12.3-13.1,20.6c-2.8,17.3,7.2,34.5,22.2,38.4c6.5,1.9,13.5,0.9,19.2-2.8
		c6.8-4.3,11.5-12,12.9-20.9c3.1-16.9-6.9-34.5-21.8-38.4C268.6,190.9,266.5,190.7,264.4,190.7L264.4,190.7z"/>
	<path class="st2" d="M282.7,205.1c6.9,1.6,11.1,8.4,9.6,15.3c0,0.1,0,0.1,0,0.2c-1.7,6.8-8.6,10.9-15.4,9.1
		c-6.8-1.7-10.9-8.6-9.1-15.4C269.4,207.7,276,203.6,282.7,205.1z"/>
	<path class="st3" d="M273.3,206.1c2.9,0.6,4.7,3.3,4.2,6.2c-0.6,2.9-3.3,4.7-6.2,4.2c-2.9-0.6-4.7-3.3-4.2-6.2c0-0.1,0-0.1,0-0.2
		C267.7,207.4,270.5,205.6,273.3,206.1z"/>
	<path class="st3" d="M321,195.8c2.9,0.6,4.7,3.3,4.2,6.2c-0.6,2.9-3.3,4.7-6.2,4.2c-2.9-0.6-4.7-3.3-4.2-6.2c0-0.1,0-0.1,0-0.2
		C315.5,197,318.2,195.3,321,195.8z"/>
	<path class="st6" d="M332.6,278.6c-0.6,6.1-3.2,11.5-9.5,13.3c-11.4,3.2-21-7.5-23.4-17.3c-3.2-12.7,15.7-8.6,23-13.4
		c1.2-1,2.6-1.6,4.1-1.7c2.4,0.1,3.8,2.8,4.4,5.2C332.5,269.2,333,273.9,332.6,278.6z"/>
	<path class="st22" d="M303.5,68.9c5.2,0,5.2-8.1,0-8.1S298.3,68.9,303.5,68.9z"/>
	<path class="st22" d="M323.8,336.2c-4.1,16-13.1,30.3-25.7,40.9c-4,3.4,1.8,9,5.7,5.7c13.7-11.5,23.4-27.1,27.8-44.4
		C332.8,333.4,325.1,331.2,323.8,336.2L323.8,336.2z"/>
	<path class="st22" d="M331.6,325.5c5.2,0,5.2-8.1,0-8.1S326.4,325.5,331.6,325.5z"/>
	<path class="st22" d="M119.5,347.2c-11.2,5.7-15.6,19.5-9.9,30.7c2.3,4.5,6.1,8.2,10.7,10.3c4.7,2.2,8.8-4.8,4.1-7
		c-11.9-5.5-12.6-20.8-0.9-27C128.2,351.7,124.1,344.8,119.5,347.2L119.5,347.2z"/>
	<path class="st22" d="M114.3,234.2c-1.4,6.2-3.7,16.2,0.5,21.8c1.8,2.4,4.9,3.6,7.5,5l12.9,7c4.6,2.5,8.6-4.5,4.1-7
		c-5.2-2.8-10.4-5.7-15.6-8.5c-5.2-2.9-2.6-11.4-1.5-16.2c1.1-5-6.6-7.2-7.7-2.1L114.3,234.2z"/>
	<path class="st22" d="M318.3,71.4c7.6,0.6,5.4,17.7,5.4,23.2c-0.1,6.7-0.1,13.5-0.5,20.2c-0.3,5.2,7.7,5.2,8.1,0
		c0.6-9.6,0.5-19.4,0.5-29c0-9.7-1.6-21.4-13.5-22.4C313.2,62.9,313.2,71,318.3,71.4z"/>
</g>
<g id="sé" class="st0">
	<path class="st1" d="M381.1,437.7c0,6.8-58.7,12.3-131.1,12.3s-131.1-5.5-131.1-12.3c0-6.8,58.7-12.3,131.1-12.3
		S381.1,430.9,381.1,437.7z"/>
	<path class="st23" d="M311.9,277.7c1.5,23.8,31.2,26.4,49.4,22.2c23.5-5.5,40.9-35.4,37.6-58.4c-0.8-6.1-10.5-5.8-9.6,0.3
		c2.6,18.6-9.2,37.9-25.2,46.9c-11.4,6.4-41.5,5.8-42.6-11.4C321.2,271.1,311.5,271.5,311.9,277.7L311.9,277.7z"/>
	<path class="st23" d="M396.1,244.1c6.6-1.4,12.6-4.2,16.3-10.1c1.3-2.3,0.4-5.3-1.9-6.5c-2.4-1.2-5.3-0.3-6.6,2
		c-2.3,3.5-6.8,4.6-10.6,5.4c-2.6,0.5-3.9,3.6-3.2,6C390.9,243.4,393.5,244.9,396.1,244.1L396.1,244.1z"/>
	<path class="st23" d="M393.1,235c-4.5-2.2-10.3-8.5-9.9-13.9c0.4-6.2-9.2-5.8-9.6,0.3c-0.6,8.5,7.7,18.5,15,22
		C394.1,246.2,398.7,237.7,393.1,235L393.1,235z"/>
	<path class="st23" d="M395.7,239.7c2.5-4.7,3.6-10,3.4-15.4c-0.1-6.2-9.7-5.9-9.6,0.3c0.2,3.6-0.5,7.2-2.2,10.4
		C384.2,240.6,392.7,245.2,395.7,239.7z"/>
	<path class="st23" d="M184.2,307.3c-9.8,21.8-56.1-26.2-72.4-43.6c-16.5-17.6-25.9-47.5-14.8-67.9c2.9-5.4,11.9-1.8,8.9,3.7
		c-9,16.6-4.6,38.7,7.2,52.8c8.4,10,55.1,57.1,62.2,41.3C177.8,287.9,184.2,307.3,184.2,307.3z"/>
	<path class="st23" d="M98.8,199.2c-5.7-3.6-10.3-8.4-11.8-15.2c-0.4-2.6,1.5-5.1,4.1-5.4c2.6-0.3,5,1.5,5.4,4.1
		c0.9,4.1,4.7,6.7,8.1,8.8c2.2,1.4,2.4,4.8,0.9,6.7C103.9,200.4,100.9,200.8,98.8,199.2z"/>
	<path class="st23" d="M104.8,191.8c5-0.4,12.6-4.4,14.2-9.5c1.8-5.9,10.7-2.2,8.9,3.7c-2.5,8.2-13.7,14.6-21.7,15.4
		C99.9,201.9,98.7,192.4,104.8,191.8L104.8,191.8z"/>
	<path class="st23" d="M100.7,195.3c-0.7-5.3,0.1-10.7,2.2-15.6c2.3-5.8,11.2-2.1,8.9,3.7c-1.5,3.3-2,7-1.6,10.6
		C111.2,200.2,101.6,201.5,100.7,195.3L100.7,195.3z"/>
	<path class="st24" d="M219.2,326.1l-31.1,101.2c-4.4-2.5-11.7-4.7-17.2-4c-1.1,0.2-1.8,1.2-1.6,2.2c0.1,0.6,0.5,1.2,1.1,1.4
		l21,10.4c1.6,0.8,3.6,0.4,4.7-1.1L230.3,336L219.2,326.1z"/>
	<path class="st24" d="M309.8,326.1l31.1,101.2c4.4-2.5,11.7-4.7,17.2-4c1.1,0.2,1.8,1.1,1.6,2.2c-0.1,0.6-0.5,1.2-1.1,1.4l-21,10.4
		c-1.6,0.8-3.6,0.4-4.7-1.1L298.7,336L309.8,326.1z"/>
	<path class="st24" d="M366.5,296.6c0,32.6-11.7,59.9-35.1,81.9c-23.4,22-44.5,32.9-77.8,32.9c-42,0-71.2-15.9-92.5-42.9
		c-21.3-27-34.4-59.4-34.4-102c0-61.7,17.5-113.2,52.6-154.6c35-41.3,82.9-62,143.6-62c12.3,0,21.2,1.5,26.9,4.6
		c5.5,2.9,9.6,7.9,11.4,13.8c1.9,6.1,2.9,13.9,2.9,23.3c0,9.4-0.8,16.8-2.4,22.3c-1.2,4.5-3.1,8.8-5.8,12.6
		c-2.5,3.1-5.9,5.3-9.7,6.3c-5.5,1.9-14.9,2.9-28.1,2.9c-13.1,0-26.2,2.3-38.5,6.8c-12.4,4.5-22.2,10-29.3,16.5
		c-14.2,13.3-2.6,33.4,9.4,33.4c32,0,52.1,10.6,74.9,31.7S366.5,270.1,366.5,296.6z"/>
	<path class="st2" d="M199.8,196c0,0,8.3-12.4,20.3-13.7s23.6,7.6,23.6,7.6c0.6,1.6,1.2,3.2-1.1,3.3c-3.1,0.4-12.3-9.8-22.4-7.9
		C209.6,187.2,199.8,196,199.8,196z"/>
	<path class="st3" d="M229.3,202.8c13.9,5.4,21.8,23.1,16.9,39.4c-4.5,16.3-19.7,25.3-33.9,19.5c-14.3-5.4-21.8-23.1-17.3-39.4
		C199.9,205.9,215,197.3,229.3,202.8z"/>
	<path class="st23" d="M221.2,264.6c-3.2,0-6.4-0.6-9.3-1.9c-14.6-5.6-22.8-23.9-18-40.9c2.3-8.3,8-15.3,15.6-19.3
		c6.3-3.1,13.7-3.5,20.3-0.9l0,0c14.8,5.8,22.7,24.1,17.7,40.9c-2.5,8.8-8.1,16-15.5,19.6C228.6,263.7,224.9,264.6,221.2,264.6z
		 M220.5,202.4c-3.5,0-6.9,0.8-10.1,2.4c-7,3.7-12.2,10.1-14.3,17.8c-4.4,15.7,3.1,32.7,16.6,37.9c5.8,2.4,12.4,2.2,18.1-0.6
		c6.7-3.3,11.9-9.9,14.2-18c4.6-15.3-2.8-32.7-16.2-37.9C226.2,202.9,223.4,202.4,220.5,202.4z"/>
	<path class="st2" d="M213.4,231.4c6.3,2.4,9.4,9.5,7,15.7c-2.3,6-8.8,9.2-14.9,7.3c-6.3-2.4-9.4-9.5-7-15.7
		C200.7,232.7,207.3,229.6,213.4,231.4z"/>
	<path class="st3" d="M204.6,229.7c2.3,0.8,3.5,3.3,2.7,5.5c0,0,0,0.1,0,0.1c-0.8,2.2-3.3,3.4-5.6,2.5c-2.2-0.8-3.4-3.3-2.5-5.6
		C200,230.1,202.4,229,204.6,229.7z"/>
	<path class="st3" d="M286.3,201.2c-13.7,6.1-20.3,24.4-14.9,40.3c5.8,15.9,21.8,23.5,35.5,17.4c13.7-6.5,20.4-24.9,14.5-40.8
		C316,202.3,300.1,194.7,286.3,201.2z"/>
	<path class="st23" d="M297.1,262.3c-3.5,0-6.9-0.7-10.1-2.1c-7.9-3.5-13.9-10.1-16.7-18.3c-5.7-16.7,1.2-35.5,15.5-41.9
		c6.5-3.1,14-3.2,20.6-0.4c7.7,3.5,13.6,10,16.2,18.1c6,16.5-0.8,35.5-15.2,42.2C304.2,261.5,300.7,262.3,297.1,262.3z M296.6,200.2
		c-3.3,0-6.7,0.8-9.7,2.2l0,0c-12.9,5.8-19.5,23.5-14.2,38.8c2.6,7.5,8.1,13.5,15.3,16.8c5.9,2.5,12.6,2.5,18.5-0.1
		c13.3-6.2,19.5-23.8,13.9-39.2c-2.4-7.4-7.8-13.5-14.9-16.6C302.6,200.8,299.6,200.2,296.6,200.2L296.6,200.2z"/>
	<path class="st2" d="M280.3,229.9c-6.1,2.3-9.2,9-6.9,15.1c0.1,0.1,0.1,0.3,0.2,0.4c2.6,6.3,9.6,9.4,15.5,6.7
		c6.2-2.6,9.2-9.6,6.8-15.9C293.2,230.4,286.3,227.3,280.3,229.9z"/>
	<path class="st2" d="M315.9,193.5c0,0-8.6-12.1-20.8-12.3C283,180.6,272,190,272,190c-0.9,1.4-1.1,3.3,1.1,3.6
		c3.1,0,11.9-10.9,22.1-9.7C305.8,185.1,315.9,193.5,315.9,193.5z"/>
	<path class="st3" d="M277.9,229.7c2.3,0.8,3.5,3.3,2.7,5.5c0,0,0,0.1,0,0.1c-0.8,2.2-3.3,3.4-5.6,2.5c-2.2-0.8-3.4-3.3-2.5-5.6
		C273.3,230.1,275.7,229,277.9,229.7z"/>
	<ellipse class="st18" cx="258.6" cy="312.1" rx="36.3" ry="42.5"/>
	<path class="st25" d="M347.4,116.9c5,0,5-7.8,0-7.8S342.4,116.9,347.4,116.9z"/>
	<path class="st25" d="M351.5,100.1c0.9-12.3,1.2-30-10.9-37.3c-8.2-5-20.1-3.6-29.1-2.1c-5,0.9-2.8,8.3,2.1,7.5
		c6.6-1.2,15.8-2.2,22.1,0.7c10.3,4.9,8.8,21.9,8.1,31.2C343.4,105,351.2,105,351.5,100.1L351.5,100.1z"/>
	<path class="st25" d="M164.3,153.9c-9,14-14.8,29.9-16.9,46.5c-0.6,5,7.1,4.9,7.8,0c2-15.2,7.4-29.7,15.8-42.6
		C173.8,153.6,167,149.7,164.3,153.9z"/>
	<path class="st25" d="M174.7,150.7c5,0,5-7.8,0-7.8C169.7,142.9,169.7,150.7,174.7,150.7z"/>
	<path class="st25" d="M175.5,370.2c3.8,6.3,9,11.7,15.3,15.6c4.2,2.7,8.1-4,3.9-6.7c-5.1-3.2-9.4-7.6-12.5-12.8
		C179.6,362,172.9,365.9,175.5,370.2L175.5,370.2z"/>
	<path class="st25" d="M350.7,319.5c5,0,5-7.8,0-7.8S345.8,319.5,350.7,319.5z"/>
	<path class="st25" d="M345.2,326.2c-2.5,12-9.4,22.6-19.4,29.8c-4,2.9-0.1,9.6,3.9,6.7c11.7-8.2,19.9-20.5,22.9-34.5
		C353.8,323.4,346.3,321.3,345.2,326.2L345.2,326.2z"/>
</g>
<g id="seacht" class="st0">
	<path class="st1" d="M293.2,436.7c0,7.3-47.1,13.3-105.1,13.3S83,444.1,83,436.7s47.1-13.3,105.1-13.3S293.2,429.4,293.2,436.7z"/>
	<path class="st26" d="M232.4,204.1c-23.4-4.9-69.5-1.2-71.7,30.2c-0.3,4.7-7.6,4.7-7.3,0c2.5-37.1,52.2-43.2,80.9-37.2
		C238.9,198.1,237,205.2,232.4,204.1L232.4,204.1z"/>
	<path class="st26" d="M156.6,238.5c-3.7-0.2-7.4-0.1-11,0.3c-4,0.7-4.8,3-4.4,6.8c0.4,4.7-6.9,4.6-7.3,0c-0.5-5.7,1.6-10.8,7.1-13
		c4.9-2,10.5-1.4,15.7-1.3C161.3,231.3,161.3,238.6,156.6,238.5L156.6,238.5z"/>
	<path class="st26" d="M158.4,231.7c7.5,4.3,17.2,8.5,16.5,18.7c-0.3,4.6-7.6,4.7-7.3,0c0.5-7-7.9-9.6-12.9-12.5
		C150.8,235.6,154.4,229.3,158.4,231.7L158.4,231.7z"/>
	<path class="st26" d="M159.3,240.1c-1.8,3.3-2.6,7.1-2.4,10.9c0.4,4.7-6.9,4.6-7.3,0c-0.4-5.1,1.2-10,3.4-14.5
		C155,232.2,161.3,235.9,159.3,240.1z"/>
	<path class="st26" d="M357.4,85.9c-4.1-13.1-18.2-19.6-42.3-19.6H129.5c-12.7,0-22.7,2.1-29.9,6.2c-4.5,2.4-7.7,6.9-9.8,13.4
		c-2.6,8.3-3.9,17-3.9,25.8v4.6c0,22.2,17.9,40.2,40.1,40.4l123.6,0.9c0,4.5-1.3,12.3-8.8,23.5c-7.6,11.2-15.4,24.6-26.1,40.2
		s-22.6,32.8-33.2,51.4c-10.6,18.6-22.3,39.6-29.8,63.2c-7.3,22.2-11.2,45.4-11.3,68.8c-0.1,5.8,0.1,11.5,0.8,17.3
		c0.8,4.2,2.4,8.1,4.9,11.6c2.7,4.1,7.3,6.9,13.7,8.3c6.4,1.4,15,2.1,26,2c11,0,19.7-0.7,26-2c6.4-1.4,10.9-4,13.7-8
		c2.5-3.4,4.2-7.2,5.2-11.3c0.8-5.5,1.2-11.1,1-16.8c0-29.9,15.1-69.4,45.4-118.6c12.7-20.3,25.3-40.4,37.9-60.3
		c12.2-19.4,23-39.6,32.2-60.6c8.9-20.4,13.4-37.5,13.4-51.3S359.5,91.4,357.4,85.9z"/>
	<path class="st2" d="M364.7,63.9c0,0-8.7-13.1-21.4-13.9c-12.7-0.8-24.6,8.7-24.6,8.7c-0.8,1.6-1.2,3.2,1.2,3.6
		c3.2,0,12.7-10.7,23.4-9.1C354,54.8,364.7,63.9,364.7,63.9z"/>
	<path class="st3" d="M330.2,71.8c-14.3,5.9-21.8,25-16.6,41.6c5.6,17,21.8,25.4,36.5,19c14.7-5.9,21.8-25,16.6-41.6
		C361,74.2,344.8,65.5,330.2,71.8z"/>
	<path class="st27" d="M339.9,135.9c-3.7,0-7.4-0.8-10.8-2.4c-8.1-3.9-14.2-11.1-16.8-19.7c-5.4-17.3,2.7-37.1,17.4-43.3
		c6.8-2.9,14.5-2.9,21.2,0.2c8.2,3.9,14.4,11,17.1,19.6c5.5,17.8-2.3,37.2-17.4,43.3C347.1,135.2,343.5,135.9,339.9,135.9z
		 M340,71.1c-3.2,0-6.4,0.7-9.4,2l0,0c-13.6,5.7-20.8,24-15.9,40c2.4,7.9,8,14.5,15.5,18.1c6.1,2.8,13.1,2.8,19.3,0.1
		c13.9-5.6,21-23.5,15.9-40c-2.5-7.9-8.1-14.5-15.6-18.1C346.7,71.8,343.4,71.1,340,71.1L340,71.1z"/>
	<path class="st2" d="M329.6,89.9c-7.3,2.7-10.9,10.8-8.2,18.1c0,0,0,0.1,0,0.1c2.5,7.2,10.3,11.1,17.5,8.6c0.1,0,0.2-0.1,0.3-0.1
		c7.4-2.7,11.2-10.8,8.5-18.2C345.2,91,337,87.2,329.6,89.9L329.6,89.9z"/>
	<path class="st3" d="M325.5,89.4c-3.1,1.2-4.7,4.6-3.5,7.7c0,0,0,0,0,0.1c1.1,3.1,4.4,4.8,7.5,3.7c0,0,0.1,0,0.1,0
		c3.2-1.1,4.8-4.6,3.7-7.8C332.1,89.9,328.6,88.3,325.5,89.4z"/>
	<path class="st3" d="M286.2,71.8c14.7,5.9,21.8,25,16.6,41.6c-5.5,17-21.8,25.4-36.4,19c-14.3-5.9-21.8-25-16.6-41.6
		C255.2,74.2,271.5,65.5,286.2,71.8z"/>
	<path class="st27" d="M276.4,135.9c-3.6,0-7.3-0.8-10.6-2.2c-14.7-6.2-22.8-26-17.4-43.2c2.7-8.7,8.9-15.8,17.1-19.7
		c6.7-3.1,14.4-3.1,21.2-0.2c15.1,6.1,22.9,25.5,17.4,43.2c-2.6,8.6-8.7,15.8-16.8,19.7C283.9,135.1,280.2,135.9,276.4,135.9z
		 M276.3,71.1c-3.3,0-6.6,0.7-9.7,2.1c-7.5,3.6-13.2,10.1-15.6,18.1c-5,16,2.3,34.3,15.9,39.9c6.2,2.7,13.2,2.7,19.3-0.1
		c7.4-3.6,13-10.2,15.4-18.1c5.1-16.4-2-34.3-15.9-40l0,0C282.7,71.8,279.5,71.1,276.3,71.1L276.3,71.1z"/>
	<path class="st2" d="M285.4,91.4c7.4,2.7,11.2,10.8,8.5,18.2c-2.7,7.3-10.8,10.9-18.1,8.2c0,0-0.1,0-0.1,0
		c-7.4-2.3-10.8-10.5-8.1-17.8C270.3,92.6,278.5,88.7,285.4,91.4z"/>
	<path class="st2" d="M254.9,65.1c0,0,8.7-13.1,21.4-13.9C289,50,300.9,60,300.9,60c0.8,1.2,1.2,3.2-1.2,3.6
		c-3.2,0-12.7-10.7-23.4-9.1S254.9,65.1,254.9,65.1z"/>
	<path class="st3" d="M269.2,89.4c-3.1,1.2-4.7,4.6-3.5,7.7c0,0,0,0,0,0.1c1.1,3.1,4.4,4.8,7.5,3.7c0,0,0.1,0,0.1,0
		c3.2-1.1,4.8-4.6,3.7-7.8C275.9,89.9,272.4,88.3,269.2,89.4z"/>
	<path class="st12" d="M322.9,144.3l-0.8,0.4l-0.1,0.1c-0.6,0.3-1.3,0.6-2,0.9c-1.6,0.7-3.3,1.3-5,1.7l0,0c-0.6,0.1-1.2,0.3-1.7,0.4
		l-0.4,0.1c-0.6,0.1-1.2,0.2-1.8,0.3c-1.7,0.3-3.5,0.4-5.2,0.5l0,0H304h-1.4l0,0c-0.3,1-0.8,1.9-1.5,2.7c0.6-0.8,1.1-1.7,1.5-2.7
		l0,0c-1.8-0.1-3.6-0.2-5.4-0.5l-2-0.3l0,0l-1.9-0.4l0,0c-0.6,0.7-1.4,1.2-2.2,1.7c0.8-0.4,1.6-1,2.2-1.7l0,0
		c-1.6-0.4-3.1-0.9-4.6-1.5c-0.6-0.2-1.2-0.5-1.8-0.8l0,0c-0.6-0.3-1.1-0.5-1.6-0.8c0,0.5,0.1,0.9,0.2,1.3c0,0,0,0.1,0,0.1
		c0.1,0.4,0.2,0.9,0.3,1.3v0.1c0.1,0.4,0.3,0.8,0.5,1.2c0,0,0,0.1,0.1,0.1c0.2,0.4,0.4,0.8,0.6,1.2l0.1,0.1c0.2,0.4,0.5,0.8,0.7,1.1
		l0.1,0.1c0.3,0.4,0.5,0.7,0.8,1.1l0.1,0.1c0.3,0.4,0.6,0.7,1,1l0,0c0.3,0.3,0.7,0.7,1.1,1l0,0c1.4,1.1,2.9,2,4.5,2.8l0,0
		c2,0.9,4,1.4,6.2,1.7l0,0c1,0.1,2,0.2,3.1,0.2c1,0,2-0.1,3-0.2l0,0h0.2c0.5,0,1-0.1,1.5-0.2c1.7-0.3,3.3-0.9,4.8-1.6l0,0
		c1.6-0.7,3.1-1.7,4.4-2.8l0,0c0.2-0.2,0.4-0.3,0.6-0.5l0,0l0.5-0.5l0,0c0.2-0.2,0.3-0.3,0.5-0.5l0.1-0.1c0.1-0.2,0.3-0.3,0.4-0.5
		l0.1-0.1l0.4-0.5l0.1-0.1l0.3-0.5l0.1-0.2l0.3-0.5c0-0.1,0.1-0.1,0.1-0.2c0.1-0.1,0.2-0.3,0.3-0.4l0.1-0.2c0.1-0.1,0.1-0.3,0.2-0.4
		l0.1-0.3c0.1-0.1,0.1-0.3,0.2-0.4l0.1-0.3c0-0.1,0.1-0.3,0.1-0.4c0-0.1,0-0.2,0.1-0.3l0.1-0.4c0-0.1,0.1-0.2,0.1-0.4
		c0-0.1,0.1-0.2,0.1-0.4l0.1-0.4c0-0.1,0-0.2,0-0.3s0-0.3,0.1-0.5v-0.3c0-0.3,0-0.5,0-0.8L322.9,144.3z"/>
	<path class="st28" d="M189.2,76.3c-18,0-36,0.2-54,0.2c-10.7,0-21-1.6-28.1,7.9c-5.9,7.8-7.7,18.6-7.8,28.2
		c-0.1,8.3,0.8,18.5,6.7,24.9c3.6,4,9.5-1.9,5.9-5.9c-4.4-4.8-4.4-14.2-4.2-20.3c0.2-7.7,1.6-17.7,7.3-23.4c3.1-3.1,6.5-3.1,10.6-3
		c5.7,0,11.4,0,17.1,0c15.5,0,31-0.2,46.5-0.2C194.6,84.7,194.6,76.3,189.2,76.3L189.2,76.3z"/>
	<path class="st28" d="M123.1,144.2c5.4,0,5.4-8.4,0-8.4C117.7,135.8,117.7,144.2,123.1,144.2z"/>
	<path class="st28" d="M216,385.2c5.4,0,5.4-8.4,0-8.4S210.6,385.2,216,385.2z"/>
	<path class="st28" d="M160.4,430.1c14.2,1.4,32.1,4.5,45.6-1.7c12.9-5.9,14.3-20.3,14.1-32.8c-0.1-5.4-8.4-5.4-8.4,0
		c0.2,12.9-1.3,24.8-16.2,27.1c-11.6,1.8-23.6,0.3-35.2-0.9C155,421.2,155,429.6,160.4,430.1L160.4,430.1z"/>
	<path class="st28" d="M230.9,214.4l-34.8,57.2c-2.8,4.6,4.4,8.8,7.2,4.2l34.8-57.2C240.9,214,233.7,209.7,230.9,214.4L230.9,214.4z
		"/>
	<path class="st28" d="M193.3,290.7c5.4,0,5.4-8.4,0-8.4S188,290.7,193.3,290.7z"/>
	<path class="st26" d="M310,206.9c19.2,14.3,62.5,30.5,77.7,2.8c2.2-4.1,8.9-1,6.6,3.1c-17.9,32.6-65.6,17.1-89-0.4
		C301.5,209.6,306.2,204.1,310,206.9L310,206.9z"/>
	<path class="st26" d="M393.2,207.8c3.2,1.8,6.6,3.2,10.1,4.4c3.9,1,5.6-0.7,6.9-4.3c1.6-4.4,8.2-1.3,6.6,3.1
		c-1.9,5.4-5.9,9.1-11.9,8.8c-5.3-0.3-10.1-3.1-14.7-5.4C385.9,212.4,389,205.8,393.2,207.8L393.2,207.8z"/>
	<path class="st26" d="M388.7,213.2c-5-7.1-12.1-14.9-7-24c2.3-4,8.9-1,6.6,3.1c-3.4,6.1,3.1,12.1,6.4,16.8
		C397.3,212.9,391.4,217.1,388.7,213.2z"/>
	<path class="st26" d="M391.5,205.2c3-2.3,5.4-5.3,6.8-8.8c1.6-4.4,8.2-1.3,6.6,3.1c-1.8,4.8-5.4,8.5-9.3,11.7
		C392,214.1,387.8,208.2,391.5,205.2L391.5,205.2z"/>
</g>
<g id="ocht">
	<path class="st29" d="M377,442.2c0,4.3-56.9,7.8-127,7.8s-127-3.5-127-7.8s56.9-7.8,127-7.8S377,437.9,377,442.2z"/>
	<path class="st30" d="M176.3,211c-3.6,41-62.7,31.4-89.7,16.3c-3.3-1.8-0.4-6.9,2.9-5c22.6,12.7,75.2,17.5,78.4-18.5
		c0.3-3.7,6.1-3.8,5.8,0L176.3,211z"/>
	<path class="st30" d="M90.7,196.5c5.2,3,8.5,8.4,8.8,14.3c0.3,7.3-6,12.2-11.7,15.1c-3.3,1.7-6.2-3.3-2.9-5c4.2-2.1,8.5-4.8,8.8-10
		c0.3-4-2.7-7.4-5.9-9.4C84.6,199.5,87.5,194.5,90.7,196.5L90.7,196.5z"/>
	<path class="st30" d="M78.2,197.2c-5.3-1.6-11.4,6.5-10.5,11.4c0.7,3.8,4.2,6.5,7.3,8.4c3.7,2.2,7.3,2.2,11.3,3.1
		c3.6,0.9,2.2,6.5-1.5,5.6c-2.9-0.7-5.7-0.7-8.5-1.7c-2.7-1-5.2-2.4-7.4-4.1c-4-3.1-7.3-7.7-7-12.9c0.4-8.1,9.1-18,17.8-15.3
		C83.2,192.8,81.7,198.4,78.2,197.2L78.2,197.2z"/>
	<path class="st30" d="M85,225.8c-6.5-1-13-2.4-19.7-3c-6.8-0.7-13.5,0.6-20.3,0.7c-3.8,0-3.8-5.7,0-5.8c6.8-0.1,13.5-1.2,20.3-0.7
		c7.1,0.5,14.1,2.1,21.1,3.2C90.2,220.7,88.6,226.3,85,225.8L85,225.8z"/>
	<path class="st30" d="M87,226.5c-8,4.2-17.4,6.6-23.5,13.8c-2.4,2.8-6.5-1.3-4.1-4.1c6.4-7.6,16.2-10.2,24.7-14.7
		C87.5,219.7,90.4,224.7,87,226.5L87,226.5z"/>
	<path class="st30" d="M88.8,225.6c-1.9,3.3-3.9,6.6-5.9,9.9c-1.6,2.6-4,5.8-3.6,9c0.5,3.7-5.3,3.7-5.8,0c-0.4-3.4,1.2-6.3,2.7-9.1
		c2.4-4.3,5.1-8.5,7.6-12.8C85.7,219.5,90.7,222.4,88.8,225.6L88.8,225.6z"/>
	<path class="st30" d="M323.7,211c3.6,41,62.7,31.4,89.7,16.3c3.3-1.8,0.4-6.9-2.9-5c-22.6,12.7-75.2,17.5-78.4-18.5
		c-0.3-3.7-6.1-3.8-5.8,0L323.7,211z"/>
	<path class="st30" d="M409.3,196.5c-5.2,3-8.5,8.4-8.8,14.3c-0.3,7.3,6,12.2,11.7,15.1c3.3,1.7,6.2-3.3,2.9-5
		c-4.2-2.1-8.5-4.8-8.8-10c-0.3-4,2.7-7.4,5.9-9.4C415.3,199.5,412.5,194.5,409.3,196.5L409.3,196.5z"/>
	<path class="st30" d="M421.9,197.2c5.3-1.6,11.4,6.5,10.5,11.4c-0.7,3.8-4.2,6.5-7.3,8.4c-3.7,2.2-7.3,2.2-11.3,3.1
		c-3.6,0.9-2.2,6.5,1.5,5.6c2.9-0.7,5.7-0.7,8.6-1.7c2.7-1,5.2-2.4,7.4-4.2c4-3.1,7.3-7.7,7-12.9c-0.4-8.1-9.1-18-17.8-15.3
		C416.8,192.7,418.3,198.3,421.9,197.2L421.9,197.2z"/>
	<path class="st30" d="M415,225.8c6.5-1,13-2.4,19.6-3c6.8-0.7,13.5,0.6,20.3,0.7c3.7,0,3.8-5.7,0-5.8c-6.8-0.1-13.5-1.2-20.3-0.7
		c-7.1,0.5-14.1,2.1-21.1,3.2C409.9,220.7,411.4,226.3,415,225.8L415,225.8z"/>
	<path class="st30" d="M412.9,226.5c8,4.2,17.4,6.6,23.5,13.8c2.4,2.8,6.5-1.3,4.1-4.1c-6.4-7.6-16.2-10.2-24.7-14.7
		C412.5,219.7,409.6,224.7,412.9,226.5L412.9,226.5z"/>
	<path class="st30" d="M411.2,225.6c1.9,3.3,3.9,6.6,5.9,9.9c1.6,2.6,4,5.8,3.6,9c-0.5,3.7,5.3,3.7,5.8,0c0.4-3.4-1.2-6.3-2.7-9.1
		c-2.4-4.3-5.1-8.5-7.6-12.8C414.3,219.5,409.3,222.4,411.2,225.6L411.2,225.6z"/>
	<path class="st31" d="M367.8,258.1c-7.3-13.2-13.1-22-17.4-26.4c-3.4-3.5-7.1-6.8-10.9-9.9l7.3-7.7c4.8-5.2,9.6-12.7,14.3-22.7
		c4.5-9.2,6.9-19.3,7-29.5c0-32.6-11.6-59.3-34.8-80.3C310.1,60.5,282.7,50,251,50c-31.6,0-59.4,10.3-83.2,31S132,127.8,132,159.4
		c0,11.7,2.7,23.2,8,33.6c5.3,10.8,9.6,17.8,12.8,21c3.2,3.2,6,5.8,8.2,7.7l-10.2,9.2c-6.5,5.8-13,15.1-19.5,27.8
		c-6.5,12.1-9.9,25.7-9.9,39.4c0,36.5,13.1,65.7,39.4,87.6c26.3,21.9,56.1,32.9,89.3,32.9c33.2,0,63-11,89.3-33.1
		c26.3-22.1,39.4-51.2,39.4-87.3C378.8,284.7,375.1,271.3,367.8,258.1z M281.4,328.9c-6.9,8.8-17.2,13.3-30.9,13.3
		c-13.8,0-24.2-4.4-31.4-13.3c-7.2-8.8-10.8-18.4-10.8-28.7c0-10.3,3.6-19.8,10.8-28.5c7.2-8.7,17.6-13,31.2-13
		c13.6,0,23.9,4.4,30.9,13.3c7,8.8,10.5,18.3,10.5,28.5C291.7,310.6,288.3,320.1,281.4,328.9z M282.1,159.3
		c0,17-14.3,30.8-32.1,30.8s-32.1-13.8-32.1-30.8H282.1z"/>
	<path class="st32" d="M210.2,83.6c17-12,40.4-12.3,59.8-6.7c5.1,1.4,7.2-6.4,2.2-7.8c-21.3-6.1-47.4-5.7-66.1,7.6
		C201.8,79.6,205.9,86.7,210.2,83.6L210.2,83.6z"/>
	<path class="st32" d="M290.6,84.3c5.2,0,5.2-8.1,0-8.1C285.4,76.1,285.4,84.3,290.6,84.3z"/>
	<path class="st32" d="M348.8,276.2c2.3,25.4,1.6,54.1-16.8,73.8c-3.6,3.8,2.2,9.6,5.8,5.8c19.9-21.4,21.7-51.9,19.2-79.6
		C356.5,271,348.4,271,348.8,276.2L348.8,276.2z"/>
	<path class="st32" d="M322.1,368c5.2,0,5.2-8.1,0-8.1S316.9,368,322.1,368z"/>
	<path class="st32" d="M144.4,330.7c3.1,15.8,11.5,32.5,26.1,40.4c4.6,2.5,8.7-4.5,4.1-7c-12.7-7-19.6-21.8-22.3-35.5
		C151.2,323.4,143.4,325.6,144.4,330.7L144.4,330.7z"/>
	<path class="st33" d="M216.7,105.4c10.8,4.7,16.4,18.6,12.5,31.4c-3.9,12.5-16.2,19.1-27.3,14.3c-10.9-4.4-16.4-18.6-12.5-31.1
		C193.4,107.2,205.6,100.9,216.7,105.4z"/>
	<path class="st30" d="M209.4,154c-2.7,0-5.5-0.6-8-1.7c-11.5-4.6-17.4-19.3-13.3-32.7c1.8-6.5,6.3-12,12.4-15
		c5.2-2.5,11.3-2.7,16.7-0.5l0,0c11.5,5,17.3,19.5,13.2,33c-1.9,6.5-6.5,12-12.6,15C215.2,153.4,212.3,154,209.4,154z M209.4,105.3
		c-2.7,0-5.3,0.6-7.7,1.8c-5.4,2.7-9.4,7.6-11,13.4c-3.7,11.9,1.7,25.4,11.7,29.5c4.6,2,9.8,1.9,14.3-0.2c5.5-2.7,9.5-7.5,11.2-13.4
		c3.8-12.2-1.3-25.3-11.7-29.8C214,105.7,211.7,105.3,209.4,105.3L209.4,105.3z"/>
	<path class="st34" d="M212.5,123.9c4.9,1.7,7.5,7.1,5.7,12c0,0,0,0.1,0,0.1c-1.6,4.8-6.8,7.5-11.7,5.8c-0.1,0-0.3-0.1-0.4-0.1
		c-4.9-1.7-7.5-7.1-5.7-12c0,0,0,0,0-0.1c1.6-4.8,6.8-7.5,11.7-5.8C212.3,123.8,212.4,123.8,212.5,123.9z"/>
	<path class="st33" d="M204.3,135.5c2,0.7,3,2.8,2.3,4.8c0,0,0,0,0,0c-0.6,1.9-2.7,3-4.7,2.4c-0.1,0-0.1,0-0.2-0.1
		c-2-0.7-3-2.9-2.3-4.8c0,0,0,0,0,0c0.6-1.9,2.7-3,4.7-2.3C204.2,135.5,204.2,135.5,204.3,135.5z"/>
	<rect x="185" y="102.2" class="st31" width="49.4" height="27.6"/>
	<path class="st33" d="M297.3,105.4c10.8,4.7,16.4,18.6,12.5,31.4c-3.9,12.5-16.2,19.1-27.3,14.3c-10.9-4.4-16.4-18.6-12.5-31.1
		C273.9,107.2,286.1,100.9,297.3,105.4z"/>
	<path class="st30" d="M289.9,154c-2.8,0-5.5-0.6-8-1.7c-11.4-4.6-17.4-19.3-13.3-32.7c1.9-6.5,6.4-12,12.5-15
		c5.2-2.5,11.3-2.7,16.7-0.5l0,0c11.6,5,17.3,19.5,13.2,33c-1.9,6.5-6.5,12-12.6,15C295.8,153.4,292.9,154,289.9,154z M289.9,105.3
		c-2.7,0-5.3,0.6-7.7,1.8c-5.4,2.7-9.4,7.6-11,13.4c-3.7,11.9,1.7,25.4,11.7,29.5c4.6,2,9.8,1.9,14.3-0.2c5.5-2.7,9.5-7.5,11.2-13.4
		c3.8-12.2-1.4-25.3-11.7-29.8C294.6,105.7,292.3,105.3,289.9,105.3L289.9,105.3z"/>
	<path class="st34" d="M293.1,123.9c4.9,1.7,7.5,7.1,5.7,12c0,0,0,0,0,0.1c-1.6,4.8-6.8,7.5-11.7,5.8c-0.1,0-0.3-0.1-0.4-0.1
		c-4.9-1.7-7.5-7.1-5.7-12c0,0,0-0.1,0-0.1c1.6-4.8,6.8-7.5,11.7-5.8C292.8,123.8,292.9,123.8,293.1,123.9z"/>
	<path class="st33" d="M284.9,135.5c2,0.7,3,2.9,2.3,4.8c0,0,0,0,0,0c-0.6,1.9-2.7,3-4.7,2.3c-0.1,0-0.1,0-0.2-0.1
		c-2-0.7-3-2.8-2.3-4.8c0,0,0,0,0,0c0.6-1.9,2.7-3,4.7-2.4C284.8,135.5,284.8,135.5,284.9,135.5z"/>
	<rect x="265.6" y="102.2" class="st31" width="49.4" height="27.6"/>
	<path class="st34" d="M189.3,111.4c0,0,7.2-8.1,17.5-8.8c10.6-0.6,20.1,5.6,20.1,5.6c0.7,0.9,1.4,2-0.7,2.2
		c-2.7,0-10.3-6.7-19.3-5.7C198.2,105.6,189.3,111.4,189.3,111.4z"/>
	<path class="st34" d="M310.7,111.4c0,0-7.2-8.1-17.5-8.8c-10.6-0.6-20.1,5.6-20.1,5.6c-0.7,0.9-1.4,2,0.7,2.2
		c2.7,0,10.3-6.7,19.4-5.7C301.8,105.6,310.7,111.4,310.7,111.4z"/>
</g>
<g id="naoi" class="st0">
	<path class="st1" d="M371.9,442.5c0,4.1-54.6,7.5-121.9,7.5s-121.9-3.4-121.9-7.5S182.7,435,250,435S371.9,438.4,371.9,442.5z"/>
	<path class="st35" d="M341.9,157.7c21.9,7.4,35.1-18.2,37.9-36c3.7-23.1-16.7-49.6-38.6-55.2c-5.7-1.5-9.1,7.2-3.2,8.7
		c17.7,4.5,30.5,22.2,32.8,39.8c1.6,12.5-9.9,39.3-25.7,33.9C339.5,147.1,336.2,155.8,341.9,157.7L341.9,157.7z"/>
	<path class="st35" d="M342.6,70c1.2-6.4,0.8-12.8-3-18.3c-1.6-2-4.6-2.3-6.5-0.7c-1.9,1.7-2.2,4.6-0.6,6.5c2.3,3.3,1.7,7.8,1,11.5
		c-0.5,2.5,1.8,4.9,4.2,5.1C340.1,74.4,342.3,72.6,342.6,70L342.6,70z"/>
	<path class="st35" d="M333.3,69.4c-3.6,3.3-11.4,6.1-16.1,3.7c-5.4-2.6-8.6,6.1-3.2,8.7c7.4,3.6,19.4,0,25.2-5.3
		C343.7,72.6,337.8,65.4,333.3,69.4L333.3,69.4z"/>
	<path class="st35" d="M338.5,68.8c-3.3-3.9-7.6-6.9-12.5-8.6c-5.6-2.2-8.8,6.5-3.2,8.7c3.3,1.1,6.3,3.2,8.6,5.8
		C335.1,79.4,342.3,73.5,338.5,68.8L338.5,68.8z"/>
	<path class="st35" d="M226.4,249.9c11.8,19.8-10.4,38.1-27.2,44.7c-21.7,8.5-52-5.9-62.1-26.1c-2.7-5.3,5.2-10.4,7.8-5
		c8.2,16.3,28.1,25.2,45.8,23.7c12.6-1.1,36.2-18,27.7-32.3C215.5,249.7,223.3,244.7,226.4,249.9L226.4,249.9z"/>
	<path class="st35" d="M140.8,269.1c-6,2.5-12.4,3.5-18.6,0.9c-2.3-1.2-3.2-4-2-6.2c1.2-2.2,4-3.1,6.2-2c3.7,1.6,7.9,0,11.5-1.5
		c2.3-1,5.1,0.7,5.9,3C144.5,265.7,143.2,268.3,140.8,269.1L140.8,269.1z"/>
	<path class="st35" d="M138.3,260.2c2.4-4.2,3.5-12.5,0.3-16.5c-3.7-4.7,4.2-9.7,7.8-5c5.1,6.5,4,18.9,0.1,25.7
		C143.6,269.6,135.3,265.4,138.3,260.2z"/>
	<path class="st35" d="M138.8,265.4c-4.6-2.4-8.4-6-11.1-10.4c-3.3-5,4.5-10,7.9-5c1.8,3,4.4,5.5,7.5,7.1
		C148.4,259.8,144.1,268.1,138.8,265.4L138.8,265.4z"/>
	<path class="st36" d="M227.9,204.8c0,0,9.9-1.5,9.1-10.6c0,0,11.1,2.2,10.1-11.1c0,0,12.8,4.6,10-9c0,0,12.8,5.8,9.4-8.5
		c0,0,7,4.6,8.1-3.5c1.2-8.1-8.6-15.4-12.9-17.5c-4.2-2.1-20.3-4.6-21.2-4.2c-0.9,0.4-7.7,8.1-8.9,8.1s-8.3,11.4-8.5,12.5
		c-0.3,1.1-6.8,15.2-6.2,15.9C217.4,177.5,217.5,199.2,227.9,204.8z"/>
	<path class="st12" d="M342.3,121.2c-20-25.3-49.9-38-89.6-38c-31.2,0-57.8,10.3-79.6,30.9c-21.8,20.6-32.7,46.2-32.7,76.9
		c0,24.9,10.7,47.2,32.1,67.1c21.4,19.9,46.9,29.8,76.6,29.8c11.8-0.1,23.4-2.8,34.1-7.7l-2.3,6.4c-3.6,10-12,21.2-25,33.6
		c-6.4,6.1-15.4,11.2-27.1,15.5c-11.6,4.2-23.8,6.4-36.2,6.4c-12.4,0-21.2,0.9-26.4,2.7c-11.5,3.6-17.3,16.1-17.3,37.3
		c0,18.8,4.2,30.8,12.7,35.9c4.8,3,13,4.5,24.6,4.5h2.7c56.7,0,101.4-19.4,134.2-58.2c32.8-38.8,49.2-87.2,49.1-145.1
		C372.3,179.2,362.3,146.5,342.3,121.2z M288.5,186.4c0,18.1-14.7,32.9-32.8,32.9c-18.1,0-32.9-14.7-32.9-32.8
		c0-18.1,14.7-32.9,32.8-32.9c0,0,0,0,0,0C273.8,153.6,288.5,168.2,288.5,186.4C288.6,186.4,288.6,186.4,288.5,186.4L288.5,186.4z"
		/>
	<path class="st2" d="M224.5,72.8c0,0-13.3-3.6-22.5,3.2c-9.2,6.8-11.5,20-11.5,20c0.3,1.6,0.9,3.4,2.8,1.8
		c2.2-1.8,2.5-14.2,10.4-19.6C212.3,72.8,224.5,72.8,224.5,72.8z"/>
	<path class="st3" d="M208.6,95.7c-6.3,12.7-0.5,29.9,13.3,38.1c13.5,8.4,29.6,4.8,35.7-8.2c6.2-12.7,0.5-29.9-13-38.3
		C230.9,79.1,214.9,83.1,208.6,95.7z"/>
	<path class="st35" d="M237,139.6c-5.6-0.1-11.1-1.7-15.8-4.7c-14.2-8.5-20.4-26.3-13.7-39.7l0,0c3-6,8.3-10.5,14.8-12.4
		c7.8-2.1,16.1-0.9,23,3.4c14,8.7,20,26.7,13.5,40c-2.8,6-8.1,10.6-14.5,12.4C241.9,139.3,239.5,139.6,237,139.6z M229.7,84.2
		c-2.3,0-4.5,0.3-6.7,1c-5.8,1.7-10.6,5.7-13.3,11.1l0,0c-6.1,12.2-0.4,28.6,12.8,36.5c6.2,4.1,13.8,5.3,21,3.4
		c5.7-1.7,10.5-5.7,13-11.1c6-12.2,0.4-28.6-12.5-36.7C239.7,85.7,234.7,84.3,229.7,84.2z"/>
	<path class="st2" d="M224.5,109c-3.2,6.4-0.5,14.2,5.9,17.3c6,3,13.3,0.9,16.8-4.8c3.7-6.1,1.2-14.1-4.8-17.5
		C236.1,100.5,228.1,102.7,224.5,109C224.5,109,224.5,109,224.5,109z"/>
	<path class="st3" d="M173.5,126.6c13.4-4.2,29.5,4,35.6,18.7c6.4,14.5,0.5,30-13.2,34.5c-13.4,4.2-29.7-4.3-35.8-18.9
		C153.7,146.3,159.8,131.1,173.5,126.6z"/>
	<path class="st35" d="M188.6,182.1c-12.1,0-24.4-8.2-29.7-20.8c-3.4-7.2-3.5-15.5-0.4-22.8c2.8-6.3,8.1-11,14.6-13.1l0,0
		c14.1-4.5,30.8,4.2,37.1,19.4c3.4,7.3,3.6,15.7,0.4,23.2c-2.7,6.2-8,10.9-14.4,13C193.8,181.7,191.2,182.1,188.6,182.1z
		 M173.9,127.8c-5.9,1.8-10.6,6.1-13.1,11.7c-2.8,6.7-2.6,14.2,0.4,20.8c5.8,13.9,21.5,22.3,34.3,18.2c5.8-1.8,10.5-6.1,12.9-11.6
		c2.8-6.8,2.7-14.5-0.4-21.2C202.1,131.8,186.9,123.7,173.9,127.8L173.9,127.8z"/>
	<path class="st2" d="M182.9,144.2c6.8-2.5,14.3,1,16.8,7.8c2.4,6.6-0.9,14-7.5,16.6c-6.7,2.4-14.1-1.1-16.6-7.8
		C173,154.2,176.3,146.8,182.9,144.2C182.9,144.2,182.9,144.2,182.9,144.2z"/>
	<path class="st3" d="M219.9,110.2c-1.4,2.6-0.5,5.8,2.1,7.2c2.6,1.4,5.8,0.5,7.2-2.1c1.4-2.5,0.5-5.7-2-7.1
		C224.6,106.7,221.3,107.6,219.9,110.2C219.9,110.2,219.9,110.2,219.9,110.2z"/>
	<path class="st3" d="M173.7,150c3-1.3,6.5,0.1,7.8,3.2c1.3,3-0.1,6.5-3.2,7.8c-0.1,0.1-0.3,0.1-0.4,0.2c-3.1,1.1-6.4-0.5-7.6-3.6
		C169.2,154.5,170.7,151.1,173.7,150C173.7,150,173.7,150,173.7,150z"/>
	<path class="st2" d="M148.1,140.3c0,0-1.2-13.6,6.9-21.8s21.3-8.6,21.3-8.6c1.4,0.7,2.9,1.4,1.4,3c-2.3,2.3-14.5,0.6-21,7.9
		C150,127.9,148.1,140.3,148.1,140.3z"/>
	<path class="st37" d="M299.2,112.6c18.1,8.6,31.6,24.6,36.9,43.9c1.3,4.8,8.9,2.8,7.5-2.1c-5.9-21.3-20.6-39-40.5-48.6
		C298.6,103.7,294.7,110.5,299.2,112.6L299.2,112.6z"/>
	<path class="st37" d="M346,174.5c5,0,5-7.8,0-7.8C341,166.7,341,174.5,346,174.5z"/>
	<path class="st37" d="M288.2,295.2c-5.6,13.7-15.9,25.2-27.5,34.1c-4,3,0,9.8,4,6.7c13.4-10.2,24.7-23,31.1-38.7
		C297.6,292.6,290,290.6,288.2,295.2L288.2,295.2z"/>
	<path class="st37" d="M163,366.8c-0.3,7.1-0.7,14.1-0.9,21.2c-0.2,5.4-0.4,11,2.9,15.6c6.3,8.9,18,7.1,27.2,4.6
		c4.8-1.3,2.8-8.8-2.1-7.5c-8.7,2.4-20,3.9-20.3-8.4c-0.2-8.4,0.7-17,1.1-25.5C171.1,361.9,163.3,361.9,163,366.8L163,366.8z"/>
	<path class="st37" d="M205.1,407c5,0,5-7.8,0-7.8C200.1,399.2,200.1,407,205.1,407z"/>
</g>
<g id="náid" class="st0">
	<g id="Background" class="st38">
	</g>
	<g id="Numbers" class="st38">
		<path class="st29" d="M392.3,439.3c0,7.1-61.2,12.8-136.6,12.8s-136.6-5.7-136.6-12.8s61.2-12.8,136.6-12.8
			S392.3,432.2,392.3,439.3z"/>
		<path class="st39" d="M366.3,209.3c12.2,19.4,38.5,8.1,52-3.8c17.4-15.4,18.4-48.6,5.2-66.7c-3.5-4.8-11.5-0.1-8,4.7
			c10.8,14.6,9.5,36.3,0.1,51.2c-6.7,10.7-32.4,23.9-41.2,9.9C371.2,199.6,363.2,204.3,366.3,209.3L366.3,209.3z"/>
		<path class="st39" d="M422.2,142.4c5-4.2,8.7-9.3,9.2-16c0-2.6-2.1-4.6-4.6-4.6c-2.5,0-4.6,2.1-4.6,4.6c-0.3,4-3.6,7-6.5,9.5
			c-1.8,1.8-1.8,4.7,0,6.6C417.6,144.2,420.4,144.2,422.2,142.4L422.2,142.4z"/>
		<path class="st39" d="M415.5,136.1c-4.8,0.2-12.6-2.6-14.8-7.2c-2.5-5.4-10.5-0.7-8,4.7c3.4,7.5,15,12.2,22.8,11.8
			C421.4,145.1,421.5,135.9,415.5,136.1L415.5,136.1z"/>
		<path class="st39" d="M419.9,138.9c-0.1-5.1-1.5-10.2-4.2-14.5c-3-5.2-11-0.5-8,4.7c1.8,3,2.9,6.4,2.9,9.9
			C410.6,144.9,419.8,144.9,419.9,138.9z"/>
		<path class="st39" d="M88.9,136.6c-9.3,18.1-14.2,38-5.2,57.2c7.9,16.8,24.8,31.5,44.2,30.5c5.8-0.3,5.8-9.3,0-9.1
			c-15.9,0.9-27.7-10.8-35.2-23.7c-9.4-16.2-3.9-35,4-50.4C99.3,135.9,91.5,131.3,88.9,136.6L88.9,136.6z"/>
		<path class="st39" d="M84.4,120.5c-1.8,7.5-0.6,14.8,4.8,20.6c4,4.2,10.4-2.1,6.4-6.4c-3.1-3.3-3.5-7.5-2.4-11.8
			C94.4,117.3,85.7,114.9,84.4,120.5L84.4,120.5z"/>
		<path class="st39" d="M93.5,143.3c9.9,0.7,18.7-1.5,25-9.6c3.5-4.6-4.3-9.1-7.8-4.5c-4.2,5.4-11,5.7-17.2,5.2
			C87.7,133.9,87.7,142.8,93.5,143.3L93.5,143.3z"/>
		<path class="st39" d="M99.1,138c1.7-4.6,4.1-9.6,9-11.5c5.4-2,3-10.7-2.4-8.7c-8.2,3.1-12.4,9.9-15.3,17.8
			C88.5,141.1,97.2,143.4,99.1,138L99.1,138z"/>
		<path class="st39" d="M200.8,334.9l-9.6,97.1c-4.4-1.5-11.4-2.1-16.3-0.5c-0.9,0.4-1.4,1.4-1,2.3c0.2,0.5,0.6,0.9,1.2,1.1
			l20.8,5.6c1.6,0.4,3.3-0.3,4.1-1.8l12.6-96.8L200.8,334.9z"/>
		<path class="st39" d="M314.7,334.9l9.6,97.1c4.4-1.5,11.4-2.1,16.3-0.5c0.9,0.3,1.4,1.3,1.1,2.3c-0.2,0.6-0.7,1-1.2,1.1l-20.8,5.6
			c-1.6,0.4-3.3-0.3-4.1-1.8l-12.6-96.8L314.7,334.9z"/>
		<path class="st40" d="M155.9,103.8c9.5-12.1,22.8-22.2,40-30.4c17.2-8.2,37-12.3,59.6-12.3c22.6,0,42.3,4,59.1,12.1
			c16.8,8,30.1,18,39.8,30c10,12.6,17.9,26.8,23.3,42c9.9,27.4,14.9,56.3,14.7,85.4c0,53.9-12.8,96.7-38.3,128.3
			c-9.5,11.9-22.7,21.8-39.5,29.5c-16.8,7.7-36.4,11.6-58.6,11.7c-22.2,0-41.9-3.9-59.1-11.8c-17.2-7.9-30.6-17.6-40.2-29.3
			c-10.1-12.5-18.2-26.5-23.8-41.6c-9.5-25.6-14.2-54.7-14.2-87.1c0-29.8,3.8-55.3,11.5-76.4C137.9,132.6,146.4,116,155.9,103.8z
			 M255.1,301.8c26.8,0,40.1-23.2,40.1-69.6V230c0-47.6-13.2-71.3-39.7-71.3c-26.5,0-39.7,23.8-39.7,71.5
			C215.8,277.9,228.9,301.8,255.1,301.8L255.1,301.8z"/>
		<path class="st34" d="M188,66.2c0,0,9.1-13.1,21.7-14c12.7-0.9,24.5,9.1,24.5,9.1c0.9,1.3,1.8,3.2-0.9,3.2
			c-3.2,0.5-12.7-10.4-23.6-9.1C198.9,57.2,188,66.2,188,66.2z"/>
		<path class="st33" d="M224.2,81c14.5,6.3,22.2,25.4,16.8,42.6c-5.4,16.8-21.7,25.4-36.7,19c-14.5-5.9-22.2-24.9-16.8-42.1
			C193,83.7,209.3,75.1,224.2,81z"/>
		<path class="st39" d="M214.4,146.2c-3.7,0-7.3-0.8-10.7-2.2c-15.4-6.3-23.3-26-17.6-44c2.6-8.6,8.7-15.7,16.7-19.7
			c6.9-3.3,14.9-3.6,22-0.7l0,0c15.4,6.7,23.3,26.7,17.6,44.5c-2.6,8.6-8.7,15.8-16.8,19.7C222.1,145.4,218.2,146.2,214.4,146.2z
			 M214.6,80.7c-3.6,0-7.2,0.8-10.5,2.4c-7.3,3.6-12.7,10.1-15.1,17.9c-5.1,16.2,2.1,34.6,15.8,40.1c6.2,2.7,13.3,2.6,19.4-0.2
			c7.3-3.6,12.8-10,15.2-17.8c5.2-16.3-2-34.5-15.8-40.6C220.8,81.3,217.7,80.7,214.6,80.7L214.6,80.7z"/>
		<path class="st34" d="M228.9,108.5c7.5,2.7,11.3,11,8.6,18.5c0,0,0,0.1,0,0.1c-2.7,7.8-11.3,11.8-18.6,8.6
			c-7.3-2.3-11.3-10.2-9-17.5c0.1-0.4,0.2-0.7,0.4-1.1c2.6-7.4,10.7-11.3,18.1-8.8C228.6,108.4,228.8,108.4,228.9,108.5z"/>
		<path class="st33" d="M215.2,108c2.5,0.9,3.7,3.6,2.9,6.1c0,0,0,0,0,0c-0.8,2.4-3.4,3.7-5.8,2.9c-0.1,0-0.2-0.1-0.3-0.1
			c-2.4-0.8-3.7-3.3-3-5.7c0-0.1,0.1-0.2,0.1-0.4c0.9-2.4,3.5-3.7,6-2.9C215.1,108,215.2,108,215.2,108z"/>
		<path class="st34" d="M323.4,66.2c0,0-8.6-13.1-21.3-14c-13.1-0.9-24.9,9.1-24.9,9.1c-0.5,1.3-1.3,3.2,1.3,3.6
			c3.2,0,12.7-10.9,23.5-9.5C313,57.2,323.4,66.2,323.4,66.2z"/>
		<path class="st33" d="M288.5,81.4c-14.9,6.3-22.2,25.4-16.8,42.6c5.4,16.8,21.7,25.4,36.7,19c14.5-6.3,22.2-24.9,16.8-42.1
			C319.7,84.2,303.5,75.1,288.5,81.4z"/>
		<path class="st39" d="M298.3,146.7c-3.9,0-7.7-0.8-11.2-2.4c-8.1-3.9-14.2-11.1-16.8-19.7c-5.8-18.3,2-37.9,17.6-44.5
			c6.9-3,14.8-2.9,21.6,0.3c8.3,4,14.5,11.3,17.2,20.1c5.7,17.9-2.1,37.2-17.6,44C305.7,145.9,302,146.7,298.3,146.7z M298.3,81
			c-3.2,0-6.3,0.6-9.2,1.9c-13.9,5.9-21.1,24.1-15.9,40.6c2.4,7.8,7.9,14.3,15.2,17.8c6.1,2.8,13.2,2.9,19.4,0.2
			c13.8-6,20.9-24.1,15.9-40.1c-2.4-8-8-14.6-15.5-18.2C305.1,81.8,301.7,81,298.3,81z"/>
		<path class="st34" d="M283.8,108.6c-7.4,2.6-11.3,10.7-8.8,18.1c0,0.1,0.1,0.3,0.2,0.4c2.9,7.6,11.4,11.5,19,8.6c0,0,0,0,0,0
			c7.2-2.7,11.3-11.3,8.1-18.6c-2.4-7.3-10.2-11.3-17.5-9C284.5,108.4,284.1,108.5,283.8,108.6z"/>
		<path class="st33" d="M300.8,108c2.5,0.9,3.7,3.6,2.8,6.1c0,0,0,0,0,0c-0.8,2.4-3.4,3.7-5.8,2.9c-0.1,0-0.2-0.1-0.3-0.1
			c-2.4-0.8-3.7-3.3-3-5.7c0-0.1,0.1-0.2,0.1-0.4c0.8-2.4,3.5-3.7,6-2.9C300.7,108,300.8,108,300.8,108z"/>
		<path class="st41" d="M365.1,280.7c-4.5,32.3-24,60.7-52.6,76.3c-4.6,2.5-0.5,9.5,4.1,7c31.1-17.1,52.1-48.1,56.7-83.3
			C373.9,275.5,365.8,275.6,365.1,280.7z"/>
		<path class="st41" d="M297.6,370.7c5.2,0,5.2-8.1,0-8.1C292.4,362.6,292.4,370.7,297.6,370.7z"/>
		<path class="st41" d="M143.3,236.8c0-33.8,1-72.6,22.7-100.5c3.2-4.1-2.6-9.8-5.7-5.7c-23.2,29.9-25,69.9-25.1,106.2
			C135.2,241.9,143.3,241.9,143.3,236.8L143.3,236.8z"/>
		<path class="st41" d="M176.2,125.2c5.2,0,5.2-8.1,0-8.1C171,117.1,171,125.2,176.2,125.2z"/>
	</g>
</g>
</svg>
